<svg width="26" height="16" viewBox="0 0 26 16" fill="none" xmlns="http://www.w3.org/2000/svg">
<path d="M0.666504 4.26667C0.666504 2.77319 0.666504 2.02646 0.957153 1.45603C1.21282 0.95426 1.62076 0.546312 2.12253 0.290649C2.69296 0 3.4397 0 4.93317 0H15.0665C16.56 0 17.3067 0 17.8771 0.290649C18.3789 0.546312 18.7869 0.95426 19.0425 1.45603C19.3332 2.02646 19.3332 2.77319 19.3332 4.26667V11.7333C19.3332 13.2268 19.3332 13.9735 19.0425 14.544C18.7869 15.0457 18.3789 15.4537 17.8771 15.7094C17.3067 16 16.56 16 15.0665 16H4.93317C3.4397 16 2.69296 16 2.12253 15.7094C1.62076 15.4537 1.21282 15.0457 0.957153 14.544C0.666504 13.9735 0.666504 13.2268 0.666504 11.7333V4.26667Z" fill="#437EF7"/>
<path d="M25.9998 7.25302V8.74698C25.9998 10.7456 25.9998 11.7449 25.5815 12.4009C25.2152 12.9751 24.6432 13.3874 23.9826 13.5532C23.2665 13.7331 22.3761 13.4576 20.6665 12.8888V3.11117C22.3761 2.54239 23.2665 2.26693 23.9826 2.44676C24.6432 2.61262 25.2152 3.02494 25.5815 3.59914C25.9998 4.2551 25.9998 5.25441 25.9998 7.25302Z" fill="#437EF7"/>
</svg>
