<svg width="101" height="24" viewBox="0 0 101 24" fill="none" xmlns="http://www.w3.org/2000/svg">
<path d="M39.8493 8.56826H43.0208V18.5518H39.8493V8.56826Z" fill="white"/>
<path d="M43.6831 8.56825H46.7378V9.93319H46.7961C47.5355 8.86069 48.4888 8.2758 49.8703 8.2758C52.0494 8.2758 53.3335 9.83571 53.3335 12.0586V18.5518H50.1621V12.7021C50.1621 11.6491 49.6368 10.9276 48.6056 10.9276C47.555 10.9276 46.8545 11.8051 46.8545 13.0335V18.5518H43.6831V8.56825Z" fill="white"/>
<path d="M43.3374 5.89724C43.3374 4.84422 42.4857 3.99069 41.435 3.99069C40.3844 3.99069 39.5326 4.84422 39.5326 5.89724C39.5326 6.95017 40.3844 7.8037 41.435 7.8037C42.4857 7.8037 43.3374 6.95017 43.3374 5.89724Z" fill="white"/>
<path d="M75.6388 8.42405C75.5483 8.41589 75.4446 8.41225 75.3232 8.41225C74.1169 8.41225 73.2997 8.93871 72.5992 10.1282H72.5409V8.56826H69.5056V18.5517H72.677V14.067C72.677 11.989 73.8253 11.0261 75.6388 11.1941V8.42405Z" fill="white"/>
<path d="M91.2022 12.2535C89.9375 12.0196 88.8091 11.9221 88.8091 11.2202C88.8091 10.5961 89.4123 10.3037 90.1905 10.3037C91.066 10.3037 91.6693 10.5766 91.786 11.4736H94.7045C94.5489 9.50424 93.0312 8.27573 90.2101 8.27573C87.8557 8.27573 85.91 9.3677 85.91 11.4736C85.91 13.8134 87.7585 14.2814 89.4902 14.574C90.8132 14.808 92.0195 14.9055 92.0195 15.8024C92.0195 16.4459 91.4163 16.7969 90.463 16.7969C89.5065 16.7969 88.8739 16.3913 88.6799 15.5685H85.6579C85.8803 17.6208 87.6779 18.8638 90.4824 18.8638C93.0896 18.8638 95.0158 17.7328 95.0158 15.549C95.0158 12.9945 92.9534 12.546 91.2022 12.2535Z" fill="white"/>
<path d="M80.5585 10.5376C81.5897 10.5376 82.329 11.2981 82.4458 12.4876H78.5156C78.7295 11.2981 79.3522 10.5376 80.5585 10.5376ZM80.7336 16.5628C79.43 16.5628 78.6907 15.7244 78.496 14.3789H85.6562C85.6756 12.3511 85.092 10.6156 83.905 9.52374C83.049 8.74378 81.9205 8.27575 80.5 8.27575C77.4648 8.27575 75.383 10.5571 75.383 13.5406C75.383 16.5628 77.4065 18.8443 80.6947 18.8443C81.9593 18.8443 82.9711 18.5128 83.8078 17.9278C84.6833 17.3234 85.267 16.4654 85.481 15.5685H82.3874C82.1149 16.1924 81.5703 16.5628 80.7336 16.5628Z" fill="white"/>
<path d="M100.601 16.1976C100.454 16.2034 100.257 16.212 100.076 16.212C99.3948 16.212 98.9668 16.0169 98.9668 15.2369V10.5571H100.601V8.56825H98.9668V5.40938H95.8731V8.56825H94.8997V10.5571H95.8731V15.9194C95.8731 18.0644 97.1962 18.6688 99.0446 18.6688C99.7499 18.6688 100.283 18.6159 100.601 18.5536V16.1976Z" fill="white"/>
<path d="M58.9972 16.2021C58.8707 16.207 58.7246 16.212 58.5882 16.212C57.9073 16.212 57.4792 16.0169 57.4792 15.2369V10.5571H58.9972V8.56824H57.4792V5.40938H54.3856V8.56824H53.354V10.5571H54.3856V15.9194C54.3856 18.0644 55.7086 18.6688 57.557 18.6688C58.1824 18.6688 58.6721 18.6271 58.9972 18.5742V16.2021Z" fill="white"/>
<path d="M65.9052 12.4876C65.7885 11.2982 65.049 10.5376 64.0178 10.5376C62.8115 10.5376 62.1889 11.2982 61.9749 12.4876H65.9052ZM58.8424 13.5405C58.8424 10.5571 60.9242 8.27582 63.9595 8.27582C65.3798 8.27582 66.5083 8.74375 67.3644 9.5237C68.5513 10.6157 69.1349 12.3511 69.1155 14.379H61.9555C62.15 15.7244 62.8893 16.5629 64.193 16.5629C65.0296 16.5629 65.5744 16.1924 65.8467 15.5685H68.9404C68.7263 16.4654 68.1427 17.3233 67.2671 17.9279C66.4305 18.5128 65.4187 18.8443 64.154 18.8443C60.8658 18.8443 58.8424 16.5629 58.8424 13.5405Z" fill="white"/>
<path d="M34.3416 11.1617C35.5869 11.1617 36.2873 10.4207 36.2873 9.30912C36.2873 8.19777 35.5674 7.51529 34.3416 7.51529H31.9094V11.1617H34.3416ZM28.6986 4.60992H34.206C35.8986 4.60992 37.1439 5.07786 38 5.89686C38.895 6.73524 39.4009 7.9248 39.4009 9.32869C39.4009 12 37.5525 13.8915 34.6923 13.8915H31.9094V18.5518H28.6986V4.60992Z" fill="white"/>
<path d="M12.3725 0C5.75953 0 0.398621 5.37252 0.398621 12C0.398621 17.0838 3.55332 21.4283 8.00749 23.1767C7.90286 22.2273 7.80824 20.7671 8.04901 19.7306C8.26662 18.7941 9.45309 13.7659 9.45309 13.7659C9.45309 13.7659 9.09493 13.047 9.09493 11.9842C9.09493 10.3156 10.06 9.06991 11.2616 9.06991C12.2831 9.06991 12.7765 9.83855 12.7765 10.7603C12.7765 11.7899 12.1225 13.3292 11.7849 14.7557C11.5028 15.9501 12.3826 16.9241 13.558 16.9241C15.6862 16.9241 17.3221 14.6753 17.3221 11.4291C17.3221 8.55585 15.2621 6.54699 12.3205 6.54699C8.91354 6.54699 6.91378 9.10798 6.91378 11.7546C6.91378 12.786 7.31022 13.892 7.80491 14.4932C7.90276 14.612 7.9171 14.7161 7.88794 14.8374C7.79705 15.2164 7.59506 16.0315 7.5554 16.1983C7.50318 16.4179 7.38187 16.4646 7.15494 16.3587C5.65948 15.6611 4.72448 13.4699 4.72448 11.7099C4.72448 7.92453 7.46883 4.44813 12.6361 4.44813C16.7898 4.44813 20.0178 7.41449 20.0178 11.3788C20.0178 15.5144 17.4158 18.8428 13.8044 18.8428C12.591 18.8428 11.4504 18.2111 11.0599 17.4649C11.0599 17.4649 10.4595 19.756 10.314 20.3175C10.0437 21.3598 9.31391 22.6663 8.82579 23.4634C9.94611 23.811 11.1381 24 12.3725 24C18.9854 24 24.3463 18.6274 24.3463 12C24.3463 5.37252 18.9854 0 12.3725 0Z" fill="white"/>
</svg>
