<svg width="89" height="24" viewBox="0 0 89 24" fill="none" xmlns="http://www.w3.org/2000/svg">
<path fill-rule="evenodd" clip-rule="evenodd" d="M34.5612 9.2112C33.4242 9.2112 32.8936 10.1208 32.5904 10.6513C32.4388 10.9545 32.4388 11.2577 32.2873 11.2577C32.1357 11.2577 32.2115 11.0303 32.1357 10.5755C31.9841 9.89337 31.4535 9.2112 30.3165 9.2112C29.1038 9.2112 28.5732 10.1966 28.3458 10.8029C28.1942 11.1819 28.1942 11.2577 28.0426 11.2577C27.891 11.2577 28.0426 10.9545 28.1184 10.5755C28.27 9.89337 28.1942 9.36279 28.1942 9.36279H26.2993V16.4877H28.8764C28.8764 16.4877 28.8764 13.5316 28.8764 12.9252C28.8764 12.2431 29.1796 11.3335 29.6344 11.3335C30.2407 11.3335 30.3165 11.7883 30.3165 12.6221V16.4877H32.8936C32.8936 16.4877 32.8936 13.4558 32.8936 12.9252C32.8936 12.3189 33.121 11.3335 33.7274 11.3335C34.3338 11.3335 34.4096 11.9399 34.4096 12.6221V16.4877H36.9866C36.9866 16.4877 36.9866 13.6832 36.9866 12.3189C36.9109 10.4997 36.2287 9.2112 34.5612 9.2112Z" fill="white"/>
<path fill-rule="evenodd" clip-rule="evenodd" d="M78.5232 9.2112C77.3863 9.2112 76.8557 10.1208 76.5525 10.6513C76.4009 10.9545 76.4009 11.2577 76.2493 11.2577C76.0977 11.2577 76.1735 10.9545 76.0977 10.5755C75.8703 9.89337 75.4156 9.2112 74.2786 9.2112C73.0659 9.2112 72.5353 10.1966 72.3079 10.8029C72.1563 11.1819 72.1563 11.2577 72.0047 11.2577C71.8531 11.2577 72.0047 10.9545 72.0805 10.5755C72.2321 9.89337 72.1563 9.36279 72.1563 9.36279H70.2614V16.4877H72.8385C72.8385 16.4877 72.8385 13.5316 72.8385 12.9252C72.8385 12.2431 73.1417 11.3335 73.5964 11.3335C74.2028 11.3335 74.2786 11.7883 74.2786 12.6221V16.4877H76.8557C76.8557 16.4877 76.8557 13.4558 76.8557 12.9252C76.8557 12.3189 77.0831 11.3335 77.6895 11.3335C78.2958 11.3335 78.3716 11.9399 78.3716 12.6221V16.4877H80.9487C80.9487 16.4877 80.9487 13.6832 80.9487 12.3189C80.8729 10.4997 80.2665 9.2112 78.5232 9.2112Z" fill="white"/>
<path d="M41.3071 9.2112C39.3363 9.2112 37.8962 9.96917 37.8962 9.96917V12.0915C37.8962 12.0915 39.4879 11.1819 40.7765 11.1819C41.7618 11.1819 41.9134 11.7125 41.8376 12.1673C41.8376 12.1673 41.5344 12.0915 40.6249 12.0915C38.5026 12.0915 37.4414 13.0768 37.4414 14.5928C37.4414 16.0329 38.6542 16.6393 39.6395 16.6393C41.0797 16.6393 41.7618 15.6539 41.9892 15.1991C42.1408 14.896 42.1408 14.6686 42.2924 14.6686C42.444 14.6686 42.3682 14.8202 42.3682 15.1233C42.3682 15.6539 42.3682 16.1087 42.444 16.4877H44.4147V13.001C44.4905 10.8029 43.6567 9.2112 41.3071 9.2112ZM40.7007 14.896C40.0943 15.0475 39.7911 14.8202 39.7911 14.4412C39.7911 13.9106 40.3975 13.6832 41.2313 13.6832H41.9134C41.9134 13.9106 41.3829 14.7444 40.7007 14.896Z" fill="white"/>
<path fill-rule="evenodd" clip-rule="evenodd" d="M48.7351 7.24049H51.3122V16.5635H48.7351V7.24049Z" fill="white"/>
<path fill-rule="evenodd" clip-rule="evenodd" d="M54.1925 13.001C54.1925 12.3947 54.7989 11.7883 55.86 11.7883C57.0728 11.7883 57.9823 12.3947 58.2097 12.4705V9.96917C58.2097 9.96917 57.4517 9.2112 55.5568 9.2112C53.5861 9.2112 51.9944 10.3482 51.9944 12.8494C51.9944 15.3507 53.5103 16.7151 55.5568 16.7151C57.2244 16.7151 58.2097 15.8055 58.2097 15.8055V13.4558C57.9065 13.6074 56.997 14.2138 55.86 14.2138C54.6473 14.2138 54.1925 13.6832 54.1925 13.001Z" fill="white"/>
<path fill-rule="evenodd" clip-rule="evenodd" d="M63.4397 9.2112C61.9238 9.2112 61.3932 10.6513 61.2416 10.8787C61.09 11.1061 61.09 11.2577 60.9384 11.2577C60.7868 11.2577 60.8626 10.9545 60.9384 10.7271C61.09 10.3482 61.3174 9.43859 61.3174 8.22584C61.3174 7.39208 61.2416 7.16469 61.2416 7.16469H58.9677V16.4877H61.5448C61.5448 16.4877 61.5448 13.5316 61.5448 12.9252C61.5448 12.3189 61.7722 11.3335 62.4543 11.3335C62.9849 11.3335 63.1365 11.7125 63.1365 12.5463V16.4877H65.7136C65.7136 16.4877 65.7136 14.2896 65.7136 12.6978C65.8652 10.9545 65.562 9.2112 63.4397 9.2112Z" fill="white"/>
<path fill-rule="evenodd" clip-rule="evenodd" d="M66.6989 9.43859V16.5635H69.276V9.43859C69.276 9.43859 68.8213 9.66598 67.9875 9.66598C67.1537 9.66598 66.6989 9.43859 66.6989 9.43859Z" fill="white"/>
<path fill-rule="evenodd" clip-rule="evenodd" d="M67.9875 9.287C68.8666 9.287 69.5792 8.8119 69.5792 8.22584C69.5792 7.63978 68.8666 7.16469 67.9875 7.16469C67.1084 7.16469 66.3958 7.63978 66.3958 8.22584C66.3958 8.8119 67.1084 9.287 67.9875 9.287Z" fill="white"/>
<path fill-rule="evenodd" clip-rule="evenodd" d="M45.3243 16.5635H47.9014V9.43859C47.9014 9.43859 47.4466 9.66598 46.6128 9.66598C45.7791 9.66598 45.3243 9.43859 45.3243 9.43859V16.5635Z" fill="white"/>
<path fill-rule="evenodd" clip-rule="evenodd" d="M46.6128 9.287C47.4919 9.287 48.2046 8.8119 48.2046 8.22584C48.2046 7.63978 47.4919 7.16469 46.6128 7.16469C45.7337 7.16469 45.0211 7.63978 45.0211 8.22584C45.0211 8.8119 45.7337 9.287 46.6128 9.287Z" fill="white"/>
<path d="M86.0271 9.2112C84.6628 9.2112 84.0564 10.1966 83.829 10.8029C83.6774 11.1819 83.6774 11.2577 83.5258 11.2577C83.3742 11.2577 83.5258 10.9545 83.6016 10.5755C83.7532 9.89337 83.6774 9.36279 83.6774 9.36279H81.7825V18.4584H84.3596C84.3596 18.4584 84.3596 16.9425 84.3596 15.5781C84.6628 16.1087 85.2691 16.6393 86.1029 16.6393C87.9978 16.6393 88.9074 15.0475 88.9074 12.9252C88.9074 10.5755 87.7704 9.2112 86.0271 9.2112ZM85.3449 15.0475C84.7385 15.0475 84.2838 14.2896 84.2838 13.2284C84.2838 12.2431 84.7385 11.4093 85.2691 11.4093C86.0271 11.4093 86.3303 12.0915 86.3303 13.2284C86.3303 14.3654 86.0271 15.0475 85.3449 15.0475Z" fill="white"/>
<path fill-rule="evenodd" clip-rule="evenodd" d="M16.9763 11.4093H17.5069C17.5827 11.1819 17.5827 10.8787 17.5069 10.4997C17.3553 9.96917 17.2037 9.59019 16.9005 9.66598C16.5973 9.74178 16.5215 10.1208 16.6731 10.7271C16.7489 10.9545 16.9005 11.2577 16.9763 11.4093Z" fill="white"/>
<path fill-rule="evenodd" clip-rule="evenodd" d="M14.1718 11.8641C14.3992 11.9399 14.5508 12.0157 14.6266 11.9399C14.6266 11.9399 14.6266 11.8641 14.6266 11.7125C14.475 11.4851 14.2476 11.3335 14.0203 11.1819C13.4897 10.9545 12.8833 11.0303 12.4285 11.4093C12.2769 11.5609 12.1253 11.7125 12.1253 11.7883C12.1253 11.7883 12.1253 11.8641 12.2011 11.8641C12.3527 11.8641 12.8075 11.6367 13.3381 11.6367C13.6413 11.6367 13.9445 11.7125 14.1718 11.8641Z" fill="white"/>
<path fill-rule="evenodd" clip-rule="evenodd" d="M13.7171 12.0915C13.4139 12.1673 13.2623 12.2431 13.1107 12.3189C13.0349 12.3947 12.9591 12.4705 12.9591 12.5463V12.6221H13.0349C13.1107 12.6221 13.2623 12.5463 13.2623 12.5463C13.7171 12.3947 13.9445 12.3947 14.2476 12.4705H14.475V12.3947C14.3992 12.2431 14.0961 12.0915 13.7171 12.0915Z" fill="white"/>
<path fill-rule="evenodd" clip-rule="evenodd" d="M16.0668 13.1526C16.2942 13.2284 16.5215 13.2284 16.5973 13.0768C16.6731 12.9252 16.5973 12.6978 16.37 12.6221C16.1426 12.5463 15.9152 12.5463 15.8394 12.6978C15.7636 12.7736 15.8394 13.001 16.0668 13.1526Z" fill="white"/>
<path fill-rule="evenodd" clip-rule="evenodd" d="M17.4311 11.9399C17.2795 11.9399 17.1279 12.0915 17.1279 12.3947C17.1279 12.6221 17.2795 12.8494 17.4311 12.8494C17.5827 12.8494 17.7343 12.6978 17.7343 12.3947C17.7343 12.1673 17.5827 11.9399 17.4311 11.9399Z" fill="white"/>
<path fill-rule="evenodd" clip-rule="evenodd" d="M5.91001 16.1845C5.83421 16.1087 5.83421 16.1845 5.75842 16.1845C5.68262 16.1845 5.68262 16.1845 5.60682 16.1845C5.45523 16.1845 5.37943 16.1087 5.30364 16.0329C5.22784 15.8813 5.22784 15.7297 5.30364 15.5023C5.30364 15.5023 5.30364 15.4265 5.37943 15.4265C5.53103 15.1233 5.75842 14.5928 5.45523 14.138C5.22784 13.759 4.92465 13.5316 4.54567 13.4558C4.16669 13.38 3.7877 13.5316 3.56031 13.8348C3.18133 14.2138 3.10553 14.8202 3.18133 15.0475C3.18133 15.1233 3.25713 15.1233 3.25713 15.1233C3.33292 15.1233 3.40872 15.0475 3.48452 14.896C3.48452 14.896 3.48452 14.896 3.48452 14.8202C3.48452 14.7444 3.56031 14.5928 3.63611 14.4412C3.71191 14.2896 3.8635 14.2138 4.09089 14.138C4.24248 14.0622 4.46987 14.138 4.62147 14.2138C4.84886 14.3654 5.00045 14.7444 4.84886 15.0475C4.77306 15.1991 4.69726 15.5023 4.69726 15.7297C4.77306 16.2603 5.07625 16.4119 5.30364 16.4877C5.60682 16.4877 5.75842 16.3361 5.83421 16.2603C5.98581 16.1845 5.98581 16.1845 5.91001 16.1845Z" fill="white"/>
<path d="M21.6757 15.1991C21.6757 15.1991 21.5999 14.896 21.5241 14.5928C21.4483 14.2896 21.3725 14.0622 21.3725 14.0622C21.7515 13.5316 21.7515 13.001 21.6757 12.6978C21.5999 12.3189 21.4483 12.0157 21.1451 11.7125C20.842 11.4093 20.2356 11.1061 19.4018 10.8787C19.326 10.8787 19.0228 10.7271 18.947 10.7271C18.947 10.7271 18.947 9.66598 18.8712 9.2112C18.8712 8.90801 18.7954 8.37744 18.6439 7.92266C18.4923 7.24049 18.1133 6.70991 17.7343 6.33093C18.8712 5.19398 19.5534 3.90543 19.5534 2.84428C19.5534 0.797771 16.9763 0.115601 13.8687 1.40414L13.1865 1.70733L11.9737 0.494584C8.4113 -2.61308 -2.8824 9.81757 0.755836 12.9252L1.5138 13.6074C1.28641 14.138 1.21062 14.7444 1.28641 15.4265C1.36221 16.2603 1.81699 17.0941 2.49916 17.7004C3.18133 18.3068 4.01509 18.6858 4.84886 18.6858C6.2132 21.945 9.47245 23.9158 13.1865 23.9916C17.2037 24.1431 20.6146 22.2482 21.9789 18.8374C22.0547 18.61 22.4337 17.5488 22.4337 16.5635C22.5853 15.6539 22.0547 15.1991 21.6757 15.1991ZM5.22784 17.7762C5.07625 17.7762 5.00045 17.7762 4.84886 17.7762C3.63611 17.7762 2.34757 16.6393 2.19597 15.3507C2.04438 13.9106 2.80235 12.8494 4.09089 12.5463C4.24248 12.5463 4.46987 12.4705 4.62147 12.4705C5.37943 12.5463 6.44059 13.0768 6.66798 14.6686C6.89537 16.1087 6.59218 17.5488 5.22784 17.7762ZM3.9393 11.7125C3.10553 11.8641 2.42336 12.3189 1.96858 12.9252C1.74119 12.6978 1.21062 12.3189 1.13482 12.0915C0.45265 10.8029 1.89279 8.22584 2.87814 6.78571C5.37943 3.22326 9.32086 0.494584 11.14 1.02516C11.4432 1.10096 12.4285 2.23791 12.4285 2.23791C12.4285 2.23791 10.6094 3.22326 8.94188 4.6634C6.66798 6.40672 4.92465 8.98381 3.9393 11.7125ZM16.6731 17.2456C16.6731 17.1699 16.6731 17.0941 16.6731 17.0941C16.6731 17.0941 14.7782 17.3972 12.9591 16.7151C13.1865 16.1087 13.6413 16.3361 14.475 16.3361C15.9152 16.4119 17.1279 16.1845 18.1133 15.9571C18.947 15.7297 20.0082 15.2749 20.842 14.5928C21.1451 15.1991 21.2209 15.8813 21.2209 15.8813C21.2209 15.8813 21.4483 15.8055 21.5999 15.9571C21.7515 16.0329 21.9031 16.2603 21.8273 16.8667C21.6757 17.9278 21.2209 18.7616 20.463 19.5953C20.0082 20.1259 19.4776 20.5049 18.7954 20.8081C18.4923 20.9597 18.1133 21.1113 17.7343 21.2629C14.854 22.1724 11.9737 21.1871 11.0642 18.989C10.9884 18.8374 10.9126 18.6858 10.9126 18.4584C10.5336 17.0183 10.8368 15.2749 11.8979 14.2138C11.9737 14.138 12.0495 14.0622 12.0495 13.9864C12.0495 13.9106 11.9737 13.8348 11.9737 13.759C11.5948 13.2284 10.3062 12.3189 10.6094 10.4997C10.761 9.2112 11.8979 8.30164 12.9591 8.37744H13.1865C13.6413 8.37744 14.0203 8.45323 14.3992 8.45323C15.0056 8.45323 15.612 8.37744 16.2184 7.84686C16.4457 7.69527 16.5973 7.46788 16.9005 7.46788H17.2037C17.3553 7.46788 17.5069 7.54367 17.6585 7.61947C18.1891 7.99845 18.2649 8.83222 18.2649 9.43859C18.2649 9.81757 18.3407 10.6513 18.3407 10.8787C18.3407 11.4093 18.4923 11.5609 18.7954 11.6367C18.947 11.7125 19.0986 11.7125 19.326 11.7883C20.0082 12.0157 20.463 12.1673 20.6904 12.4705C20.842 12.6221 20.9178 12.7736 20.9178 13.001C20.9935 13.6074 20.463 14.3654 19.0228 15.0475C17.4311 15.8055 15.4604 15.9571 14.1718 15.8055C14.096 15.8055 13.7171 15.7297 13.7171 15.7297C12.6559 15.5781 12.0495 16.9425 12.6559 17.9278C13.0349 18.5342 14.1718 18.9132 15.3088 18.9132C17.8859 18.9132 19.8566 17.7762 20.6146 16.8667C20.6146 16.8667 20.6146 16.8667 20.6904 16.7909C20.6904 16.7151 20.6904 16.7151 20.6146 16.7151C20.0082 17.0941 17.3553 18.7616 14.475 18.3068C14.475 18.3068 14.096 18.231 13.7929 18.1552C13.5655 18.0794 13.0349 17.7762 12.9591 17.2456C15.1572 17.9278 16.6731 17.2456 16.6731 17.2456ZM8.56289 6.78571C9.47245 5.72455 10.5336 4.89079 11.519 4.36021C11.519 4.36021 11.5948 4.36021 11.5948 4.43601C11.519 4.5876 11.3674 4.89079 11.2916 5.11818C11.2916 5.11818 11.2916 5.19398 11.3674 5.19398C11.9737 4.81499 13.0349 4.36021 13.9445 4.28442C14.0203 4.28442 14.0203 4.36021 13.9445 4.36021C13.7929 4.43601 13.6413 4.5876 13.5655 4.7392V4.81499C14.2476 4.81499 15.1572 5.04238 15.7636 5.42137C15.8394 5.42137 15.7636 5.49716 15.7636 5.49716C14.854 5.26977 13.3381 5.11818 11.8222 5.49716C10.382 5.80035 9.32086 6.33093 8.56289 6.78571C8.56289 6.9373 8.4871 6.8615 8.56289 6.78571Z" fill="white"/>
</svg>
