<svg width="91" height="24" viewBox="0 0 91 24" fill="none" xmlns="http://www.w3.org/2000/svg">
<path d="M15.7015 1.16481C14.5759 0.389077 13.107 0.000270601 11.2949 0.000270601H4.27948C3.72397 0.000270601 3.41706 0.278776 3.35876 0.83525L0.508946 18.7682C0.479327 18.9443 0.523286 19.1054 0.64042 19.2518C0.756884 19.3985 0.903368 19.4715 1.0788 19.4715H4.41109C4.99556 19.4715 5.3168 19.1937 5.37577 18.6365L6.16489 13.8018C6.1937 13.5675 6.2965 13.377 6.47193 13.2303C6.64723 13.0839 6.86649 12.9881 7.12957 12.9443C7.39265 12.9007 7.64072 12.8787 7.87499 12.8787C8.10859 12.8787 8.38615 12.8936 8.7082 12.9228C9.02945 12.9519 9.23423 12.9663 9.32201 12.9663C11.8357 12.9663 13.8088 12.2563 15.2413 10.8346C16.6732 9.41371 17.3899 7.44335 17.3899 4.92269C17.3899 3.19388 16.8266 1.94135 15.7015 1.16441V1.16481ZM12.0845 6.54952C11.9378 7.57528 11.5583 8.24891 10.9445 8.57134C10.3305 8.89418 9.45362 9.05487 8.31378 9.05487L6.86675 9.09866L7.61231 4.3955C7.67048 4.07347 7.86038 3.91225 8.18217 3.91225H9.01551C10.1842 3.91225 11.0324 4.08113 11.5586 4.41754C12.0844 4.75475 12.2599 5.46559 12.0845 6.54952Z" fill="white"/>
<path d="M89.7359 0H86.4917C86.1692 0 85.9795 0.161221 85.9216 0.483793L83.0715 18.7687L83.0275 18.8566C83.0275 19.0038 83.086 19.1423 83.2032 19.2743C83.3194 19.4059 83.4663 19.4719 83.6415 19.4719H86.5358C87.0902 19.4719 87.3973 19.1941 87.4566 18.6369L90.3065 0.659655V0.615992C90.3063 0.205555 90.1157 0.000539151 89.7359 0.000539151V0Z" fill="white"/>
<path d="M50.5375 7.07751C50.5375 6.93134 50.4788 6.79189 50.3626 6.66036C50.2454 6.52856 50.1138 6.46219 49.968 6.46219H46.5918C46.2697 6.46219 46.0066 6.60944 45.8023 6.90165L41.1548 13.7587L39.2255 7.16565C39.0786 6.69717 38.7575 6.46219 38.261 6.46219H34.972C34.8255 6.46219 34.694 6.5283 34.5778 6.66036C34.4606 6.79189 34.4024 6.93161 34.4024 7.07751C34.4024 7.13649 34.6874 8.00063 35.2573 9.67086C35.8272 11.3416 36.441 13.1438 37.0988 15.0779C37.7565 17.0116 38.0998 18.0377 38.1291 18.1539C35.732 21.4363 34.534 23.1944 34.534 23.4285C34.534 23.8098 34.7236 24 35.104 24H38.4801C38.8015 24 39.0644 23.8538 39.2695 23.5607L50.4504 7.38504C50.5085 7.327 50.5375 7.22489 50.5375 7.07738V7.07751Z" fill="white"/>
<path d="M81.9761 6.46219H78.6437C78.234 6.46219 77.9865 6.94585 77.8987 7.91303C77.1377 6.74124 75.7502 6.15454 73.7328 6.15454C71.6283 6.15454 69.8376 6.94585 68.3618 8.52822C66.8854 10.1106 66.1476 11.9719 66.1476 14.1107C66.1476 15.8399 66.6518 17.217 67.66 18.2422C68.6685 19.2685 70.0203 19.7806 71.7163 19.7806C72.5639 19.7806 73.4261 19.6045 74.303 19.2532C75.1799 18.9016 75.8663 18.433 76.3641 17.8467C76.3641 17.8761 76.3343 18.0075 76.2765 18.2418C76.2174 18.4766 76.1886 18.653 76.1886 18.7693C76.1886 19.2387 76.3781 19.4724 76.7587 19.4724H79.7844C80.3391 19.4724 80.661 19.1946 80.7484 18.6375L82.5464 7.16538C82.5752 6.98938 82.5315 6.82856 82.4148 6.68186C82.2972 6.53568 82.1514 6.46219 81.9761 6.46219ZM76.2542 15.1215C75.5088 15.8541 74.6098 16.2202 73.5576 16.2202C72.7095 16.2202 72.0232 15.9862 71.4968 15.5171C70.9703 15.0493 70.7073 14.4045 70.7073 13.5831C70.7073 12.4997 71.0727 11.5832 71.8038 10.8361C72.5336 10.0888 73.4406 9.71533 74.5222 9.71533C75.34 9.71533 76.0197 9.95702 76.561 10.4403C77.1013 10.9239 77.3725 11.5906 77.3725 12.4406C77.3722 13.4954 76.9995 14.3893 76.2542 15.1215Z" fill="white"/>
<path d="M32.166 6.46219H28.8336C28.4237 6.46219 28.1758 6.94585 28.088 7.91303C27.2987 6.74124 25.9102 6.15454 23.9225 6.15454C21.8178 6.15454 20.0272 6.94585 18.5512 8.52822C17.0748 10.1106 16.3371 11.9719 16.3371 14.1107C16.3371 15.8399 16.8414 17.217 17.8499 18.2422C18.8584 19.2685 20.21 19.7806 21.9056 19.7806C22.7237 19.7806 23.5719 19.6045 24.4487 19.2532C25.3256 18.9016 26.0272 18.433 26.5533 17.8467C26.4361 18.198 26.3779 18.5058 26.3779 18.7693C26.3779 19.2387 26.5678 19.4724 26.9479 19.4724H29.9733C30.5282 19.4724 30.8502 19.1946 30.9379 18.6375L32.7356 7.16538C32.7644 6.98938 32.7207 6.82856 32.6041 6.68186C32.4871 6.53568 32.3411 6.46219 32.166 6.46219ZM26.444 15.1433C25.6984 15.8621 24.7845 16.2202 23.7036 16.2202C22.8554 16.2202 22.1758 15.9862 21.6647 15.5171C21.1528 15.0493 20.8972 14.4045 20.8972 13.5831C20.8972 12.4997 21.2625 11.5832 21.9935 10.8361C22.7238 10.0888 23.6301 9.71519 24.712 9.71519C25.5301 9.71519 26.2097 9.95702 26.751 10.4403C27.2914 10.9239 27.5621 11.5906 27.5621 12.4406C27.562 13.5248 27.1894 14.4261 26.444 15.1433Z" fill="white"/>
<path d="M65.5117 1.16481C64.3862 0.389077 62.9177 0.000270601 61.1052 0.000270601H54.1335C53.5487 0.000270601 53.2269 0.278776 53.1689 0.83525L50.3188 18.7682C50.2892 18.9443 50.3332 19.1054 50.4504 19.2518C50.5664 19.3985 50.7132 19.4715 50.8887 19.4715H54.4839C54.8347 19.4715 55.0684 19.2813 55.1857 18.9002L55.9749 13.8018C56.004 13.5675 56.1062 13.377 56.2819 13.2303C56.4574 13.0839 56.6764 12.9881 56.9397 12.9443C57.2025 12.9007 57.4506 12.8787 57.685 12.8787C57.9187 12.8787 58.1962 12.8936 58.5179 12.9228C58.8393 12.9519 59.0446 12.9663 59.1318 12.9663C61.646 12.9663 63.6186 12.2563 65.0512 10.8346C66.4836 9.41371 67.1997 7.44335 67.1997 4.92269C67.1998 3.19388 66.6368 1.94121 65.5117 1.16441V1.16481ZM61.0176 8.39535C60.3744 8.8348 59.4096 9.05446 58.1238 9.05446L56.7205 9.09853L57.4659 4.39523C57.5238 4.07333 57.7138 3.91184 58.0357 3.91184H58.8247C59.4679 3.91184 59.9793 3.94127 60.3599 3.99971C60.7392 4.05856 61.1052 4.2414 61.4559 4.54893C61.8069 4.85672 61.9821 5.30384 61.9821 5.8896C61.9821 7.12078 61.6602 7.95549 61.0176 8.39535Z" fill="white"/>
</svg>
