<svg width="74" height="24" viewBox="0 0 74 24" fill="none" xmlns="http://www.w3.org/2000/svg">
<path d="M18.5022 8.47741H9.9593V11.0123H16.0185C15.7183 14.5605 12.7617 16.0835 9.96954 16.0835C9.085 16.0874 8.20855 15.915 7.39135 15.5764C6.57416 15.2379 5.83259 14.7399 5.20996 14.1116C4.58732 13.4834 4.09609 12.7373 3.76493 11.9171C3.43378 11.0969 3.26934 10.2189 3.28122 9.33443C3.28122 5.49694 6.25214 2.5424 9.97773 2.5424C12.8517 2.5424 14.5453 4.37449 14.5453 4.37449L16.3194 2.53626C16.3194 2.53626 14.0404 0 9.88493 0C4.59337 0 0.5 4.46593 0.5 9.2894C0.5 14.016 4.35045 18.6252 10.0187 18.6252C15.0045 18.6252 18.6544 15.2094 18.6544 10.1587C18.6544 9.09288 18.4995 8.47741 18.4995 8.47741H18.5022Z" fill="white"/>
<path d="M25.501 6.64123C21.9951 6.64123 19.4827 9.3822 19.4827 12.5776C19.4827 15.8215 21.9187 18.6129 25.5419 18.6129C28.8213 18.6129 31.5077 16.1067 31.5077 12.6472C31.5077 8.68962 28.3825 6.64123 25.501 6.64123ZM25.5351 8.99258C27.2587 8.99258 28.8922 10.3866 28.8922 12.6322C28.8922 14.8293 27.2655 16.2636 25.5269 16.2636C23.6164 16.2636 22.1152 14.7338 22.1152 12.6144C22.1152 10.5401 23.6027 8.99258 25.5406 8.99258H25.5351Z" fill="white"/>
<path d="M38.589 6.64123C35.0831 6.64123 32.5707 9.3822 32.5707 12.5776C32.5707 15.8215 35.0067 18.6129 38.6299 18.6129C41.9093 18.6129 44.5956 16.1067 44.5956 12.6472C44.5956 8.68962 41.4705 6.64123 38.589 6.64123ZM38.6231 8.99258C40.3467 8.99258 41.9802 10.3866 41.9802 12.6322C41.9802 14.8293 40.3535 16.2636 38.6149 16.2636C36.7044 16.2636 35.2032 14.7338 35.2032 12.6144C35.2032 10.5401 36.6907 8.99258 38.6286 8.99258H38.6231Z" fill="white"/>
<path d="M51.4259 6.64805C48.208 6.64805 45.6792 9.46612 45.6792 12.6295C45.6792 16.2322 48.6112 18.6218 51.3699 18.6218C53.0758 18.6218 53.9833 17.9442 54.6452 17.167V18.3475C54.6452 20.4129 53.391 21.65 51.4982 21.65C49.6695 21.65 48.7525 20.2901 48.4277 19.5191L46.1268 20.4743C46.9429 22.2007 48.586 24 51.5173 24C54.7243 24 57.1548 21.985 57.1548 17.7586V7.00765H54.6547V8.02161C53.8837 7.18915 52.8274 6.64805 51.4272 6.64805H51.4259ZM51.6579 8.99531C53.2355 8.99531 54.8553 10.3422 54.8553 12.6424C54.8553 14.9808 53.2382 16.2691 51.6231 16.2691C49.9077 16.2691 48.3117 14.8771 48.3117 12.6643C48.3117 10.3661 49.9698 8.99531 51.6579 8.99531Z" fill="white"/>
<path d="M68.3288 6.63372C65.2938 6.63372 62.7453 9.04921 62.7453 12.611C62.7453 16.3817 65.5858 18.6177 68.6134 18.6177C71.1462 18.6177 72.7074 17.2325 73.6286 15.9907L71.5591 14.6137C71.0221 15.4462 70.1241 16.2616 68.6264 16.2616C66.9437 16.2616 66.1699 15.3404 65.6902 14.4465L73.7166 11.1167L73.3072 10.141C72.5321 8.2304 70.7225 6.63372 68.3288 6.63372ZM68.4333 8.93594C69.527 8.93594 70.3138 9.5173 70.6481 10.2147L65.2877 12.4548C65.0557 10.7203 66.7001 8.93594 68.4264 8.93594H68.4333Z" fill="white"/>
<path d="M58.9125 18.2629H61.5491V0.619565H58.9125V18.2629Z" fill="white"/>
</svg>
