<svg width="81" height="24" viewBox="0 0 81 24" fill="none" xmlns="http://www.w3.org/2000/svg">
<path d="M56.82 4.70399H52.596C52.5 4.70399 52.404 4.80001 52.404 4.89601V7.34399C52.404 7.43999 52.5 7.53601 52.596 7.53601H56.82C56.916 7.53601 57.012 7.43999 57.012 7.34399V4.89601C57.06 4.80001 56.964 4.70399 56.82 4.70399ZM56.772 8.352H48.612C48.516 8.352 48.372 8.44799 48.324 8.54399L47.268 12.528L47.22 12.72L45.972 8.448C45.924 8.352 45.828 8.25601 45.684 8.25601H42.516C42.42 8.25601 42.276 8.352 42.228 8.448L41.028 12.432L40.98 12.624L40.932 12.528L40.452 10.56L39.924 8.592C39.876 8.496 39.78 8.4 39.636 8.4H33.252V4.94399C33.252 4.84799 33.108 4.704 32.964 4.752L28.932 6C28.788 6.048 28.74 6.096 28.74 6.192V8.352H27.684C27.588 8.352 27.492 8.44799 27.492 8.54399V11.616C27.492 11.712 27.588 11.808 27.684 11.808H28.74V15.552C28.74 18.192 30.18 19.44 32.82 19.44C33.924 19.44 34.98 19.2 35.7 18.816V15.648C35.7 15.504 35.556 15.456 35.46 15.456C35.028 15.648 34.692 15.696 34.308 15.696C33.588 15.696 33.204 15.408 33.204 14.592V11.856H35.508C35.604 11.856 35.7 11.76 35.7 11.664V9.072L38.724 19.104C38.772 19.2 38.868 19.296 39.012 19.296H42.372C42.468 19.296 42.612 19.2 42.66 19.104L44.1 14.64L44.82 16.944L45.492 19.056C45.54 19.152 45.636 19.248 45.78 19.248H49.14C49.236 19.248 49.38 19.152 49.428 19.056L52.5 8.97601V19.056C52.5 19.152 52.596 19.248 52.692 19.248H56.772C56.868 19.248 56.964 19.152 56.964 19.056V8.592C56.964 8.448 56.868 8.352 56.772 8.352ZM62.148 4.70399H58.068C57.972 4.70399 57.876 4.80001 57.876 4.89601V19.056C57.876 19.152 57.972 19.248 58.068 19.248H62.148C62.244 19.248 62.34 19.152 62.34 19.056V4.89601C62.34 4.80001 62.244 4.70399 62.148 4.70399ZM67.572 4.70399H63.348C63.252 4.70399 63.156 4.80001 63.156 4.89601V7.34399C63.156 7.43999 63.252 7.53601 63.348 7.53601H67.572C67.668 7.53601 67.764 7.43999 67.764 7.34399V4.89601C67.812 4.80001 67.716 4.70399 67.572 4.70399ZM67.524 8.352H63.444C63.348 8.352 63.252 8.44799 63.252 8.54399V19.056C63.252 19.152 63.348 19.248 63.444 19.248H67.524C67.62 19.248 67.716 19.152 67.716 19.056V8.592C67.716 8.448 67.62 8.352 67.524 8.352ZM74.292 8.112C70.692 8.112 68.148 10.752 68.148 13.824V13.872C68.148 16.944 70.692 19.536 74.244 19.536C77.844 19.536 80.388 16.896 80.388 13.824V13.776C80.388 10.704 77.844 8.112 74.292 8.112ZM76.02 13.824C76.02 14.88 75.3 15.696 74.292 15.696C73.284 15.696 72.516 14.832 72.516 13.776V13.728C72.516 12.672 73.236 11.856 74.244 11.856C75.252 11.856 76.02 12.72 76.02 13.824ZM12.612 0C5.988 0 0.612 5.376 0.612 12C0.612 18.624 5.988 24 12.612 24C19.236 24 24.612 18.624 24.612 12C24.612 5.376 19.236 0 12.612 0ZM12.612 20.832C7.716 20.832 3.78 16.896 3.78 12C3.78 7.104 7.716 3.168 12.612 3.168C17.508 3.168 21.444 7.104 21.444 12C21.444 16.896 17.508 20.832 12.612 20.832Z" fill="white"/>
<path d="M15.588 11.52C16.9665 11.52 18.084 10.4025 18.084 9.02399C18.084 7.64549 16.9665 6.528 15.588 6.528C14.2095 6.528 13.092 7.64549 13.092 9.02399C13.092 10.4025 14.2095 11.52 15.588 11.52Z" fill="white"/>
<path d="M15.588 17.472C16.9665 17.472 18.084 16.3545 18.084 14.976C18.084 13.5975 16.9665 12.48 15.588 12.48C14.2095 12.48 13.092 13.5975 13.092 14.976C13.092 16.3545 14.2095 17.472 15.588 17.472Z" fill="white"/>
<path d="M9.636 17.472C11.0145 17.472 12.132 16.3545 12.132 14.976C12.132 13.5975 11.0145 12.48 9.636 12.48C8.2575 12.48 7.14001 13.5975 7.14001 14.976C7.14001 16.3545 8.2575 17.472 9.636 17.472Z" fill="white"/>
<path d="M9.636 11.52C11.0145 11.52 12.132 10.4025 12.132 9.02399C12.132 7.64549 11.0145 6.528 9.636 6.528C8.2575 6.528 7.14001 7.64549 7.14001 9.02399C7.14001 10.4025 8.2575 11.52 9.636 11.52Z" fill="white"/>
</svg>
