<svg width="94" height="24" viewBox="0 0 94 24" fill="none" xmlns="http://www.w3.org/2000/svg">
<path d="M30.1473 18.4416L31.3172 15.8106C32.5815 16.7241 34.2609 17.1992 35.9214 17.1992C37.1479 17.1992 37.9215 16.7424 37.9215 16.0481C37.9027 14.1114 30.5813 15.6279 30.5247 10.7678C30.5059 8.30124 32.7702 6.40111 35.978 6.40111C37.8838 6.40111 39.7896 6.85787 41.1482 7.89931L40.0538 10.5851C38.8084 9.81772 37.2611 9.26962 35.7893 9.26962C34.7892 9.26962 34.1288 9.72643 34.1288 10.311C34.1476 12.2112 41.5256 11.1698 41.6011 15.8106C41.6011 18.3319 39.3933 20.1042 36.2233 20.1042C33.9023 20.1042 31.7701 19.5744 30.1473 18.4416Z" fill="white"/>
<path d="M75.0376 14.8605C74.4527 15.8472 73.3582 16.5231 72.094 16.5231C70.2259 16.5231 68.7164 15.0615 68.7164 13.2527C68.7164 11.4439 70.2259 9.98218 72.094 9.98218C73.3582 9.98218 74.4527 10.6582 75.0376 11.6449L78.2643 9.90908C77.0567 7.82623 74.7357 6.40111 72.094 6.40111C68.188 6.40111 65.018 9.4706 65.018 13.2527C65.018 17.0347 68.188 20.1042 72.094 20.1042C74.7546 20.1042 77.0567 18.6974 78.2643 16.5962L75.0376 14.8605Z" fill="white"/>
<path d="M43.2238 0.718873H47.2619V19.8484H43.2238V0.718873Z" fill="white"/>
<path d="M79.8493 0.718873V19.8484H83.8874V14.1114L88.6802 19.8484H93.8504L87.7556 13.0335L93.3976 6.67517H88.4538L83.8874 11.9555V0.718873H79.8493Z" fill="white"/>
<path d="M59.2628 14.897C58.6778 15.8288 57.4702 16.5231 56.1116 16.5231C54.2435 16.5231 52.734 15.0615 52.734 13.2527C52.734 11.4439 54.2435 9.98218 56.1116 9.98218C57.4702 9.98218 58.6778 10.713 59.2628 11.6631V14.897ZM59.2628 6.67517V8.22821C58.6024 7.15021 56.9608 6.40111 55.2437 6.40111C51.6962 6.40111 48.9035 9.43409 48.9035 13.2344C48.9035 17.0347 51.6962 20.1042 55.2437 20.1042C56.9608 20.1042 58.6024 19.3551 59.2628 18.2772V19.8302H63.3009V6.67517H59.2628Z" fill="white"/>
<path d="M5.5637 15.172C5.5637 16.5669 4.43631 17.6943 3.0414 17.6943C1.6465 17.6943 0.519109 16.5669 0.519109 15.172C0.519109 13.7771 1.6465 12.6497 3.0414 12.6497H5.5637V15.172Z" fill="white"/>
<path d="M6.82485 15.172C6.82485 13.7771 7.95224 12.6497 9.34715 12.6497C10.7421 12.6497 11.8694 13.7771 11.8694 15.172V21.4777C11.8694 22.8726 10.7421 24 9.34715 24C7.95224 24 6.82485 22.8726 6.82485 21.4777V15.172Z" fill="white"/>
<path d="M9.34715 5.04459C7.95224 5.04459 6.82485 3.9172 6.82485 2.5223C6.82485 1.12739 7.95224 0 9.34715 0C10.7421 0 11.8694 1.12739 11.8694 2.5223V5.04459H9.34715Z" fill="white"/>
<path d="M9.34715 6.32485C10.7421 6.32485 11.8694 7.45228 11.8694 8.84718C11.8694 10.2421 10.7421 11.3694 9.34715 11.3694H3.0223C1.62739 11.3694 0.5 10.2421 0.5 8.84718C0.5 7.45228 1.62739 6.32485 3.0223 6.32485H9.34715Z" fill="white"/>
<path d="M19.4554 8.84718C19.4554 7.45228 20.5828 6.32485 21.9777 6.32485C23.3726 6.32485 24.5 7.45228 24.5 8.84718C24.5 10.2421 23.3726 11.3694 21.9777 11.3694H19.4554V8.84718Z" fill="white"/>
<path d="M18.1943 8.84718C18.1943 10.2421 17.0669 11.3694 15.672 11.3694C14.2771 11.3694 13.1497 10.2421 13.1497 8.84718V2.5223C13.1497 1.12739 14.2771 0 15.672 0C17.0669 0 18.1943 1.12739 18.1943 2.5223V8.84718Z" fill="white"/>
<path d="M15.672 18.9554C17.0669 18.9554 18.1943 20.0828 18.1943 21.4777C18.1943 22.8726 17.0669 24 15.672 24C14.2771 24 13.1497 22.8726 13.1497 21.4777V18.9554H15.672Z" fill="white"/>
<path d="M15.672 17.6943C14.2771 17.6943 13.1497 16.5669 13.1497 15.172C13.1497 13.7771 14.2771 12.6497 15.672 12.6497H21.9969C23.3918 12.6497 24.5191 13.7771 24.5191 15.172C24.5191 16.5669 23.3918 17.6943 21.9969 17.6943H15.672Z" fill="white"/>
</svg>
