<svg width="20" height="20" viewBox="0 0 20 20" fill="none" xmlns="http://www.w3.org/2000/svg">
<path d="M0 1.43266C0 0.641875 0.662031 0 1.47812 0H18.5219C19.3383 0 20 0.641875 20 1.43266V18.5676C20 19.3586 19.3383 20 18.5219 20H1.47812C0.662109 20 0 19.3587 0 18.5678V1.43242V1.43266Z" fill="#272D37"/>
<path d="M6.07767 16.7376V7.73353H3.08485V16.7376H6.07798H6.07767ZM4.58188 6.50439C5.62532 6.50439 6.27493 5.81299 6.27493 4.94893C6.2554 4.06518 5.62532 3.39307 4.60173 3.39307C3.57743 3.39307 2.90845 4.06518 2.90845 4.94885C2.90845 5.81291 3.55782 6.50432 4.56228 6.50432H4.58165L4.58188 6.50439ZM7.73423 16.7376H10.7268V11.7099C10.7268 11.4411 10.7463 11.1717 10.8254 10.9797C11.0416 10.4418 11.5341 9.88502 12.361 9.88502C13.4437 9.88502 13.877 10.7106 13.877 11.9212V16.7376H16.8695V11.5749C16.8695 8.80939 15.3933 7.52244 13.4243 7.52244C11.81 7.52244 11.101 8.42471 10.7071 9.03924H10.727V7.73385H7.73438C7.77345 8.57854 7.73415 16.7379 7.73415 16.7379L7.73423 16.7376Z" fill="white"/>
</svg>
