<svg width="22" height="21" viewBox="0 0 22 21" fill="none" xmlns="http://www.w3.org/2000/svg">
<path d="M17.0569 9.27626L8.85386 17.4793C7.59862 15.2473 5.75254 13.4013 3.52052 12.146L13.8246 1.84194C14.3526 1.31393 14.6166 1.04992 14.9211 0.951C15.1888 0.86399 15.4773 0.86399 15.7451 0.951C16.0495 1.04992 16.3135 1.31393 16.8416 1.84195L19.1579 4.1583C19.6859 4.68632 19.9499 4.95033 20.0489 5.25477C20.1359 5.52256 20.1359 5.81102 20.0489 6.07881C19.9499 6.38325 19.6859 6.64726 19.1579 7.17529L18.9426 7.39065L21.1378 9.58591C21.9189 10.367 21.9189 11.6333 21.1378 12.4143L17.6092 15.9429C17.0885 16.4636 16.2443 16.4636 15.7236 15.9429C15.2029 15.4222 15.2029 14.578 15.7236 14.0573L18.7808 11.0001L17.0569 9.27626Z" fill="#437EF7"/>
<path d="M1.68123 14.6223L0.682313 17.6191C0.248048 18.9219 0.030916 19.5733 0.185386 20.0064C0.31981 20.3834 0.616455 20.6801 0.99342 20.8145C1.4266 20.9689 2.078 20.7518 3.38077 20.3176L6.37754 19.3186C6.52852 19.2683 6.6478 19.2285 6.74746 19.1933C5.66346 17.067 3.93283 15.3364 1.8066 14.2524C1.77132 14.3521 1.73155 14.4714 1.68123 14.6223Z" fill="#437EF7"/>
</svg>
