<svg width="48" height="48" viewBox="0 0 48 48" fill="none" xmlns="http://www.w3.org/2000/svg">
<rect width="48" height="48" rx="24" fill="#437EF7"/>
<path d="M31.0572 22.2763L22.8541 30.4793C21.5989 28.2473 19.7528 26.4013 17.5208 25.146L27.8248 14.8419C28.3528 14.3139 28.6169 14.0499 28.9213 13.951C29.1891 13.864 29.4775 13.864 29.7453 13.951C30.0498 14.0499 30.3138 14.3139 30.8418 14.842L33.1582 17.1583C33.6862 17.6863 33.9502 17.9503 34.0491 18.2548C34.1361 18.5226 34.1361 18.811 34.0491 19.0788C33.9502 19.3833 33.6862 19.6473 33.1582 20.1753L32.9428 20.3906L35.1381 22.5859C35.9191 23.367 35.9191 24.6333 35.1381 25.4143L31.6095 28.9429C31.0888 29.4636 30.2446 29.4636 29.7239 28.9429C29.2032 28.4222 29.2032 27.578 29.7239 27.0573L32.781 24.0001L31.0572 22.2763Z" fill="white"/>
<path d="M15.6815 27.6223L14.6826 30.6191C14.2483 31.9219 14.0312 32.5733 14.1856 33.0064C14.3201 33.3834 14.6167 33.6801 14.9937 33.8145C15.4268 33.9689 16.0782 33.7518 17.381 33.3176L20.3778 32.3186C20.5288 32.2683 20.648 32.2285 20.7477 32.1933C19.6637 30.067 17.9331 28.3364 15.8068 27.2524C15.7716 27.3521 15.7318 27.4714 15.6815 27.6223Z" fill="white"/>
</svg>
