<svg width="48" height="48" viewBox="0 0 48 48" fill="none" xmlns="http://www.w3.org/2000/svg">
<rect width="48" height="48" rx="24" fill="#437EF7"/>
<path d="M18.6667 12C14.9848 12 12 14.9848 12 18.6667C12 22.3486 14.9848 25.3333 18.6667 25.3333C22.3486 25.3333 25.3333 22.3486 25.3333 18.6667C25.3333 14.9848 22.3486 12 18.6667 12Z" fill="white"/>
<path d="M33.816 17.7693C33.3115 17.5123 32.7872 17.4172 32.26 17.3741C31.7606 17.3333 31.1543 17.3333 30.4514 17.3333L28 17.3333V18.6667C28 23.8213 23.8213 28 18.6667 28H17.3333L17.3333 30.4514C17.3333 31.1543 17.3333 31.7606 17.3741 32.26C17.4172 32.7872 17.5123 33.3115 17.7693 33.816C18.1528 34.5686 18.7647 35.1805 19.5174 35.564C20.0219 35.8211 20.5462 35.9162 21.0733 35.9592C21.5727 36 22.179 36 22.8818 36H30.4514C31.1542 36 31.7606 36 32.26 35.9592C32.7872 35.9162 33.3115 35.8211 33.816 35.564C34.5686 35.1805 35.1805 34.5686 35.564 33.816C35.8211 33.3115 35.9162 32.7872 35.9592 32.26C36 31.7606 36 31.1543 36 30.4515V22.882C36 22.1792 36 21.5727 35.9592 21.0733C35.9162 20.5462 35.8211 20.0219 35.564 19.5174C35.1805 18.7647 34.5686 18.1528 33.816 17.7693Z" fill="white"/>
</svg>
