<svg width="48" height="48" viewBox="0 0 48 48" fill="none" xmlns="http://www.w3.org/2000/svg">
<rect width="48" height="48" rx="24" fill="#437EF7"/>
<path d="M32 19.9999C34.9455 19.9999 37.3333 17.6121 37.3333 14.6666C37.3333 11.7211 34.9455 9.33325 32 9.33325C29.0545 9.33325 26.6667 11.7211 26.6667 14.6666C26.6667 15.1695 26.7363 15.6562 26.8664 16.1176L19.7887 20.2462C18.8222 19.2708 17.4817 18.6666 16 18.6666C13.0545 18.6666 10.6667 21.0544 10.6667 23.9999C10.6667 26.9454 13.0545 29.3333 16 29.3333C17.4817 29.3333 18.8222 28.7291 19.7887 27.7536L26.8664 31.8823C26.7363 32.3436 26.6667 32.8303 26.6667 33.3333C26.6667 36.2788 29.0545 38.6666 32 38.6666C34.9455 38.6666 37.3333 36.2788 37.3333 33.3333C37.3333 30.3877 34.9455 27.9999 32 27.9999C30.5183 27.9999 29.1778 28.6041 28.2113 29.5796L21.1336 25.4509C21.2637 24.9896 21.3333 24.5029 21.3333 23.9999C21.3333 23.497 21.2637 23.0103 21.1336 22.5489L28.2113 18.4203C29.1778 19.3957 30.5183 19.9999 32 19.9999Z" fill="white"/>
</svg>
