<svg width="48" height="48" viewBox="0 0 48 48" fill="none" xmlns="http://www.w3.org/2000/svg">
<rect width="48" height="48" rx="24" fill="#437EF7"/>
<path fill-rule="evenodd" clip-rule="evenodd" d="M24 9.33325C15.8998 9.33325 9.33334 15.8997 9.33334 23.9999C9.33334 32.1001 15.8998 38.6666 24 38.6666C32.1002 38.6666 38.6667 32.1001 38.6667 23.9999C38.6667 15.8997 32.1002 9.33325 24 9.33325ZM30.8409 17.1591C29.2953 15.6135 26.7896 15.6135 25.244 17.1591C24.7233 17.6798 24.7233 18.524 25.244 19.0447C25.7647 19.5654 26.609 19.5654 27.1297 19.0447C27.6338 18.5406 28.4511 18.5406 28.9553 19.0447C29.4594 19.5488 29.4594 20.3661 28.9553 20.8703L25.244 24.5815C24.951 24.8745 24.5533 24.9981 24.1674 24.9492C23.4368 24.8568 22.7696 25.3741 22.6772 26.1047C22.5848 26.8352 23.1021 27.5024 23.8327 27.5948C25.0011 27.7427 26.2291 27.3677 27.1297 26.4671L30.8409 22.7559C32.3864 21.2104 32.3864 18.7046 30.8409 17.1591ZM24.1674 20.405C22.9989 20.2572 21.771 20.6322 20.8704 21.5328L17.1592 25.244C15.6136 26.7895 15.6136 29.2953 17.1592 30.8408C18.7047 32.3863 21.2105 32.3863 22.756 30.8408C23.2767 30.3201 23.2767 29.4759 22.756 28.9552C22.2353 28.4345 21.3911 28.4345 20.8704 28.9552C20.3662 29.4593 19.5489 29.4593 19.0448 28.9552C18.5406 28.451 18.5406 27.6337 19.0448 27.1296L22.756 23.4184C23.049 23.1253 23.4467 23.0018 23.8327 23.0506C24.5632 23.143 25.2304 22.6257 25.3228 21.8952C25.4152 21.1646 24.8979 20.4975 24.1674 20.405Z" fill="white"/>
</svg>
