<svg width="27" height="26" viewBox="0 0 27 26" fill="none" xmlns="http://www.w3.org/2000/svg">
<path d="M2.00008 0C1.2637 0 0.666748 0.596954 0.666748 1.33333C0.666748 2.06971 1.2637 2.66667 2.00008 2.66667H3.49939L5.16988 15.1953C5.43485 17.1825 7.12998 18.6667 9.13479 18.6667H20.7281C22.5566 18.6667 24.1522 17.4268 24.6041 15.6551L26.444 8.44029C27.0889 5.91116 25.1781 3.45185 22.568 3.45185H6.29435L6.14267 2.31423C5.96602 0.989414 4.83593 0 3.49939 0H2.00008Z" fill="#437EF7"/>
<path d="M4.66675 22.6667C4.66675 21.1939 5.86066 20 7.33342 20C8.80618 20 10.0001 21.1939 10.0001 22.6667C10.0001 24.1394 8.80618 25.3333 7.33342 25.3333C5.86066 25.3333 4.66675 24.1394 4.66675 22.6667Z" fill="#437EF7"/>
<path d="M22.0001 20C20.5273 20 19.3334 21.1939 19.3334 22.6667C19.3334 24.1394 20.5273 25.3333 22.0001 25.3333C23.4728 25.3333 24.6667 24.1394 24.6667 22.6667C24.6667 21.1939 23.4728 20 22.0001 20Z" fill="#437EF7"/>
</svg>
