<svg width="20" height="18" viewBox="0 0 20 18" fill="none" xmlns="http://www.w3.org/2000/svg">
<path d="M6.2896 17.1256C13.8368 17.1256 17.9648 10.8728 17.9648 5.45035C17.9648 5.27275 17.9648 5.09595 17.9528 4.91995C18.7559 4.33908 19.4491 3.61986 20 2.79595C19.2512 3.12795 18.4567 3.34558 17.6432 3.44155C18.4998 2.92879 19.141 2.1222 19.4472 1.17195C18.6417 1.64996 17.7605 1.98681 16.8416 2.16795C16.2229 1.5101 15.4047 1.07449 14.5135 0.928522C13.6223 0.782558 12.7078 0.934381 11.9116 1.3605C11.1154 1.78661 10.4819 2.46326 10.109 3.28574C9.73605 4.10822 9.64462 5.03067 9.8488 5.91035C8.21741 5.82852 6.62146 5.40455 5.16455 4.66596C3.70763 3.92737 2.4223 2.89067 1.392 1.62315C0.867274 2.52648 0.70656 3.59584 0.942583 4.6135C1.17861 5.63117 1.79362 6.52061 2.6624 7.10075C2.00936 7.08162 1.37054 6.90545 0.8 6.58715V6.63915C0.800259 7.58653 1.12821 8.50465 1.72823 9.23779C2.32824 9.97093 3.16338 10.474 4.092 10.6616C3.4879 10.8263 2.85406 10.8504 2.2392 10.732C2.50151 11.5472 3.01202 12.2602 3.69937 12.7711C4.38671 13.282 5.21652 13.5654 6.0728 13.5816C5.22203 14.2503 4.24776 14.7447 3.20573 15.0366C2.16369 15.3284 1.07435 15.4119 0 15.2824C1.87653 16.4865 4.05994 17.1253 6.2896 17.1224" fill="#272D37"/>
</svg>
