<svg width="24" height="25" viewBox="0 0 24 25" fill="none" xmlns="http://www.w3.org/2000/svg">
<path d="M5.025 21.3173C4.99074 21.4639 4.99012 21.6165 5.02319 21.7634C5.05627 21.9104 5.12218 22.0479 5.21598 22.1658C5.30978 22.2836 5.42904 22.3787 5.56482 22.4439C5.7006 22.5091 5.84937 22.5427 6 22.5423C6.19753 22.5423 6.39065 22.4838 6.555 22.3743L12 18.7443L17.445 22.3743C17.6153 22.4873 17.8162 22.5456 18.0206 22.5411C18.225 22.5366 18.4232 22.4696 18.5884 22.3492C18.7536 22.2287 18.878 22.0606 18.9448 21.8673C19.0116 21.6741 19.0176 21.465 18.962 21.2683L17.133 14.8683L21.669 10.7863C21.8143 10.6554 21.918 10.4849 21.9674 10.2958C22.0168 10.1066 22.0097 9.90713 21.9469 9.72199C21.8841 9.53685 21.7684 9.37417 21.6142 9.25408C21.4599 9.13398 21.2739 9.06172 21.079 9.04625L15.378 8.59225L12.911 3.13125C12.8324 2.95536 12.7046 2.80597 12.543 2.70111C12.3814 2.59624 12.193 2.54039 12.0003 2.54028C11.8077 2.54018 11.6191 2.59583 11.4574 2.70051C11.2957 2.8052 11.1678 2.95445 11.089 3.13025L8.622 8.59225L2.921 9.04525C2.72945 9.06043 2.54633 9.13046 2.39355 9.24698C2.24077 9.3635 2.12479 9.52157 2.05949 9.70228C1.99419 9.88299 1.98233 10.0787 2.02534 10.266C2.06835 10.4532 2.1644 10.6241 2.302 10.7583L6.516 14.8653L5.025 21.3173ZM12 5.97125L14.042 10.4923L14.63 10.5393H14.631L18.603 10.8543L15.332 13.7983L15.331 13.8003L14.868 14.2163L15.039 14.8133V14.8163L16.292 19.2013L12 16.3403V5.97125Z" fill="#FFCB45"/>
</svg>
