<svg width="16" height="18" viewBox="0 0 16 18" fill="none" xmlns="http://www.w3.org/2000/svg">
<path d="M14.4 0.56665H5.6C5.30826 0.56665 5.02847 0.694584 4.82218 0.922306C4.61589 1.15003 4.5 1.45889 4.5 1.78094H14.4V16.3524H5.6V10.4024H4.5V16.3524C4.5 16.6744 4.61589 16.9833 4.82218 17.211C5.02847 17.4387 5.30826 17.5667 5.6 17.5667H14.4C14.6917 17.5667 14.9715 17.4387 15.1778 17.211C15.3841 16.9833 15.5 16.6744 15.5 16.3524V1.78094C15.5 1.45889 15.3841 1.15003 15.1778 0.922306C14.9715 0.694584 14.6917 0.56665 14.4 0.56665Z" fill="#1D1D1D"/>
<path d="M8.02795 11.41C7.96293 11.4689 7.91012 11.5415 7.87284 11.623C7.83556 11.7046 7.81461 11.7934 7.81131 11.8839C7.808 11.9745 7.82241 12.0647 7.85364 12.1491C7.88487 12.2334 7.93223 12.3101 7.99276 12.3741C8.05329 12.4382 8.12568 12.4883 8.20539 12.5214C8.28509 12.5544 8.37039 12.5697 8.45593 12.5662C8.54147 12.5627 8.62541 12.5405 8.70247 12.501C8.77952 12.4616 8.84805 12.4057 8.90373 12.3369L12.5 8.5308L8.90994 4.72472C8.79112 4.61702 8.63828 4.56075 8.48195 4.56714C8.32563 4.57353 8.17735 4.64211 8.06673 4.75919C7.95611 4.87626 7.89131 5.03319 7.88527 5.19863C7.87923 5.36407 7.93241 5.52583 8.03416 5.65158L10.1273 7.82085H1.12112C0.956387 7.82085 0.798403 7.89011 0.681921 8.01339C0.565439 8.13667 0.5 8.30387 0.5 8.47821C0.5 8.65255 0.565439 8.81975 0.681921 8.94303C0.798403 9.06631 0.956387 9.13556 1.12112 9.13556H10.1273L8.02795 11.41Z" fill="#1D1D1D"/>
</svg>
