<svg width="24" height="25" viewBox="0 0 24 25" fill="none" xmlns="http://www.w3.org/2000/svg">
<path d="M21.2836 8.81802L15.3328 7.95317L12.6727 2.5602C12.6 2.41255 12.4805 2.29301 12.3328 2.22036C11.9625 2.03755 11.5125 2.18989 11.3273 2.5602L8.66719 7.95317L2.7164 8.81802C2.55234 8.84145 2.40234 8.9188 2.2875 9.03599C2.14866 9.17869 2.07215 9.37067 2.07479 9.56976C2.07743 9.76884 2.15899 9.95873 2.30156 10.0977L6.60703 14.2954L5.58984 20.2227C5.56599 20.3606 5.58125 20.5024 5.63389 20.6321C5.68653 20.7617 5.77444 20.874 5.88766 20.9562C6.00088 21.0385 6.13487 21.0873 6.27445 21.0973C6.41403 21.1072 6.5536 21.0779 6.67734 21.0126L12 18.2141L17.3227 21.0126C17.468 21.0899 17.6367 21.1157 17.7984 21.0876C18.2063 21.0172 18.4805 20.6305 18.4102 20.2227L17.393 14.2954L21.6984 10.0977C21.8156 9.98286 21.893 9.83286 21.9164 9.6688C21.9797 9.25864 21.6938 8.87895 21.2836 8.81802Z" fill="#FFCB45"/>
</svg>
