<svg width="69" height="73" viewBox="0 0 69 73" fill="none" xmlns="http://www.w3.org/2000/svg">
<g filter="url(#filter0_d_1_215)">
<rect x="12" y="8.54224" width="45" height="48" rx="22.5" fill="white" shape-rendering="crispEdges"/>
<path d="M45.853 25.5025C45.018 25.8725 44.121 26.1225 43.178 26.2355C44.151 25.6533 44.8789 24.737 45.226 23.6575C44.3118 24.2005 43.3113 24.5827 42.268 24.7875C41.5664 24.0384 40.6371 23.5418 39.6243 23.375C38.6116 23.2081 37.5721 23.3803 36.6672 23.8648C35.7624 24.3492 35.0428 25.1189 34.6202 26.0542C34.1975 26.9896 34.0955 28.0383 34.33 29.0375C32.4777 28.9445 30.6656 28.4631 29.0114 27.6244C27.3572 26.7858 25.8978 25.6087 24.728 24.1695C24.328 24.8595 24.098 25.6595 24.098 26.5115C24.0976 27.2785 24.2864 28.0337 24.6479 28.7102C25.0093 29.3867 25.5322 29.9635 26.17 30.3895C25.4303 30.366 24.7069 30.1661 24.06 29.8065V29.8665C24.0599 30.9422 24.432 31.9849 25.1132 32.8175C25.7943 33.6501 26.7426 34.2214 27.797 34.4345C27.1108 34.6202 26.3913 34.6476 25.693 34.5145C25.9905 35.4401 26.57 36.2495 27.3504 36.8294C28.1307 37.4093 29.0729 37.7307 30.045 37.7485C28.3948 39.0439 26.3569 39.7466 24.259 39.7435C23.8874 39.7436 23.5161 39.7219 23.147 39.6785C25.2765 41.0477 27.7553 41.7743 30.287 41.7715C38.857 41.7715 43.542 34.6735 43.542 28.5175C43.542 28.3175 43.537 28.1155 43.528 27.9155C44.4393 27.2565 45.2259 26.4404 45.851 25.5055L45.853 25.5025Z" fill="#1D1D1D"/>
</g>
<defs>
<filter id="filter0_d_1_215" x="0" y="0.542236" width="69" height="72" filterUnits="userSpaceOnUse" color-interpolation-filters="sRGB">
<feFlood flood-opacity="0" result="BackgroundImageFix"/>
<feColorMatrix in="SourceAlpha" type="matrix" values="0 0 0 0 0 0 0 0 0 0 0 0 0 0 0 0 0 0 127 0" result="hardAlpha"/>
<feOffset dy="4"/>
<feGaussianBlur stdDeviation="6"/>
<feComposite in2="hardAlpha" operator="out"/>
<feColorMatrix type="matrix" values="0 0 0 0 0.1125 0 0 0 0 0.1125 0 0 0 0 0.1125 0 0 0 0.15 0"/>
<feBlend mode="normal" in2="BackgroundImageFix" result="effect1_dropShadow_1_215"/>
<feBlend mode="normal" in="SourceGraphic" in2="effect1_dropShadow_1_215" result="shape"/>
</filter>
</defs>
</svg>
