<svg width="20" height="20" viewBox="0 0 20 20" fill="none" xmlns="http://www.w3.org/2000/svg">
<g clip-path="url(#clip0_0_1604)">
<path d="M8.05613 14.61V7.9425H7.26488C6.69818 8.24459 6.15049 8.58105 5.62488 8.95V9.81875C6.09363 9.4975 6.83613 9.04375 7.19738 8.8475H7.21238V14.61H8.05613ZM9.54113 12.9787C9.59988 13.7787 10.2836 14.7362 11.6699 14.7362C13.2424 14.7362 14.1699 13.4037 14.1699 11.1475C14.1699 8.73 13.1936 7.8125 11.7286 7.8125C10.5711 7.8125 9.48238 8.6525 9.48238 10.0737C9.48238 11.5237 10.5124 12.2863 11.5774 12.2863C12.5099 12.2863 13.1149 11.8162 13.3061 11.2987H13.3399C13.3349 12.9437 12.7636 14.0037 11.7086 14.0037C10.8786 14.0037 10.4486 13.4412 10.3961 12.9787H9.54113ZM13.2324 10.0825C13.2324 10.9525 12.5336 11.5575 11.7524 11.5575C11.0011 11.5575 10.3224 11.0787 10.3224 10.0575C10.3224 9.02875 11.0499 8.545 11.7824 8.545C12.5736 8.545 13.2324 9.0425 13.2324 10.0825Z" fill="#343434" fill-opacity="0.2"/>
<path d="M4.375 0C4.54076 0 4.69973 0.065848 4.81694 0.183058C4.93415 0.300269 5 0.45924 5 0.625V1.25H15V0.625C15 0.45924 15.0658 0.300269 15.1831 0.183058C15.3003 0.065848 15.4592 0 15.625 0C15.7908 0 15.9497 0.065848 16.0669 0.183058C16.1842 0.300269 16.25 0.45924 16.25 0.625V1.25H17.5C18.163 1.25 18.7989 1.51339 19.2678 1.98223C19.7366 2.45107 20 3.08696 20 3.75V17.5C20 18.163 19.7366 18.7989 19.2678 19.2678C18.7989 19.7366 18.163 20 17.5 20H2.5C1.83696 20 1.20107 19.7366 0.732233 19.2678C0.263392 18.7989 0 18.163 0 17.5V3.75C0 3.08696 0.263392 2.45107 0.732233 1.98223C1.20107 1.51339 1.83696 1.25 2.5 1.25H3.75V0.625C3.75 0.45924 3.81585 0.300269 3.93306 0.183058C4.05027 0.065848 4.20924 0 4.375 0V0ZM1.25 5V17.5C1.25 17.8315 1.3817 18.1495 1.61612 18.3839C1.85054 18.6183 2.16848 18.75 2.5 18.75H17.5C17.8315 18.75 18.1495 18.6183 18.3839 18.3839C18.6183 18.1495 18.75 17.8315 18.75 17.5V5H1.25Z" fill="#343434" fill-opacity="0.2"/>
</g>
<defs>
<clipPath id="clip0_0_1604">
<rect width="20" height="20" fill="white"/>
</clipPath>
</defs>
</svg>
