<svg width="26" height="26" viewBox="0 0 26 26" fill="none" xmlns="http://www.w3.org/2000/svg">
<g clip-path="url(#clip0_0_1586)">
<path d="M10.473 18.993V10.3253H9.44438C8.70767 10.718 7.99568 11.1554 7.31238 11.635V12.7644C7.92175 12.3467 8.887 11.7569 9.35663 11.5017H9.37613V18.993H10.473ZM12.4035 16.8724C12.4799 17.9124 13.3688 19.1571 15.1709 19.1571C17.2151 19.1571 18.4209 17.4249 18.4209 14.4918C18.4209 11.349 17.1518 10.1562 15.2473 10.1562C13.7425 10.1562 12.3271 11.2483 12.3271 13.0959C12.3271 14.9809 13.6661 15.9721 15.0506 15.9721C16.2629 15.9721 17.0494 15.3611 17.298 14.6884H17.3419C17.3354 16.8269 16.5928 18.2049 15.2213 18.2049C14.1423 18.2049 13.5833 17.4736 13.515 16.8724H12.4035ZM17.2021 13.1072C17.2021 14.2382 16.2938 15.0248 15.2781 15.0248C14.3015 15.0248 13.4191 14.4024 13.4191 13.0747C13.4191 11.7374 14.3649 11.1085 15.3171 11.1085C16.3458 11.1085 17.2021 11.7552 17.2021 13.1072Z" fill="#343434"/>
<path d="M5.6875 0C5.90299 0 6.10965 0.0856024 6.26202 0.237976C6.4144 0.390349 6.5 0.597012 6.5 0.8125V1.625H19.5V0.8125C19.5 0.597012 19.5856 0.390349 19.738 0.237976C19.8903 0.0856024 20.097 0 20.3125 0C20.528 0 20.7347 0.0856024 20.887 0.237976C21.0394 0.390349 21.125 0.597012 21.125 0.8125V1.625H22.75C23.612 1.625 24.4386 1.96741 25.0481 2.5769C25.6576 3.1864 26 4.01305 26 4.875V22.75C26 23.612 25.6576 24.4386 25.0481 25.0481C24.4386 25.6576 23.612 26 22.75 26H3.25C2.38805 26 1.5614 25.6576 0.951903 25.0481C0.34241 24.4386 0 23.612 0 22.75V4.875C0 4.01305 0.34241 3.1864 0.951903 2.5769C1.5614 1.96741 2.38805 1.625 3.25 1.625H4.875V0.8125C4.875 0.597012 4.9606 0.390349 5.11298 0.237976C5.26535 0.0856024 5.47201 0 5.6875 0V0ZM1.625 6.5V22.75C1.625 23.181 1.7962 23.5943 2.10095 23.899C2.4057 24.2038 2.81902 24.375 3.25 24.375H22.75C23.181 24.375 23.5943 24.2038 23.899 23.899C24.2038 23.5943 24.375 23.181 24.375 22.75V6.5H1.625Z" fill="#343434"/>
</g>
<defs>
<clipPath id="clip0_0_1586">
<rect width="26" height="26" fill="white"/>
</clipPath>
</defs>
</svg>
