<svg width="26" height="26" viewBox="0 0 26 26" fill="none" xmlns="http://www.w3.org/2000/svg">
<path d="M20.5834 21.6669H5.41674C5.12943 21.6669 4.85388 21.7811 4.65071 21.9842C4.44755 22.1874 4.33341 22.4629 4.33341 22.7503C4.33341 23.0376 4.44755 23.3131 4.65071 23.5163C4.85388 23.7195 5.12943 23.8336 5.41674 23.8336H20.5834C20.8707 23.8336 21.1463 23.7195 21.3494 23.5163C21.5526 23.3131 21.6667 23.0376 21.6667 22.7503C21.6667 22.4629 21.5526 22.1874 21.3494 21.9842C21.1463 21.7811 20.8707 21.6669 20.5834 21.6669ZM5.41674 19.5003H5.51424L10.0317 19.0886C10.5266 19.0393 10.9894 18.8213 11.3426 18.4711L21.0926 8.72109C21.471 8.3213 21.6755 7.7878 21.6613 7.2375C21.6471 6.6872 21.4153 6.16497 21.0167 5.78525L18.0484 2.81692C17.661 2.45302 17.1533 2.24423 16.622 2.23024C16.0907 2.21626 15.5728 2.39807 15.1667 2.74109L5.41674 12.4911C5.06657 12.8442 4.84854 13.3071 4.79924 13.8019L4.33341 18.3194C4.31882 18.4781 4.33941 18.638 4.39371 18.7878C4.44801 18.9376 4.5347 19.0736 4.64758 19.1861C4.7488 19.2865 4.86885 19.3659 5.00085 19.4198C5.13284 19.4738 5.27417 19.5011 5.41674 19.5003ZM16.5426 4.33359L19.5001 7.29109L17.3334 9.40359L14.4301 6.50025L16.5426 4.33359ZM6.90091 13.9861L13.0001 7.93025L15.9251 10.8553L9.85841 16.9219L6.60841 17.2253L6.90091 13.9861Z" fill="black"/>
</svg>
