<svg width="127" height="65" viewBox="0 0 127 65" fill="none" xmlns="http://www.w3.org/2000/svg">
<path d="M1.05467 15.5685V8.86458H20.5022V15.5685H18.5733L17.2768 11.2995H13.3556V28.5335L16.2649 29.2292V31H5.29202V29.2292L8.20124 28.5335V11.2995H4.24849L2.95199 15.5685H1.05467ZM21.9361 31V29.324L24.6239 28.6916V18.0666H21.9361V16.3906L26.9956 15.189H29.4937V17.0863C31.0748 15.5052 32.9511 14.7147 35.1225 14.7147C35.2489 15.1152 35.3122 15.5579 35.3122 16.0428C35.3122 17.0125 35.2068 17.919 34.996 18.7623L31.0116 18.0982C30.5056 18.3301 29.9997 18.6674 29.4937 19.1101V28.6916L32.814 29.324V31H21.9361ZM36.6971 27.0789C36.6971 25.2448 37.4455 23.8534 38.9423 22.9048C40.4602 21.935 42.9056 21.4501 46.2786 21.4501V20.5015C46.2786 19.869 46.2681 19.4158 46.247 19.1417C46.247 18.8466 46.2048 18.4988 46.1205 18.0982C46.0362 17.6977 45.9097 17.4131 45.741 17.2444C45.5935 17.0758 45.3616 16.9282 45.0453 16.8017C44.7291 16.6541 44.3391 16.5804 43.8753 16.5804L39.8593 20.0588C38.4258 19.2366 37.709 17.9612 37.709 16.2325L38.6577 15.8214C39.0582 15.6528 39.8383 15.4314 40.9977 15.1574C42.1572 14.8622 43.2851 14.7147 44.3813 14.7147C48.9138 14.7147 51.18 16.5277 51.18 20.1536V28.6283H53.6465V29.9881C53.5411 30.0935 53.3936 30.2305 53.2038 30.3992C53.0141 30.5678 52.603 30.7892 51.9706 31.0632C51.3381 31.3373 50.6846 31.4743 50.01 31.4743C48.4078 31.4743 47.2167 30.9368 46.4367 29.8616C45.0243 30.9368 43.4853 31.4743 41.8199 31.4743C40.3653 31.4743 39.1426 31.1054 38.1517 30.3676C37.182 29.6297 36.6971 28.5335 36.6971 27.0789ZM41.7883 26.7943C41.7883 27.4056 41.9886 27.8905 42.3891 28.2489C42.8107 28.6073 43.3167 28.7865 43.907 28.7865C44.8556 28.7865 45.6462 28.4386 46.2786 27.7429V23.4107C45.0981 23.4107 44.0545 23.7269 43.148 24.3594C42.2415 24.9707 41.7883 25.7824 41.7883 26.7943ZM53.1932 16.865V15.189H62.8696V16.865L60.7193 17.3709L63.9131 24.9286L67.0437 17.4025L64.9566 16.865V15.189H71.8186V16.865L69.1623 17.5606L63.5336 31.2214H61.3201L55.47 17.529L53.1932 16.865ZM72.3374 22.9048C72.3374 20.4172 73.0331 18.4355 74.4244 16.9598C75.8369 15.463 77.7447 14.7147 80.148 14.7147C82.5935 14.7147 84.4381 15.5474 85.6819 17.2128C86.9468 18.8782 87.5792 20.9337 87.5792 23.3791H77.2072C77.3547 24.9391 77.9134 26.2883 78.8831 27.4267C79.8529 28.544 81.0967 29.1027 82.6145 29.1027C83.7529 29.1027 84.9756 28.8602 86.2827 28.3754L86.9468 30.1778C84.9862 31.0422 83.0678 31.4743 81.1915 31.4743C78.4721 31.4743 76.3112 30.6838 74.709 29.1027C73.1279 27.5005 72.3374 25.4345 72.3374 22.9048ZM77.2072 21.4185L82.5513 21.0707C82.5513 20.5647 82.5197 20.1009 82.4564 19.6793C82.3932 19.2366 82.214 18.7096 81.9189 18.0982C81.3918 17.2128 80.7699 16.7701 80.0532 16.7701C79.2099 16.7701 78.5142 17.2023 77.9661 18.0666C77.6499 18.5936 77.4391 19.1734 77.3337 19.8058C77.2283 20.4382 77.1861 20.9758 77.2072 21.4185ZM88.9365 31V29.324L91.6243 28.6916V8.57998H88.9365V6.90402L93.996 5.70238H96.4941V28.6916L99.182 29.324V31H88.9365Z" fill="#181E4B"/>
<g clip-path="url(#clip0_0_667)">
<path d="M27.9998 41.123C33.5769 49.1055 57.8412 57.0512 74.1619 56.5525C91.8029 56.0535 101.463 52.5629 120.271 39.7275C120.216 41.1328 120.051 42.2765 120.077 43.3197C120.058 44.5099 120.05 45.7683 120.301 46.9154C120.356 47.256 121.063 47.7721 121.481 47.7756C121.898 47.779 122.5 47.1945 122.581 46.8324C123.282 43.3691 123.847 39.9274 124.469 36.4067C124.634 35.263 124.098 34.5103 122.891 34.3529C118.313 33.9632 113.723 33.5055 109.087 33.1947C108.038 33.1519 106.861 33.6183 105.506 33.8337C107.055 36.5902 109.441 35.8619 111.323 36.331C113.283 36.8576 115.324 37.022 117.826 37.4623C112.807 42.1707 107.492 45.4595 101.698 47.9166C80.4894 57.0134 59.4195 55.6132 38.6745 46.2004C35.9747 44.9535 33.4349 43.4018 30.792 42.0759C29.9923 41.8539 29.2603 41.621 27.9998 41.123Z" fill="#DF6951"/>
</g>
<defs>
<clipPath id="clip0_0_667">
<rect width="96.1304" height="23.346" fill="white" transform="matrix(0.987606 -0.156951 -0.156951 -0.987606 31.6641 64.1797)"/>
</clipPath>
</defs>
</svg>
