<svg width="20" height="20" viewBox="0 0 20 20" fill="none" xmlns="http://www.w3.org/2000/svg">
<path d="M18.3644 2.45408C17.33 1.34216 15.8804 0.709493 14.3617 0.707148C12.8417 0.708907 11.3906 1.34124 10.3546 2.45337L10.0015 2.82649L9.64836 2.45337C7.59251 0.240709 4.13215 0.11364 1.91953 2.16949C1.82148 2.26063 1.72679 2.35528 1.63565 2.45337C-0.545218 4.8057 -0.545218 8.44113 1.63565 10.7935L9.48255 19.0685C9.75403 19.3551 10.2064 19.3674 10.493 19.0959C10.5024 19.087 10.5115 19.0779 10.5204 19.0685L18.3645 10.7935C20.5452 8.44138 20.5452 4.80616 18.3644 2.45408ZM17.3302 9.8092H17.3294L10.0015 17.5382L2.67282 9.8092C1.00676 8.0118 1.00676 5.23432 2.67282 3.43692C4.1858 1.79708 6.74172 1.69426 8.38156 3.20724C8.46118 3.2807 8.53778 3.35731 8.61124 3.43692L9.48255 4.35614C9.76969 4.64144 10.2333 4.64144 10.5204 4.35614L11.3917 3.43763C12.9047 1.79779 15.4606 1.69497 17.1005 3.20795C17.1801 3.28141 17.2567 3.35802 17.3302 3.43763C19.0107 5.23788 19.023 8.02043 17.3302 9.8092Z" fill="#DF6951"/>
</svg>
