<svg width="26" height="26" viewBox="0 0 26 26" fill="none" xmlns="http://www.w3.org/2000/svg">
<path d="M0.8125 16.0879C1.02799 16.0879 1.23465 16.1735 1.38702 16.3259C1.5394 16.4782 1.625 16.6849 1.625 16.9004V20.9629C1.625 21.3939 1.7962 21.8072 2.10095 22.1119C2.4057 22.4167 2.81902 22.5879 3.25 22.5879H22.75C23.181 22.5879 23.5943 22.4167 23.899 22.1119C24.2038 21.8072 24.375 21.3939 24.375 20.9629V16.9004C24.375 16.6849 24.4606 16.4782 24.613 16.3259C24.7653 16.1735 24.972 16.0879 25.1875 16.0879C25.403 16.0879 25.6097 16.1735 25.762 16.3259C25.9144 16.4782 26 16.6849 26 16.9004V20.9629C26 21.8248 25.6576 22.6515 25.0481 23.261C24.4386 23.8705 23.612 24.2129 22.75 24.2129H3.25C2.38805 24.2129 1.5614 23.8705 0.951903 23.261C0.34241 22.6515 0 21.8248 0 20.9629V16.9004C0 16.6849 0.0856024 16.4782 0.237976 16.3259C0.390349 16.1735 0.597012 16.0879 0.8125 16.0879Z" fill="black"/>
<path d="M12.4248 1.86273C12.5003 1.78706 12.5899 1.72703 12.6886 1.68607C12.7874 1.64511 12.8932 1.62402 13.0001 1.62402C13.1069 1.62402 13.2127 1.64511 13.3115 1.68607C13.4102 1.72703 13.4998 1.78706 13.5753 1.86273L18.4503 6.73773C18.6029 6.89029 18.6886 7.09722 18.6886 7.31298C18.6886 7.52874 18.6029 7.73566 18.4503 7.88823C18.2977 8.04079 18.0908 8.1265 17.8751 8.1265C17.6593 8.1265 17.4524 8.04079 17.2998 7.88823L13.8126 4.39935V18.688C13.8126 18.9035 13.7269 19.1101 13.5746 19.2625C13.4222 19.4149 13.2155 19.5005 13.0001 19.5005C12.7846 19.5005 12.5779 19.4149 12.4255 19.2625C12.2732 19.1101 12.1876 18.9035 12.1876 18.688V4.39935L8.7003 7.88823C8.62476 7.96377 8.53508 8.02369 8.43637 8.06458C8.33767 8.10546 8.23188 8.1265 8.12505 8.1265C8.01822 8.1265 7.91243 8.10546 7.81373 8.06458C7.71503 8.02369 7.62534 7.96377 7.5498 7.88823C7.47426 7.81268 7.41433 7.723 7.37345 7.6243C7.33257 7.5256 7.31152 7.41981 7.31152 7.31298C7.31152 7.20614 7.33257 7.10035 7.37345 7.00165C7.41433 6.90295 7.47426 6.81327 7.5498 6.73773L12.4248 1.86273Z" fill="black"/>
</svg>
