<svg width="156" height="199" viewBox="0 0 156 199" fill="none" xmlns="http://www.w3.org/2000/svg">
<path d="M19.5136 179.364V192H16.4356V186.798H11.6476V192H8.56961V179.364H11.6476V184.314H16.4356V179.364H19.5136ZM29.5116 192.126C28.3236 192.126 27.2316 191.85 26.2356 191.298C25.2516 190.746 24.4656 189.978 23.8776 188.994C23.3016 187.998 23.0136 186.882 23.0136 185.646C23.0136 184.41 23.3016 183.3 23.8776 182.316C24.4656 181.332 25.2516 180.564 26.2356 180.012C27.2316 179.46 28.3236 179.184 29.5116 179.184C30.6996 179.184 31.7856 179.46 32.7696 180.012C33.7656 180.564 34.5456 181.332 35.1096 182.316C35.6856 183.3 35.9736 184.41 35.9736 185.646C35.9736 186.882 35.6856 187.998 35.1096 188.994C34.5336 189.978 33.7536 190.746 32.7696 191.298C31.7856 191.85 30.6996 192.126 29.5116 192.126ZM29.5116 189.318C30.5196 189.318 31.3236 188.982 31.9236 188.31C32.5356 187.638 32.8416 186.75 32.8416 185.646C32.8416 184.53 32.5356 183.642 31.9236 182.982C31.3236 182.31 30.5196 181.974 29.5116 181.974C28.4916 181.974 27.6756 182.304 27.0636 182.964C26.4636 183.624 26.1636 184.518 26.1636 185.646C26.1636 186.762 26.4636 187.656 27.0636 188.328C27.6756 188.988 28.4916 189.318 29.5116 189.318ZM50.79 192H47.712L42.564 184.206V192H39.486V179.364H42.564L47.712 187.194V179.364H50.79V192ZM57.8992 181.83V184.386H62.0212V186.762H57.8992V189.534H62.5612V192H54.8212V179.364H62.5612V181.83H57.8992ZM77.1955 179.364L72.8215 187.824V192H69.7435V187.824L65.3695 179.364H68.8615L71.3095 184.656L73.7395 179.364H77.1955ZM94.5456 179.364V192H91.4676V184.422L88.6416 192H86.1576L83.3136 184.404V192H80.2356V179.364H83.8716L87.4176 188.112L90.9276 179.364H94.5456ZM104.535 192.126C103.347 192.126 102.255 191.85 101.259 191.298C100.275 190.746 99.4891 189.978 98.9011 188.994C98.3251 187.998 98.0371 186.882 98.0371 185.646C98.0371 184.41 98.3251 183.3 98.9011 182.316C99.4891 181.332 100.275 180.564 101.259 180.012C102.255 179.46 103.347 179.184 104.535 179.184C105.723 179.184 106.809 179.46 107.793 180.012C108.789 180.564 109.569 181.332 110.133 182.316C110.709 183.3 110.997 184.41 110.997 185.646C110.997 186.882 110.709 187.998 110.133 188.994C109.557 189.978 108.777 190.746 107.793 191.298C106.809 191.85 105.723 192.126 104.535 192.126ZM104.535 189.318C105.543 189.318 106.347 188.982 106.947 188.31C107.559 187.638 107.865 186.75 107.865 185.646C107.865 184.53 107.559 183.642 106.947 182.982C106.347 182.31 105.543 181.974 104.535 181.974C103.515 181.974 102.699 182.304 102.087 182.964C101.487 183.624 101.187 184.518 101.187 185.646C101.187 186.762 101.487 187.656 102.087 188.328C102.699 188.988 103.515 189.318 104.535 189.318ZM120.485 192.126C119.297 192.126 118.205 191.85 117.209 191.298C116.225 190.746 115.439 189.978 114.851 188.994C114.275 187.998 113.987 186.882 113.987 185.646C113.987 184.41 114.275 183.3 114.851 182.316C115.439 181.332 116.225 180.564 117.209 180.012C118.205 179.46 119.297 179.184 120.485 179.184C121.673 179.184 122.759 179.46 123.743 180.012C124.739 180.564 125.519 181.332 126.083 182.316C126.659 183.3 126.947 184.41 126.947 185.646C126.947 186.882 126.659 187.998 126.083 188.994C125.507 189.978 124.727 190.746 123.743 191.298C122.759 191.85 121.673 192.126 120.485 192.126ZM120.485 189.318C121.493 189.318 122.297 188.982 122.897 188.31C123.509 187.638 123.815 186.75 123.815 185.646C123.815 184.53 123.509 183.642 122.897 182.982C122.297 182.31 121.493 181.974 120.485 181.974C119.465 181.974 118.649 182.304 118.037 182.964C117.437 183.624 117.137 184.518 117.137 185.646C117.137 186.762 117.437 187.656 118.037 188.328C118.649 188.988 119.465 189.318 120.485 189.318ZM141.764 192H138.686L133.538 184.206V192H130.46V179.364H133.538L138.686 187.194V179.364H141.764V192Z" fill="#181E4B"/>
<g filter="url(#filter0_i_0_1657)">
<path d="M155.454 78C155.454 121.078 120.756 156 77.9536 156C35.1515 156 0.453613 121.078 0.453613 78C0.453613 34.9218 35.1515 0 77.9536 0C120.756 0 155.454 34.9218 155.454 78ZM15.7458 78C15.7458 112.578 43.5972 140.609 77.9536 140.609C112.31 140.609 140.161 112.578 140.161 78C140.161 43.4219 112.31 15.3908 77.9536 15.3908C43.5972 15.3908 15.7458 43.4219 15.7458 78Z" fill="white"/>
</g>
<path d="M78.3531 8.09762C78.3531 3.87184 81.7871 0.406994 85.9923 0.823101C103.756 2.58082 120.46 10.4289 133.192 23.1613C147.736 37.7055 155.907 57.4318 155.907 78.0004C155.907 98.5691 147.736 118.295 133.192 132.84C120.46 145.572 103.756 153.42 85.9924 155.178C81.7871 155.594 78.3531 152.129 78.3531 147.903C78.3531 143.677 81.7916 140.3 85.9855 139.782C99.6823 138.091 112.511 131.88 122.371 122.019C134.046 110.344 140.604 94.5105 140.604 78.0004C140.604 61.4903 134.046 45.6565 122.371 33.9821C112.511 24.1213 99.6823 17.9103 85.9855 16.2185C81.7916 15.7005 78.3531 12.3234 78.3531 8.09762Z" fill="url(#paint0_linear_0_1657)"/>
<path d="M58.5806 66.24H44.5406V75.36C45.154 74.5067 46.0606 73.8133 47.2606 73.28C48.4606 72.72 49.754 72.44 51.1406 72.44C53.354 72.44 55.154 72.9067 56.5406 73.84C57.9273 74.7467 58.914 75.9333 59.5006 77.4C60.114 78.84 60.4206 80.3733 60.4206 82C60.4206 83.92 60.0606 85.64 59.3406 87.16C58.6206 88.68 57.514 89.88 56.0206 90.76C54.554 91.64 52.7273 92.08 50.5406 92.08C47.7406 92.08 45.474 91.36 43.7406 89.92C42.0073 88.48 40.954 86.56 40.5806 84.16H44.1406C44.4873 85.68 45.2206 86.8667 46.3406 87.72C47.4606 88.5733 48.874 89 50.5806 89C52.6873 89 54.274 88.3733 55.3406 87.12C56.4073 85.84 56.9406 84.16 56.9406 82.08C56.9406 80 56.4073 78.4 55.3406 77.28C54.274 76.1333 52.7006 75.56 50.6206 75.56C49.2073 75.56 47.9673 75.9067 46.9006 76.6C45.8606 77.2667 45.1006 78.1867 44.6206 79.36H41.1806V63.04H58.5806V66.24ZM83.6978 66.24H69.6578V75.36C70.2712 74.5067 71.1778 73.8133 72.3778 73.28C73.5778 72.72 74.8712 72.44 76.2578 72.44C78.4712 72.44 80.2712 72.9067 81.6578 73.84C83.0445 74.7467 84.0312 75.9333 84.6178 77.4C85.2312 78.84 85.5378 80.3733 85.5378 82C85.5378 83.92 85.1778 85.64 84.4578 87.16C83.7378 88.68 82.6312 89.88 81.1378 90.76C79.6712 91.64 77.8445 92.08 75.6578 92.08C72.8578 92.08 70.5912 91.36 68.8578 89.92C67.1245 88.48 66.0712 86.56 65.6978 84.16H69.2578C69.6045 85.68 70.3378 86.8667 71.4578 87.72C72.5778 88.5733 73.9912 89 75.6978 89C77.8045 89 79.3912 88.3733 80.4578 87.12C81.5245 85.84 82.0578 84.16 82.0578 82.08C82.0578 80 81.5245 78.4 80.4578 77.28C79.3912 76.1333 77.8178 75.56 75.7378 75.56C74.3245 75.56 73.0845 75.9067 72.0178 76.6C70.9778 77.2667 70.2178 78.1867 69.7378 79.36H66.2978V63.04H83.6978V66.24ZM89.575 69.6C89.575 67.7867 90.1217 66.3467 91.215 65.28C92.3084 64.1867 93.7084 63.64 95.415 63.64C97.1217 63.64 98.5217 64.1867 99.615 65.28C100.708 66.3467 101.255 67.7867 101.255 69.6C101.255 71.44 100.708 72.9067 99.615 74C98.5217 75.0667 97.1217 75.6 95.415 75.6C93.7084 75.6 92.3084 75.0667 91.215 74C90.1217 72.9067 89.575 71.44 89.575 69.6ZM112.935 64.08L96.735 92H93.135L109.335 64.08H112.935ZM95.415 65.88C94.5084 65.88 93.7884 66.2 93.255 66.84C92.7484 67.4533 92.495 68.3733 92.495 69.6C92.495 70.8267 92.7484 71.76 93.255 72.4C93.7884 73.04 94.5084 73.36 95.415 73.36C96.3217 73.36 97.0417 73.04 97.575 72.4C98.1084 71.7333 98.375 70.8 98.375 69.6C98.375 68.3733 98.1084 67.4533 97.575 66.84C97.0417 66.2 96.3217 65.88 95.415 65.88ZM104.895 86.48C104.895 84.64 105.442 83.1867 106.535 82.12C107.628 81.0267 109.028 80.48 110.735 80.48C112.442 80.48 113.828 81.0267 114.895 82.12C115.988 83.1867 116.535 84.64 116.535 86.48C116.535 88.2933 115.988 89.7467 114.895 90.84C113.828 91.9333 112.442 92.48 110.735 92.48C109.028 92.48 107.628 91.9467 106.535 90.88C105.442 89.7867 104.895 88.32 104.895 86.48ZM110.695 82.76C109.788 82.76 109.068 83.08 108.535 83.72C108.002 84.3333 107.735 85.2533 107.735 86.48C107.735 87.68 108.002 88.6 108.535 89.24C109.068 89.8533 109.788 90.16 110.695 90.16C111.602 90.16 112.322 89.8533 112.855 89.24C113.388 88.6 113.655 87.68 113.655 86.48C113.655 85.2533 113.388 84.3333 112.855 83.72C112.322 83.08 111.602 82.76 110.695 82.76Z" fill="#525252"/>
<defs>
<filter id="filter0_i_0_1657" x="0.453613" y="0" width="156" height="160" filterUnits="userSpaceOnUse" color-interpolation-filters="sRGB">
<feFlood flood-opacity="0" result="BackgroundImageFix"/>
<feBlend mode="normal" in="SourceGraphic" in2="BackgroundImageFix" result="shape"/>
<feColorMatrix in="SourceAlpha" type="matrix" values="0 0 0 0 0 0 0 0 0 0 0 0 0 0 0 0 0 0 127 0" result="hardAlpha"/>
<feOffset dx="1" dy="4"/>
<feGaussianBlur stdDeviation="6"/>
<feComposite in2="hardAlpha" operator="arithmetic" k2="-1" k3="1"/>
<feColorMatrix type="matrix" values="0 0 0 0 0 0 0 0 0 0 0 0 0 0 0 0 0 0 0.25 0"/>
<feBlend mode="normal" in2="shape" result="effect1_innerShadow_0_1657"/>
</filter>
<linearGradient id="paint0_linear_0_1657" x1="-19.5204" y1="147.179" x2="164.904" y2="-44.5353" gradientUnits="userSpaceOnUse">
<stop stop-color="#FFB47D"/>
<stop offset="1" stop-color="#FF4098"/>
</linearGradient>
</defs>
</svg>
