<svg width="14" height="14" viewBox="0 0 14 14" fill="none" xmlns="http://www.w3.org/2000/svg">
<g clip-path="url(#clip0_0_796)">
<path d="M13.6543 0.150827C13.2854 0.0428744 4.26232 -0.855475 1.09349 3.42567C-0.309954 5.32223 -0.331036 7.9221 1.02316 11.1525C0.679642 11.8655 0.378916 12.6166 0.133834 13.4091C0.0593226 13.6499 0.1941 13.9052 0.434642 13.9795C0.479486 13.9934 0.524904 14 0.569747 14C0.764216 14 0.944766 13.8744 1.00503 13.6787C3.42025 5.87028 11.2692 2.09267 13.6761 1.13835C13.9104 1.0454 14.2234 0.317405 13.6543 0.150827Z" fill="#84829A"/>
<path d="M2.47168 12.1297C3.77808 12.6777 5.08429 12.9586 6.29898 12.9586C7.39078 12.9586 8.40898 12.7341 9.28639 12.2789C11.0522 11.3629 12.1313 9.61072 12.4068 7.21123C12.6876 4.76581 13.0371 3.23407 13.3286 2.29703C10.7333 3.49419 5.16853 6.59731 2.47168 12.1297Z" fill="#84829A"/>
</g>
<defs>
<clipPath id="clip0_0_796">
<rect width="14" height="14" fill="white"/>
</clipPath>
</defs>
</svg>
