<svg width="28" height="29" viewBox="0 0 28 29" fill="none" xmlns="http://www.w3.org/2000/svg">
<path d="M21.4884 12.0134C21.4884 9.96174 20.6734 7.99412 19.2226 6.54339C17.7719 5.09266 15.8043 4.27765 13.7526 4.27765C11.701 4.27765 9.73338 5.09266 8.28265 6.54339C6.83192 7.99412 6.0169 9.96174 6.0169 12.0134C6.0169 15.1868 8.55594 19.3228 13.7526 24.2771C18.9493 19.3228 21.4884 15.1868 21.4884 12.0134ZM13.7526 26.6253C7.44887 20.8957 4.29785 16.0239 4.29785 12.0134C4.29785 9.50582 5.29398 7.10095 7.06709 5.32784C8.84021 3.55472 11.2451 2.55859 13.7526 2.55859C16.2602 2.55859 18.6651 3.55472 20.4382 5.32784C22.2113 7.10095 23.2074 9.50582 23.2074 12.0134C23.2074 16.0239 20.0564 20.8957 13.7526 26.6253Z" fill="#7D7D7D"/>
<path d="M13.7522 14.5928C14.4361 14.5928 15.092 14.3211 15.5756 13.8375C16.0591 13.3539 16.3308 12.6981 16.3308 12.0142C16.3308 11.3303 16.0591 10.6744 15.5756 10.1909C15.092 9.70728 14.4361 9.43561 13.7522 9.43561C13.0683 9.43561 12.4125 9.70728 11.9289 10.1909C11.4453 10.6744 11.1736 11.3303 11.1736 12.0142C11.1736 12.6981 11.4453 13.3539 11.9289 13.8375C12.4125 14.3211 13.0683 14.5928 13.7522 14.5928ZM13.7522 16.3118C12.6124 16.3118 11.5193 15.859 10.7133 15.0531C9.90737 14.2471 9.45459 13.154 9.45459 12.0142C9.45459 10.8744 9.90737 9.78126 10.7133 8.9753C11.5193 8.16934 12.6124 7.71655 13.7522 7.71655C14.892 7.71655 15.9851 8.16934 16.7911 8.9753C17.5971 9.78126 18.0499 10.8744 18.0499 12.0142C18.0499 13.154 17.5971 14.2471 16.7911 15.0531C15.9851 15.859 14.892 16.3118 13.7522 16.3118Z" fill="#7D7D7D"/>
</svg>
