<svg width="26" height="26" viewBox="0 0 26 26" fill="none" xmlns="http://www.w3.org/2000/svg">
<path d="M0.8125 16.0879C1.02799 16.0879 1.23465 16.1735 1.38702 16.3259C1.5394 16.4782 1.625 16.6849 1.625 16.9004V20.9629C1.625 21.3939 1.7962 21.8072 2.10095 22.1119C2.4057 22.4167 2.81902 22.5879 3.25 22.5879H22.75C23.181 22.5879 23.5943 22.4167 23.899 22.1119C24.2038 21.8072 24.375 21.3939 24.375 20.9629V16.9004C24.375 16.6849 24.4606 16.4782 24.613 16.3259C24.7653 16.1735 24.972 16.0879 25.1875 16.0879C25.403 16.0879 25.6097 16.1735 25.762 16.3259C25.9144 16.4782 26 16.6849 26 16.9004V20.9629C26 21.8248 25.6576 22.6515 25.0481 23.261C24.4386 23.8705 23.612 24.2129 22.75 24.2129H3.25C2.38805 24.2129 1.5614 23.8705 0.951903 23.261C0.34241 22.6515 0 21.8248 0 20.9629V16.9004C0 16.6849 0.0856024 16.4782 0.237976 16.3259C0.390349 16.1735 0.597012 16.0879 0.8125 16.0879Z" fill="black"/>
<path d="M13.5752 19.2613C13.4997 19.337 13.4101 19.397 13.3114 19.438C13.2126 19.4789 13.1068 19.5 12.9999 19.5C12.8931 19.5 12.7873 19.4789 12.6885 19.438C12.5898 19.397 12.5002 19.337 12.4247 19.2613L7.5497 14.3863C7.39713 14.2337 7.31142 14.0268 7.31142 13.811C7.31142 13.5953 7.39713 13.3884 7.5497 13.2358C7.70227 13.0832 7.90919 12.9975 8.12495 12.9975C8.34071 12.9975 8.54763 13.0832 8.7002 13.2358L12.1875 16.7247L12.1875 2.43605C12.1875 2.22056 12.2731 2.01389 12.4254 1.86152C12.5778 1.70915 12.7845 1.62355 13 1.62355C13.2154 1.62355 13.4221 1.70915 13.5745 1.86152C13.7268 2.01389 13.8125 2.22056 13.8125 2.43605L13.8125 16.7247L17.2997 13.2358C17.3752 13.1603 17.4649 13.1003 17.5636 13.0594C17.6623 13.0186 17.7681 12.9975 17.875 12.9975C17.9818 12.9975 18.0876 13.0186 18.1863 13.0594C18.285 13.1003 18.3747 13.1603 18.4502 13.2358C18.5257 13.3113 18.5857 13.401 18.6266 13.4997C18.6674 13.5984 18.6885 13.7042 18.6885 13.811C18.6885 13.9179 18.6674 14.0237 18.6266 14.1224C18.5857 14.2211 18.5257 14.3108 18.4502 14.3863L13.5752 19.2613Z" fill="black"/>
</svg>
