<svg width="14" height="14" viewBox="0 0 14 14" fill="none" xmlns="http://www.w3.org/2000/svg">
<g clip-path="url(#clip0_0_810)">
<path d="M13.501 3.56123e-08C13.4233 -2.92608e-05 13.3467 0.0180173 13.2773 0.0527336L9.48833 1.94771L5.2039 0.0432416C5.1969 0.0402533 5.1889 0.039726 5.1814 0.0367378C5.16213 0.0295308 5.14241 0.0235251 5.1224 0.0187497C5.10251 0.0133885 5.08229 0.00919911 5.0619 0.00624017C5.0213 0.00290038 4.98049 0.00290038 4.93991 0.00624017C4.91952 0.00919911 4.89931 0.0133885 4.87942 0.0187497C4.85941 0.0235251 4.83969 0.0295308 4.82041 0.0367378C4.81291 0.039726 4.80492 0.040224 4.79791 0.0432416L0.297984 2.04322C0.117342 2.12343 0.000947272 2.30255 0.000976568 2.50019V13.5C0.00106446 13.6692 0.0866393 13.8268 0.228463 13.919C0.370317 14.0114 0.54923 14.0257 0.703944 13.957L5.00088 12.047L9.29782 13.957C9.30532 13.96 9.31331 13.957 9.32081 13.9615C9.44187 14.0157 9.58082 14.0126 9.6993 13.953C9.70729 13.9496 9.71629 13.953 9.72428 13.9475L13.7242 11.9476C13.8937 11.8629 14.0008 11.6896 14.0007 11.5V0.500237C14.0009 0.224088 13.7771 0.000117221 13.501 3.56123e-08ZM4.50091 11.1751L1.00095 12.7305V2.8252L4.50091 1.26971V11.1751ZM9.00084 12.7305L5.50088 11.1751V1.26971L9.00084 2.82517V12.7305ZM13.0008 11.1911L10.0008 12.691V2.80918L13.0008 1.3092V11.1911Z" fill="#84829A"/>
</g>
<defs>
<clipPath id="clip0_0_810">
<rect width="14" height="14" fill="white"/>
</clipPath>
</defs>
</svg>
