<svg width="178" height="199" viewBox="0 0 178 199" fill="none" xmlns="http://www.w3.org/2000/svg">
<path d="M16.3335 179.364V192H13.2555V184.422L10.4295 192H7.94547L5.10147 184.404V192H2.02347V179.364H5.65947L9.20547 188.112L12.7155 179.364H16.3335ZM23.3709 179.364V186.924C23.3709 187.68 23.5569 188.262 23.9289 188.67C24.3009 189.078 24.8469 189.282 25.5669 189.282C26.2869 189.282 26.8389 189.078 27.2229 188.67C27.6069 188.262 27.7989 187.68 27.7989 186.924V179.364H30.8769V186.906C30.8769 188.034 30.6369 188.988 30.1569 189.768C29.6769 190.548 29.0289 191.136 28.2129 191.532C27.4089 191.928 26.5089 192.126 25.5129 192.126C24.5169 192.126 23.6229 191.934 22.8309 191.55C22.0509 191.154 21.4329 190.566 20.9769 189.786C20.5209 188.994 20.2929 188.034 20.2929 186.906V179.364H23.3709ZM39.4103 192.126C38.4863 192.126 37.6583 191.976 36.9263 191.676C36.1943 191.376 35.6063 190.932 35.1623 190.344C34.7303 189.756 34.5023 189.048 34.4783 188.22H37.7543C37.8023 188.688 37.9643 189.048 38.2403 189.3C38.5163 189.54 38.8763 189.66 39.3203 189.66C39.7763 189.66 40.1363 189.558 40.4003 189.354C40.6643 189.138 40.7963 188.844 40.7963 188.472C40.7963 188.16 40.6883 187.902 40.4723 187.698C40.2683 187.494 40.0103 187.326 39.6983 187.194C39.3983 187.062 38.9663 186.912 38.4023 186.744C37.5863 186.492 36.9203 186.24 36.4043 185.988C35.8883 185.736 35.4443 185.364 35.0723 184.872C34.7003 184.38 34.5143 183.738 34.5143 182.946C34.5143 181.77 34.9403 180.852 35.7923 180.192C36.6443 179.52 37.7543 179.184 39.1223 179.184C40.5143 179.184 41.6363 179.52 42.4883 180.192C43.3403 180.852 43.7963 181.776 43.8563 182.964H40.5263C40.5023 182.556 40.3523 182.238 40.0763 182.01C39.8003 181.77 39.4463 181.65 39.0143 181.65C38.6423 181.65 38.3423 181.752 38.1143 181.956C37.8863 182.148 37.7723 182.43 37.7723 182.802C37.7723 183.21 37.9643 183.528 38.3483 183.756C38.7323 183.984 39.3323 184.23 40.1483 184.494C40.9643 184.77 41.6243 185.034 42.1283 185.286C42.6443 185.538 43.0883 185.904 43.4603 186.384C43.8323 186.864 44.0183 187.482 44.0183 188.238C44.0183 188.958 43.8323 189.612 43.4603 190.2C43.1003 190.788 42.5723 191.256 41.8763 191.604C41.1803 191.952 40.3583 192.126 39.4103 192.126ZM50.7905 179.364V192H47.7125V179.364H50.7905ZM54.2991 185.664C54.2991 184.416 54.5691 183.306 55.1091 182.334C55.6491 181.35 56.3991 180.588 57.3591 180.048C58.3311 179.496 59.4291 179.22 60.6531 179.22C62.1531 179.22 63.4371 179.616 64.5051 180.408C65.5731 181.2 66.2871 182.28 66.6471 183.648H63.2631C63.0111 183.12 62.6511 182.718 62.1831 182.442C61.7271 182.166 61.2051 182.028 60.6171 182.028C59.6691 182.028 58.9011 182.358 58.3131 183.018C57.7251 183.678 57.4311 184.56 57.4311 185.664C57.4311 186.768 57.7251 187.65 58.3131 188.31C58.9011 188.97 59.6691 189.3 60.6171 189.3C61.2051 189.3 61.7271 189.162 62.1831 188.886C62.6511 188.61 63.0111 188.208 63.2631 187.68H66.6471C66.2871 189.048 65.5731 190.128 64.5051 190.92C63.4371 191.7 62.1531 192.09 60.6531 192.09C59.4291 192.09 58.3311 191.82 57.3591 191.28C56.3991 190.728 55.6491 189.966 55.1091 188.994C54.5691 188.022 54.2991 186.912 54.2991 185.664ZM78.1981 189.768H73.4821L72.7261 192H69.5041L74.0761 179.364H77.6401L82.2121 192H78.9541L78.1981 189.768ZM77.4061 187.392L75.8401 182.766L74.2921 187.392H77.4061ZM88.4816 189.624H92.5136V192H85.4036V179.364H88.4816V189.624ZM104.474 181.83V184.386H108.596V186.762H104.474V189.534H109.136V192H101.396V179.364H109.136V181.83H104.474ZM124.796 179.364L120.314 192H116.462L111.98 179.364H115.256L118.388 188.904L121.538 179.364H124.796ZM130.961 181.83V184.386H135.083V186.762H130.961V189.534H135.623V192H127.883V179.364H135.623V181.83H130.961ZM150.725 192H147.647L142.499 184.206V192H139.421V179.364H142.499L147.647 187.194V179.364H150.725V192ZM163.846 179.364V181.83H160.498V192H157.42V181.83H154.072V179.364H163.846ZM171.763 192.126C170.839 192.126 170.011 191.976 169.279 191.676C168.547 191.376 167.959 190.932 167.515 190.344C167.083 189.756 166.855 189.048 166.831 188.22H170.107C170.155 188.688 170.317 189.048 170.593 189.3C170.869 189.54 171.229 189.66 171.673 189.66C172.129 189.66 172.489 189.558 172.753 189.354C173.017 189.138 173.149 188.844 173.149 188.472C173.149 188.16 173.041 187.902 172.825 187.698C172.621 187.494 172.363 187.326 172.051 187.194C171.751 187.062 171.319 186.912 170.755 186.744C169.939 186.492 169.273 186.24 168.757 185.988C168.241 185.736 167.797 185.364 167.425 184.872C167.053 184.38 166.867 183.738 166.867 182.946C166.867 181.77 167.293 180.852 168.145 180.192C168.997 179.52 170.107 179.184 171.475 179.184C172.867 179.184 173.989 179.52 174.841 180.192C175.693 180.852 176.149 181.776 176.209 182.964H172.879C172.855 182.556 172.705 182.238 172.429 182.01C172.153 181.77 171.799 181.65 171.367 181.65C170.995 181.65 170.695 181.752 170.467 181.956C170.239 182.148 170.125 182.43 170.125 182.802C170.125 183.21 170.317 183.528 170.701 183.756C171.085 183.984 171.685 184.23 172.501 184.494C173.317 184.77 173.977 185.034 174.481 185.286C174.997 185.538 175.441 185.904 175.813 186.384C176.185 186.864 176.371 187.482 176.371 188.238C176.371 188.958 176.185 189.612 175.813 190.2C175.453 190.788 174.925 191.256 174.229 191.604C173.533 191.952 172.711 192.126 171.763 192.126Z" fill="#181E4B"/>
<g filter="url(#filter0_i_0_1662)">
<path d="M166.907 78C166.907 121.078 132.21 156 89.4075 156C46.6054 156 11.9075 121.078 11.9075 78C11.9075 34.9218 46.6054 0 89.4075 0C132.21 0 166.907 34.9218 166.907 78ZM27.1996 78C27.1996 112.578 55.051 140.609 89.4075 140.609C123.764 140.609 151.615 112.578 151.615 78C151.615 43.4219 123.764 15.3908 89.4075 15.3908C55.051 15.3908 27.1996 43.4219 27.1996 78Z" fill="white"/>
</g>
<path d="M89.8069 8.09762C89.8069 3.87184 93.2409 0.40707 97.4461 0.823299C107.988 1.86679 118.233 5.06224 127.536 10.2422C139.073 16.6663 148.779 25.9301 155.734 37.1555C162.689 48.3809 166.662 61.1963 167.277 74.3872C167.773 85.0233 166.073 95.6195 162.313 105.524C160.813 109.474 156.182 111.006 152.398 109.125C148.614 107.243 147.121 102.661 148.525 98.6749C151.179 91.1356 152.365 83.1321 151.991 75.1002C151.497 64.5121 148.308 54.2254 142.725 45.215C137.143 36.2045 129.352 28.7687 120.091 23.6121C113.066 19.7005 105.372 17.1987 97.4393 16.2187C93.2454 15.7006 89.8069 12.3234 89.8069 8.09762Z" fill="url(#paint0_linear_0_1662)"/>
<path d="M51.7958 70.36C51.9824 67.9067 52.9291 65.9867 54.6358 64.6C56.3424 63.2133 58.5558 62.52 61.2758 62.52C63.0891 62.52 64.6491 62.8533 65.9558 63.52C67.2891 64.16 68.2891 65.04 68.9558 66.16C69.6491 67.28 69.9958 68.5467 69.9958 69.96C69.9958 71.6133 69.5158 73.04 68.5558 74.24C67.6224 75.44 66.3958 76.2133 64.8758 76.56V76.76C66.6091 77.1867 67.9824 78.0267 68.9958 79.28C70.0091 80.5333 70.5158 82.1733 70.5158 84.2C70.5158 85.72 70.1691 87.0933 69.4758 88.32C68.7824 89.52 67.7424 90.4667 66.3558 91.16C64.9691 91.8533 63.3024 92.2 61.3558 92.2C58.5291 92.2 56.2091 91.4667 54.3958 90C52.5824 88.5067 51.5691 86.4 51.3558 83.68H54.8758C55.0624 85.28 55.7158 86.5867 56.8358 87.6C57.9558 88.6133 59.4491 89.12 61.3158 89.12C63.1824 89.12 64.5958 88.64 65.5558 87.68C66.5424 86.6933 67.0358 85.4267 67.0358 83.88C67.0358 81.88 66.3691 80.44 65.0358 79.56C63.7024 78.68 61.6891 78.24 58.9958 78.24H58.0758V75.2H59.0358C61.4891 75.1733 63.3424 74.7733 64.5958 74C65.8491 73.2 66.4758 71.9733 66.4758 70.32C66.4758 68.9067 66.0091 67.7733 65.0758 66.92C64.1691 66.0667 62.8624 65.64 61.1558 65.64C59.5024 65.64 58.1691 66.0667 57.1558 66.92C56.1424 67.7733 55.5424 68.92 55.3558 70.36H51.7958ZM75.4304 77.24C75.4304 72.6533 76.1771 69.08 77.6704 66.52C79.1638 63.9333 81.7771 62.64 85.5104 62.64C89.2171 62.64 91.8171 63.9333 93.3104 66.52C94.8038 69.08 95.5504 72.6533 95.5504 77.24C95.5504 81.9067 94.8038 85.5333 93.3104 88.12C91.8171 90.7067 89.2171 92 85.5104 92C81.7771 92 79.1638 90.7067 77.6704 88.12C76.1771 85.5333 75.4304 81.9067 75.4304 77.24ZM91.9504 77.24C91.9504 74.92 91.7904 72.96 91.4704 71.36C91.1771 69.7333 90.5504 68.4267 89.5904 67.44C88.6571 66.4533 87.2971 65.96 85.5104 65.96C83.6971 65.96 82.3104 66.4533 81.3504 67.44C80.4171 68.4267 79.7904 69.7333 79.4704 71.36C79.1771 72.96 79.0304 74.92 79.0304 77.24C79.0304 79.64 79.1771 81.6533 79.4704 83.28C79.7904 84.9067 80.4171 86.2133 81.3504 87.2C82.3104 88.1867 83.6971 88.68 85.5104 88.68C87.2971 88.68 88.6571 88.1867 89.5904 87.2C90.5504 86.2133 91.1771 84.9067 91.4704 83.28C91.7904 81.6533 91.9504 79.64 91.9504 77.24ZM99.7476 69.6C99.7476 67.7867 100.294 66.3467 101.388 65.28C102.481 64.1867 103.881 63.64 105.588 63.64C107.294 63.64 108.694 64.1867 109.788 65.28C110.881 66.3467 111.428 67.7867 111.428 69.6C111.428 71.44 110.881 72.9067 109.788 74C108.694 75.0667 107.294 75.6 105.588 75.6C103.881 75.6 102.481 75.0667 101.388 74C100.294 72.9067 99.7476 71.44 99.7476 69.6ZM123.108 64.08L106.908 92H103.308L119.508 64.08H123.108ZM105.588 65.88C104.681 65.88 103.961 66.2 103.428 66.84C102.921 67.4533 102.668 68.3733 102.668 69.6C102.668 70.8267 102.921 71.76 103.428 72.4C103.961 73.04 104.681 73.36 105.588 73.36C106.494 73.36 107.214 73.04 107.748 72.4C108.281 71.7333 108.548 70.8 108.548 69.6C108.548 68.3733 108.281 67.4533 107.748 66.84C107.214 66.2 106.494 65.88 105.588 65.88ZM115.068 86.48C115.068 84.64 115.614 83.1867 116.708 82.12C117.801 81.0267 119.201 80.48 120.908 80.48C122.614 80.48 124.001 81.0267 125.068 82.12C126.161 83.1867 126.708 84.64 126.708 86.48C126.708 88.2933 126.161 89.7467 125.068 90.84C124.001 91.9333 122.614 92.48 120.908 92.48C119.201 92.48 117.801 91.9467 116.708 90.88C115.614 89.7867 115.068 88.32 115.068 86.48ZM120.868 82.76C119.961 82.76 119.241 83.08 118.708 83.72C118.174 84.3333 117.908 85.2533 117.908 86.48C117.908 87.68 118.174 88.6 118.708 89.24C119.241 89.8533 119.961 90.16 120.868 90.16C121.774 90.16 122.494 89.8533 123.028 89.24C123.561 88.6 123.828 87.68 123.828 86.48C123.828 85.2533 123.561 84.3333 123.028 83.72C122.494 83.08 121.774 82.76 120.868 82.76Z" fill="#525252"/>
<defs>
<filter id="filter0_i_0_1662" x="11.9075" y="0" width="156" height="160" filterUnits="userSpaceOnUse" color-interpolation-filters="sRGB">
<feFlood flood-opacity="0" result="BackgroundImageFix"/>
<feBlend mode="normal" in="SourceGraphic" in2="BackgroundImageFix" result="shape"/>
<feColorMatrix in="SourceAlpha" type="matrix" values="0 0 0 0 0 0 0 0 0 0 0 0 0 0 0 0 0 0 127 0" result="hardAlpha"/>
<feOffset dx="1" dy="4"/>
<feGaussianBlur stdDeviation="6"/>
<feComposite in2="hardAlpha" operator="arithmetic" k2="-1" k3="1"/>
<feColorMatrix type="matrix" values="0 0 0 0 0 0 0 0 0 0 0 0 0 0 0 0 0 0 0.25 0"/>
<feBlend mode="normal" in2="shape" result="effect1_innerShadow_0_1662"/>
</filter>
<linearGradient id="paint0_linear_0_1662" x1="-8.06653" y1="147.179" x2="176.357" y2="-44.5353" gradientUnits="userSpaceOnUse">
<stop stop-color="#D820F9"/>
<stop offset="1" stop-color="#7202FF"/>
</linearGradient>
</defs>
</svg>
