<svg width="106" height="106" viewBox="0 0 106 106" fill="none" xmlns="http://www.w3.org/2000/svg">
<rect x="27" y="27" width="55" height="55" fill="white"/>
<path d="M53 6.625C27.3902 6.625 6.625 27.3902 6.625 53C6.625 78.6098 27.3902 99.375 53 99.375C78.6098 99.375 99.375 78.6098 99.375 53C99.375 27.3902 78.6098 6.625 53 6.625ZM67.9166 53.7143L45.3088 70.1629C45.1848 70.252 45.0387 70.3051 44.8866 70.3166C44.7344 70.328 44.582 70.2973 44.4461 70.2277C44.3102 70.1582 44.1962 70.0526 44.1164 69.9224C44.0367 69.7923 43.9944 69.6427 43.9941 69.49V36.6135C43.9936 36.4605 44.0355 36.3105 44.1151 36.1799C44.1946 36.0493 44.3088 35.9433 44.445 35.8736C44.5811 35.8039 44.7339 35.7733 44.8863 35.7851C45.0388 35.797 45.185 35.8508 45.3088 35.9406L67.9166 52.3789C68.0234 52.4544 68.1105 52.5545 68.1707 52.6707C68.2308 52.7869 68.2622 52.9158 68.2622 53.0466C68.2622 53.1774 68.2308 53.3063 68.1707 53.4225C68.1105 53.5387 68.0234 53.6387 67.9166 53.7143Z" fill="#DF6951"/>
</svg>
