<svg width="612" height="612" viewBox="0 0 612 612" fill="none" xmlns="http://www.w3.org/2000/svg">
<mask id="path-1-inside-1_0_1612" fill="white">
<path d="M612 306C612 474.999 474.999 612 306 612C137.001 612 0 474.999 0 306C0 137.001 137.001 0 306 0C474.999 0 612 137.001 612 306ZM9.20993 306C9.20993 469.913 142.087 602.79 306 602.79C469.913 602.79 602.79 469.913 602.79 306C602.79 142.087 469.913 9.20993 306 9.20993C142.087 9.20993 9.20993 142.087 9.20993 306Z"/>
</mask>
<path d="M612 306C612 474.999 474.999 612 306 612C137.001 612 0 474.999 0 306C0 137.001 137.001 0 306 0C474.999 0 612 137.001 612 306ZM9.20993 306C9.20993 469.913 142.087 602.79 306 602.79C469.913 602.79 602.79 469.913 602.79 306C602.79 142.087 469.913 9.20993 306 9.20993C142.087 9.20993 9.20993 142.087 9.20993 306Z" stroke="#DF6951" stroke-width="2" stroke-dasharray="86 86" mask="url(#path-1-inside-1_0_1612)"/>
</svg>
