<svg width="14" height="14" viewBox="0 0 14 14" fill="none" xmlns="http://www.w3.org/2000/svg">
<path d="M12.3434 1.24215L6.02589 7.58298C5.95347 7.54102 5.87731 7.50587 5.79839 7.47798L1.62756 6.06631C1.50142 6.0347 1.38947 5.96185 1.30948 5.85934C1.22948 5.75682 1.18604 5.63051 1.18604 5.50048C1.18604 5.37045 1.22948 5.24414 1.30948 5.14162C1.38947 5.03911 1.50142 4.96626 1.62756 4.93465L11.9759 1.25381C12.0435 1.23085 12.1145 1.21902 12.1859 1.21881C12.2393 1.21795 12.2925 1.22583 12.3434 1.24215Z" fill="#84829A"/>
<path d="M12.7461 2.02375L9.06528 12.3838C9.02469 12.5045 8.94569 12.6086 8.84036 12.6803C8.73503 12.7519 8.60915 12.7871 8.48194 12.7804C8.35327 12.7863 8.22627 12.7494 8.12074 12.6756C8.01522 12.6017 7.93712 12.495 7.89861 12.3721L6.51027 8.20125C6.48238 8.12233 6.44723 8.04617 6.40527 7.97375L12.7578 1.65625C12.7936 1.7768 12.7895 1.90571 12.7461 2.02375Z" fill="#84829A"/>
</svg>
