<svg width="92" height="16" viewBox="0 0 92 16" fill="none" xmlns="http://www.w3.org/2000/svg">
<g clip-path="url(#clip0_0_1055)">
<path d="M3.61212 15.443C3.22612 15.641 2.78812 15.294 2.86612 14.851L3.69612 10.121L0.173118 6.76501C-0.155882 6.45101 0.0151183 5.87701 0.456118 5.81501L5.35412 5.11901L7.53812 0.792012C7.73512 0.402012 8.26812 0.402012 8.46512 0.792012L10.6491 5.11901L15.5471 5.81501C15.9881 5.87701 16.1591 6.45101 15.8291 6.76501L12.3071 10.121L13.1371 14.851C13.2151 15.294 12.7771 15.641 12.3911 15.443L8.00012 13.187L3.61112 15.443H3.61212Z" fill="#FFBA0A"/>
</g>
<g clip-path="url(#clip1_0_1055)">
<path d="M22.6121 15.443C22.2261 15.641 21.7881 15.294 21.8661 14.851L22.6961 10.121L19.1731 6.76501C18.8441 6.45101 19.0151 5.87701 19.4561 5.81501L24.3541 5.11901L26.5381 0.792012C26.7351 0.402012 27.2681 0.402012 27.4651 0.792012L29.6491 5.11901L34.5471 5.81501C34.9881 5.87701 35.1591 6.45101 34.8291 6.76501L31.3071 10.121L32.1371 14.851C32.2151 15.294 31.7771 15.641 31.3911 15.443L27.0001 13.187L22.6111 15.443H22.6121Z" fill="#FFBA0A"/>
</g>
<g clip-path="url(#clip2_0_1055)">
<path d="M41.6121 15.443C41.2261 15.641 40.7881 15.294 40.8661 14.851L41.6961 10.121L38.1731 6.76501C37.8441 6.45101 38.0151 5.87701 38.4561 5.81501L43.3541 5.11901L45.5381 0.792012C45.7351 0.402012 46.2681 0.402012 46.4651 0.792012L48.6491 5.11901L53.5471 5.81501C53.9881 5.87701 54.1591 6.45101 53.8291 6.76501L50.3071 10.121L51.1371 14.851C51.2151 15.294 50.7771 15.641 50.3911 15.443L46.0001 13.187L41.6111 15.443H41.6121Z" fill="#FFBA0A"/>
</g>
<g clip-path="url(#clip3_0_1055)">
<path d="M60.6121 15.443C60.2261 15.641 59.7881 15.294 59.8661 14.851L60.6961 10.121L57.1731 6.76501C56.8441 6.45101 57.0151 5.87701 57.4561 5.81501L62.3541 5.11901L64.5381 0.792012C64.7351 0.402012 65.2681 0.402012 65.4651 0.792012L67.6491 5.11901L72.5471 5.81501C72.9881 5.87701 73.1591 6.45101 72.8291 6.76501L69.3071 10.121L70.1371 14.851C70.2151 15.294 69.7771 15.641 69.3911 15.443L65.0001 13.187L60.6111 15.443H60.6121Z" fill="#FFBA0A"/>
</g>
<g clip-path="url(#clip4_0_1055)">
<path d="M79.6121 15.443C79.2261 15.641 78.7881 15.294 78.8661 14.851L79.6961 10.121L76.1731 6.76501C75.8441 6.45101 76.0151 5.87701 76.4561 5.81501L81.3541 5.11901L83.5381 0.792012C83.7351 0.402012 84.2681 0.402012 84.4651 0.792012L86.6491 5.11901L91.5471 5.81501C91.9881 5.87701 92.1591 6.45101 91.8291 6.76501L88.3071 10.121L89.1371 14.851C89.2151 15.294 88.7771 15.641 88.3911 15.443L84.0001 13.187L79.6111 15.443H79.6121Z" fill="#FFBA0A"/>
</g>
<defs>
<clipPath id="clip0_0_1055">
<rect width="16" height="16" fill="white"/>
</clipPath>
<clipPath id="clip1_0_1055">
<rect width="16" height="16" fill="white" transform="translate(19)"/>
</clipPath>
<clipPath id="clip2_0_1055">
<rect width="16" height="16" fill="white" transform="translate(38)"/>
</clipPath>
<clipPath id="clip3_0_1055">
<rect width="16" height="16" fill="white" transform="translate(57)"/>
</clipPath>
<clipPath id="clip4_0_1055">
<rect width="16" height="16" fill="white" transform="translate(76)"/>
</clipPath>
</defs>
</svg>
