<svg width="156" height="199" viewBox="0 0 156 199" fill="none" xmlns="http://www.w3.org/2000/svg">
<path d="M28.978 179.364L24.496 192H20.644L16.162 179.364H19.438L22.57 188.904L25.72 179.364H28.978ZM39.9304 189.768H35.2144L34.4584 192H31.2364L35.8084 179.364H39.3724L43.9444 192H40.6864L39.9304 189.768ZM39.1384 187.392L37.5724 182.766L36.0244 187.392H39.1384ZM46.6139 185.664C46.6139 184.416 46.8839 183.306 47.4239 182.334C47.9639 181.35 48.7139 180.588 49.6739 180.048C50.6459 179.496 51.7439 179.22 52.9679 179.22C54.4679 179.22 55.7519 179.616 56.8199 180.408C57.8879 181.2 58.6019 182.28 58.9619 183.648H55.5779C55.3259 183.12 54.9659 182.718 54.4979 182.442C54.0419 182.166 53.5199 182.028 52.9319 182.028C51.9839 182.028 51.2159 182.358 50.6279 183.018C50.0399 183.678 49.7459 184.56 49.7459 185.664C49.7459 186.768 50.0399 187.65 50.6279 188.31C51.2159 188.97 51.9839 189.3 52.9319 189.3C53.5199 189.3 54.0419 189.162 54.4979 188.886C54.9659 188.61 55.3259 188.208 55.5779 187.68H58.9619C58.6019 189.048 57.8879 190.128 56.8199 190.92C55.7519 191.7 54.4679 192.09 52.9679 192.09C51.7439 192.09 50.6459 191.82 49.6739 191.28C48.7139 190.728 47.9639 189.966 47.4239 188.994C46.8839 188.022 46.6139 186.912 46.6139 185.664ZM70.5129 189.768H65.7969L65.0409 192H61.8189L66.3909 179.364H69.9549L74.5269 192H71.2689L70.5129 189.768ZM69.7209 187.392L68.1549 182.766L66.6069 187.392H69.7209ZM86.8083 179.364V181.83H83.4603V192H80.3823V181.83H77.0343V179.364H86.8083ZM93.2311 179.364V192H90.1531V179.364H93.2311ZM103.238 192.126C102.05 192.126 100.958 191.85 99.9617 191.298C98.9777 190.746 98.1917 189.978 97.6037 188.994C97.0277 187.998 96.7397 186.882 96.7397 185.646C96.7397 184.41 97.0277 183.3 97.6037 182.316C98.1917 181.332 98.9777 180.564 99.9617 180.012C100.958 179.46 102.05 179.184 103.238 179.184C104.426 179.184 105.512 179.46 106.496 180.012C107.492 180.564 108.272 181.332 108.836 182.316C109.412 183.3 109.7 184.41 109.7 185.646C109.7 186.882 109.412 187.998 108.836 188.994C108.26 189.978 107.48 190.746 106.496 191.298C105.512 191.85 104.426 192.126 103.238 192.126ZM103.238 189.318C104.246 189.318 105.05 188.982 105.65 188.31C106.262 187.638 106.568 186.75 106.568 185.646C106.568 184.53 106.262 183.642 105.65 182.982C105.05 182.31 104.246 181.974 103.238 181.974C102.218 181.974 101.402 182.304 100.79 182.964C100.19 183.624 99.8897 184.518 99.8897 185.646C99.8897 186.762 100.19 187.656 100.79 188.328C101.402 188.988 102.218 189.318 103.238 189.318ZM124.516 192H121.438L116.29 184.206V192H113.212V179.364H116.29L121.438 187.194V179.364H124.516V192ZM133.119 192.126C132.195 192.126 131.367 191.976 130.635 191.676C129.903 191.376 129.315 190.932 128.871 190.344C128.439 189.756 128.211 189.048 128.187 188.22H131.463C131.511 188.688 131.673 189.048 131.949 189.3C132.225 189.54 132.585 189.66 133.029 189.66C133.485 189.66 133.845 189.558 134.109 189.354C134.373 189.138 134.505 188.844 134.505 188.472C134.505 188.16 134.397 187.902 134.181 187.698C133.977 187.494 133.719 187.326 133.407 187.194C133.107 187.062 132.675 186.912 132.111 186.744C131.295 186.492 130.629 186.24 130.113 185.988C129.597 185.736 129.153 185.364 128.781 184.872C128.409 184.38 128.223 183.738 128.223 182.946C128.223 181.77 128.649 180.852 129.501 180.192C130.353 179.52 131.463 179.184 132.831 179.184C134.223 179.184 135.345 179.52 136.197 180.192C137.049 180.852 137.505 181.776 137.565 182.964H134.235C134.211 182.556 134.061 182.238 133.785 182.01C133.509 181.77 133.155 181.65 132.723 181.65C132.351 181.65 132.051 181.752 131.823 181.956C131.595 182.148 131.481 182.43 131.481 182.802C131.481 183.21 131.673 183.528 132.057 183.756C132.441 183.984 133.041 184.23 133.857 184.494C134.673 184.77 135.333 185.034 135.837 185.286C136.353 185.538 136.797 185.904 137.169 186.384C137.541 186.864 137.727 187.482 137.727 188.238C137.727 188.958 137.541 189.612 137.169 190.2C136.809 190.788 136.281 191.256 135.585 191.604C134.889 191.952 134.067 192.126 133.119 192.126Z" fill="#181E4B"/>
<g filter="url(#filter0_i_0_1652)">
<path d="M155 78C155 121.078 120.302 156 77.5 156C34.6979 156 0 121.078 0 78C0 34.9218 34.6979 0 77.5 0C120.302 0 155 34.9218 155 78ZM15.2922 78C15.2922 112.578 43.1436 140.609 77.5 140.609C111.856 140.609 139.708 112.578 139.708 78C139.708 43.4219 111.856 15.3908 77.5 15.3908C43.1436 15.3908 15.2922 43.4219 15.2922 78Z" fill="white"/>
</g>
<path d="M77.8995 8.09762C77.8995 3.87184 81.3335 0.407055 85.5388 0.823284C98.0345 2.06012 110.084 6.31777 120.627 13.2778C133.305 21.6475 143.246 33.5566 149.216 47.5265C155.185 61.4964 156.92 76.9119 154.205 91.8592C151.491 106.807 144.446 120.627 133.945 131.606C123.444 142.585 109.951 150.237 95.1389 153.614C80.3271 156.991 64.8497 155.944 50.6281 150.602C36.4064 145.26 24.067 135.858 15.1415 123.565C7.71945 113.342 2.93 101.494 1.13854 89.0652C0.535654 84.8827 3.84425 81.2979 8.06585 81.1099C12.2874 80.922 15.8142 84.2068 16.5184 88.3735C18.1122 97.805 21.8649 106.778 27.5248 114.574C34.6891 124.442 44.5938 131.988 56.0092 136.276C67.4246 140.564 79.8481 141.405 91.7372 138.694C103.626 135.984 114.458 129.841 122.886 121.029C131.315 112.216 136.97 101.123 139.149 89.1246C141.328 77.1267 139.935 64.7529 135.144 53.5395C130.352 42.3262 122.373 32.767 112.196 26.0487C104.156 20.7412 95.0249 17.3914 85.5318 16.2187C81.338 15.7006 77.8995 12.3234 77.8995 8.09762Z" fill="url(#paint0_linear_0_1652)"/>
<path d="M58.5691 65.92L47.4491 92H43.7691L55.0491 66.28H39.6091V63.16H58.5691V65.92ZM67.885 76.96C66.3917 76.3733 65.245 75.52 64.445 74.4C63.645 73.28 63.245 71.92 63.245 70.32C63.245 68.88 63.605 67.5867 64.325 66.44C65.045 65.2667 66.1117 64.3467 67.525 63.68C68.965 62.9867 70.6983 62.64 72.725 62.64C74.7517 62.64 76.4717 62.9867 77.885 63.68C79.325 64.3467 80.405 65.2667 81.125 66.44C81.8717 67.5867 82.245 68.88 82.245 70.32C82.245 71.8667 81.8317 73.2267 81.005 74.4C80.1783 75.5467 79.045 76.4 77.605 76.96C79.2583 77.4667 80.565 78.36 81.525 79.64C82.5117 80.8933 83.005 82.4133 83.005 84.2C83.005 85.9333 82.5783 87.4533 81.725 88.76C80.8717 90.04 79.6583 91.04 78.085 91.76C76.5383 92.4533 74.7517 92.8 72.725 92.8C70.6983 92.8 68.9117 92.4533 67.365 91.76C65.845 91.04 64.6583 90.04 63.805 88.76C62.9517 87.4533 62.525 85.9333 62.525 84.2C62.525 82.4133 63.005 80.88 63.965 79.6C64.925 78.32 66.2317 77.44 67.885 76.96ZM78.725 70.76C78.725 69.1333 78.1917 67.88 77.125 67C76.0583 66.12 74.5917 65.68 72.725 65.68C70.885 65.68 69.4317 66.12 68.365 67C67.2983 67.88 66.765 69.1467 66.765 70.8C66.765 72.2933 67.3117 73.4933 68.405 74.4C69.525 75.3067 70.965 75.76 72.725 75.76C74.5117 75.76 75.9517 75.3067 77.045 74.4C78.165 73.4667 78.725 72.2533 78.725 70.76ZM72.725 78.56C70.7517 78.56 69.1383 79.0267 67.885 79.96C66.6317 80.8667 66.005 82.24 66.005 84.08C66.005 85.7867 66.605 87.16 67.805 88.2C69.0317 89.24 70.6717 89.76 72.725 89.76C74.7783 89.76 76.405 89.24 77.605 88.2C78.805 87.16 79.405 85.7867 79.405 84.08C79.405 82.2933 78.7917 80.9333 77.565 80C76.3383 79.04 74.725 78.56 72.725 78.56ZM87.0394 69.6C87.0394 67.7867 87.586 66.3467 88.6794 65.28C89.7727 64.1867 91.1727 63.64 92.8794 63.64C94.586 63.64 95.986 64.1867 97.0794 65.28C98.1727 66.3467 98.7194 67.7867 98.7194 69.6C98.7194 71.44 98.1727 72.9067 97.0794 74C95.986 75.0667 94.586 75.6 92.8794 75.6C91.1727 75.6 89.7727 75.0667 88.6794 74C87.586 72.9067 87.0394 71.44 87.0394 69.6ZM110.399 64.08L94.1994 92H90.5994L106.799 64.08H110.399ZM92.8794 65.88C91.9727 65.88 91.2527 66.2 90.7194 66.84C90.2127 67.4533 89.9594 68.3733 89.9594 69.6C89.9594 70.8267 90.2127 71.76 90.7194 72.4C91.2527 73.04 91.9727 73.36 92.8794 73.36C93.786 73.36 94.506 73.04 95.0394 72.4C95.5727 71.7333 95.8394 70.8 95.8394 69.6C95.8394 68.3733 95.5727 67.4533 95.0394 66.84C94.506 66.2 93.786 65.88 92.8794 65.88ZM102.359 86.48C102.359 84.64 102.906 83.1867 103.999 82.12C105.093 81.0267 106.493 80.48 108.199 80.48C109.906 80.48 111.293 81.0267 112.359 82.12C113.453 83.1867 113.999 84.64 113.999 86.48C113.999 88.2933 113.453 89.7467 112.359 90.84C111.293 91.9333 109.906 92.48 108.199 92.48C106.493 92.48 105.093 91.9467 103.999 90.88C102.906 89.7867 102.359 88.32 102.359 86.48ZM108.159 82.76C107.253 82.76 106.533 83.08 105.999 83.72C105.466 84.3333 105.199 85.2533 105.199 86.48C105.199 87.68 105.466 88.6 105.999 89.24C106.533 89.8533 107.253 90.16 108.159 90.16C109.066 90.16 109.786 89.8533 110.319 89.24C110.853 88.6 111.119 87.68 111.119 86.48C111.119 85.2533 110.853 84.3333 110.319 83.72C109.786 83.08 109.066 82.76 108.159 82.76Z" fill="#525252"/>
<defs>
<filter id="filter0_i_0_1652" x="0" y="0" width="156" height="160" filterUnits="userSpaceOnUse" color-interpolation-filters="sRGB">
<feFlood flood-opacity="0" result="BackgroundImageFix"/>
<feBlend mode="normal" in="SourceGraphic" in2="BackgroundImageFix" result="shape"/>
<feColorMatrix in="SourceAlpha" type="matrix" values="0 0 0 0 0 0 0 0 0 0 0 0 0 0 0 0 0 0 127 0" result="hardAlpha"/>
<feOffset dx="1" dy="4"/>
<feGaussianBlur stdDeviation="6"/>
<feComposite in2="hardAlpha" operator="arithmetic" k2="-1" k3="1"/>
<feColorMatrix type="matrix" values="0 0 0 0 0 0 0 0 0 0 0 0 0 0 0 0 0 0 0.25 0"/>
<feBlend mode="normal" in2="shape" result="effect1_innerShadow_0_1652"/>
</filter>
<linearGradient id="paint0_linear_0_1652" x1="-19.974" y1="147.179" x2="164.45" y2="-44.5353" gradientUnits="userSpaceOnUse">
<stop stop-color="#10E7FF"/>
<stop offset="1" stop-color="#8437FF"/>
</linearGradient>
</defs>
</svg>
