<svg width="20" height="20" viewBox="0 0 20 20" fill="none" xmlns="http://www.w3.org/2000/svg">
<path d="M9.99993 1.60742C11.847 1.60742 13.6184 2.34116 14.9244 3.64721C16.2305 4.95327 16.9642 6.72466 16.9642 8.57171C16.9642 11.5146 14.8964 14.7217 10.8142 18.2274C10.5872 18.4224 10.2978 18.5295 9.99859 18.5292C9.69936 18.529 9.41014 18.4214 9.1835 18.226L8.9135 17.9917C5.01207 14.5774 3.03564 11.4489 3.03564 8.57171C3.03564 6.72466 3.76938 4.95327 5.07544 3.64721C6.38149 2.34116 8.15289 1.60742 9.99993 1.60742ZM9.99993 2.67885C8.43705 2.67885 6.93818 3.2997 5.83305 4.40483C4.72793 5.50995 4.10707 7.00882 4.10707 8.57171C4.10707 11.0731 5.92707 13.9553 9.61707 17.1839L9.8835 17.4146C9.9159 17.4424 9.95721 17.4577 9.99993 17.4577C10.0427 17.4577 10.084 17.4424 10.1164 17.4146C13.9849 14.0917 15.8928 11.1324 15.8928 8.57171C15.8928 7.79785 15.7404 7.03156 15.4442 6.31661C15.1481 5.60165 14.714 4.95203 14.1668 4.40483C13.6196 3.85763 12.97 3.42356 12.255 3.12742C11.5401 2.83127 10.7738 2.67885 9.99993 2.67885ZM9.99993 5.89314C10.7103 5.89314 11.3916 6.17534 11.894 6.67767C12.3963 7.18 12.6785 7.86131 12.6785 8.57171C12.6785 9.28211 12.3963 9.96341 11.894 10.4657C11.3916 10.9681 10.7103 11.2503 9.99993 11.2503C9.28953 11.2503 8.60822 10.9681 8.10589 10.4657C7.60356 9.96341 7.32136 9.28211 7.32136 8.57171C7.32136 7.86131 7.60356 7.18 8.10589 6.67767C8.60822 6.17534 9.28953 5.89314 9.99993 5.89314ZM9.99993 6.96456C9.57369 6.96456 9.16491 7.13389 8.86351 7.43529C8.56211 7.73668 8.39279 8.14547 8.39279 8.57171C8.39279 8.99795 8.56211 9.40673 8.86351 9.70813C9.16491 10.0095 9.57369 10.1789 9.99993 10.1789C10.4262 10.1789 10.835 10.0095 11.1364 9.70813C11.4377 9.40673 11.6071 8.99795 11.6071 8.57171C11.6071 8.14547 11.4377 7.73668 11.1364 7.43529C10.835 7.13389 10.4262 6.96456 9.99993 6.96456Z" fill="black" fill-opacity="0.2"/>
</svg>
