<svg width="48" height="48" viewBox="0 0 48 48" fill="none" xmlns="http://www.w3.org/2000/svg">
<path fill-rule="evenodd" clip-rule="evenodd" d="M24 4C35.0457 4 44 12.9543 44 24C44 35.0457 35.0457 44 24 44C12.9543 44 4 35.0457 4 24C4 12.9543 12.9543 4 24 4ZM24 5.5C13.7827 5.5 5.5 13.7827 5.5 24C5.5 34.2173 13.7827 42.5 24 42.5C34.2173 42.5 42.5 34.2173 42.5 24C42.5 13.7827 34.2173 5.5 24 5.5ZM23.2308 20.8824C23.2308 18.7382 21.5088 17 19.3846 17H14.7692L14.6649 17.0071C14.2894 17.0585 14 17.3834 14 17.7765V23.9879V30.2002L14.007 30.3056C14.058 30.6846 14.3798 30.9767 14.7692 30.9767H19.3846L19.5889 30.9713C21.6181 30.8641 23.2308 29.1693 23.2308 27.0943L23.2254 26.8881C23.1653 25.7274 22.6001 24.7016 21.7474 24.0307L21.6903 23.9883L21.7474 23.946C22.6502 23.2356 23.2308 22.1274 23.2308 20.8824ZM15.5383 29.4246V24.7644H19.3637L19.3844 24.7657L19.5424 24.7711C20.7432 24.853 21.6921 25.8622 21.6921 27.0951L21.6868 27.2546C21.6056 28.4668 20.6058 29.4246 19.3844 29.4246H15.5383ZM19.3846 23.2114C19.3996 23.2114 19.4145 23.2118 19.4292 23.2127L19.5424 23.2073C20.7432 23.1254 21.6921 22.1162 21.6921 20.8833C21.6921 19.6504 20.7432 18.6412 19.5424 18.5592L19.3844 18.5538H15.5383V23.2114H19.3846ZM29.6411 20.6243C32.0485 20.6243 34.0001 22.5943 34.0001 25.0244C34.0001 25.4175 33.7107 25.7423 33.3352 25.7938L33.2309 25.8008H26.8206V27.036L26.8449 27.1746C27.069 28.2755 27.9164 29.1416 29.004 29.3816L29.1875 29.4158C30.4244 29.6038 31.6362 28.947 32.1643 27.8025C32.3437 27.4137 32.8013 27.2454 33.1864 27.4264C33.5715 27.6075 33.7383 28.0694 33.5589 28.4581C32.7428 30.227 30.8699 31.242 28.9584 30.9514C27.1176 30.6716 25.6644 29.2454 25.3237 27.414L25.2893 27.201L25.2821 27.095V25.0244C25.2821 22.5943 27.2337 20.6243 29.6411 20.6243ZM29.6413 22.1781C28.372 22.1781 27.2986 23.0244 26.9446 24.1885L26.9275 24.2487H32.3541L32.338 24.1885C32.0001 23.0773 31.0067 22.2557 29.8131 22.1833L29.6413 22.1781ZM31.1793 17C31.6042 17 31.9486 17.3476 31.9486 17.7765C31.9486 18.1696 31.6592 18.4945 31.2837 18.5459L31.1793 18.553H28.1024C27.6776 18.553 27.3332 18.2053 27.3332 17.7765C27.3332 17.3834 27.6226 17.0585 27.998 17.0071L28.1024 17H31.1793Z" fill="#212121"/>
</svg>
