<svg width="33" height="30" viewBox="0 0 33 30" fill="none" xmlns="http://www.w3.org/2000/svg">
<path fill-rule="evenodd" clip-rule="evenodd" d="M5.44444 8C5.73775 8 5.99236 8.19084 6.07941 8.46336L6.10204 8.55707L6.74933 12.4444H19.6667C20.0412 12.4444 20.3355 12.7506 20.3334 13.1136L20.3266 13.2054L19.4377 19.4276L19.4067 19.5545C18.934 20.8988 17.6626 21.7875 16.284 21.783L16.1111 21.7778L9.92664 21.7767C8.50396 21.8574 7.19462 21.0257 6.65651 19.7201L6.59331 19.5545L6.56463 19.4429L5.55822 13.4044L5.54128 13.3706C5.51879 13.3174 5.503 13.2607 5.49497 13.2016L5.48889 13.1111C5.48889 13.0804 5.49096 13.0502 5.49497 13.0206L4.87911 9.33333H3.66667C3.32916 9.33333 3.05023 9.08253 3.00609 8.75713L3 8.66667C3 8.32916 3.2508 8.05023 3.5762 8.00609L3.66667 8H5.44444ZM18.8978 13.7778H6.97156L7.86756 19.1547L7.90859 19.2573C8.222 19.9669 8.92151 20.432 9.72655 20.4474L9.88889 20.4444L16.1489 20.4455C16.9857 20.493 17.7572 20.0142 18.0914 19.2573L18.128 19.1627L18.8978 13.7778ZM6.55556 25.0556C6.55556 23.7055 7.64997 22.6111 9 22.6111C10.35 22.6111 11.4444 23.7055 11.4444 25.0556C11.4444 26.4056 10.35 27.5 9 27.5C7.64997 27.5 6.55556 26.4056 6.55556 25.0556ZM10.1111 25.0556C10.1111 24.4419 9.61365 23.9444 9 23.9444C8.38635 23.9444 7.88889 24.4419 7.88889 25.0556C7.88889 25.6692 8.38635 26.1667 9 26.1667C9.61365 26.1667 10.1111 25.6692 10.1111 25.0556ZM13.6667 25.0556C13.6667 23.7055 14.7611 22.6111 16.1111 22.6111C17.4611 22.6111 18.5556 23.7055 18.5556 25.0556C18.5556 26.4056 17.4611 27.5 16.1111 27.5C14.7611 27.5 13.6667 26.4056 13.6667 25.0556ZM17.2222 25.0556C17.2222 24.4419 16.7248 23.9444 16.1111 23.9444C15.4975 23.9444 15 24.4419 15 25.0556C15 25.6692 15.4975 26.1667 16.1111 26.1667C16.7248 26.1667 17.2222 25.6692 17.2222 25.0556Z" fill="#212121"/>
<path fill-rule="evenodd" clip-rule="evenodd" d="M24 18C28.9706 18 33 13.9706 33 9C33 4.02944 28.9706 0 24 0C19.0294 0 15 4.02944 15 9C15 13.9706 19.0294 18 24 18Z" fill="#0D6EFD"/>
<path d="M26.4116 13H21.4214V11.9502L23.2134 10.1387C23.5747 9.76758 23.8644 9.45833 24.0825 9.21094C24.3039 8.96029 24.4634 8.73242 24.5611 8.52734C24.662 8.32227 24.7124 8.10254 24.7124 7.86816C24.7124 7.58496 24.6327 7.37337 24.4732 7.2334C24.3169 7.09017 24.107 7.01855 23.8433 7.01855C23.5666 7.01855 23.298 7.08203 23.0376 7.20898C22.7772 7.33594 22.5054 7.5166 22.2222 7.75098L21.4019 6.7793C21.607 6.60352 21.8234 6.4375 22.0513 6.28125C22.2824 6.125 22.5493 5.99967 22.8521 5.90527C23.1581 5.80762 23.5243 5.75879 23.9507 5.75879C24.4195 5.75879 24.8215 5.84342 25.1568 6.0127C25.4953 6.18197 25.7557 6.41309 25.938 6.70605C26.1203 6.99577 26.2115 7.32454 26.2115 7.69238C26.2115 8.08626 26.1333 8.44596 25.9771 8.77148C25.8208 9.09701 25.593 9.41927 25.2935 9.73828C24.9973 10.0573 24.6392 10.4105 24.2193 10.7979L23.3013 11.6621V11.7305H26.4116V13Z" fill="white"/>
</svg>
