<svg width="48" height="48" viewBox="0 0 48 48" fill="none" xmlns="http://www.w3.org/2000/svg">
<path fill-rule="evenodd" clip-rule="evenodd" d="M24 4C35.0457 4 44 12.9543 44 24C44 35.0457 35.0457 44 24 44C12.9543 44 4 35.0457 4 24C4 12.9543 12.9543 4 24 4ZM24 5.5C13.7827 5.5 5.5 13.7827 5.5 24C5.5 34.2173 13.7827 42.5 24 42.5C34.2173 42.5 42.5 34.2173 42.5 24C42.5 13.7827 34.2173 5.5 24 5.5ZM17.4211 14C18.1405 14 18.735 14.5346 18.8291 15.2282L18.8421 15.44C18.8421 16.2248 18.2059 16.8611 17.4211 16.8611C16.7016 16.8611 16.1071 16.3264 16.013 15.6328L16 15.4211C16 14.6362 16.6362 14 17.4211 14ZM17.4211 19.6859C18.1405 19.6859 18.735 20.2205 18.8291 20.9141L18.8421 21.1069V30.5806C18.8421 31.3654 18.2059 32.0016 17.4211 32.0016C16.7016 32.0016 16.1071 31.467 16.013 30.7734L16 30.5806V21.1069C16 20.3221 16.6362 19.6859 17.4211 19.6859ZM25 19.6859C25.5135 19.6859 25.9634 19.9582 26.2131 20.3664C26.9729 19.9333 27.8523 19.6859 28.7895 19.6859C31.5606 19.6859 33.8265 21.8491 33.9905 24.579L34 24.8964V30.5806C34 31.3654 33.3638 32.0016 32.579 32.0016C31.8595 32.0016 31.265 31.467 31.1709 30.7734L31.1579 30.5806V24.8964C31.1579 23.5883 30.0975 22.528 28.7895 22.528C27.5632 22.528 26.5546 23.4599 26.4333 24.6542L26.4211 24.8964L26.4211 24.8987V30.5806C26.4211 31.3654 25.7848 32.0016 25 32.0016C24.2806 32.0016 23.686 31.467 23.5919 30.7734L23.579 30.5806V24.8964V21.1069C23.579 20.3221 24.2152 19.6859 25 19.6859Z" fill="#212121"/>
</svg>
