<svg width="48" height="48" viewBox="0 0 48 48" fill="none" xmlns="http://www.w3.org/2000/svg">
<circle cx="24" cy="24" r="20" fill="#EAEAEA"/>
<path fill-rule="evenodd" clip-rule="evenodd" d="M15 23.75C15 22.7835 15.7835 22 16.75 22C17.7165 22 18.5 22.7835 18.5 23.75C18.5 24.7165 17.7165 25.5 16.75 25.5C15.7835 25.5 15 24.7165 15 23.75ZM17 23.75C17 23.6119 16.8881 23.5 16.75 23.5C16.6119 23.5 16.5 23.6119 16.5 23.75C16.5 23.8881 16.6119 24 16.75 24C16.8881 24 17 23.8881 17 23.75ZM22 23.75C22 22.7835 22.7835 22 23.75 22C24.7165 22 25.5 22.7835 25.5 23.75C25.5 24.7165 24.7165 25.5 23.75 25.5C22.7835 25.5 22 24.7165 22 23.75ZM24 23.75C24 23.6119 23.8881 23.5 23.75 23.5C23.6119 23.5 23.5 23.6119 23.5 23.75C23.5 23.8881 23.6119 24 23.75 24C23.8881 24 24 23.8881 24 23.75ZM30.75 22C29.7835 22 29 22.7835 29 23.75C29 24.7165 29.7835 25.5 30.75 25.5C31.7165 25.5 32.5 24.7165 32.5 23.75C32.5 22.7835 31.7165 22 30.75 22ZM30.75 23.5C30.8881 23.5 31 23.6119 31 23.75C31 23.8881 30.8881 24 30.75 24C30.6119 24 30.5 23.8881 30.5 23.75C30.5 23.6119 30.6119 23.5 30.75 23.5Z" fill="#212121"/>
</svg>
