<svg width="48" height="48" viewBox="0 0 48 48" fill="none" xmlns="http://www.w3.org/2000/svg">
<path fill-rule="evenodd" clip-rule="evenodd" d="M24 4C35.0457 4 44 12.9543 44 24C44 35.0457 35.0457 44 24 44C12.9543 44 4 35.0457 4 24C4 12.9543 12.9543 4 24 4ZM24 5.5C13.7827 5.5 5.5 13.7827 5.5 24C5.5 34.2173 13.7827 42.5 24 42.5C34.2173 42.5 42.5 34.2173 42.5 24C42.5 13.7827 34.2173 5.5 24 5.5ZM34.1328 21.6167L34.1378 21.1036L34.1428 21.1726C34.1448 21.1859 34.1473 21.1886 34.1492 21.1878L34.5125 20.4478L34.9763 19.522L35.2662 18.9207L35.3941 18.6436C35.6388 18.1047 35.8159 17.6564 35.9254 17.2799L35.9487 17.1906L35.9554 17.1763C36.1188 16.7117 35.8229 16.1177 35.2305 16.1177L35.1167 16.1264L35.0074 16.1515L34.8939 16.1977C34.7009 16.2944 34.502 16.3824 34.291 16.4653L33.8423 16.6281L33.4586 16.7505L32.9693 16.8926L32.3841 17.0568L32.2593 16.9452C30.9775 15.8641 29.2331 15.7351 27.4117 16.4321L27.1986 16.5192C25.4464 17.2814 24.297 18.9488 24.2351 20.8552L24.2328 21.3232L24.0476 21.3135C21.3857 21.1134 19.0301 19.752 17.4391 17.4807C17.1122 17.0141 16.4217 17.0525 16.1464 17.5527L16.0519 17.7367L16.003 17.838C15.2871 19.3506 14.815 21.196 14.9883 23.1402L15.0175 23.4167C15.3089 25.8005 16.6006 27.8416 19.0549 29.3494L19.3269 29.5109L19.1501 29.6122C17.6456 30.4413 16.2886 30.8067 14.7987 30.7475C13.9881 30.7152 13.6894 31.823 14.4016 32.2198C18.0267 34.2391 21.9106 34.8611 25.2489 33.8706C29.3197 32.662 32.4161 29.5475 33.6017 25.2338C33.9205 24.0515 34.0984 22.838 34.1328 21.6167ZM31.5878 18.458C31.7853 18.6857 32.0938 18.7762 32.3793 18.6901L33.5768 18.3485L33.8728 18.261L33.6913 18.6425L32.8429 20.342L32.7397 20.5607C32.6403 20.7817 32.61 20.8959 32.6049 21.0402L32.6041 21.1042C32.6109 22.3562 32.4491 23.6051 32.1232 24.814C31.084 28.5949 28.3891 31.3055 24.8209 32.3649L24.5058 32.4524C22.5158 32.9669 20.2881 32.8406 18.0466 32.1183L17.5958 31.9647L17.854 31.8868C18.9835 31.5208 20.1131 30.9237 21.3331 30.0931C21.8385 29.749 21.771 28.9695 21.2143 28.7215C18.1445 27.3537 16.7297 25.3887 16.5167 22.9985L16.4942 22.6538C16.4512 21.6215 16.6249 20.6076 16.9217 19.6888L17.0105 19.428L17.0474 19.4719C19.094 21.7452 21.926 22.9855 25.0198 22.9046C25.4358 22.8937 25.7675 22.5459 25.7675 22.1206V21.0749C25.7486 19.6572 26.6046 18.4165 27.9499 17.9017C29.4649 17.3218 30.7554 17.498 31.5878 18.458Z" fill="#212121"/>
</svg>
