<svg width="24" height="24" viewBox="0 0 24 24" fill="none" xmlns="http://www.w3.org/2000/svg">
<path fill-rule="evenodd" clip-rule="evenodd" d="M20.6776 8.37134L20.6825 7.8806L20.6874 7.9466C20.6894 7.95938 20.6917 7.96189 20.6936 7.96116L21.0487 7.2535L21.502 6.36816L21.7854 5.79306L21.9104 5.52807C22.1495 5.01271 22.3226 4.58406 22.4297 4.22395L22.4525 4.1386L22.459 4.12488C22.6187 3.68057 22.3294 3.1126 21.7505 3.1126L21.6392 3.12085L21.5324 3.14492L21.4215 3.18911C21.2328 3.28155 21.0384 3.36574 20.8322 3.44497L20.3937 3.60069L20.0186 3.71771L19.5404 3.85365L18.9685 4.0106L18.8465 3.90388C17.5936 2.87 15.8887 2.74663 14.1085 3.41322L13.9002 3.4965C12.1876 4.2254 11.0642 5.82001 11.0037 7.64306L11.0015 8.0906L10.8204 8.08134C8.21875 7.89 5.91633 6.58804 4.3613 4.41601C4.04182 3.96975 3.36695 4.00652 3.09783 4.48484L3.00546 4.66082L2.95771 4.75767C2.258 6.2042 1.79661 7.96896 1.96595 9.82822L1.99449 10.0927C2.27935 12.3723 3.54176 14.3243 5.9406 15.7662L6.20648 15.9206L6.03363 16.0175C4.5632 16.8103 3.2369 17.1598 1.78065 17.1032C0.988398 17.0723 0.696389 18.1317 1.39255 18.5111C4.93562 20.4423 8.73172 21.037 11.9946 20.0899C15.9733 18.934 18.9997 15.9556 20.1585 11.8304C20.4701 10.6998 20.644 9.53921 20.6776 8.37134ZM18.1902 5.35002C18.3831 5.56779 18.6847 5.65429 18.9638 5.57193L20.1342 5.24533L20.4235 5.1616L20.2461 5.52645L19.4169 7.15166L19.316 7.36083C19.2188 7.57216 19.1892 7.68145 19.1842 7.81938L19.1835 7.88062C19.1901 9.0779 19.032 10.2723 18.7134 11.4284C17.6977 15.0441 15.0638 17.6362 11.5763 18.6494L11.2683 18.733C9.32323 19.225 7.14591 19.1043 4.95507 18.4135L4.51448 18.2666L4.7669 18.1921C5.87082 17.8421 6.97487 17.2711 8.16727 16.4768C8.66131 16.1477 8.59536 15.4023 8.0512 15.1651C5.05076 13.857 3.66795 11.9779 3.45976 9.69216L3.4378 9.36254C3.3958 8.37531 3.56557 7.40568 3.85563 6.527L3.94248 6.2776L3.97849 6.31957C5.97884 8.49359 8.74678 9.6797 11.7707 9.60235C12.1773 9.59195 12.5015 9.25934 12.5015 8.8526V7.8526C12.483 6.49684 13.3196 5.31033 14.6345 4.81797C16.1153 4.26349 17.3766 4.43196 18.1902 5.35002Z" fill="#212121"/>
</svg>
