<svg width="22" height="24" viewBox="0 0 22 24" fill="none" xmlns="http://www.w3.org/2000/svg">
<path fill-rule="evenodd" clip-rule="evenodd" d="M5.8968 21.9307C5.55215 21.9157 4.68567 21.764 3.80764 21.5332C2.93644 21.3082 2.34128 21.0078 2.34128 21.0078C2.01381 20.8438 1.8943 20.5851 1.84841 20.3178C1.86241 20.323 1.73746 19.4783 1.73746 17.8444C1.73746 16.604 1.8048 15.9394 1.83558 15.7295C1.86858 15.5085 1.98004 15.3275 2.27744 15.3412C2.57487 15.3552 2.9792 15.3481 3.93011 15.5141C5.06403 15.7167 5.61966 15.8878 5.88935 15.9771C6.13326 16.0612 6.39006 16.245 6.43968 16.5892C6.43968 16.5892 6.57102 17.4938 6.56906 18.8653C6.571 19.9754 6.4879 21.0752 6.45009 21.4308C6.41484 21.7601 6.24145 21.9458 5.8968 21.9307ZM11.0306 18.1162C11.0304 17.92 10.9474 17.7372 10.7876 17.5925L7.84994 14.8738C7.51286 14.5403 7.11177 14.3324 6.62377 14.2354C6.62377 14.2354 5.51548 13.9772 3.86565 13.7162C2.21579 13.4552 1.78494 13.4847 1.78494 13.4847C0.322216 13.4847 0.269502 14.9567 0.254396 15.1053C0.218267 15.4606 0.132324 16.4021 0.132324 17.7128C0.132324 19.2596 0.202051 20.3314 0.286229 20.9866C0.41419 21.9865 1.22792 22.4554 1.60247 22.633C1.69741 22.6778 2.71375 23.0839 3.74432 23.3838C4.43888 23.5863 5.55186 23.8823 6.07326 23.9601C6.24458 23.986 7.25173 24.1493 7.72753 23.554L10.8492 19.7343C10.9786 19.5574 11.0306 19.4854 11.0306 19.2146V18.1162ZM17.8534 12.5444C17.4106 12.502 16.9652 12.4929 16.521 12.517L9.50009 13.1373C9.50009 13.1373 9.03467 13.2043 8.76953 13.5381C8.56445 13.7964 8.52132 14.0119 8.52132 14.0119C8.61421 14.099 8.65176 14.1347 8.70294 14.179L11.4754 16.8479C11.7854 17.1352 11.9653 17.4147 11.9653 17.833V19.3363C11.9653 19.6036 11.9409 19.8282 11.7835 20.0298L10.2966 21.9362L11.7926 22.4839C12.3603 22.6605 12.8875 22.6554 13.4801 22.5703L19.92 21.1749C19.92 21.1749 21.0813 20.8833 21.0815 19.8422V16.1385C21.0815 16.067 21.0376 16.0055 20.9586 16.0206L16.8464 16.7835C16.6929 16.8129 16.5968 16.937 16.5968 17.0761V18.8702C16.5968 18.9774 16.7289 19.0638 16.8464 19.0389L18.1349 18.755C18.2019 18.7376 18.2537 18.784 18.2563 18.8702V19.449C18.2502 19.5681 18.151 19.6503 18.0114 19.6805L16.553 19.9758C16.5542 19.9715 15.5742 20.2113 15.5742 19.223V16.9347C15.5742 15.9361 16.3413 15.835 16.3413 15.835L20.869 15.0111C20.987 14.9901 21.0815 14.8914 21.0815 14.7846V13.8525C21.0772 12.8233 20.0244 12.7596 20.0244 12.7596L17.8534 12.5444ZM9.43821 2.83558C11.1222 2.90319 12.3987 4.41252 12.3111 6.24803C12.214 8.0783 10.7545 9.53817 9.13211 9.47511C7.44851 9.40748 6.22819 7.88335 6.31536 6.04817C6.41251 4.21793 7.81583 2.77252 9.43821 2.83558ZM16.2219 7.12886C16.2909 5.87743 17.237 4.88835 18.3538 4.92845C19.4156 4.97346 20.2635 6.03601 20.2067 7.24676C20.1382 8.5018 19.1773 9.45325 18.0629 9.41974C16.9983 9.36776 16.1656 8.34356 16.2219 7.12886ZM21.8674 7.29242C21.8644 4.82225 19.9171 2.83598 17.5203 2.83598C16.1212 2.83598 14.8518 3.53489 14.0304 4.57226C13.3993 1.93552 11.0672 -0.00729417 8.2751 2.05861e-05C4.94287 0.0088144 2.26381 2.72623 2.27493 6.07702C2.28609 9.46183 4.97951 12.2119 8.2751 12.2025C8.46491 12.2004 17.5463 11.6247 17.5203 11.6242C20.1376 11.4109 21.8807 9.70515 21.8674 7.29242Z" fill="white"/>
</svg>
