<svg width="25" height="24" viewBox="0 0 25 24" fill="none" xmlns="http://www.w3.org/2000/svg">
<path d="M17.3503 0H7.64973C3.70735 0 0.5 3.20735 0.5 7.14973V16.8503C0.5 20.7926 3.70735 24 7.64973 24H17.3503C21.2926 24 24.5 20.7926 24.5 16.8503V7.14973C24.5 3.20735 21.2926 0 17.3503 0ZM22.0856 16.8503C22.0856 19.4655 19.9655 21.5856 17.3503 21.5856H7.64973C5.0345 21.5856 2.9144 19.4655 2.9144 16.8503V7.14973C2.9144 4.53446 5.0345 2.4144 7.64973 2.4144H17.3503C19.9655 2.4144 22.0856 4.53446 22.0856 7.14973V16.8503Z" fill="white"/>
<path d="M12.5002 5.79272C9.07754 5.79272 6.29297 8.57729 6.29297 11.9999C6.29297 15.4226 9.07754 18.2072 12.5002 18.2072C15.9229 18.2072 18.7075 15.4226 18.7075 11.9999C18.7075 8.57725 15.9229 5.79272 12.5002 5.79272ZM12.5002 15.7928C10.4055 15.7928 8.70737 14.0947 8.70737 12C8.70737 9.90523 10.4055 8.20712 12.5002 8.20712C14.595 8.20712 16.2931 9.90523 16.2931 12C16.2931 14.0947 14.5949 15.7928 12.5002 15.7928Z" fill="white"/>
<path d="M18.7188 7.32673C19.5402 7.32673 20.2061 6.66083 20.2061 5.83939C20.2061 5.01796 19.5402 4.35205 18.7188 4.35205C17.8974 4.35205 17.2314 5.01796 17.2314 5.83939C17.2314 6.66083 17.8974 7.32673 18.7188 7.32673Z" fill="white"/>
</svg>
