<svg width="25" height="24" viewBox="0 0 25 24" fill="none" xmlns="http://www.w3.org/2000/svg">
<path d="M24.2628 12.2758C24.2628 11.46 24.1967 10.6399 24.0556 9.8374H12.7368V14.4584H19.2185C18.9496 15.9487 18.0853 17.2671 16.8199 18.1049V21.1032H20.6869C22.9577 19.0132 24.2628 15.9267 24.2628 12.2758Z" fill="white"/>
<path d="M12.7372 24.0001C15.9736 24.0001 18.703 22.9374 20.6916 21.1032L16.8246 18.1048C15.7487 18.8368 14.3598 19.2512 12.7416 19.2512C9.61096 19.2512 6.95653 17.1392 6.00412 14.2996H2.01367V17.3905C4.05078 21.4427 8.19997 24.0001 12.7372 24.0001Z" fill="white"/>
<path d="M5.99984 14.3C5.49718 12.8096 5.49718 11.1958 5.99984 9.70544V6.6145H2.01381C0.311804 10.0053 0.311804 14.0001 2.01381 17.3909L5.99984 14.3Z" fill="white"/>
<path d="M12.7372 4.74942C14.448 4.72296 16.1015 5.36672 17.3405 6.54842L20.7666 3.12237C18.5972 1.08526 15.7179 -0.0347101 12.7372 0.000564525C8.19997 0.000564525 4.05078 2.55798 2.01367 6.61456L5.99971 9.70551C6.94772 6.86149 9.60654 4.74942 12.7372 4.74942Z" fill="white"/>
</svg>
