<svg width="21" height="24" viewBox="0 0 21 24" fill="none" xmlns="http://www.w3.org/2000/svg">
<path d="M20.184 18.7033C19.8211 19.5418 19.3915 20.3136 18.8937 21.0232C18.2152 21.9906 17.6597 22.6602 17.2315 23.032C16.5679 23.6424 15.8568 23.955 15.0953 23.9728C14.5487 23.9728 13.8894 23.8172 13.1221 23.5017C12.3521 23.1876 11.6446 23.032 10.9977 23.032C10.3192 23.032 9.5915 23.1876 8.81315 23.5017C8.03362 23.8172 7.40564 23.9816 6.92551 23.9979C6.19531 24.0291 5.46748 23.7076 4.74099 23.032C4.2773 22.6276 3.69732 21.9343 3.00252 20.9521C2.25707 19.9033 1.6442 18.687 1.16407 17.3004C0.649859 15.8026 0.39209 14.3523 0.39209 12.9482C0.39209 11.3398 0.739634 9.95259 1.43576 8.79011C1.98285 7.85636 2.71068 7.11979 3.62162 6.57906C4.53255 6.03834 5.51681 5.76279 6.57678 5.74516C7.15676 5.74516 7.91733 5.92456 8.86248 6.27715C9.80497 6.63091 10.4101 6.81032 10.6755 6.81032C10.8738 6.81032 11.5461 6.60054 12.6858 6.18233C13.7635 5.79449 14.6731 5.63391 15.4183 5.69716C17.4375 5.86012 18.9545 6.6561 19.9633 8.09013C18.1574 9.18432 17.2641 10.7169 17.2819 12.6829C17.2982 14.2142 17.8538 15.4886 18.9456 16.5004C19.4404 16.97 19.9929 17.333 20.6077 17.5907C20.4744 17.9774 20.3337 18.3477 20.184 18.7033ZM15.5531 0.480137C15.5531 1.68041 15.1146 2.8011 14.2405 3.8384C13.1858 5.07155 11.9099 5.78412 10.5264 5.67168C10.5088 5.52769 10.4986 5.37614 10.4986 5.21688C10.4986 4.06462 11.0002 2.83147 11.891 1.82321C12.3357 1.3127 12.9013 0.888228 13.5872 0.549615C14.2716 0.216055 14.919 0.031589 15.5279 0C15.5457 0.160458 15.5531 0.320926 15.5531 0.480121V0.480137Z" fill="black"/>
</svg>
