<svg width="24" height="24" viewBox="0 0 24 24" fill="none" xmlns="http://www.w3.org/2000/svg">
<g clip-path="url(#clip0_3_18862)">
<path d="M23.7628 12.2763C23.7628 11.4605 23.6967 10.6404 23.5556 9.83789H12.2368V14.4589H18.7185C18.4496 15.9492 17.5853 17.2676 16.3199 18.1054V21.1037H20.1869C22.4577 19.0137 23.7628 15.9272 23.7628 12.2763Z" fill="white"/>
<path d="M12.2372 24.0003C15.4736 24.0003 18.203 22.9377 20.1916 21.1034L16.3246 18.1051C15.2487 18.837 13.8598 19.2515 12.2416 19.2515C9.11096 19.2515 6.45653 17.1394 5.50412 14.2998H1.51367V17.3907C3.55078 21.4429 7.69997 24.0003 12.2372 24.0003Z" fill="white"/>
<path d="M5.49984 14.3002C4.99718 12.8099 4.99718 11.196 5.49984 9.70569V6.61475H1.51381C-0.188196 10.0055 -0.188196 14.0004 1.51381 17.3912L5.49984 14.3002Z" fill="white"/>
<path d="M12.2372 4.74966C13.948 4.7232 15.6015 5.36697 16.8405 6.54867L20.2666 3.12262C18.0972 1.0855 15.2179 -0.034466 12.2372 0.000808666C7.69997 0.000808666 3.55078 2.55822 1.51367 6.61481L5.49971 9.70575C6.44772 6.86173 9.10654 4.74966 12.2372 4.74966Z" fill="white"/>
</g>
<defs>
<clipPath id="clip0_3_18862">
<rect width="24" height="24" fill="white"/>
</clipPath>
</defs>
</svg>
