<svg width="24" height="24" viewBox="0 0 24 24" fill="none" xmlns="http://www.w3.org/2000/svg">
<path d="M13.5423 11.9998C13.5423 15.6658 10.5179 18.6426 6.77116 18.6426C3.02445 18.6426 0 15.6658 0 11.9998C0 8.33375 3.02445 5.35693 6.77116 5.35693C10.5179 5.35693 13.5423 8.33375 13.5423 11.9998ZM20.9605 11.9998C20.9605 15.4459 19.4408 18.2467 17.5749 18.2467C15.7091 18.2467 14.1893 15.4459 14.1893 11.9998C14.1893 8.55372 15.7091 5.75286 17.5749 5.75286C19.4408 5.75286 20.9605 8.53905 20.9605 11.9998ZM24 11.9998C24 15.0939 23.4734 17.6015 22.8113 17.6015C22.1492 17.6015 21.6226 15.0939 21.6226 11.9998C21.6226 8.90566 22.1492 6.39808 22.8113 6.39808C23.4734 6.39808 24 8.90566 24 11.9998Z" fill="white"/>
</svg>
