<svg width="24" height="24" viewBox="0 0 24 24" fill="none" xmlns="http://www.w3.org/2000/svg">
<g clip-path="url(#clip0_3_18883)">
<path fill-rule="evenodd" clip-rule="evenodd" d="M24 12C24 18.6274 18.6274 24 12 24C5.37258 24 0 18.6274 0 12C0 5.37258 5.37258 0 12 0C18.6274 0 24 5.37258 24 12ZM18.2456 10.2457C19.214 10.2457 20 11.0316 20 12C20 12.7158 19.5649 13.3334 18.9895 13.6141C19.0175 13.7825 19.0316 13.9509 19.0316 14.1334C19.0316 16.8281 15.9018 19.0035 12.0281 19.0035C8.15439 19.0035 5.02457 16.8281 5.02457 14.1334C5.02457 13.9509 5.0386 13.7685 5.06667 13.6C4.44913 13.3193 4.02808 12.7158 4.02808 12C4.02808 11.0316 4.81404 10.2457 5.78246 10.2457C6.24562 10.2457 6.68071 10.4421 6.98948 10.7369C8.1965 9.85267 9.86667 9.3053 11.7333 9.24916L12.6176 5.0667C12.6456 4.98249 12.6877 4.91232 12.7579 4.87021C12.8281 4.82811 12.9123 4.81407 12.9965 4.82811L15.9018 5.44565C16.0983 5.0246 16.5193 4.7439 17.0105 4.7439C17.6983 4.7439 18.2597 5.3053 18.2597 5.99302C18.2597 6.68074 17.6983 7.24214 17.0105 7.24214C16.3368 7.24214 15.7895 6.70881 15.7614 6.04916L13.1649 5.50179L12.3649 9.24916C14.1895 9.31934 15.8456 9.88074 17.0386 10.7369C17.3474 10.4281 17.7684 10.2457 18.2456 10.2457ZM9.24913 12C8.56141 12 8.00001 12.5614 8.00001 13.2492C8.00001 13.9369 8.56141 14.4983 9.24913 14.4983C9.93685 14.4983 10.4983 13.9369 10.4983 13.2492C10.4983 12.5614 9.93685 12 9.24913 12ZM12.014 17.4597C12.4912 17.4597 14.1193 17.4035 14.9754 16.5474C15.1018 16.4211 15.1018 16.2246 15.0035 16.0842C14.8772 15.9579 14.6667 15.9579 14.5404 16.0842C13.993 16.6176 12.8561 16.8141 12.0281 16.8141C11.2 16.8141 10.0491 16.6176 9.5158 16.0842C9.38948 15.9579 9.17895 15.9579 9.05264 16.0842C8.92632 16.2106 8.92632 16.4211 9.05264 16.5474C9.89474 17.3895 11.5368 17.4597 12.014 17.4597ZM13.5018 13.2492C13.5018 13.9369 14.0632 14.4983 14.7509 14.4983C15.4386 14.4983 16 13.9369 16 13.2492C16 12.5614 15.4386 12 14.7509 12C14.0632 12 13.5018 12.5614 13.5018 13.2492Z" fill="white"/>
</g>
<defs>
<clipPath id="clip0_3_18883">
<rect width="24" height="24" fill="white"/>
</clipPath>
</defs>
</svg>
