<svg width="24" height="24" viewBox="0 0 24 24" fill="none" xmlns="http://www.w3.org/2000/svg">
<g clip-path="url(#clip0_3_18897)">
<path fill-rule="evenodd" clip-rule="evenodd" d="M24 12C24 18.6274 18.6274 24 12 24C5.37258 24 0 18.6274 0 12C0 5.37258 5.37258 0 12 0C18.6274 0 24 5.37258 24 12ZM12.4301 8.85905C11.263 9.34452 8.93026 10.3493 5.43201 11.8734C4.86395 12.0993 4.56638 12.3203 4.53929 12.5364C4.49351 12.9016 4.95084 13.0454 5.5736 13.2412C5.65831 13.2679 5.74608 13.2955 5.83606 13.3247C6.44876 13.5239 7.27295 13.7569 7.70141 13.7662C8.09007 13.7745 8.52385 13.6143 9.00276 13.2855C12.2713 11.0791 13.9585 9.96393 14.0644 9.93989C14.1392 9.92293 14.2427 9.9016 14.3129 9.96397C14.3831 10.0263 14.3762 10.1444 14.3687 10.1761C14.3234 10.3693 12.5282 12.0382 11.5992 12.9019C11.3096 13.1712 11.1042 13.3621 11.0622 13.4058C10.9681 13.5035 10.8722 13.5959 10.7801 13.6847C10.2109 14.2335 9.78403 14.6449 10.8037 15.3169C11.2937 15.6398 11.6859 15.9069 12.077 16.1732C12.5043 16.4642 12.9304 16.7544 13.4817 17.1158C13.6222 17.2079 13.7563 17.3035 13.887 17.3966C14.3842 17.7511 14.8309 18.0695 15.3827 18.0188C15.7034 17.9892 16.0346 17.6877 16.2028 16.7885C16.6003 14.6633 17.3818 10.0586 17.5623 8.1611C17.5782 7.99485 17.5583 7.78209 17.5423 7.6887C17.5263 7.5953 17.4929 7.46223 17.3715 7.36372C17.2277 7.24706 17.0058 7.22246 16.9065 7.22421C16.4551 7.23216 15.7627 7.47294 12.4301 8.85905Z" fill="white"/>
</g>
<defs>
<clipPath id="clip0_3_18897">
<rect width="24" height="24" fill="white"/>
</clipPath>
</defs>
</svg>
