<svg width="24" height="24" viewBox="0 0 24 24" fill="none" xmlns="http://www.w3.org/2000/svg">
<path d="M17.1 8.66347C18.6434 9.77064 20.5341 10.4221 22.5761 10.4221V6.47861C22.1896 6.47869 21.8042 6.43825 21.4261 6.35786V9.46193C19.3842 9.46193 17.4938 8.81049 15.95 7.7034V15.7509C15.95 19.7766 12.6981 23.0399 8.68692 23.0399C7.19024 23.0399 5.79914 22.5858 4.64355 21.807C5.96247 23.1604 7.80179 24 9.83668 24C13.8481 24 17.1002 20.7367 17.1002 16.7108V8.66347H17.1V8.66347ZM18.5187 4.68499C17.73 3.82023 17.2121 2.70267 17.1 1.46717V0.959961H16.0102C16.2846 2.53028 17.2202 3.87187 18.5187 4.68499ZM7.18064 18.7178C6.73997 18.1379 6.50183 17.4286 6.50289 16.6992C6.50289 14.858 7.9903 13.3651 9.82536 13.3651C10.1673 13.365 10.5073 13.4176 10.8332 13.5214V9.48977C10.4523 9.43739 10.0679 9.41515 9.68369 9.4233V12.5613C9.35753 12.4575 9.01742 12.4048 8.67535 12.4051C6.84029 12.4051 5.35297 13.8979 5.35297 15.7393C5.35297 17.0414 6.09643 18.1687 7.18064 18.7178Z" fill="white"/>
<path d="M15.9503 7.70332C17.4941 8.81041 19.3845 9.46185 21.4263 9.46185V6.35778C20.2866 6.11414 19.2776 5.5164 18.519 4.68499C17.2204 3.87179 16.2848 2.5302 16.0105 0.959961H13.1479V16.7106C13.1414 18.5468 11.6566 20.0336 9.82545 20.0336C8.7464 20.0336 7.78777 19.5174 7.18065 18.7178C6.09652 18.1687 5.35306 17.0413 5.35306 15.7394C5.35306 13.8981 6.84038 12.4052 8.67544 12.4052C9.02703 12.4052 9.3659 12.4602 9.68378 12.5614V9.42338C5.74304 9.50509 2.57373 12.7365 2.57373 16.7107C2.57373 18.6946 3.36296 20.4931 4.64389 21.8071C5.79948 22.5858 7.19058 23.04 8.68725 23.04C12.6985 23.04 15.9504 19.7765 15.9504 15.7509V7.70332H15.9503Z" fill="white"/>
<path d="M21.4264 6.3578V5.51848C20.3986 5.52005 19.391 5.23119 18.519 4.68493C19.2909 5.53306 20.3074 6.11787 21.4264 6.3578ZM16.0105 0.959983C15.9844 0.809911 15.9643 0.658851 15.9503 0.507214V0H11.9978V15.7508C11.9915 17.5868 10.5067 19.0736 8.67546 19.0736C8.13783 19.0736 7.63021 18.9455 7.18068 18.7179C7.7878 19.5174 8.74642 20.0336 9.82547 20.0336C11.6564 20.0336 13.1415 18.5469 13.1479 16.7107V0.959983H16.0105ZM9.68397 9.42341V8.52989C9.35371 8.48459 9.02074 8.46186 8.68736 8.46202C4.67574 8.46194 1.42383 11.7254 1.42383 15.7508C1.42383 18.2745 2.70189 20.4987 4.644 21.807C3.36307 20.493 2.57384 18.6944 2.57384 16.7106C2.57384 12.7365 5.74306 9.50511 9.68397 9.42341Z" fill="white"/>
</svg>
