<svg width="54" height="52" viewBox="0 0 54 52" fill="none" xmlns="http://www.w3.org/2000/svg">
<path fill-rule="evenodd" clip-rule="evenodd" d="M11.7391 37.5207V52L26.8154 37.5207H48.1283C51.3723 37.5207 54 34.8995 54 31.659V5.86176C54 2.62474 51.3698 0 48.1283 0H5.87169C2.62766 0 0 2.62119 0 5.86176V31.659C0 34.896 2.63017 37.5207 5.87169 37.5207H11.7391ZM48.1283 35.1757H25.8698L14.087 46.4919V35.1757H5.87169C3.92637 35.1757 2.34783 33.6004 2.34783 31.659V5.86176C2.34783 3.917 3.92366 2.34505 5.87169 2.34505H48.1283C50.0736 2.34505 51.6522 3.92034 51.6522 5.86176V31.659C51.6522 33.6037 50.0763 35.1757 48.1283 35.1757Z" fill="url(#paint0_linear_0_976)"/>
<defs>
<linearGradient id="paint0_linear_0_976" x1="27" y1="-26" x2="-24.963" y2="27.9616" gradientUnits="userSpaceOnUse">
<stop stop-color="#FFC105"/>
<stop offset="1" stop-color="#737CFF"/>
</linearGradient>
</defs>
</svg>
