<svg width="35" height="40" viewBox="0 0 35 40" fill="none" xmlns="http://www.w3.org/2000/svg">
<path fill-rule="evenodd" clip-rule="evenodd" d="M17.5086 0L34.8657 10V11.2071L35 11.4496L34.8657 11.5232V30L18.4221 39.4737V39.5455H18.2975L17.5086 40L16.7196 39.5455H16.595V39.4737L0.151384 30V11.4774L0 11.3931L0.151384 11.1239V10L17.5086 0ZM1.97846 12.4951V28.9517L16.595 37.3728V20.6363L1.97846 12.4951ZM16.7452 18.6364L2.54046 10.7245L17.5086 2.10091L32.5056 10.7412L27.3979 13.5411L18.4221 8.18182L14.6784 10.1544L23.9033 15.4545L23.9459 15.4334L18.1028 18.6364H16.7452ZM18.4221 37.3728V20.5371L33.0387 12.5248V28.9517L27.5575 32.1096V20.9091L23.9033 22.7273V34.2149L18.4221 37.3728Z" fill="url(#paint0_linear_0_925)"/>
<defs>
<linearGradient id="paint0_linear_0_925" x1="17.5" y1="-20" x2="-22.146" y2="14.6903" gradientUnits="userSpaceOnUse">
<stop stop-color="#FFC105"/>
<stop offset="1" stop-color="#737CFF"/>
</linearGradient>
</defs>
</svg>
