<svg width="44" height="42" viewBox="0 0 44 42" fill="none" xmlns="http://www.w3.org/2000/svg">
<path fill-rule="evenodd" clip-rule="evenodd" d="M38.2301 0H39.6726V3.29719L40.6925 4.31402H44V5.75202H39.6726H39.2501L37.8076 7.19003H41.115V8.62804L36.7876 8.62804H36.3651L33.2768 11.7067C33.3097 11.7429 33.3424 11.7794 33.3749 11.8163C36.9657 15.3674 36.9657 21.3516 33.4013 24.7006L18.2205 41.3911L17.6856 40.8171L10.4377 33.037L3.18798 40.2642H6.49543V41.7022H2.16798H1.74549L1.44674 42L1.14799 41.7022H0.725502V41.281L0.426753 40.9832L0.725502 40.6854V40.2642V35.9502H2.16798V39.2473L9.45539 31.9826L2.70883 24.7406C-0.895092 21.3516 -0.895092 15.3674 2.66195 11.8522C6.05903 7.99827 11.7713 7.98531 14.8213 11.8462L18.1894 15.1324L21.2385 11.86C23.9612 8.39857 28.8178 8.036 32.2233 10.7234L35.3451 7.61121V7.19003V2.87601H36.7876V6.17321L38.2301 4.7352V4.31402V0ZM3.73219 23.7283L10.4755 30.9657L18.051 23.4137L19.071 24.4305L11.4578 32.02L18.2077 39.2645L32.3721 23.6946C35.3766 20.8691 35.3766 15.8215 32.3252 12.8013C29.5013 9.59728 24.8311 9.59728 22.3573 12.7682L22.3164 12.8161L18.2387 17.1926L13.7783 12.8406L13.7134 12.7681C11.24 9.59728 6.56983 9.59728 3.71167 12.8372C0.693939 15.8215 0.693939 20.8691 3.73219 23.7283Z" fill="url(#paint0_linear_0_912)"/>
<defs>
<linearGradient id="paint0_linear_0_912" x1="22" y1="-21" x2="-19.9546" y2="22.9524" gradientUnits="userSpaceOnUse">
<stop stop-color="#FFC105"/>
<stop offset="1" stop-color="#737CFF"/>
</linearGradient>
</defs>
</svg>
