<svg width="43" height="49" viewBox="0 0 43 49" fill="none" xmlns="http://www.w3.org/2000/svg">
<path fill-rule="evenodd" clip-rule="evenodd" d="M41 12H35C34.7358 11.7503 34.2882 12.1958 34 13V47H2V2H41V12ZM42 0H1C0.447625 0 0 0.445815 0 1V48C0 48.5542 0.447625 49 1 49H35C35.84 49 36.2876 48.5542 36 48V14H42C42.5524 13.7212 43 13.2754 43 13V1C43 0.445815 42.5524 0 42 0ZM7.96725 40H28.0328C28.5667 40 29 39.56 29 39C29 38.45 28.5667 38 28.0328 38H7.96725C7.43333 38 7 38.45 7 39C7 39.56 7.43333 40 7.96725 40ZM28.0328 33H7.96725C7.43333 33 7 32.55 7 32C7 31.45 7.43333 31 7.96725 31H28.0328C28.5667 31 29 31.45 29 32C29 32.55 28.5667 33 28.0328 33ZM7.96725 26H28.0328C28.5667 26 29 25.56 29 25C29 24.45 28.5667 24 28.0328 24H7.96725C7.43333 24 7 24.45 7 25C7 25.56 7.43333 26 7.96725 26ZM15.157 14.36L13.386 9.51L11.647 14.36H15.157ZM9.899 18.84C9.744 19.05 9.491 19.15 9.138 19.15C8.839 19.15 8.574 19.04 8.344 18.82C8.115 18.6 8 18.36 8 18.08C8 17.92 8.026 17.75 8.08 17.58C8.134 17.41 8.222 17.17 8.344 16.87L11.35 9.24C11.3766 9.17205 11.4047 9.09933 11.4344 9.02243L11.4345 9.02217L11.4346 9.02182C11.501 8.8499 11.5755 8.6571 11.659 8.45C11.779 8.14 11.907 7.88 12.043 7.68C12.18 7.48 12.359 7.31 12.581 7.19C12.802 7.06 13.076 7 13.402 7C13.733 7 14.01 7.06 14.232 7.19C14.453 7.31 14.632 7.48 14.769 7.67C14.905 7.87 15.02 8.08 15.113 8.31C15.207 8.54 15.326 8.84 15.47 9.22L18.54 16.8C18.78 17.38 18.9 17.8 18.9 18.06C18.9 18.33 18.787 18.58 18.56 18.81C18.333 19.04 18.059 19.15 17.738 19.15C17.551 19.15 17.391 19.12 17.257 19.05C17.124 18.98 17.011 18.89 16.921 18.78C16.83 18.66 16.732 18.49 16.628 18.25C16.524 18.01 16.434 17.8 16.36 17.62L15.798 16.15H11.022L10.46 17.65C10.241 18.24 10.055 18.64 9.899 18.84ZM42 17H39C38.4629 17 38 17.4472 38 18C38 18.5405 38.4629 18.9878 39 19H41V28H39C38.4629 28.0122 38 28.4495 38 29C38 29.5528 38.4629 30 39 30H42C42.5371 30 43 29.5528 43 29V18C43 17.4472 42.5371 17 42 17ZM39 33H42C42.5371 33 43 33.4549 43 34V46C43 46.5451 42.5371 47 42 47H39C38.4629 47 38 46.5451 38 46C38 45.4231 38.4629 44.9783 39 45H41V35H39C38.4629 35.0217 38 34.5668 38 34C38 33.4549 38.4629 33 39 33Z" fill="url(#paint0_linear_0_219)"/>
<defs>
<linearGradient id="paint0_linear_0_219" x1="21.5" y1="-24.5" x2="-27.0849" y2="18.1358" gradientUnits="userSpaceOnUse">
<stop stop-color="#FFC105"/>
<stop offset="1" stop-color="#737CFF"/>
</linearGradient>
</defs>
</svg>
