<svg width="48" height="37" viewBox="0 0 48 37" fill="none" xmlns="http://www.w3.org/2000/svg">
<path fill-rule="evenodd" clip-rule="evenodd" d="M41 9.79885V2H7V9.79885L24 23.7079L41 9.79885ZM43 8.16248L44.3758 7.0368C44.251 7.01265 44.1221 7 43.9901 7H43V8.16248ZM43 5H43.9901C44.7726 5 45.5025 5.22358 46.1194 5.61023L46.1407 5.5928L46.1944 5.65837C47.2824 6.37446 48 7.60562 48 9.00426V32.9957C48 35.211 46.2047 37 43.9901 37H4.00989C1.79405 37 0 35.2072 0 32.9957V9.00426C0 7.60303 0.718312 6.37233 1.8067 5.65707L1.85928 5.5928L1.88019 5.60991C2.49728 5.22334 3.22741 5 4.00989 5H5V0H43V5ZM5 8.16248V7H4.00989C3.87788 7 3.74889 7.01262 3.62406 7.03672L5 8.16248ZM36 6V8H12V6H36ZM12 10V12H31V10H12ZM2.1008 8.37454C2.03538 8.5725 2 8.78419 2 9.00426V32.9957C2 33.1761 2.02386 33.3509 2.06861 33.5172L15.9115 19.6742L2.1008 8.37454ZM4.00989 35C3.82771 35 3.65125 34.9759 3.48353 34.9307L17.4526 20.9616L17.307 20.8159L24 26.2921L30.9043 20.6431L30.5858 20.9616L44.5467 34.9225C44.37 34.973 44.1833 35 43.9901 35H4.00989ZM45.9395 33.4869C45.979 33.3298 46 33.1652 46 32.9957V9.00426C46 8.78435 45.9645 8.5727 45.899 8.37472L32.1096 19.657L45.9395 33.4869Z" fill="url(#paint0_linear_0_253)"/>
<defs>
<linearGradient id="paint0_linear_0_253" x1="24" y1="-18.5" x2="-11.7811" y2="27.9187" gradientUnits="userSpaceOnUse">
<stop stop-color="#FFC105"/>
<stop offset="1" stop-color="#737CFF"/>
</linearGradient>
</defs>
</svg>
