<svg width="52" height="45" viewBox="0 0 52 45" fill="none" xmlns="http://www.w3.org/2000/svg">
<path fill-rule="evenodd" clip-rule="evenodd" d="M52 1.42173L50.5812 0L45.497 5.15449C40.654 0.903796 33.3195 1.11055 28.7188 5.77475L24.8813 9.66448L21.0437 5.77469C16.2297 0.894206 8.42234 0.894206 3.60821 5.77475C-1.20274 10.6512 -1.20274 18.557 3.60821 23.4343L24.8813 45L46.1544 23.4343C50.7029 18.8221 50.9503 11.5019 46.8963 6.59603L52 1.42173ZM44.0828 6.58834L24.8813 26.0553L15.3171 16.3592L13.8983 17.7809L24.8813 28.9154L45.4782 8.03372C48.7525 12.1469 48.505 18.1905 44.7356 22.0126L24.8813 42.14L5.02694 22.0125C0.991864 17.9218 0.991864 11.2865 5.02689 7.19657C9.05887 3.10897 15.5931 3.10897 19.625 7.19651L24.172 11.8053L24.8813 12.5243L30.1375 7.19657C33.9584 3.32289 40.0266 3.12017 44.0828 6.58834ZM24.8813 9.66448L25.5906 10.3834H24.172L24.8813 9.66448Z" fill="url(#paint0_linear_0_954)"/>
<defs>
<linearGradient id="paint0_linear_0_954" x1="26" y1="-22.5" x2="-18.5337" y2="28.9612" gradientUnits="userSpaceOnUse">
<stop stop-color="#FFC105"/>
<stop offset="1" stop-color="#737CFF"/>
</linearGradient>
</defs>
</svg>
