<svg width="60" height="46" viewBox="0 0 60 46" fill="none" xmlns="http://www.w3.org/2000/svg">
<path fill-rule="evenodd" clip-rule="evenodd" d="M39.9848 0H20.0152L14.6306 7H6.00491C2.68762 7 0 9.68006 0 12.9979V40.0021C0 43.3136 2.6942 46 6.00491 46H53.9951C57.3124 46 60 43.3199 60 40.0021V12.9979C60 9.68636 57.3058 7 53.9951 7H45.3694L39.9848 0ZM14.6306 7H15.6154L14.0301 7.78058L14.6306 7ZM6.00491 9H15.6154L21 2H39L44.3846 9H53.9951C56.2002 9 58 10.7899 58 12.9979V40.0021C58 42.2162 56.2069 44 53.9951 44H6.00491C3.79979 44 2 42.2101 2 40.0021V12.9979C2 10.7838 3.79306 9 6.00491 9ZM30.5 38C23.0442 38 17 31.9558 17 24.5C17 17.0442 23.0442 11 30.5 11C37.9558 11 44 17.0442 44 24.5C44 31.9558 37.9558 38 30.5 38ZM30.5 36C36.8513 36 42 30.8513 42 24.5C42 18.1487 36.8513 13 30.5 13C24.1487 13 19 18.1487 19 24.5C19 30.8513 24.1487 36 30.5 36Z" fill="url(#paint0_linear_0_964)"/>
<defs>
<linearGradient id="paint0_linear_0_964" x1="30" y1="-23" x2="-14.4227" y2="34.9426" gradientUnits="userSpaceOnUse">
<stop stop-color="#FFC105"/>
<stop offset="1" stop-color="#737CFF"/>
</linearGradient>
</defs>
</svg>
