<svg width="41" height="39" viewBox="0 0 41 39" fill="none" xmlns="http://www.w3.org/2000/svg">
<path fill-rule="evenodd" clip-rule="evenodd" d="M26.24 13.3541L39.0338 13.3541C39.8905 13.3707 40.6414 13.9351 40.9025 14.7568C41.166 15.5701 40.8835 16.4665 40.1978 16.9811L30.2265 24.5005L33.8499 36.3939C34.1002 37.2156 33.8077 38.1036 33.1196 38.6099C32.7685 38.8672 32.3579 39 31.9316 39C31.5243 39 31.1311 38.8755 30.7932 38.6431L20.5005 31.522L10.2087 38.6431C9.52299 39.1245 8.56138 39.1079 7.88396 38.6099C7.19497 38.1036 6.90087 37.2156 7.15118 36.3939L10.7721 24.5005L0.802415 16.9811C0.117557 16.4665 -0.165803 15.5701 0.0969043 14.7568C0.35796 13.9351 1.10891 13.3707 1.96477 13.3541L14.76 13.3541L18.6071 1.34454C18.8879 0.539477 19.6488 0 20.5005 0C21.3506 0 22.1115 0.539477 22.3932 1.34454L26.24 13.3541ZM28.4821 24.4081C28.3805 24.076 28.4978 23.7108 28.7764 23.5033L39.2182 15.6337C39.3389 15.5424 39.3893 15.3847 39.343 15.2435C39.2959 15.0941 39.1636 15.0028 39.0123 14.9945L25.42 14.9945C25.0753 14.9862 24.7141 14.5047 24.6 14.1727L20.8354 1.87853C20.7345 1.58799 20.265 1.58799 20.1658 1.87023L16.4 14.1727C16.2859 14.5047 15.1047 14.9862 14.76 14.9945L1.98635 14.9945C1.8359 15.0028 1.7028 15.1024 1.65734 15.2435C1.61021 15.3847 1.66147 15.5424 1.78299 15.642L12.2223 23.5033C12.5008 23.7108 12.6182 24.076 12.5165 24.4081L8.72293 36.86C8.67912 37.0094 8.73037 37.1671 8.85189 37.2584C9.00317 37.3663 9.10982 37.3663 9.26275 37.2667L20.0319 29.8205C20.1732 29.7209 20.3369 29.6711 20.5006 29.6711C20.6643 29.6711 20.8288 29.7209 20.9693 29.8205L31.7376 37.2667C31.8608 37.3497 32.0286 37.3497 32.1526 37.2584C32.2708 37.1671 32.3229 37.0094 32.2782 36.8683L28.4821 24.4081Z" fill="url(#paint0_linear_0_906)"/>
<defs>
<linearGradient id="paint0_linear_0_906" x1="20.5" y1="-19.5" x2="-18.4513" y2="21.4488" gradientUnits="userSpaceOnUse">
<stop stop-color="#FFC105"/>
<stop offset="1" stop-color="#737CFF"/>
</linearGradient>
</defs>
</svg>
