<svg width="128" height="32" viewBox="0 0 128 32" fill="none" xmlns="http://www.w3.org/2000/svg">
<path d="M45.0022 12.4774H36.4593V15.0123H42.5185C42.2183 18.5605 39.2617 20.0835 36.4695 20.0835C35.585 20.0874 34.7085 19.915 33.8914 19.5764C33.0742 19.2379 32.3326 18.7399 31.71 18.1116C31.0873 17.4834 30.5961 16.7373 30.2649 15.9171C29.9338 15.0969 29.7693 14.2189 29.7812 13.3344C29.7812 9.49694 32.7521 6.5424 36.4777 6.5424C39.3517 6.5424 41.0453 8.37449 41.0453 8.37449L42.8194 6.53626C42.8194 6.53626 40.5404 4 36.3849 4C31.0934 4 27 8.46593 27 13.2894C27 18.016 30.8505 22.6252 36.5187 22.6252C41.5045 22.6252 45.1544 19.2094 45.1544 14.1587C45.1544 13.0929 44.9995 12.4774 44.9995 12.4774H45.0022Z" fill="#4885ED"/>
<path d="M52.001 10.6412C48.4951 10.6412 45.9827 13.3822 45.9827 16.5776C45.9827 19.8215 48.4187 22.6129 52.0419 22.6129C55.3213 22.6129 58.0077 20.1067 58.0077 16.6472C58.0077 12.6896 54.8825 10.6412 52.001 10.6412ZM52.0351 12.9926C53.7587 12.9926 55.3922 14.3866 55.3922 16.6322C55.3922 18.8293 53.7655 20.2636 52.0269 20.2636C50.1164 20.2636 48.6152 18.7338 48.6152 16.6144C48.6152 14.5401 50.1027 12.9926 52.0406 12.9926H52.0351Z" fill="#DB3236"/>
<path d="M65.089 10.6412C61.5831 10.6412 59.0707 13.3822 59.0707 16.5776C59.0707 19.8215 61.5067 22.6129 65.1299 22.6129C68.4093 22.6129 71.0956 20.1067 71.0956 16.6472C71.0956 12.6896 67.9705 10.6412 65.089 10.6412ZM65.1231 12.9926C66.8467 12.9926 68.4802 14.3866 68.4802 16.6322C68.4802 18.8293 66.8535 20.2636 65.1149 20.2636C63.2044 20.2636 61.7032 18.7338 61.7032 16.6144C61.7032 14.5401 63.1907 12.9926 65.1286 12.9926H65.1231Z" fill="#F4C20D"/>
<path d="M77.9259 10.6481C74.708 10.6481 72.1792 13.4661 72.1792 16.6295C72.1792 20.2322 75.1112 22.6218 77.8699 22.6218C79.5758 22.6218 80.4833 21.9442 81.1452 21.167V22.3475C81.1452 24.4129 79.891 25.65 77.9982 25.65C76.1695 25.65 75.2525 24.2901 74.9277 23.5191L72.6268 24.4743C73.4429 26.2007 75.086 28 78.0173 28C81.2243 28 83.6548 25.985 83.6548 21.7586V11.0076H81.1547V12.0216C80.3837 11.1891 79.3274 10.6481 77.9272 10.6481H77.9259ZM78.1579 12.9953C79.7355 12.9953 81.3553 14.3422 81.3553 16.6424C81.3553 18.9808 79.7382 20.2691 78.1231 20.2691C76.4077 20.2691 74.8117 18.8771 74.8117 16.6643C74.8117 14.3661 76.4698 12.9953 78.1579 12.9953Z" fill="#4885ED"/>
<path d="M94.8288 10.6337C91.7938 10.6337 89.2453 13.0492 89.2453 16.611C89.2453 20.3817 92.0858 22.6177 95.1134 22.6177C97.6462 22.6177 99.2074 21.2325 100.129 19.9907L98.0591 18.6137C97.5221 19.4462 96.6241 20.2616 95.1264 20.2616C93.4437 20.2616 92.6699 19.3404 92.1902 18.4465L100.217 15.1167L99.8072 14.141C99.0321 12.2304 97.2225 10.6337 94.8288 10.6337ZM94.9333 12.9359C96.027 12.9359 96.8138 13.5173 97.1481 14.2147L91.7877 16.4548C91.5557 14.7203 93.2001 12.9359 94.9264 12.9359H94.9333Z" fill="#DB3236"/>
<path d="M85.4125 22.2629H88.0491V4.61957H85.4125V22.2629Z" fill="#3CBA54"/>
</svg>
