<svg width="150" height="28" viewBox="0 0 150 28" fill="none" xmlns="http://www.w3.org/2000/svg">
<path d="M36.321 5.56637H39.8702V19.0891H46.4481V22.1412H36.321V5.56637Z" fill="white"/>
<path d="M48.0459 19.3259C47.5025 18.3247 47.2289 17.1993 47.252 16.0603C47.2289 14.9214 47.5025 13.796 48.0459 12.7947C48.5625 11.8592 49.3449 11.0977 50.2941 10.6065C51.346 10.0994 52.4987 9.83604 53.6664 9.83604C54.8342 9.83604 55.9869 10.0994 57.0388 10.6065C57.9866 11.0997 58.7684 11.8606 59.287 12.7947C59.8278 13.7969 60.1001 14.9218 60.0775 16.0603C60.1029 17.2034 59.8304 18.3334 59.287 19.3393C58.7649 20.2673 57.9837 21.0231 57.0388 21.5141C55.9869 22.0212 54.8342 22.2846 53.6664 22.2846C52.4987 22.2846 51.346 22.0212 50.2941 21.5141C49.3449 21.0229 48.5625 20.2615 48.0459 19.3259ZM56.6952 16.0603C56.7327 15.1439 56.4378 14.2447 55.8646 13.5286C55.5948 13.2127 55.2567 12.9624 54.8759 12.7966C54.495 12.6307 54.0814 12.5536 53.6664 12.5712C53.2517 12.5546 52.8387 12.6334 52.4593 12.8017C52.0799 12.97 51.7442 13.2233 51.4782 13.5419C50.9085 14.2592 50.6182 15.1587 50.661 16.0737C50.6182 16.9887 50.9085 17.8882 51.4782 18.6054C51.7442 18.9241 52.0799 19.1773 52.4593 19.3456C52.8387 19.5139 53.2517 19.5928 53.6664 19.5761C54.0836 19.5905 54.4985 19.5093 54.8795 19.3387C55.2605 19.1682 55.5974 18.9128 55.8646 18.5921C56.4378 17.876 56.7327 16.9768 56.6952 16.0603Z" fill="white"/>
<path d="M62.2424 19.3259C61.699 18.3247 61.4254 17.1993 61.4485 16.0603C61.4254 14.9214 61.699 13.796 62.2424 12.7947C62.759 11.8592 63.5414 11.0977 64.4906 10.6065C65.5419 10.0995 66.6941 9.83612 67.8613 9.83612C69.0285 9.83612 70.1806 10.0995 71.2319 10.6065C72.1811 11.0977 72.9635 11.8592 73.4802 12.7947C74.0235 13.796 74.2971 14.9214 74.2741 16.0603C74.2999 17.2038 74.0262 18.3342 73.4802 19.3393C72.96 20.2688 72.1782 21.0251 71.2319 21.5141C70.1806 22.0212 69.0285 22.2845 67.8613 22.2845C66.6941 22.2845 65.5419 22.0212 64.4906 21.5141C63.5414 21.0229 62.759 20.2615 62.2424 19.3259ZM70.8917 16.0603C70.933 15.1455 70.6428 14.2466 70.0745 13.5286C69.7951 13.2228 69.455 12.9785 69.0759 12.8114C68.6969 12.6443 68.2872 12.558 67.8729 12.558C67.4587 12.558 67.049 12.6443 66.6699 12.8114C66.2909 12.9785 65.9508 13.2228 65.6714 13.5286C65.109 14.2489 64.8248 15.1476 64.8708 16.0603C64.8286 16.9747 65.1176 17.8736 65.6848 18.5921C65.9642 18.8979 66.3042 19.1422 66.6833 19.3093C67.0623 19.4764 67.472 19.5627 67.8863 19.5627C68.3005 19.5627 68.7102 19.4764 69.0893 19.3093C69.4683 19.1422 69.8084 18.8979 70.0878 18.5921C70.6514 17.8722 70.9368 16.9735 70.8917 16.0603Z" fill="white"/>
<path d="M79.4543 5.56637V15.1597L84.2343 9.97944H87.9736L83.6372 14.7361L88.2204 22.1412H84.3544L81.2789 17.2211L79.4543 19.1825V22.1412H76.1187V5.56637H79.4543Z" fill="white"/>
<path d="M92.3266 19.396C92.8651 19.7533 93.502 19.933 94.1479 19.9097C94.7229 19.9393 95.2963 19.8246 95.8157 19.5761C96.0071 19.4895 96.1687 19.3484 96.2803 19.1704C96.3918 18.9924 96.4483 18.7854 96.4428 18.5754C96.453 18.4432 96.4328 18.3104 96.3836 18.1872C96.3344 18.0641 96.2577 17.9538 96.1593 17.8649C95.922 17.6909 95.6462 17.5765 95.3554 17.5314C95.0218 17.4613 94.4414 17.3779 93.6509 17.2845C92.7481 17.1761 91.8556 16.9942 90.9823 16.7408C90.3309 16.5535 89.7421 16.1939 89.2778 15.7001C88.832 15.1725 88.603 14.4953 88.6374 13.8054C88.6287 13.0536 88.8627 12.319 89.3045 11.7106C89.7701 11.0782 90.4049 10.5903 91.1358 10.303C92.001 9.95801 92.9264 9.78904 93.8577 9.80599C95.5144 9.82156 96.8486 10.1762 97.8605 10.8701C98.3464 11.1841 98.7495 11.6106 99.0358 12.1134C99.322 12.6162 99.4829 13.1806 99.5049 13.7587H96.3361C96.3106 13.5286 96.2323 13.3073 96.1074 13.1124C95.9824 12.9174 95.8141 12.7539 95.6156 12.6346C95.1161 12.3249 94.535 12.1727 93.9478 12.1977C93.4168 12.173 92.8893 12.2954 92.4233 12.5512C92.2494 12.6412 92.1034 12.7771 92.0011 12.944C91.8988 13.111 91.8441 13.3027 91.8429 13.4986C91.8353 13.6221 91.8596 13.7456 91.9133 13.8571C91.967 13.9687 92.0485 14.0646 92.1498 14.1357C92.3933 14.2938 92.6671 14.3995 92.9537 14.4459C93.2873 14.5059 93.8377 14.5793 94.6215 14.656C96.2627 14.8473 97.5213 15.1986 98.3975 15.7101C99.2715 16.2238 99.7084 17.1011 99.7084 18.3486C99.7199 19.1016 99.474 19.8359 99.0113 20.43C98.5033 21.0607 97.8317 21.5396 97.0699 21.8143C96.1503 22.1547 95.175 22.3199 94.1946 22.3013C92.5067 22.3013 91.1347 21.9266 90.0784 21.1772C89.5762 20.8361 89.1629 20.3799 88.8728 19.8467C88.5827 19.3135 88.4242 18.7186 88.4106 18.1118H91.5561C91.5787 18.3702 91.6599 18.6202 91.7934 18.8426C91.9269 19.0651 92.1092 19.2544 92.3266 19.396Z" fill="white"/>
<path d="M107.397 22.2847C106.246 22.3107 105.106 22.0457 104.085 21.5141C103.155 21.0168 102.394 20.2554 101.897 19.3259C101.371 18.3189 101.107 17.196 101.129 16.0603C101.104 14.9212 101.368 13.7942 101.897 12.7847C102.399 11.857 103.165 11.0991 104.098 10.6066C105.128 10.0738 106.275 9.80877 107.434 9.83601C109.059 9.83601 110.384 10.2507 111.407 11.0802C112.453 11.945 113.13 13.1759 113.301 14.5226H109.835C109.72 13.9637 109.421 13.4598 108.985 13.0916C108.537 12.7279 107.973 12.5383 107.397 12.5579C106.998 12.5444 106.602 12.6253 106.24 12.794C105.878 12.9627 105.562 13.2144 105.316 13.5286C104.769 14.2562 104.493 15.1514 104.535 16.0603C104.493 16.9693 104.769 17.8645 105.316 18.5921C105.56 18.9088 105.876 19.163 106.238 19.334C106.6 19.5051 106.997 19.588 107.397 19.5761C107.985 19.5968 108.561 19.4036 109.018 19.0324C109.464 18.6486 109.761 18.1212 109.859 17.5414H113.291C113.135 18.9028 112.462 20.1521 111.41 21.0305C110.376 21.8666 109.038 22.2847 107.397 22.2847Z" fill="white"/>
<path d="M115.239 19.3259C114.696 18.3247 114.422 17.1993 114.445 16.0603C114.422 14.9214 114.696 13.796 115.239 12.7947C115.756 11.8592 116.538 11.0977 117.487 10.6065C118.539 10.0995 119.691 9.83612 120.858 9.83612C122.025 9.83612 123.177 10.0995 124.229 10.6065C125.178 11.0977 125.96 11.8592 126.477 12.7947C127.02 13.796 127.294 14.9214 127.271 16.0603C127.297 17.2038 127.023 18.3342 126.477 19.3393C125.961 20.2664 125.186 21.0224 124.245 21.5141C123.194 22.0212 122.042 22.2845 120.875 22.2845C119.708 22.2845 118.555 22.0212 117.504 21.5141C116.549 21.0256 115.76 20.2639 115.239 19.3259ZM123.889 16.0603C123.93 15.1455 123.64 14.2466 123.071 13.5286C122.792 13.2228 122.452 12.9785 122.073 12.8114C121.694 12.6443 121.284 12.558 120.87 12.558C120.456 12.558 120.046 12.6443 119.667 12.8114C119.288 12.9785 118.948 13.2228 118.668 13.5286C118.101 14.247 117.812 15.146 117.854 16.0603C117.812 16.9747 118.101 17.8736 118.668 18.5921C118.948 18.8979 119.288 19.1422 119.667 19.3093C120.046 19.4764 120.456 19.5627 120.87 19.5627C121.284 19.5627 121.694 19.4764 122.073 19.3093C122.452 19.1422 122.792 18.8979 123.071 18.5921C123.641 17.8746 123.932 16.9755 123.892 16.0603H123.889Z" fill="white"/>
<path d="M140.57 22.1412H137.615L137.305 20.6735C136.877 21.2037 136.331 21.6258 135.711 21.9057C135.09 22.1856 134.412 22.3154 133.732 22.2846C133.093 22.309 132.456 22.2053 131.858 21.9796C131.26 21.7539 130.713 21.4108 130.25 20.9704C129.36 20.0965 128.915 18.6332 128.915 16.5807V9.97943H132.251V16.1771C132.251 17.2845 132.444 18.1151 132.831 18.6755C133.033 18.9569 133.303 19.1819 133.616 19.3291C133.929 19.4762 134.274 19.5406 134.619 19.5161C134.994 19.5329 135.368 19.4565 135.706 19.2934C136.044 19.1304 136.337 18.886 136.557 18.5821C137.018 17.9583 137.244 17.0844 137.244 15.9669V9.97943H140.58L140.57 22.1412Z" fill="white"/>
<path d="M141.754 12.7947V9.97944H143.756V6.56707H147.091V9.97944H149.86V12.7947H147.091V18.1318C147.061 18.4628 147.158 18.793 147.361 19.0557C147.487 19.1616 147.633 19.2413 147.79 19.29C147.947 19.3387 148.112 19.3554 148.275 19.3393H150V22.1546H147.261C144.94 22.1546 143.78 20.9949 143.782 18.6755V12.7947H141.754Z" fill="white"/>
<path d="M17.3205 3L0 13V7L12.1282 0L17.3205 3Z" fill="white"/>
<path d="M24.2564 7V10.4615L3 22.7308L0 21V17.7436L21.4231 5.37179L24.2564 7Z" fill="white"/>
<path d="M7.10256 25.1026L24.2564 15.2051V21L12.1282 28L7.10256 25.1026Z" fill="white"/>
</svg>
