<svg width="128" height="32" viewBox="0 0 128 32" fill="none" xmlns="http://www.w3.org/2000/svg">
<path fill-rule="evenodd" clip-rule="evenodd" d="M54.0612 13.2112C52.9242 13.2112 52.3936 14.1208 52.0904 14.6513C51.9388 14.9545 51.9388 15.2577 51.7873 15.2577C51.6357 15.2577 51.7115 15.0303 51.6357 14.5755C51.4841 13.8934 50.9535 13.2112 49.8165 13.2112C48.6038 13.2112 48.0732 14.1966 47.8458 14.8029C47.6942 15.1819 47.6942 15.2577 47.5426 15.2577C47.391 15.2577 47.5426 14.9545 47.6184 14.5755C47.77 13.8934 47.6942 13.3628 47.6942 13.3628H45.7993V20.4877H48.3764C48.3764 20.4877 48.3764 17.5316 48.3764 16.9252C48.3764 16.2431 48.6796 15.3335 49.1344 15.3335C49.7407 15.3335 49.8165 15.7883 49.8165 16.6221V20.4877H52.3936C52.3936 20.4877 52.3936 17.4558 52.3936 16.9252C52.3936 16.3189 52.621 15.3335 53.2274 15.3335C53.8338 15.3335 53.9096 15.9399 53.9096 16.6221V20.4877H56.4866C56.4866 20.4877 56.4866 17.6832 56.4866 16.3189C56.4109 14.4997 55.7287 13.2112 54.0612 13.2112Z" fill="#101828"/>
<path fill-rule="evenodd" clip-rule="evenodd" d="M98.0232 13.2112C96.8863 13.2112 96.3557 14.1208 96.0525 14.6513C95.9009 14.9545 95.9009 15.2577 95.7493 15.2577C95.5977 15.2577 95.6735 14.9545 95.5977 14.5755C95.3703 13.8934 94.9156 13.2112 93.7786 13.2112C92.5659 13.2112 92.0353 14.1966 91.8079 14.8029C91.6563 15.1819 91.6563 15.2577 91.5047 15.2577C91.3531 15.2577 91.5047 14.9545 91.5805 14.5755C91.7321 13.8934 91.6563 13.3628 91.6563 13.3628H89.7614V20.4877H92.3385C92.3385 20.4877 92.3385 17.5316 92.3385 16.9252C92.3385 16.2431 92.6417 15.3335 93.0964 15.3335C93.7028 15.3335 93.7786 15.7883 93.7786 16.6221V20.4877H96.3557C96.3557 20.4877 96.3557 17.4558 96.3557 16.9252C96.3557 16.3189 96.5831 15.3335 97.1895 15.3335C97.7958 15.3335 97.8716 15.9399 97.8716 16.6221V20.4877H100.449C100.449 20.4877 100.449 17.6832 100.449 16.3189C100.373 14.4997 99.7665 13.2112 98.0232 13.2112Z" fill="#101828"/>
<path d="M60.8071 13.2112C58.8363 13.2112 57.3962 13.9692 57.3962 13.9692V16.0915C57.3962 16.0915 58.9879 15.1819 60.2765 15.1819C61.2618 15.1819 61.4134 15.7125 61.3376 16.1673C61.3376 16.1673 61.0344 16.0915 60.1249 16.0915C58.0026 16.0915 56.9414 17.0768 56.9414 18.5928C56.9414 20.0329 58.1542 20.6393 59.1395 20.6393C60.5797 20.6393 61.2618 19.6539 61.4892 19.1991C61.6408 18.896 61.6408 18.6686 61.7924 18.6686C61.944 18.6686 61.8682 18.8202 61.8682 19.1233C61.8682 19.6539 61.8682 20.1087 61.944 20.4877H63.9147V17.001C63.9905 14.8029 63.1567 13.2112 60.8071 13.2112ZM60.2007 18.896C59.5943 19.0475 59.2911 18.8202 59.2911 18.4412C59.2911 17.9106 59.8975 17.6832 60.7313 17.6832H61.4134C61.4134 17.9106 60.8829 18.7444 60.2007 18.896Z" fill="#101828"/>
<path fill-rule="evenodd" clip-rule="evenodd" d="M68.2351 11.2405H70.8122V20.5635H68.2351V11.2405Z" fill="#101828"/>
<path fill-rule="evenodd" clip-rule="evenodd" d="M73.6925 17.001C73.6925 16.3947 74.2989 15.7883 75.36 15.7883C76.5728 15.7883 77.4823 16.3947 77.7097 16.4705V13.9692C77.7097 13.9692 76.9517 13.2112 75.0568 13.2112C73.0861 13.2112 71.4944 14.3482 71.4944 16.8494C71.4944 19.3507 73.0103 20.7151 75.0568 20.7151C76.7244 20.7151 77.7097 19.8055 77.7097 19.8055V17.4558C77.4065 17.6074 76.497 18.2138 75.36 18.2138C74.1473 18.2138 73.6925 17.6832 73.6925 17.001Z" fill="#101828"/>
<path fill-rule="evenodd" clip-rule="evenodd" d="M82.9397 13.2112C81.4238 13.2112 80.8932 14.6513 80.7416 14.8787C80.59 15.1061 80.59 15.2577 80.4384 15.2577C80.2868 15.2577 80.3626 14.9545 80.4384 14.7271C80.59 14.3482 80.8174 13.4386 80.8174 12.2258C80.8174 11.3921 80.7416 11.1647 80.7416 11.1647H78.4677V20.4877H81.0448C81.0448 20.4877 81.0448 17.5316 81.0448 16.9252C81.0448 16.3189 81.2722 15.3335 81.9543 15.3335C82.4849 15.3335 82.6365 15.7125 82.6365 16.5463V20.4877H85.2136C85.2136 20.4877 85.2136 18.2896 85.2136 16.6978C85.3652 14.9545 85.062 13.2112 82.9397 13.2112Z" fill="#101828"/>
<path fill-rule="evenodd" clip-rule="evenodd" d="M86.1989 13.4386V20.5635H88.776V13.4386C88.776 13.4386 88.3213 13.666 87.4875 13.666C86.6537 13.666 86.1989 13.4386 86.1989 13.4386Z" fill="#101828"/>
<path fill-rule="evenodd" clip-rule="evenodd" d="M87.4875 13.287C88.3666 13.287 89.0792 12.8119 89.0792 12.2258C89.0792 11.6398 88.3666 11.1647 87.4875 11.1647C86.6084 11.1647 85.8958 11.6398 85.8958 12.2258C85.8958 12.8119 86.6084 13.287 87.4875 13.287Z" fill="#101828"/>
<path fill-rule="evenodd" clip-rule="evenodd" d="M64.8243 20.5635H67.4014V13.4386C67.4014 13.4386 66.9466 13.666 66.1128 13.666C65.2791 13.666 64.8243 13.4386 64.8243 13.4386V20.5635Z" fill="#101828"/>
<path fill-rule="evenodd" clip-rule="evenodd" d="M66.1128 13.287C66.9919 13.287 67.7046 12.8119 67.7046 12.2258C67.7046 11.6398 66.9919 11.1647 66.1128 11.1647C65.2337 11.1647 64.5211 11.6398 64.5211 12.2258C64.5211 12.8119 65.2337 13.287 66.1128 13.287Z" fill="#101828"/>
<path d="M105.527 13.2112C104.163 13.2112 103.556 14.1966 103.329 14.8029C103.177 15.1819 103.177 15.2577 103.026 15.2577C102.874 15.2577 103.026 14.9545 103.102 14.5755C103.253 13.8934 103.177 13.3628 103.177 13.3628H101.282V22.4584H103.86C103.86 22.4584 103.86 20.9425 103.86 19.5781C104.163 20.1087 104.769 20.6393 105.603 20.6393C107.498 20.6393 108.407 19.0475 108.407 16.9252C108.407 14.5755 107.27 13.2112 105.527 13.2112ZM104.845 19.0475C104.239 19.0475 103.784 18.2896 103.784 17.2284C103.784 16.2431 104.239 15.4093 104.769 15.4093C105.527 15.4093 105.83 16.0915 105.83 17.2284C105.83 18.3654 105.527 19.0475 104.845 19.0475Z" fill="#101828"/>
<path fill-rule="evenodd" clip-rule="evenodd" d="M36.4763 15.4093H37.0069C37.0827 15.1819 37.0827 14.8787 37.0069 14.4997C36.8553 13.9692 36.7037 13.5902 36.4005 13.666C36.0973 13.7418 36.0215 14.1208 36.1731 14.7271C36.2489 14.9545 36.4005 15.2577 36.4763 15.4093Z" fill="#101828"/>
<path fill-rule="evenodd" clip-rule="evenodd" d="M33.6718 15.8641C33.8992 15.9399 34.0508 16.0157 34.1266 15.9399C34.1266 15.9399 34.1266 15.8641 34.1266 15.7125C33.975 15.4851 33.7476 15.3335 33.5203 15.1819C32.9897 14.9545 32.3833 15.0303 31.9285 15.4093C31.7769 15.5609 31.6253 15.7125 31.6253 15.7883C31.6253 15.7883 31.6253 15.8641 31.7011 15.8641C31.8527 15.8641 32.3075 15.6367 32.8381 15.6367C33.1413 15.6367 33.4445 15.7125 33.6718 15.8641Z" fill="#101828"/>
<path fill-rule="evenodd" clip-rule="evenodd" d="M33.2171 16.0915C32.9139 16.1673 32.7623 16.2431 32.6107 16.3189C32.5349 16.3947 32.4591 16.4705 32.4591 16.5463V16.6221H32.5349C32.6107 16.6221 32.7623 16.5463 32.7623 16.5463C33.2171 16.3947 33.4445 16.3947 33.7476 16.4705H33.975V16.3947C33.8992 16.2431 33.5961 16.0915 33.2171 16.0915Z" fill="#101828"/>
<path fill-rule="evenodd" clip-rule="evenodd" d="M35.5668 17.1526C35.7942 17.2284 36.0215 17.2284 36.0973 17.0768C36.1731 16.9252 36.0973 16.6978 35.87 16.6221C35.6426 16.5463 35.4152 16.5463 35.3394 16.6978C35.2636 16.7736 35.3394 17.001 35.5668 17.1526Z" fill="#101828"/>
<path fill-rule="evenodd" clip-rule="evenodd" d="M36.9311 15.9399C36.7795 15.9399 36.6279 16.0915 36.6279 16.3947C36.6279 16.6221 36.7795 16.8494 36.9311 16.8494C37.0827 16.8494 37.2343 16.6978 37.2343 16.3947C37.2343 16.1673 37.0827 15.9399 36.9311 15.9399Z" fill="#101828"/>
<path fill-rule="evenodd" clip-rule="evenodd" d="M25.41 20.1845C25.3342 20.1087 25.3342 20.1845 25.2584 20.1845C25.1826 20.1845 25.1826 20.1845 25.1068 20.1845C24.9552 20.1845 24.8794 20.1087 24.8036 20.0329C24.7278 19.8813 24.7278 19.7297 24.8036 19.5023C24.8036 19.5023 24.8036 19.4265 24.8794 19.4265C25.031 19.1233 25.2584 18.5928 24.9552 18.138C24.7278 17.759 24.4247 17.5316 24.0457 17.4558C23.6667 17.38 23.2877 17.5316 23.0603 17.8348C22.6813 18.2138 22.6055 18.8202 22.6813 19.0475C22.6813 19.1233 22.7571 19.1233 22.7571 19.1233C22.8329 19.1233 22.9087 19.0475 22.9845 18.896C22.9845 18.896 22.9845 18.896 22.9845 18.8202C22.9845 18.7444 23.0603 18.5928 23.1361 18.4412C23.2119 18.2896 23.3635 18.2138 23.5909 18.138C23.7425 18.0622 23.9699 18.138 24.1215 18.2138C24.3489 18.3654 24.5005 18.7444 24.3489 19.0475C24.2731 19.1991 24.1973 19.5023 24.1973 19.7297C24.2731 20.2603 24.5762 20.4119 24.8036 20.4877C25.1068 20.4877 25.2584 20.3361 25.3342 20.2603C25.4858 20.1845 25.4858 20.1845 25.41 20.1845Z" fill="#101828"/>
<path d="M41.1757 19.1991C41.1757 19.1991 41.0999 18.896 41.0241 18.5928C40.9483 18.2896 40.8725 18.0622 40.8725 18.0622C41.2515 17.5316 41.2515 17.001 41.1757 16.6978C41.0999 16.3189 40.9483 16.0157 40.6451 15.7125C40.342 15.4093 39.7356 15.1061 38.9018 14.8787C38.826 14.8787 38.5228 14.7271 38.447 14.7271C38.447 14.7271 38.447 13.666 38.3712 13.2112C38.3712 12.908 38.2954 12.3774 38.1439 11.9227C37.9923 11.2405 37.6133 10.7099 37.2343 10.3309C38.3712 9.19398 39.0534 7.90543 39.0534 6.84428C39.0534 4.79777 36.4763 4.1156 33.3687 5.40414L32.6865 5.70733L31.4737 4.49458C27.9113 1.38692 16.6176 13.8176 20.2558 16.9252L21.0138 17.6074C20.7864 18.138 20.7106 18.7444 20.7864 19.4265C20.8622 20.2603 21.317 21.0941 21.9992 21.7004C22.6813 22.3068 23.5151 22.6858 24.3489 22.6858C25.7132 25.945 28.9725 27.9158 32.6865 27.9916C36.7037 28.1431 40.1146 26.2482 41.4789 22.8374C41.5547 22.61 41.9337 21.5488 41.9337 20.5635C42.0853 19.6539 41.5547 19.1991 41.1757 19.1991ZM24.7278 21.7762C24.5762 21.7762 24.5004 21.7762 24.3489 21.7762C23.1361 21.7762 21.8476 20.6393 21.696 19.3507C21.5444 17.9106 22.3023 16.8494 23.5909 16.5463C23.7425 16.5463 23.9699 16.4705 24.1215 16.4705C24.8794 16.5463 25.9406 17.0768 26.168 18.6686C26.3954 20.1087 26.0922 21.5488 24.7278 21.7762ZM23.4393 15.7125C22.6055 15.8641 21.9234 16.3189 21.4686 16.9252C21.2412 16.6978 20.7106 16.3189 20.6348 16.0915C19.9526 14.8029 21.3928 12.2258 22.3781 10.7857C24.8794 7.22326 28.8209 4.49458 30.64 5.02516C30.9432 5.10096 31.9285 6.23791 31.9285 6.23791C31.9285 6.23791 30.1094 7.22326 28.4419 8.6634C26.168 10.4067 24.4247 12.9838 23.4393 15.7125ZM36.1731 21.2456C36.1731 21.1699 36.1731 21.0941 36.1731 21.0941C36.1731 21.0941 34.2782 21.3972 32.4591 20.7151C32.6865 20.1087 33.1413 20.3361 33.975 20.3361C35.4152 20.4119 36.6279 20.1845 37.6133 19.9571C38.447 19.7297 39.5082 19.2749 40.342 18.5928C40.6451 19.1991 40.7209 19.8813 40.7209 19.8813C40.7209 19.8813 40.9483 19.8055 41.0999 19.9571C41.2515 20.0329 41.4031 20.2603 41.3273 20.8667C41.1757 21.9278 40.7209 22.7616 39.963 23.5953C39.5082 24.1259 38.9776 24.5049 38.2954 24.8081C37.9923 24.9597 37.6133 25.1113 37.2343 25.2629C34.354 26.1724 31.4737 25.1871 30.5642 22.989C30.4884 22.8374 30.4126 22.6858 30.4126 22.4584C30.0336 21.0183 30.3368 19.2749 31.3979 18.2138C31.4737 18.138 31.5495 18.0622 31.5495 17.9864C31.5495 17.9106 31.4737 17.8348 31.4737 17.759C31.0948 17.2284 29.8062 16.3189 30.1094 14.4997C30.261 13.2112 31.3979 12.3016 32.4591 12.3774H32.6865C33.1413 12.3774 33.5203 12.4532 33.8992 12.4532C34.5056 12.4532 35.112 12.3774 35.7184 11.8469C35.9457 11.6953 36.0973 11.4679 36.4005 11.4679H36.7037C36.8553 11.4679 37.0069 11.5437 37.1585 11.6195C37.6891 11.9985 37.7649 12.8322 37.7649 13.4386C37.7649 13.8176 37.8407 14.6513 37.8407 14.8787C37.8407 15.4093 37.9923 15.5609 38.2954 15.6367C38.447 15.7125 38.5986 15.7125 38.826 15.7883C39.5082 16.0157 39.963 16.1673 40.1904 16.4705C40.342 16.6221 40.4178 16.7736 40.4178 17.001C40.4935 17.6074 39.963 18.3654 38.5228 19.0475C36.9311 19.8055 34.9604 19.9571 33.6718 19.8055C33.596 19.8055 33.2171 19.7297 33.2171 19.7297C32.1559 19.5781 31.5495 20.9425 32.1559 21.9278C32.5349 22.5342 33.6718 22.9132 34.8088 22.9132C37.3859 22.9132 39.3566 21.7762 40.1146 20.8667C40.1146 20.8667 40.1146 20.8667 40.1904 20.7909C40.1904 20.7151 40.1904 20.7151 40.1146 20.7151C39.5082 21.0941 36.8553 22.7616 33.975 22.3068C33.975 22.3068 33.596 22.231 33.2929 22.1552C33.0655 22.0794 32.5349 21.7762 32.4591 21.2456C34.6572 21.9278 36.1731 21.2456 36.1731 21.2456ZM28.0629 10.7857C28.9725 9.72455 30.0336 8.89079 31.019 8.36021C31.019 8.36021 31.0948 8.36021 31.0948 8.43601C31.019 8.5876 30.8674 8.89079 30.7916 9.11818C30.7916 9.11818 30.7916 9.19398 30.8674 9.19398C31.4737 8.81499 32.5349 8.36021 33.4445 8.28442C33.5203 8.28442 33.5203 8.36021 33.4445 8.36021C33.2929 8.43601 33.1413 8.5876 33.0655 8.7392V8.81499C33.7476 8.81499 34.6572 9.04238 35.2636 9.42137C35.3394 9.42137 35.2636 9.49716 35.2636 9.49716C34.354 9.26977 32.8381 9.11818 31.3222 9.49716C29.882 9.80035 28.8209 10.3309 28.0629 10.7857C28.0629 10.9373 27.9871 10.8615 28.0629 10.7857Z" fill="#101828"/>
</svg>
