<svg width="128" height="32" viewBox="0 0 128 32" fill="none" xmlns="http://www.w3.org/2000/svg">
<path d="M34.2015 5.16481C33.0759 4.38908 31.607 4.00027 29.7949 4.00027H22.7795C22.224 4.00027 21.9171 4.27878 21.8588 4.83525L19.0089 22.7682C18.9793 22.9443 19.0233 23.1054 19.1404 23.2518C19.2569 23.3985 19.4034 23.4715 19.5788 23.4715H22.9111C23.4956 23.4715 23.8168 23.1937 23.8758 22.6365L24.6649 17.8018C24.6937 17.5675 24.7965 17.377 24.9719 17.2303C25.1472 17.0839 25.3665 16.9881 25.6296 16.9443C25.8927 16.9007 26.1407 16.8787 26.375 16.8787C26.6086 16.8787 26.8861 16.8936 27.2082 16.9228C27.5294 16.9519 27.7342 16.9663 27.822 16.9663C30.3357 16.9663 32.3088 16.2563 33.7413 14.8346C35.1732 13.4137 35.8899 11.4433 35.8899 8.92269C35.8899 7.19388 35.3266 5.94135 34.2015 5.16441V5.16481ZM30.5845 10.5495C30.4378 11.5753 30.0583 12.2489 29.4445 12.5713C28.8305 12.8942 27.9536 13.0549 26.8138 13.0549L25.3668 13.0987L26.1123 8.3955C26.1705 8.07347 26.3604 7.91225 26.6822 7.91225H27.5155C28.6842 7.91225 29.5324 8.08113 30.0586 8.41754C30.5844 8.75475 30.7599 9.46559 30.5845 10.5495Z" fill="#003087"/>
<path d="M108.236 4H104.992C104.669 4 104.479 4.16122 104.422 4.48379L101.571 22.7687L101.528 22.8566C101.528 23.0038 101.586 23.1423 101.703 23.2743C101.819 23.4059 101.966 23.4719 102.141 23.4719H105.036C105.59 23.4719 105.897 23.1941 105.957 22.6369L108.806 4.65965V4.61599C108.806 4.20556 108.616 4.00054 108.236 4.00054V4Z" fill="#009CDE"/>
<path d="M69.0375 11.0775C69.0375 10.9313 68.9788 10.7919 68.8626 10.6604C68.7454 10.5286 68.6138 10.4622 68.468 10.4622H65.0918C64.7697 10.4622 64.5066 10.6094 64.3023 10.9017L59.6548 17.7587L57.7255 11.1656C57.5786 10.6972 57.2575 10.4622 56.761 10.4622H53.472C53.3255 10.4622 53.194 10.5283 53.0778 10.6604C52.9606 10.7919 52.9024 10.9316 52.9024 11.0775C52.9024 11.1365 53.1874 12.0006 53.7573 13.6709C54.3272 15.3416 54.941 17.1438 55.5988 19.0779C56.2565 21.0116 56.5998 22.0377 56.6291 22.1539C54.232 25.4363 53.034 27.1944 53.034 27.4285C53.034 27.8098 53.2236 28 53.604 28H56.9801C57.3015 28 57.5644 27.8538 57.7695 27.5607L68.9504 11.385C69.0085 11.327 69.0375 11.2249 69.0375 11.0774V11.0775Z" fill="#003087"/>
<path d="M100.476 10.4622H97.1437C96.734 10.4622 96.4865 10.9459 96.3987 11.913C95.6377 10.7412 94.2502 10.1545 92.2328 10.1545C90.1283 10.1545 88.3376 10.9459 86.8618 12.5282C85.3854 14.1106 84.6476 15.9719 84.6476 18.1107C84.6476 19.8399 85.1518 21.217 86.16 22.2422C87.1685 23.2685 88.5203 23.7806 90.2163 23.7806C91.0639 23.7806 91.9261 23.6045 92.803 23.2532C93.6799 22.9016 94.3663 22.433 94.8641 21.8467C94.8641 21.8761 94.8343 22.0075 94.7765 22.2418C94.7174 22.4766 94.6886 22.653 94.6886 22.7693C94.6886 23.2387 94.8781 23.4724 95.2587 23.4724H98.2844C98.8391 23.4724 99.161 23.1946 99.2484 22.6375L101.046 11.1654C101.075 10.9894 101.032 10.8286 100.915 10.6819C100.797 10.5357 100.651 10.4622 100.476 10.4622ZM94.7542 19.1215C94.0088 19.8541 93.1098 20.2202 92.0576 20.2202C91.2095 20.2202 90.5232 19.9862 89.9968 19.5171C89.4703 19.0493 89.2073 18.4045 89.2073 17.5831C89.2073 16.4997 89.5727 15.5832 90.3038 14.8361C91.0336 14.0888 91.9406 13.7153 93.0222 13.7153C93.84 13.7153 94.5197 13.957 95.061 14.4403C95.6013 14.9239 95.8725 15.5906 95.8725 16.4406C95.8722 17.4954 95.4995 18.3893 94.7542 19.1215Z" fill="#009CDE"/>
<path d="M50.666 10.4622H47.3336C46.9237 10.4622 46.6758 10.9459 46.588 11.913C45.7987 10.7412 44.4102 10.1545 42.4225 10.1545C40.3178 10.1545 38.5272 10.9459 37.0512 12.5282C35.5748 14.1106 34.8371 15.9719 34.8371 18.1107C34.8371 19.8399 35.3414 21.217 36.3499 22.2422C37.3584 23.2685 38.71 23.7806 40.4056 23.7806C41.2237 23.7806 42.0719 23.6045 42.9487 23.2532C43.8256 22.9016 44.5272 22.433 45.0533 21.8467C44.9361 22.198 44.8779 22.5058 44.8779 22.7693C44.8779 23.2387 45.0678 23.4724 45.4479 23.4724H48.4733C49.0282 23.4724 49.3502 23.1946 49.4379 22.6375L51.2356 11.1654C51.2644 10.9894 51.2207 10.8286 51.1041 10.6819C50.9871 10.5357 50.8411 10.4622 50.666 10.4622ZM44.944 19.1433C44.1984 19.8621 43.2845 20.2202 42.2036 20.2202C41.3554 20.2202 40.6758 19.9862 40.1647 19.5171C39.6528 19.0493 39.3972 18.4045 39.3972 17.5831C39.3972 16.4997 39.7625 15.5832 40.4935 14.8361C41.2238 14.0888 42.1301 13.7152 43.212 13.7152C44.0301 13.7152 44.7097 13.957 45.251 14.4403C45.7914 14.9239 46.0621 15.5906 46.0621 16.4406C46.062 17.5248 45.6894 18.4261 44.944 19.1433Z" fill="#003087"/>
<path d="M84.0117 5.16481C82.8862 4.38908 81.4177 4.00027 79.6052 4.00027H72.6335C72.0487 4.00027 71.7269 4.27878 71.6689 4.83525L68.8188 22.7682C68.7892 22.9443 68.8332 23.1054 68.9504 23.2518C69.0664 23.3985 69.2132 23.4715 69.3887 23.4715H72.9839C73.3347 23.4715 73.5684 23.2813 73.6857 22.9002L74.4749 17.8018C74.504 17.5675 74.6062 17.377 74.7819 17.2303C74.9574 17.0839 75.1764 16.9881 75.4397 16.9443C75.7025 16.9007 75.9506 16.8787 76.185 16.8787C76.4187 16.8787 76.6962 16.8936 77.0179 16.9228C77.3393 16.9519 77.5446 16.9663 77.6318 16.9663C80.146 16.9663 82.1186 16.2563 83.5512 14.8346C84.9836 13.4137 85.6997 11.4433 85.6997 8.92269C85.6998 7.19388 85.1368 5.94121 84.0117 5.16441V5.16481ZM79.5176 12.3953C78.8744 12.8348 77.9096 13.0545 76.6238 13.0545L75.2205 13.0985L75.9659 8.39523C76.0238 8.07333 76.2138 7.91184 76.5357 7.91184H77.3247C77.9679 7.91184 78.4793 7.94127 78.8599 7.99971C79.2392 8.05856 79.6052 8.2414 79.9559 8.54893C80.3069 8.85672 80.4821 9.30384 80.4821 9.8896C80.4821 11.1208 80.1602 11.9555 79.5176 12.3953Z" fill="#009CDE"/>
</svg>
