<svg width="128" height="32" viewBox="0 0 128 32" fill="none" xmlns="http://www.w3.org/2000/svg">
<path d="M53.3494 12.5683H56.5209V22.5518H53.3494V12.5683Z" fill="#E60023"/>
<path d="M57.1831 12.5682H60.2378V13.9332H60.2961C61.0355 12.8607 61.9889 12.2758 63.3704 12.2758C65.5495 12.2758 66.8336 13.8357 66.8336 16.0586V22.5518H63.6622V16.7021C63.6622 15.6491 63.1369 14.9276 62.1057 14.9276C61.0551 14.9276 60.3545 15.8051 60.3545 17.0335V22.5518H57.1831V12.5682Z" fill="#E60023"/>
<path d="M56.8375 9.89724C56.8375 8.84422 55.9857 7.99069 54.9351 7.99069C53.8845 7.99069 53.0327 8.84422 53.0327 9.89724C53.0327 10.9502 53.8845 11.8037 54.9351 11.8037C55.9857 11.8037 56.8375 10.9502 56.8375 9.89724Z" fill="#E60023"/>
<path d="M89.1389 12.4241C89.0484 12.4159 88.9446 12.4122 88.8232 12.4122C87.6169 12.4122 86.7998 12.9387 86.0993 14.1282H86.041V12.5683H83.0057V22.5517H86.1771V18.067C86.1771 15.989 87.3254 15.0261 89.1389 15.1941V12.4241Z" fill="#E60023"/>
<path d="M104.702 16.2535C103.438 16.0196 102.309 15.9221 102.309 15.2202C102.309 14.5961 102.912 14.3037 103.691 14.3037C104.566 14.3037 105.169 14.5766 105.286 15.4736H108.205C108.049 13.5042 106.531 12.2757 103.71 12.2757C101.356 12.2757 99.4101 13.3677 99.4101 15.4736C99.4101 17.8134 101.259 18.2814 102.99 18.574C104.313 18.808 105.52 18.9055 105.52 19.8024C105.52 20.4459 104.916 20.7969 103.963 20.7969C103.007 20.7969 102.374 20.3913 102.18 19.5685H99.1579C99.3804 21.6208 101.178 22.8638 103.982 22.8638C106.59 22.8638 108.516 21.7328 108.516 19.549C108.516 16.9945 106.453 16.546 104.702 16.2535Z" fill="#E60023"/>
<path d="M94.0586 14.5376C95.0898 14.5376 95.8291 15.2981 95.9459 16.4876H92.0156C92.2296 15.2981 92.8523 14.5376 94.0586 14.5376ZM94.2337 20.5628C92.93 20.5628 92.1907 19.7244 91.9961 18.3789H99.1562C99.1757 16.3511 98.5921 14.6156 97.4051 13.5237C96.549 12.7438 95.4205 12.2758 94.0001 12.2758C90.9649 12.2758 88.8831 14.5571 88.8831 17.5406C88.8831 20.5628 90.9066 22.8443 94.1947 22.8443C95.4593 22.8443 96.4712 22.5128 97.3078 21.9278C98.1834 21.3234 98.7671 20.4654 98.981 19.5685H95.8875C95.615 20.1924 95.0703 20.5628 94.2337 20.5628Z" fill="#E60023"/>
<path d="M114.101 20.1976C113.954 20.2034 113.757 20.212 113.576 20.212C112.895 20.212 112.467 20.0169 112.467 19.2369V14.5571H114.101V12.5682H112.467V9.40938H109.373V12.5682H108.4V14.5571H109.373V19.9194C109.373 22.0644 110.696 22.6688 112.545 22.6688C113.25 22.6688 113.783 22.6159 114.101 22.5536V20.1976Z" fill="#E60023"/>
<path d="M72.4973 20.2021C72.3707 20.207 72.2247 20.212 72.0883 20.212C71.4074 20.212 70.9792 20.0169 70.9792 19.2369V14.5571H72.4973V12.5682H70.9792V9.40938H67.8857V12.5682H66.8541V14.5571H67.8857V19.9194C67.8857 22.0644 69.2087 22.6688 71.0571 22.6688C71.6825 22.6688 72.1722 22.6271 72.4973 22.5742V20.2021Z" fill="#E60023"/>
<path d="M79.4052 16.4876C79.2885 15.2981 78.5491 14.5376 77.5179 14.5376C76.3116 14.5376 75.689 15.2981 75.4749 16.4876H79.4052ZM72.3425 17.5405C72.3425 14.5571 74.4243 12.2758 77.4596 12.2758C78.8798 12.2758 80.0084 12.7438 80.8645 13.5237C82.0513 14.6157 82.635 16.3511 82.6155 18.379H75.4556C75.65 19.7244 76.3894 20.5629 77.6931 20.5629C78.5296 20.5629 79.0745 20.1924 79.3467 19.5685H82.4404C82.2264 20.4654 81.6427 21.3233 80.7671 21.9279C79.9306 22.5128 78.9188 22.8443 77.6541 22.8443C74.3659 22.8443 72.3425 20.5629 72.3425 17.5405Z" fill="#E60023"/>
<path d="M47.8417 15.1617C49.0869 15.1617 49.7874 14.4207 49.7874 13.3091C49.7874 12.1978 49.0674 11.5153 47.8417 11.5153H45.4095V15.1617H47.8417ZM42.1987 8.60992H47.706C49.3987 8.60992 50.6439 9.07786 51.5 9.89686C52.3951 10.7352 52.901 11.9248 52.901 13.3287C52.901 16 51.0526 17.8915 48.1924 17.8915H45.4095V22.5518H42.1987V8.60992Z" fill="#E60023"/>
<path d="M37.8464 16C37.8464 22.6274 32.4855 28 25.8725 28C19.2596 28 13.8987 22.6274 13.8987 16C13.8987 9.37252 19.2596 4 25.8725 4C32.4855 4 37.8464 9.37252 37.8464 16Z" fill="white"/>
<path d="M25.8725 4C19.2596 4 13.8987 9.37252 13.8987 16C13.8987 21.0838 17.0534 25.4283 21.5076 27.1767C21.4029 26.2273 21.3083 24.7671 21.5491 23.7306C21.7667 22.7941 22.9531 17.7659 22.9531 17.7659C22.9531 17.7659 22.595 17.047 22.595 15.9842C22.595 14.3156 23.56 13.0699 24.7616 13.0699C25.7832 13.0699 26.2766 13.8386 26.2766 14.7603C26.2766 15.7899 25.6225 17.3292 25.285 18.7557C25.0029 19.9501 25.8826 20.9241 27.0581 20.9241C29.1862 20.9241 30.8222 18.6753 30.8222 15.4291C30.8222 12.5558 28.7621 10.547 25.8206 10.547C22.4136 10.547 20.4138 13.108 20.4138 15.7546C20.4138 16.786 20.8103 17.892 21.305 18.4932C21.4028 18.612 21.4172 18.7161 21.388 18.8374C21.2971 19.2164 21.0951 20.0315 21.0555 20.1983C21.0032 20.4179 20.8819 20.4646 20.655 20.3587C19.1595 19.6611 18.2245 17.4699 18.2245 15.7099C18.2245 11.9245 20.9689 8.44813 26.1361 8.44813C30.2899 8.44813 33.5178 11.4145 33.5178 15.3788C33.5178 19.5144 30.9159 22.8428 27.3045 22.8428C26.0911 22.8428 24.9505 22.2111 24.56 21.4649C24.56 21.4649 23.9596 23.756 23.814 24.3175C23.5437 25.3598 22.814 26.6663 22.3259 27.4634C23.4462 27.811 24.6382 28 25.8725 28C32.4855 28 37.8464 22.6274 37.8464 16C37.8464 9.37252 32.4855 4 25.8725 4Z" fill="#E60023"/>
</svg>
