<svg width="128" height="32" viewBox="0 0 128 32" fill="none" xmlns="http://www.w3.org/2000/svg">
<path d="M46.6473 22.4416L47.8172 19.8106C49.0815 20.7241 50.7609 21.1992 52.4214 21.1992C53.6479 21.1992 54.4215 20.7424 54.4215 20.0481C54.4027 18.1114 47.0813 19.6279 47.0247 14.7678C47.0059 12.3012 49.2702 10.4011 52.478 10.4011C54.3838 10.4011 56.2896 10.8579 57.6482 11.8993L56.5538 14.5851C55.3084 13.8177 53.7611 13.2696 52.2893 13.2696C51.2892 13.2696 50.6288 13.7264 50.6288 14.311C50.6476 16.2112 58.0256 15.1698 58.1011 19.8106C58.1011 22.3319 55.8933 24.1042 52.7233 24.1042C50.4023 24.1042 48.2701 23.5744 46.6473 22.4416Z" fill="black"/>
<path d="M91.5376 18.8605C90.9527 19.8472 89.8582 20.5231 88.594 20.5231C86.7259 20.5231 85.2164 19.0615 85.2164 17.2527C85.2164 15.4439 86.7259 13.9822 88.594 13.9822C89.8582 13.9822 90.9527 14.6582 91.5376 15.6449L94.7643 13.9091C93.5567 11.8262 91.2357 10.4011 88.594 10.4011C84.6881 10.4011 81.518 13.4706 81.518 17.2527C81.518 21.0347 84.6881 24.1042 88.594 24.1042C91.2546 24.1042 93.5567 22.6974 94.7643 20.5962L91.5376 18.8605Z" fill="black"/>
<path d="M59.7238 4.71887H63.7619V23.8484H59.7238V4.71887Z" fill="black"/>
<path d="M96.3493 4.71887V23.8484H100.387V18.1114L105.18 23.8484H110.35L104.256 17.0335L109.898 10.6752H104.954L100.387 15.9555V4.71887H96.3493Z" fill="black"/>
<path d="M75.7628 18.897C75.1778 19.8288 73.9702 20.5231 72.6116 20.5231C70.7435 20.5231 69.234 19.0615 69.234 17.2527C69.234 15.4439 70.7435 13.9822 72.6116 13.9822C73.9702 13.9822 75.1778 14.713 75.7628 15.6631V18.897ZM75.7628 10.6752V12.2282C75.1024 11.1502 73.4608 10.4011 71.7437 10.4011C68.1962 10.4011 65.4035 13.4341 65.4035 17.2344C65.4035 21.0347 68.1962 24.1042 71.7437 24.1042C73.4608 24.1042 75.1024 23.3551 75.7628 22.2772V23.8302H79.8009V10.6752H75.7628Z" fill="black"/>
<path d="M22.0637 19.172C22.0637 20.5669 20.9363 21.6943 19.5414 21.6943C18.1465 21.6943 17.0191 20.5669 17.0191 19.172C17.0191 17.7771 18.1465 16.6497 19.5414 16.6497H22.0637V19.172Z" fill="#E01E5A"/>
<path d="M23.3249 19.172C23.3249 17.7771 24.4522 16.6497 25.8471 16.6497C27.2421 16.6497 28.3694 17.7771 28.3694 19.172V25.4777C28.3694 26.8726 27.2421 28 25.8471 28C24.4522 28 23.3249 26.8726 23.3249 25.4777V19.172Z" fill="#E01E5A"/>
<path d="M25.8471 9.04459C24.4522 9.04459 23.3249 7.9172 23.3249 6.5223C23.3249 5.12739 24.4522 4 25.8471 4C27.2421 4 28.3694 5.12739 28.3694 6.5223V9.04459H25.8471Z" fill="#36C5F0"/>
<path d="M25.8471 10.3248C27.2421 10.3248 28.3694 11.4523 28.3694 12.8472C28.3694 14.2421 27.2421 15.3694 25.8471 15.3694H19.5223C18.1274 15.3694 17 14.2421 17 12.8472C17 11.4523 18.1274 10.3248 19.5223 10.3248H25.8471Z" fill="#36C5F0"/>
<path d="M35.9554 12.8472C35.9554 11.4523 37.0828 10.3248 38.4777 10.3248C39.8726 10.3248 41 11.4523 41 12.8472C41 14.2421 39.8726 15.3694 38.4777 15.3694H35.9554V12.8472Z" fill="#2EB67D"/>
<path d="M34.6943 12.8472C34.6943 14.2421 33.5669 15.3694 32.172 15.3694C30.7771 15.3694 29.6497 14.2421 29.6497 12.8472V6.5223C29.6497 5.12739 30.7771 4 32.172 4C33.5669 4 34.6943 5.12739 34.6943 6.5223V12.8472Z" fill="#2EB67D"/>
<path d="M32.172 22.9554C33.5669 22.9554 34.6943 24.0828 34.6943 25.4777C34.6943 26.8726 33.5669 28 32.172 28C30.7771 28 29.6497 26.8726 29.6497 25.4777V22.9554H32.172Z" fill="#ECB22E"/>
<path d="M32.172 21.6943C30.7771 21.6943 29.6497 20.5669 29.6497 19.172C29.6497 17.7771 30.7771 16.6497 32.172 16.6497H38.4969C39.8918 16.6497 41.0191 17.7771 41.0191 19.172C41.0191 20.5669 39.8918 21.6943 38.4969 21.6943H32.172Z" fill="#ECB22E"/>
</svg>
