<svg width="128" height="32" viewBox="0 0 128 32" fill="none" xmlns="http://www.w3.org/2000/svg">
<path fill-rule="evenodd" clip-rule="evenodd" d="M94.9063 19.9347C96.2176 23.179 99.1171 25.5017 102.609 26.1147C104.651 26.4692 107.705 25.9297 109.728 24.8544C111.41 23.9584 111.679 23.6216 111.391 22.7882C111.253 22.3848 111.162 20.4772 111.162 17.9263V13.7224L102.471 13.6039V18.1789L105.678 18.1544L105.747 18.9603C105.829 19.9435 105.604 20.1139 104.233 20.1139C102.91 20.1139 101.768 19.4852 100.931 18.2935C100.389 17.5258 100.303 17.2183 100.31 16.1235C100.323 14.4333 100.923 13.2797 102.222 12.4415C103.131 11.8579 103.297 11.8226 104.747 11.9009C105.765 11.9568 106.742 12.1663 107.591 12.513L108.882 13.0379V6L105.521 6.10674C101.768 6.22523 100.35 6.54838 98.556 7.69802C96.5339 8.99846 94.9817 11.2331 94.405 13.6832C94.0015 15.4018 94.2307 18.2651 94.9063 19.9347ZM7.69372 18.2856C7.65749 21.9666 7.54684 25.1433 7.45283 25.3402C7.29027 25.676 7.49983 25.7035 10.5022 25.6995H13.7288V6.04309L4.11457 6.15374L4.05484 8.94754L4 11.7394L5.88016 11.664L7.75737 11.5935L7.69372 18.2856ZM14.9736 15.8757V6.0519H23.451V11.7717L21.1752 11.5807V13.6988H24.6907V6.04309H30.9011V25.6917H24.2922L24.4939 25.1619C24.6036 24.8701 24.6956 23.2416 24.6956 21.5436V18.4541H21.1556L21.2193 21.714C21.2545 23.507 21.3613 25.1345 21.4563 25.3323C21.6178 25.6682 21.4005 25.6946 18.3002 25.6946H14.9697V15.8757H14.9736ZM112.13 6.51313C112.355 7.13691 112.346 24.877 112.122 25.3402C111.956 25.68 112.3 25.7035 117.964 25.7123H123.984V19.873L123.518 20.016C122.914 20.2011 118.916 20.4185 118.564 20.2833C118.374 20.2128 118.315 19.8524 118.367 19.0906L118.443 18.0007L119.817 18.1143C120.575 18.1789 121.357 18.2935 121.555 18.3718C121.887 18.503 121.918 18.3082 121.918 16.0451V13.5764L118.403 13.7576V11.2214L120.007 11.2262C121.504 11.2331 122.384 11.3565 123.53 11.7237L124 11.8735L123.882 6.15374L111.959 6.04309L112.13 6.51313ZM55.2423 25.0285C52.378 18.1786 47.4563 7.08178 47.0812 6.63524L46.5877 6.04671H53.5355C57.3555 6.04671 60.4842 6.1182 60.4842 6.20045C60.4842 6.28761 60.0768 7.42549 59.5833 8.73279L58.6834 11.1114L57.1029 11.1711C56.2333 11.2025 55.5224 11.2651 55.5224 11.3082C55.5224 11.505 57.4622 16.7137 57.5886 16.8586C57.6679 16.9497 58.6432 14.5525 59.7615 11.5344L61.7915 6.04671H77.8688V9.06965C77.8688 11.8732 77.8414 12.0789 77.5055 11.9251C77.3087 11.8341 76.0513 11.7234 74.7127 11.6793L72.2832 11.601V13.7573L75.7996 13.5771V18.4195L74.8831 18.2256C74.3807 18.1189 73.611 18.0601 73.1762 18.0954L72.386 18.1581L72.2597 20.5366H74.1046C75.218 20.5366 76.301 20.4133 76.8298 20.2252C77.3116 20.0549 77.7435 19.9119 77.7856 19.9119C77.8286 19.9119 77.8649 21.2153 77.8649 22.8075V25.7032H71.8415C66.9071 25.7032 65.8564 25.6571 66.0424 25.4348C66.2872 25.1381 66.4929 10.8108 66.2481 10.8108C66.1727 10.8108 64.6832 14.1608 62.9411 18.257L59.7733 25.7032H55.5224L55.2423 25.0285ZM78.6552 6.04691L78.8246 6.51401C79.0499 7.13289 79.0459 24.8749 78.8178 25.3352C78.6513 25.672 78.8765 25.6994 82.1864 25.6994C85.6275 25.6994 85.7303 25.6887 85.5207 25.3009C85.4022 25.0796 85.3073 23.7723 85.3073 22.3925C85.3073 19.8886 85.3073 19.8856 85.7734 20.0188C86.643 20.2764 87.7799 21.1528 88.3331 21.9812C88.953 22.9223 89.2056 24.5664 88.8384 25.2607L88.5975 25.6994H92.1336C94.2037 25.6994 95.6207 25.6201 95.5541 25.5144C95.4914 25.4106 95.2701 24.305 95.0567 23.0564C94.5866 20.3116 93.7494 18.5607 92.4137 17.5423L91.5294 16.8627L92.0347 16.1831C93.721 13.8966 93.4526 10.0687 91.4658 8.08472C89.85 6.46994 88.009 6.05866 82.4469 6.05572L78.6552 6.04691ZM31.8649 6.90443C32.284 8.12947 32.1841 24.8394 31.7542 25.3593C31.4938 25.6756 31.9168 25.704 37.4985 25.704H43.514V19.8658L43.0479 20.0156C42.7913 20.0978 41.5311 20.2124 40.2433 20.2682L37.9049 20.3701L37.9676 19.2596L38.0312 18.1521L38.8215 18.0874C39.2563 18.0512 40.0259 18.1119 40.5273 18.2187L41.4439 18.4106V13.5682L39.6744 13.6642L37.9049 13.7543L38.0312 11.3199L39.6871 11.265C40.6223 11.2327 41.816 11.3336 42.428 11.4942L43.514 11.7782V6.05151H31.5692L31.8649 6.90443ZM86.6547 11.5229C86.2434 11.3515 85.9546 11.2379 85.7577 11.2261C85.319 11.1978 85.3073 11.66 85.3073 13.0789V14.9395H85.9399C86.3658 14.9395 86.7732 14.7456 87.1796 14.3392C88.1353 13.3825 87.8866 12.035 86.6547 11.5229Z" fill="#DB0E31"/>
</svg>
