<svg width="38" height="52" viewBox="0 0 38 52" fill="none" xmlns="http://www.w3.org/2000/svg">
<path fill-rule="evenodd" clip-rule="evenodd" d="M0.666671 19.1207C0.464553 19.0351 0.264939 18.9472 0.0679087 18.8571C-0.0369765 18.3018 0.00213435 17.4723 0.036973 16.7335C0.0528865 16.396 0.0679087 16.0774 0.0679087 15.8125C0.0679087 7.0795 8.5441 0 19 0C29.4559 0 37.9321 7.0795 37.9321 15.8125C37.9321 16.0774 37.9471 16.396 37.963 16.7335V16.7336C37.9979 17.4724 38.037 18.3018 37.9321 18.8571C37.7603 18.9357 37.5866 19.0125 37.411 19.0877L37.4115 19.0882L20.5114 34H31V40H29V52H8V40H6V34H16.5379L0.666671 19.1207ZM5.15013 20.5825L15.757 30.5264L11.6657 21.6619C9.3786 21.4343 7.18905 21.0831 5.15013 20.5825ZM12.9971 19.774L12.9702 19.7157L12.9991 19.0429C13.0039 18.9317 13.0165 18.7142 13.04 18.4058C13.0794 17.8869 13.1352 17.3075 13.2101 16.683C13.4238 14.9014 13.747 13.1213 14.1996 11.4687C14.3516 10.9139 14.5162 10.3821 14.6936 9.87657C15.1047 8.70497 15.6302 7.55072 16.2434 6.42946C16.7987 5.41394 17.3941 4.4819 17.9886 3.65577C18.1956 3.36808 18.3871 3.11484 18.558 2.8988C18.658 2.77234 18.7271 2.68838 18.7603 2.64962L19.3134 2.00232C19.4407 2.0042 19.5678 2.00723 19.6944 2.0114L20.2397 2.64962C20.2729 2.68838 20.342 2.77234 20.442 2.8988C20.6129 3.11484 20.8044 3.36808 21.0114 3.65577C21.6059 4.4819 22.2013 5.41394 22.7566 6.42946C23.3698 7.55072 23.8953 8.70497 24.3064 9.87657C24.4838 10.3821 24.6484 10.9139 24.8004 11.4687C25.253 13.1213 25.5762 14.9014 25.7899 16.683C25.8648 17.3075 25.9206 17.8869 25.96 18.4058C25.9835 18.7142 25.9961 18.9317 26.0009 19.0429L26.0279 19.6716L26.0204 19.6838C23.8418 19.8959 21.4973 20 19 20C16.887 20 14.8834 19.9254 12.9971 19.774ZM28.0204 19.4523C31.0564 19.0421 33.7279 18.3979 35.9934 17.5077C35.9921 17.4626 35.9906 17.4162 35.9888 17.3684C35.9839 17.2339 35.9782 17.1034 35.9683 16.8915C35.939 16.2693 35.9321 16.0891 35.9321 15.8125C35.9321 9.23191 30.2135 3.61772 22.4948 2.29471C22.5402 2.35666 22.5869 2.42098 22.6348 2.48764C23.2751 3.37744 23.9144 4.37809 24.5114 5.46987C25.1743 6.68218 25.7445 7.93448 26.1936 9.21434C26.387 9.76558 26.5653 10.3418 26.7293 10.9404C27.2109 12.6983 27.5511 14.5723 27.7757 16.4448C27.8542 17.0993 27.9127 17.7075 27.9543 18.2543C27.9794 18.5854 27.9934 18.8247 27.9991 18.9571L28.0204 19.4523ZM10.673 19.5111L10.9833 19.3679L11.0009 18.9571C11.0066 18.8247 11.0206 18.5854 11.0457 18.2543C11.0873 17.7075 11.1458 17.0993 11.2243 16.4448C11.4489 14.5723 11.7891 12.6983 12.2707 10.9404C12.4347 10.3418 12.613 9.76558 12.8064 9.21434C13.2555 7.93448 13.8257 6.68218 14.4886 5.46987C15.0857 4.37809 15.7249 3.37744 16.3652 2.48764C16.4558 2.36167 16.5419 2.24405 16.6231 2.13504C8.34511 3.08429 2.06791 8.918 2.06791 15.8125C2.06791 16.0891 2.06099 16.2693 2.03175 16.8915C2.02179 17.1034 2.01607 17.2339 2.01116 17.3684C2.00941 17.4162 2.00788 17.4626 2.00656 17.5077C4.44666 18.4664 7.35758 19.1399 10.6877 19.543L10.673 19.5111ZM13.954 21.8474L18.5547 31.8156L24.7173 21.8014C22.8568 21.9382 20.942 22 19 22C17.2908 22 15.6026 21.9521 13.954 21.8474ZM27.2091 21.5682L22.0185 30.003L32.6364 20.6342C30.9212 21.0446 29.1017 21.3508 27.2091 21.5682ZM29 38H8V36H29V38ZM9.90909 50V40H27.0909V50H9.90909Z" fill="url(#paint0_linear_0_134)"/>
<defs>
<linearGradient id="paint0_linear_0_134" x1="19" y1="-26" x2="-30.5429" y2="10.2044" gradientUnits="userSpaceOnUse">
<stop stop-color="#FFC105"/>
<stop offset="1" stop-color="#737CFF"/>
</linearGradient>
</defs>
</svg>
