<svg width="49" height="48" viewBox="0 0 49 48" fill="none" xmlns="http://www.w3.org/2000/svg">
<path fill-rule="evenodd" clip-rule="evenodd" d="M2 37.9957L15 45.9949V43.9951V10.5858L2 2.99966V37.9957ZM31.9813 34.9959V27.2627C31.9813 26.7078 32.4325 26.2575 32.9907 26.2575C33.5478 26.2575 34 26.7078 34 27.2627V36.9959C34 37.5518 32.5385 39.0064 31.9813 39.0064H16.9298V46.9947C16.9298 47.3526 16.7381 47.6833 16.4282 47.8633C16.2707 47.9538 16.0961 48 15.9205 48C15.7489 48 15.1544 47.9497 15 47.8633L1.00935 39.9955C0.57634 39.8819 0 38.4676 0 38.0011V1.00526C0 0.450358 0.45118 0 1.00935 0H31.9813C32.5385 0 34 1.45562 34 2.01053V15.9736C34 16.5285 33.5478 16.9789 32.9907 16.9789C32.4325 16.9789 31.9813 16.5285 31.9813 15.9736V4.01053C31.9813 2.90596 31.0859 2.01053 29.9813 2.01053H4.93876L15.9245 8.99899C16.2405 9.17692 16.9298 9.63699 16.9298 9.99888V36.9959H29.9813C31.0859 36.9959 31.9813 36.1004 31.9813 34.9959ZM49 21.9973C49 22.1328 48.9727 22.2644 48.9221 22.3868C48.8705 22.5102 48.7967 22.6205 48.7036 22.7136L41.7164 29.7002C41.5191 29.8985 41.2601 29.9966 41.0012 29.9966C40.7422 29.9966 40.4832 29.8985 40.2859 29.7002C39.8904 29.3057 39.8904 28.6653 40.2859 28.2697L45.5463 23.009H23.0116C22.4522 23.009 22 22.5567 22 21.9973C22 21.4388 22.4522 20.9856 23.0116 20.9856H45.5463L40.2859 15.7249C39.8904 15.3303 39.8904 14.6899 40.2859 14.2943C40.6815 13.8998 41.3208 13.8998 41.7164 14.2943L48.7036 21.282C48.7967 21.3741 48.8705 21.4854 48.9221 21.6088C48.9727 21.7312 49 21.8627 49 21.9973Z" fill="url(#paint0_linear_0_971)"/>
<defs>
<linearGradient id="paint0_linear_0_971" x1="24.5" y1="-24" x2="-23.4898" y2="24.9896" gradientUnits="userSpaceOnUse">
<stop stop-color="#FFC105"/>
<stop offset="1" stop-color="#737CFF"/>
</linearGradient>
</defs>
</svg>
