<svg width="50" height="40" viewBox="0 0 50 40" fill="none" xmlns="http://www.w3.org/2000/svg">
<path fill-rule="evenodd" clip-rule="evenodd" d="M34 0H30V2.02586C19.9714 2.54588 12 10.842 12 21C12 31.4934 20.5066 40 31 40C41.4934 40 50 31.4934 50 21C50 18.8068 49.6284 16.7003 48.9447 14.7402L47.0563 15.3989C47.6784 17.1826 48 19.068 48 21C48 30.3888 40.3888 38 31 38C21.6112 38 14 30.3888 14 21C14 11.6112 21.6112 4 31 4C33.2896 4 35.5126 4.45175 37.5752 5.31769L38.3494 3.47362C36.9743 2.89633 35.5171 2.47614 34 2.2355V0ZM14 4H0V6H14V4ZM4 8H12V10H4V8ZM10 12H6V14H10V12ZM45.9386 4.58712L47.4129 5.93857L31.3333 23.4799L22.5871 13.9386L24.0614 12.5871L31.3333 20.5201L45.9386 4.58712Z" fill="url(#paint0_linear_0_121)"/>
<defs>
<linearGradient id="paint0_linear_0_121" x1="25" y1="-20" x2="-14.0244" y2="28.7805" gradientUnits="userSpaceOnUse">
<stop stop-color="#FFC105"/>
<stop offset="1" stop-color="#737CFF"/>
</linearGradient>
</defs>
</svg>
