<svg width="46" height="46" viewBox="0 0 46 46" fill="none" xmlns="http://www.w3.org/2000/svg">
<path fill-rule="evenodd" clip-rule="evenodd" d="M16.0041 0C7.15463 0 0 7.91918 0 17.6072C0 25.6213 4.43067 32.7536 11 34.9544V44C11 44.8329 11.4794 45.254 12.2909 45.6322C12.3475 45.6586 12.4751 45.7152 12.567 45.756L12.5672 45.7561C12.6172 45.7783 12.6567 45.7958 12.6684 45.8012C12.9601 45.9331 13.2641 46 13.5728 46C14.1036 46 14.6201 45.8031 15.0202 45.4436L26.4166 35.2132H29.9971C38.8457 35.2132 46 27.2948 46 17.6072C46 7.91939 38.8456 0 29.9971 0H16.0041ZM13.3474 43.9141C13.2631 43.8767 13.1701 43.8354 13.1357 43.8194C13.0824 43.7946 13.0372 43.772 13 43.7521V33.449L12.2627 33.2483C6.22818 31.6055 2 25.0719 2 17.6072C2 8.98101 8.30703 2 16.0041 2H29.9971C37.6931 2 44 8.9812 44 17.6072C44 26.2329 37.6934 33.2132 29.9971 33.2132H25.6506L13.6838 43.9556C13.6513 43.9847 13.6113 44 13.5728 44C13.5513 44 13.5277 43.9948 13.4992 43.9819C13.4771 43.9717 13.415 43.9442 13.3474 43.9141ZM33 18C33 17.448 32.5491 17 31.9914 17H24V9.00862C24 8.45186 23.552 8 23 8C22.447 8 22 8.45186 22 9.00862V17H14.0086C13.4519 17 13 17.448 13 18C13 18.553 13.4519 19 14.0086 19H22V26.9914C22 27.5491 22.447 28 23 28C23.552 28 24 27.5491 24 26.9914V19H31.9914C32.5491 19 33 18.553 33 18Z" fill="url(#paint0_linear_0_261)"/>
<defs>
<linearGradient id="paint0_linear_0_261" x1="23" y1="-23" x2="-23" y2="23" gradientUnits="userSpaceOnUse">
<stop stop-color="#FFC105"/>
<stop offset="1" stop-color="#737CFF"/>
</linearGradient>
</defs>
</svg>
