<svg width="108" height="108" viewBox="0 0 108 108" fill="none" xmlns="http://www.w3.org/2000/svg">
<path opacity="0.102841" d="M54.0011 107C24.7294 107 1 83.2754 1 54C1 24.729 24.7294 1 54.0011 1C83.2705 1 107 24.7311 107 54C107 83.2754 83.2706 107 54.0011 107Z" stroke="white" stroke-width="2"/>
<path fill-rule="evenodd" clip-rule="evenodd" d="M68 48.5C68 55.9558 54.5 74 54.5 74C54.5 74 41 55.9558 41 48.5C41 41.0442 47.0442 35 54.5 35C61.9558 35 68 41.0442 68 48.5ZM60.5 47C60.5 50.3137 57.8137 53 54.5 53C51.1863 53 48.5 50.3137 48.5 47C48.5 43.6863 51.1863 41 54.5 41C57.8137 41 60.5 43.6863 60.5 47Z" fill="white"/>
</svg>
