<svg width="49" height="46" viewBox="0 0 49 46" fill="none" xmlns="http://www.w3.org/2000/svg">
<path d="M46.5597 2.4706C44.9831 0.876891 42.8863 0 40.656 0C38.4257 0 36.3299 0.877897 34.7543 2.4706L12.2558 25.1963C9.9587 27.5209 9.9587 31.2993 12.2558 33.6219C13.371 34.7474 14.8509 35.3676 16.4264 35.3676C18.001 35.3676 19.4819 34.7474 20.5961 33.6219L37.0295 17.0203C37.4181 16.6267 37.4181 15.9894 37.0295 15.5968C36.6398 15.2031 36.009 15.2031 35.6203 15.5968L19.1859 32.1983C17.711 33.6893 15.1409 33.6883 13.6659 32.1983C12.1452 30.661 12.1452 28.1581 13.6659 26.6208L36.1635 3.89416C37.3623 2.68202 38.9578 2.01353 40.656 2.01353C42.3541 2.01353 43.9506 2.68101 45.1505 3.89416C47.627 6.39697 47.627 10.4693 45.1505 12.9711L17.0214 41.388C13.5882 44.8543 8.00344 44.8543 4.57126 41.388C2.90799 39.7087 1.99314 37.4747 1.99314 35.0978C1.99314 32.7218 2.90699 30.4878 4.56926 28.8085L26.6353 6.5198C27.0239 6.12615 27.0239 5.48887 26.6353 5.09623C26.2456 4.70259 25.6148 4.70259 25.2261 5.09623L3.16012 27.385C1.12114 29.4448 -0.000995905 32.1832 6.63218e-07 35.0978C6.63218e-07 38.0123 1.12214 40.7517 3.16211 42.8126C5.26686 44.9369 8.03234 46 10.7968 46C13.5613 46 16.3258 44.9369 18.4305 42.8126L46.5597 14.3947C49.8134 11.1076 49.8134 5.75868 46.5597 2.4706Z" fill="url(#paint0_linear_0_230)"/>
<defs>
<linearGradient id="paint0_linear_0_230" x1="24.5" y1="-23" x2="-21.4083" y2="25.9024" gradientUnits="userSpaceOnUse">
<stop stop-color="#FFC105"/>
<stop offset="1" stop-color="#737CFF"/>
</linearGradient>
</defs>
</svg>
