<svg width="50" height="47" viewBox="0 0 50 47" fill="none" xmlns="http://www.w3.org/2000/svg">
<path fill-rule="evenodd" clip-rule="evenodd" d="M32 16.0934H47.6022C48.647 16.1134 49.5627 16.7936 49.8811 17.7838C50.2025 18.764 49.8579 19.8442 49.0217 20.4644L36.8616 29.5263L41.2803 43.8593C41.5856 44.8495 41.229 45.9198 40.3897 46.5299C39.9616 46.84 39.4608 47 38.941 47C38.4443 47 37.9648 46.85 37.5527 46.5699L25.0006 37.9881L12.4496 46.5699C11.6134 47.15 10.4407 47.13 9.61458 46.5299C8.77435 45.9198 8.41569 44.8495 8.72095 43.8593L13.1367 29.5263L0.978555 20.4644C0.143363 19.8442 -0.202199 18.764 0.118176 17.7838C0.436536 16.7936 1.35233 16.1134 2.39606 16.0934H18L22.6915 1.62034C23.0341 0.650138 23.9619 0 25.0006 0C26.0373 0 26.9652 0.650138 27.3088 1.62034L32 16.0934ZM34.7343 29.4149C34.6103 29.0147 34.7535 28.5745 35.0932 28.3244L47.827 18.8406C47.9742 18.7306 48.0357 18.5405 47.9793 18.3704C47.9218 18.1903 47.7605 18.0803 47.576 18.0703H31C30.5796 18.0603 30.1391 17.48 30 17.0799L25.409 2.26387C25.286 1.91373 24.7134 1.91373 24.5924 2.25387L20 17.0799C19.8609 17.48 18.4204 18.0603 18 18.0703H2.42238C2.2389 18.0803 2.07659 18.2003 2.02114 18.3704C1.96368 18.5405 2.02618 18.7306 2.17438 18.8506L14.9052 28.3244C15.2449 28.5745 15.3881 29.0147 15.2641 29.4149L10.6377 44.421C10.5843 44.6011 10.6468 44.7911 10.795 44.9012C10.9795 45.0312 11.1095 45.0312 11.296 44.9112L24.4291 35.9375C24.6015 35.8175 24.8011 35.7575 25.0007 35.7575C25.2003 35.7575 25.4009 35.8175 25.5723 35.9375L38.7044 44.9112C38.8546 45.0112 39.0592 45.0112 39.2105 44.9012C39.3546 44.7911 39.4181 44.6011 39.3637 44.431L34.7343 29.4149Z" fill="url(#paint0_linear_0_236)"/>
<defs>
<linearGradient id="paint0_linear_0_236" x1="25" y1="-23.5" x2="-21.9102" y2="26.4044" gradientUnits="userSpaceOnUse">
<stop stop-color="#FFC105"/>
<stop offset="1" stop-color="#737CFF"/>
</linearGradient>
</defs>
</svg>
