<svg width="70" height="20" viewBox="0 0 70 20" fill="none" xmlns="http://www.w3.org/2000/svg">
<path fill-rule="evenodd" clip-rule="evenodd" d="M20.7333 5.2C22.5289 5.2 23.8533 5.56444 24.7067 6.29333C25.5098 6.97935 25.935 8.14567 25.9822 9.7923L25.9867 10.1067V18.9333H22.8133L22.4133 16.9067L22.2059 17.1355C20.8793 18.5474 19.304 19.2533 17.48 19.2533C16.2 19.2533 15.1556 18.9156 14.3467 18.24C13.5917 17.6095 13.1891 16.7467 13.1387 15.6516L13.1333 15.4133V14.0533L13.1388 13.8284C13.1866 12.8691 13.5448 12.113 14.2133 11.56C14.8779 11.0103 15.7811 10.7142 16.9229 10.672L17.2133 10.6667H21.96V10.08L21.9555 9.88387C21.9283 9.31507 21.7787 8.92267 21.5067 8.70667C21.2044 8.46667 20.6267 8.34667 19.7733 8.34667C18.4113 8.34667 16.7084 8.40726 14.6647 8.52844L14.1467 8.56L13.7733 5.86667L14.5149 5.74C16.7245 5.38 18.7973 5.2 20.7333 5.2ZM33.1333 0V4.24L33.1291 4.64757C33.1062 5.71512 32.9921 6.62815 32.7867 7.38667C34.2089 5.92889 35.7911 5.2 37.5333 5.2C39.2578 5.2 40.5022 5.73778 41.2667 6.81333C42.0311 7.88889 42.4133 9.66222 42.4133 12.1333C42.4133 13.2356 42.32 14.1911 42.1333 15C41.9467 15.8089 41.6267 16.5467 41.1733 17.2133C40.72 17.88 40.0533 18.3867 39.1733 18.7333C38.2933 19.08 37.2044 19.2533 35.9067 19.2533C34.8222 19.2533 33.6089 19.1644 32.2667 18.9867C31.0465 18.8251 30.065 18.6047 29.3223 18.3255L29.1067 18.24V0H33.1333ZM58.7616 5.4L61.6568 10.6224H61.9299L64.8524 5.4H69.0313L65.1255 12.0096L69.3318 19H65.1255L61.8753 13.288H61.7114L58.4611 19H54.2549L58.4611 12.0096L54.5553 5.4H58.7616ZM4.10667 0.186667C8.08889 0.186667 10.8889 0.284444 12.5067 0.48L12.2933 3.49333H5.6L5.41333 3.49854C4.99333 3.52285 4.68222 3.63222 4.48 3.82667C4.24889 4.04889 4.13333 4.4 4.13333 4.88V8.08H11.28V11.0933H4.13333V18.9333H0V4.05333L0.00571429 3.7983C0.0552381 2.71054 0.426667 1.84889 1.12 1.21333C1.86667 0.528889 2.86222 0.186667 4.10667 0.186667ZM53.76 5.2L53.36 8.90667H52.2667L52.107 8.91031C51.2768 8.94677 49.97 9.25667 48.1867 9.84V18.9333H44.1867V5.6H47.3067L47.6533 7.54667L47.9422 7.30615C49.6743 5.90205 51.3825 5.2 53.0667 5.2H53.76ZM35.9333 8.4C35.24 8.4 34.3781 8.72957 33.3475 9.38871L33.1067 9.54667V16.0267L33.4887 16.1105C34.255 16.2629 35.0343 16.3238 35.8267 16.2933C36.7511 16.2578 37.3956 15.9511 37.76 15.3733C38.1244 14.7956 38.3067 13.7244 38.3067 12.16C38.3067 10.6844 38.1511 9.68889 37.84 9.17333C37.5289 8.65778 36.8933 8.4 35.9333 8.4ZM21.96 13.0933H18.36L18.205 13.0982C17.505 13.1439 17.1317 13.5095 17.085 14.1949L17.08 14.3467V14.88L17.0854 15.0383C17.1435 15.8572 17.6661 16.2667 18.6533 16.2667C19.6438 16.2667 20.6649 15.8911 21.7167 15.14L21.96 14.96V13.0933Z" fill="#212121"/>
</svg>
