<?xml version="1.0" standalone="no"?>
<!DOCTYPE svg PUBLIC "-//W3C//DTD SVG 20010904//EN"
 "http://www.w3.org/TR/2001/REC-SVG-20010904/DTD/svg10.dtd">
<svg version="1.0" xmlns="http://www.w3.org/2000/svg"
 width="636.000000pt" height="238.000000pt" viewBox="0 0 636.000000 238.000000"
 preserveAspectRatio="xMidYMid meet">

<g transform="translate(0.000000,238.000000) scale(0.100000,-0.100000)"
fill="#000000" stroke="none">
<path d="M2780 1983 c-105 -6 -386 -34 -478 -48 -62 -9 -102 -11 -119 -4 -41
15 -152 11 -183 -7 -36 -22 -53 -58 -85 -190 -14 -60 -35 -143 -45 -185 -31
-116 -30 -119 33 -119 28 0 96 3 149 7 l97 6 28 121 29 121 99 12 c55 6 188
19 295 28 174 15 200 19 243 43 62 33 87 65 87 110 0 28 -8 43 -40 74 -23 21
-44 37 -48 36 -4 -1 -32 -3 -62 -5z"/>
<path d="M4528 1965 c-31 -10 -56 -27 -73 -49 -14 -18 -25 -35 -25 -38 0 -3
-54 -95 -120 -204 l-120 -199 213 -3 c116 -1 221 0 232 2 17 4 24 24 44 113
12 59 34 155 47 212 14 58 24 114 22 125 -6 41 -142 66 -220 41z"/>
<path d="M3298 1944 c-16 -8 -36 -31 -47 -52 -21 -42 -116 -430 -108 -439 4
-3 112 -2 242 2 235 7 237 7 231 29 -3 11 -21 113 -41 225 -20 113 -41 211
-46 218 -28 33 -181 45 -231 17z"/>
<path d="M3988 1393 c-11 -3 -18 -14 -18 -29 0 -13 -18 -102 -41 -197 -22 -94
-41 -179 -42 -187 -1 -10 9 -16 31 -18 24 -2 32 1 32 13 0 14 2 14 25 -1 54
-35 142 3 181 78 40 76 -2 178 -73 178 -19 0 -43 -5 -54 -10 -22 -13 -22 -12
-4 65 8 33 15 68 15 77 0 20 -28 36 -52 31z m120 -241 c4 -30 -14 -84 -39
-116 -23 -29 -69 -35 -88 -12 -19 22 5 112 37 136 35 28 86 24 90 -8z"/>
<path d="M4426 1343 c-3 -32 -23 -127 -44 -210 -39 -155 -39 -173 -1 -173 28
0 36 19 69 165 17 77 38 164 46 194 16 62 8 81 -36 81 -26 0 -27 -3 -34 -57z"/>
<path d="M2267 1363 c-4 -3 -7 -21 -7 -40 0 -18 -18 -108 -40 -199 -22 -92
-40 -173 -40 -180 0 -9 11 -14 30 -14 20 0 30 5 30 15 0 19 5 19 35 -1 17 -11
34 -14 57 -9 83 18 130 75 132 161 1 51 -2 58 -33 86 -28 25 -39 29 -68 23
-19 -3 -40 -8 -47 -11 -10 -4 -9 14 4 75 13 57 15 82 7 90 -12 12 -50 15 -60
4z m122 -212 c38 -24 -12 -154 -64 -167 -42 -10 -58 12 -51 70 6 50 26 82 61
97 27 10 37 10 54 0z"/>
<path d="M4288 1342 c-19 -4 -34 -44 -23 -61 10 -18 72 -13 79 5 14 38 -14 65
-56 56z"/>
<path d="M3244 1322 c-17 -11 -98 -347 -88 -363 10 -17 62 -10 68 9 2 9 13 50
22 90 10 39 21 72 25 72 3 0 12 -34 19 -75 21 -125 50 -126 126 -6 30 47 54
80 54 74 0 -7 -7 -44 -15 -83 -8 -40 -13 -76 -9 -81 9 -16 53 -10 63 9 8 15
71 305 75 342 0 9 -9 16 -25 18 -32 4 -36 -3 -137 -171 l-70 -118 -11 53 c-6
29 -16 85 -22 123 -6 39 -15 80 -20 93 -8 22 -34 29 -55 14z"/>
<path d="M1738 1303 c-43 -3 -58 -8 -62 -21 -17 -57 -76 -315 -76 -332 0 -11
6 -23 14 -26 28 -11 50 14 66 73 l16 58 50 8 c105 18 121 25 110 52 -6 16 -16
17 -76 12 -39 -3 -70 -4 -70 -1 0 16 24 101 32 110 5 7 38 14 73 16 66 4 105
24 91 47 -7 11 -45 11 -168 4z"/>
<path d="M3725 1228 c-72 -26 -121 -104 -110 -176 17 -113 136 -136 208 -41
31 41 50 111 42 149 -13 58 -79 90 -140 68z m65 -53 c18 -21 7 -96 -19 -139
-24 -37 -56 -47 -79 -24 -26 26 -3 137 35 166 23 16 48 15 63 -3z"/>
<path d="M4247 1233 c-4 -3 -3 -11 2 -17 6 -7 0 -47 -15 -106 -33 -131 -32
-142 9 -138 27 3 32 7 35 33 1 17 12 69 24 117 11 48 18 94 15 102 -6 16 -57
23 -70 9z"/>
<path d="M4604 1208 c-81 -56 -121 -171 -75 -217 55 -55 229 -14 219 53 -4 31
-37 32 -62 2 -27 -34 -77 -44 -100 -21 -9 10 -15 22 -14 27 2 6 44 25 92 44
95 35 106 44 106 86 0 64 -89 77 -166 26z m106 -32 c0 -15 -98 -61 -108 -51
-4 4 9 20 28 36 36 30 80 39 80 15z"/>
<path d="M2783 1205 c-17 -12 -16 -16 6 -69 l23 -56 -31 -38 c-17 -22 -37 -45
-46 -52 -8 -7 -15 -21 -15 -31 0 -32 37 -22 79 22 l39 41 32 -36 c57 -64 90
-37 46 38 -14 25 -26 48 -26 53 0 5 23 33 50 63 28 30 48 60 46 67 -10 24 -40
13 -84 -29 -35 -35 -44 -40 -52 -28 -5 8 -10 25 -10 36 0 26 -32 37 -57 19z"/>
<path d="M2534 1178 c0 -18 -10 -77 -23 -132 -19 -81 -20 -100 -9 -107 32 -21
52 4 72 86 12 53 23 77 46 98 31 28 50 34 50 17 0 -20 40 -9 56 15 13 20 14
28 4 40 -18 21 -63 18 -94 -6 l-27 -21 -6 21 c-4 16 -13 21 -37 21 -30 0 -32
-3 -32 -32z"/>
<path d="M1984 1175 c-30 -18 -47 -38 -63 -74 -25 -59 -26 -82 -6 -120 22 -43
80 -56 122 -26 19 13 21 13 26 -5 6 -22 45 -28 51 -7 3 6 14 53 26 104 l21 92
-32 30 c-40 39 -87 41 -145 6z m104 -52 c6 -43 -17 -97 -51 -121 -51 -34 -70
-22 -64 41 4 41 11 56 37 79 37 34 73 34 78 1z"/>
<path d="M3817 853 c-13 -21 -32 -53 -42 -70 -11 -18 -22 -33 -26 -33 -3 0 -9
23 -13 50 -11 84 -4 80 -137 80 -65 0 -119 -4 -119 -8 0 -7 50 -283 66 -362 9
-46 21 -59 69 -81 57 -26 134 -25 174 4 20 14 80 99 161 230 72 115 130 213
130 218 0 5 -54 9 -120 9 l-120 0 -23 -37z"/>
<path d="M4216 873 c-3 -10 -19 -88 -36 -173 -17 -85 -37 -178 -44 -207 -11
-39 -11 -57 -2 -75 16 -33 73 -58 149 -65 129 -12 140 10 227 450 l17 87 -153
0 c-137 0 -153 -2 -158 -17z"/>
<path d="M3076 871 l-79 -6 -43 -180 c-24 -99 -43 -199 -44 -221 0 -80 64
-122 168 -109 67 8 106 27 126 58 7 12 28 83 45 157 17 74 40 171 50 215 10
44 17 83 14 88 -5 8 -110 7 -237 -2z"/>
<path d="M1745 853 l-41 -4 -43 -182 c-52 -214 -56 -266 -23 -299 20 -21 32
-23 121 -23 122 0 131 7 159 113 20 76 74 306 87 370 l7 32 -114 -2 c-62 -1
-131 -3 -153 -5z"/>
</g>
</svg>
