<svg width="49" height="49" viewBox="0 0 49 49" fill="none" xmlns="http://www.w3.org/2000/svg">
<path fill-rule="evenodd" clip-rule="evenodd" d="M41.281 27.5815L46.874 26.85C46.9577 26.0561 47 25.2681 47 24.5004C47 23.7326 46.9577 22.9447 46.874 22.1497L41.281 21.4182C40.8668 21.3638 40.5292 21.0605 40.4315 20.6545C40.0334 18.998 39.3784 17.4181 38.4855 15.9602C38.2679 15.6045 38.292 15.1501 38.546 14.8196L41.9865 10.344C40.9978 9.12481 39.8843 8.01043 38.6639 7.02099L34.1895 10.4588C33.8569 10.7137 33.4035 10.7369 33.0487 10.5193C31.5895 9.62456 30.0084 8.96863 28.3496 8.56862C27.9445 8.47089 27.6412 8.13335 27.5867 7.72025L26.8541 2.12721C25.2659 1.95793 23.7432 1.95793 22.155 2.12519L21.4233 7.71622C21.3689 8.12932 21.0656 8.46787 20.6595 8.56459C18.9987 8.96259 17.4155 9.61852 15.9533 10.5132C15.5965 10.7309 15.1441 10.7067 14.8135 10.4528L10.3371 7.01394C9.79594 7.45425 9.26788 7.92479 8.76199 8.4195L8.40525 8.77619C7.91951 9.27292 7.45293 9.79484 7.01456 10.3339L10.454 14.8075C10.708 15.139 10.7321 15.5924 10.5135 15.9481C9.61656 17.4111 8.95951 18.995 8.55943 20.6565C8.46168 21.0625 8.12409 21.3658 7.71091 21.4202L2.11891 22.1517C2.04938 22.8197 2.01008 23.4958 2 24.1719V24.844C2.01008 25.509 2.04938 26.182 2.11791 26.848L7.71091 27.5795C8.12409 27.6339 8.46168 27.9372 8.55943 28.3433C8.95951 30.0058 9.61656 31.5897 10.5135 33.0517C10.7321 33.4083 10.708 33.8617 10.454 34.1922L7.01456 38.6659C7.45293 39.2059 7.92153 39.7299 8.4123 40.2316L8.76905 40.5893C9.2699 41.077 9.79594 41.5465 10.3371 41.9868L14.8135 38.547C15.1441 38.293 15.5976 38.2699 15.9533 38.4865C17.4155 39.3812 18.9987 40.0372 20.6595 40.4362C21.0656 40.5329 21.3689 40.8704 21.4233 41.2845L22.155 46.8756C23.7432 47.0418 25.2659 47.0418 26.8541 46.8735L27.5867 41.2805C27.6412 40.8664 27.9445 40.5289 28.3496 40.4311C30.0084 40.0311 31.5895 39.3752 33.0487 38.4815C33.4045 38.2628 33.859 38.287 34.1895 38.5409L38.6639 41.9798C39.8843 40.9903 40.9978 39.8759 41.9865 38.6558L38.546 34.1801C38.292 33.8497 38.2679 33.3962 38.4855 33.0406C39.3784 31.5816 40.0334 30.0027 40.4315 28.3453C40.5292 27.9392 40.8668 27.6359 41.281 27.5815ZM47.8962 20.2541C48.3464 20.3135 48.7009 20.6659 48.7633 21.115C48.9204 22.2579 49 23.3968 49 24.4994C49 25.6021 48.9204 26.7409 48.7633 27.8829C48.7009 28.332 48.3464 28.6854 47.8962 28.7438L42.204 29.488C41.8122 30.8806 41.2573 32.2199 40.5473 33.4836L44.049 38.0381C44.325 38.3976 44.327 38.8981 44.0541 39.2596C42.6864 41.0671 41.076 42.6782 39.2683 44.0457C38.9067 44.3196 38.4072 44.3176 38.0477 44.0417L33.4935 40.5425C32.2286 41.2534 30.8881 41.8102 29.4943 42.202L28.749 47.8943C28.6896 48.3435 28.3381 48.6989 27.8889 48.7613C26.7438 48.9194 25.6028 49 24.496 49C23.3952 49 22.2602 48.9204 21.1221 48.7634C20.673 48.7019 20.3195 48.3465 20.2611 47.8974L19.5158 42.208C18.1199 41.8163 16.7765 41.2594 15.5085 40.5475L10.9544 44.0477C10.5938 44.3236 10.0943 44.3256 9.73273 44.0528C8.91193 43.4325 8.1143 42.7447 7.36299 42.0096L6.99137 41.637C6.25215 40.8838 5.56731 40.0893 4.94794 39.2707C4.674 38.9092 4.67602 38.4087 4.95197 38.0492L8.45168 33.4967C7.73864 32.2289 7.1807 30.8846 6.78692 29.4859L1.09574 28.7418C0.645558 28.6824 0.291055 28.3299 0.228614 27.8808C0.0916471 26.889 0.0151067 25.8719 0 24.8569V24.1561C0.0151067 23.1269 0.0916471 22.1089 0.228614 21.118C0.291055 20.6689 0.645558 20.3155 1.09574 20.2571L6.78692 19.5119C7.1807 18.1142 7.73864 16.7699 8.45168 15.5012L4.95197 10.9487C4.67602 10.5892 4.674 10.0897 4.94794 9.7272C5.56731 8.90853 6.25215 8.11504 6.98432 7.36787L7.35493 6.9963C8.1143 6.25316 8.91193 5.5664 9.73273 4.9451C10.0953 4.67221 10.5938 4.67423 10.9544 4.95014L15.5085 8.45036C16.7765 7.73844 18.1199 7.18259 19.5158 6.79088L20.2611 1.1015C20.3195 0.651387 20.673 0.296934 21.1221 0.234502C23.4043 -0.0796726 25.6048 -0.0776587 27.8889 0.237523C28.3381 0.299955 28.6896 0.654408 28.749 1.10352L29.4943 6.79591C30.8881 7.18863 32.2286 7.74548 33.4935 8.4564L38.0477 4.95719C38.4072 4.68027 38.9067 4.67926 39.2683 4.95316C41.076 6.32062 42.6864 7.93177 44.0541 9.73928C44.327 10.1008 44.325 10.6012 44.049 10.9597L40.5473 15.5143C41.2573 16.779 41.8122 18.1183 42.204 19.5099L47.8962 20.2541ZM17 24.5C17 28.6353 20.3645 32 24.4995 32C28.6345 32 32 28.6353 32 24.5C32 20.3638 28.6345 17 24.4995 17C20.3645 17 17 20.3638 17 24.5ZM15 24.5C15 19.2617 19.2615 15 24.4995 15C29.7375 15 34 19.2617 34 24.5C34 29.7383 29.7375 34 24.4995 34C19.2615 34 15 29.7383 15 24.5Z" fill="url(#paint0_linear_0_985)"/>
<defs>
<linearGradient id="paint0_linear_0_985" x1="24.5" y1="-24.5" x2="-24.5" y2="24.5" gradientUnits="userSpaceOnUse">
<stop stop-color="#FFC105"/>
<stop offset="1" stop-color="#737CFF"/>
</linearGradient>
</defs>
</svg>
