<svg width="24" height="24" viewBox="0 0 24 24" fill="none" xmlns="http://www.w3.org/2000/svg">
<path fill-rule="evenodd" clip-rule="evenodd" d="M7.25 5C9.32107 5 11 6.67893 11 8.75C11 9.95256 10.4339 11.0229 9.55376 11.7091L9.498 11.75L9.55376 11.7909C10.3851 12.439 10.9361 13.4297 10.9948 14.5508L11 14.75C11 16.7543 9.42764 18.3913 7.44916 18.4948L7.25 18.5H2.75C2.3703 18.5 2.05651 18.2178 2.00685 17.8518L2 17.75V11.75V5.75C2 5.3703 2.28215 5.05651 2.64823 5.00685L2.75 5H7.25ZM3.5 12.5V17H7.25C8.44086 17 9.41564 16.0748 9.49481 14.904L9.5 14.75C9.5 13.5591 8.57484 12.5844 7.40405 12.5052L7.25 12.5H3.5ZM7.28014 11.0006C7.27014 11.0002 7.2601 11 7.25 11H3.5V6.5H7.25L7.40405 6.50519C8.57484 6.58436 9.5 7.55914 9.5 8.75C9.5 9.94086 8.57484 10.9156 7.40405 10.9948L7.28014 11.0006ZM21.5 12.75C21.5 10.4028 19.5972 8.5 17.25 8.5C14.9028 8.5 13 10.4028 13 12.75V14.75L13.007 14.8524L13.0405 15.0582C13.3727 16.8271 14.7896 18.2046 16.5843 18.4749C18.4481 18.7556 20.2741 17.7752 21.0699 16.0667C21.2448 15.6912 21.0821 15.245 20.7067 15.0701C20.3312 14.8952 19.885 15.0579 19.7101 15.4333C19.1952 16.5389 18.0137 17.1732 16.8077 16.9916L16.6289 16.9587C15.5684 16.7268 14.7422 15.8902 14.5237 14.8269L14.5 14.693V13.5H20.75L20.8518 13.4932C21.2178 13.4435 21.5 13.1297 21.5 12.75ZM14.6207 11.9418C14.9659 10.8174 16.0125 10 17.25 10L17.4175 10.005C18.5812 10.0749 19.5498 10.8685 19.8793 11.9418L19.895 12H14.604L14.6207 11.9418ZM19.5 5.75C19.5 5.33579 19.1642 5 18.75 5H15.75L15.6482 5.00685C15.2822 5.05651 15 5.3703 15 5.75C15 6.16421 15.3358 6.5 15.75 6.5H18.75L18.8518 6.49315C19.2178 6.44349 19.5 6.1297 19.5 5.75Z" fill="#212121"/>
</svg>
