<svg width="24" height="24" viewBox="0 0 24 24" fill="none" xmlns="http://www.w3.org/2000/svg">
<path fill-rule="evenodd" clip-rule="evenodd" d="M17.75 2C18.1297 2 18.4435 2.28215 18.4932 2.64823L18.5 2.75V6.75C18.5 7.1297 18.2178 7.44349 17.8518 7.49315L17.75 7.5H14.75C14.6317 7.5 14.5325 7.58223 14.5066 7.69268L14.5 7.75V9H17.75C18.2054 9 18.5476 9.39944 18.495 9.83756L18.4776 9.9319L17.4776 13.9319C17.4034 14.2287 17.1581 14.4467 16.8628 14.4915L16.75 14.5H14.5V20.75C14.5 21.1297 14.2178 21.4435 13.8518 21.4932L13.75 21.5H9.75C9.3703 21.5 9.05651 21.2178 9.00685 20.8518L9 20.75V14.5H6.75C6.3703 14.5 6.05651 14.2178 6.00685 13.8518L6 13.75V9.75C6 9.3703 6.28215 9.05651 6.64823 9.00685L6.75 9H9V7.75C9 4.64821 11.456 2.12006 14.5294 2.00415L14.75 2H17.75ZM17 3.5H14.75C12.4718 3.5 10.6123 5.29251 10.5049 7.54408L10.5 7.75V9.75C10.5 10.1297 10.2178 10.4435 9.85177 10.4932L9.75 10.5H7.5V13H9.75C10.1297 13 10.4435 13.2822 10.4932 13.6482L10.5 13.75V20H13V13.75C13 13.3703 13.2822 13.0565 13.6482 13.0068L13.75 13H16.164L16.789 10.5H13.75C13.3703 10.5 13.0565 10.2178 13.0068 9.85177L13 9.75V7.75C13 6.83183 13.7071 6.07881 14.6065 6.0058L14.75 6H17V3.5Z" fill="#212121"/>
</svg>
