<svg width="19" height="19" viewBox="0 0 19 19" fill="none" xmlns="http://www.w3.org/2000/svg">
<path fill-rule="evenodd" clip-rule="evenodd" d="M2.64052 13.7188C4.09884 13.7188 5.28104 14.901 5.28104 16.3594C5.28104 17.8177 4.09884 18.9999 2.64052 18.9999C1.1822 18.9999 0 17.8177 0 16.3594C0 14.901 1.1822 13.7188 2.64052 13.7188ZM16.3595 13.7188C17.8178 13.7188 19 14.901 19 16.3594C19 17.8177 17.8178 18.9999 16.3595 18.9999C14.9012 18.9999 13.719 17.8177 13.719 16.3594C13.719 14.901 14.9012 13.7188 16.3595 13.7188ZM2.64052 6.85936C4.09884 6.85936 5.28104 8.04156 5.28104 9.49988C5.28104 10.9582 4.09884 12.1404 2.64052 12.1404C1.1822 12.1404 0 10.9582 0 9.49988C0 8.04156 1.1822 6.85936 2.64052 6.85936ZM9.5 6.85936C10.9583 6.85936 12.1405 8.04156 12.1405 9.49988C12.1405 10.9582 10.9583 12.1404 9.5 12.1404C8.04168 12.1404 6.85948 10.9582 6.85948 9.49988C6.85948 8.04156 8.04168 6.85936 9.5 6.85936ZM2.64052 -0.00012207C4.09884 -0.00012207 5.28104 1.18208 5.28104 2.6404C5.28104 4.09871 4.09884 5.28092 2.64052 5.28092C1.1822 5.28092 0 4.09871 0 2.6404C0 1.18208 1.1822 -0.00012207 2.64052 -0.00012207ZM16.3595 -0.00012207C17.8178 -0.00012207 19 1.18208 19 2.6404C19 4.09871 17.8178 5.28092 16.3595 5.28092C14.9012 5.28092 13.719 4.09871 13.719 2.6404C13.719 1.18208 14.9012 -0.00012207 16.3595 -0.00012207ZM9.5 -0.00012207C10.9583 -0.00012207 12.1405 1.18208 12.1405 2.6404C12.1405 4.09871 10.9583 5.28092 9.5 5.28092C8.04168 5.28092 6.85948 4.09871 6.85948 2.6404C6.85948 1.18208 8.04168 -0.00012207 9.5 -0.00012207Z" fill="#212121"/>
</svg>
