<svg width="24" height="24" viewBox="0 0 24 24" fill="none" xmlns="http://www.w3.org/2000/svg">
<path fill-rule="evenodd" clip-rule="evenodd" d="M19.5 5.25045C19.5 3.45553 18.0449 2.00045 16.25 2.00045L16.0469 2.0025C14.2942 2.06864 12.7454 3.38657 11.7601 5.45978L11.749 5.48245L11.6235 5.22395C10.5947 3.20957 9.01451 1.9696 7.23693 2.00057C5.45507 2.00045 4 3.45553 4 5.25045C4 5.89477 4.1875 6.4953 4.51091 7.00045H3.75C2.7835 7.00045 2 7.78395 2 8.75045V10.7505C2 11.717 2.7835 12.5005 3.75 12.5005H4V18.7505L4.00502 18.918C4.0916 20.3587 5.28747 21.5005 6.75 21.5005H11.75H16.75L16.9175 21.4954C18.3583 21.4089 19.5 20.213 19.5 18.7505V12.5005H19.75C20.7165 12.5005 21.5 11.717 21.5 10.7505V8.75045C21.5 7.78395 20.7165 7.00045 19.75 7.00045H18.9891C19.3125 6.4953 19.5 5.89477 19.5 5.25045ZM16.25 7.00045C17.2165 7.00045 18 6.21695 18 5.25045C18 4.28395 17.2165 3.50045 16.2369 3.50034C14.8647 3.47643 13.5079 4.80151 12.7494 7.00045H16.25ZM10.7506 7.00045C9.99196 4.80151 8.63379 3.47644 7.25 3.50045C6.2835 3.50045 5.5 4.28395 5.5 5.25045C5.5 6.16863 6.20711 6.92165 7.10647 6.99465L7.25 7.00045H10.7506ZM7.25 8.50045H3.75C3.61193 8.50045 3.5 8.61238 3.5 8.75045V10.7505C3.5 10.8885 3.61193 11.0005 3.75 11.0005H4.75H11V8.50045H7.25ZM5.5 18.7505V12.5005H11V20.0005H6.75L6.62219 19.994C5.99187 19.93 5.5 19.3977 5.5 18.7505ZM16.75 20.0005H12.5V12.5005H18V18.7505L17.9935 18.8783C17.9295 19.5086 17.3972 20.0005 16.75 20.0005ZM19.75 11.0005H18.75H12.5V8.50045H16.25H19.75C19.8881 8.50045 20 8.61238 20 8.75045V10.7505C20 10.8885 19.8881 11.0005 19.75 11.0005Z" fill="#212121"/>
</svg>
