<svg width="24" height="24" viewBox="0 0 24 24" fill="none" xmlns="http://www.w3.org/2000/svg">
<path fill-rule="evenodd" clip-rule="evenodd" d="M7.75 3H15.75C18.3734 3 20.5 5.12665 20.5 7.75V15.75C20.5 18.3734 18.3734 20.5 15.75 20.5H7.75C5.12665 20.5 3 18.3734 3 15.75V7.75C3 5.12665 5.12665 3 7.75 3ZM15.75 4.5H7.75C5.95507 4.5 4.5 5.95507 4.5 7.75V15.75C4.5 17.5449 5.95507 19 7.75 19H15.75C17.5449 19 19 17.5449 19 15.75V7.75C19 5.95507 17.5449 4.5 15.75 4.5ZM8 11.75C8 9.67893 9.67893 8 11.75 8C13.8211 8 15.5 9.67893 15.5 11.75C15.5 13.8211 13.8211 15.5 11.75 15.5C9.67893 15.5 8 13.8211 8 11.75ZM14 11.75C14 10.5074 12.9926 9.5 11.75 9.5C10.5074 9.5 9.5 10.5074 9.5 11.75C9.5 12.9926 10.5074 14 11.75 14C12.9926 14 14 12.9926 14 11.75ZM16.9932 7.14823C16.9435 6.78215 16.6297 6.5 16.25 6.5C15.8358 6.5 15.5 6.83579 15.5 7.251L15.5068 7.35277C15.5565 7.71885 15.8703 8.001 16.25 8.001C16.6642 8.001 17 7.66521 17 7.25L16.9932 7.14823Z" fill="#212121"/>
</svg>
