<svg width="24" height="24" viewBox="0 0 24 24" fill="none" xmlns="http://www.w3.org/2000/svg">
<path fill-rule="evenodd" clip-rule="evenodd" d="M11.7512 2C13.0426 2 14.126 2.89006 14.4216 4.09017L14.4582 4.269L14.578 4.33444C16.8006 5.59267 18.2674 7.87478 18.4825 10.4614L18.5012 10.75L18.4958 13.6599C18.6198 14.6843 19.2229 15.5889 20.1208 16.0974C20.7609 16.4599 20.5445 17.4083 19.8532 17.4938L19.7512 17.5H15.5012V17.75C15.5012 19.8211 13.8223 21.5 11.7512 21.5C9.74699 21.5 8.10997 19.9276 8.00644 17.9492L8.00125 17.75V17.5H3.75125C2.9806 17.5 2.71109 16.4771 3.38168 16.0974C4.21973 15.6228 4.80096 14.8031 4.97113 13.9364L5.00125 13.75L5.00207 10.7148C5.12748 8.04289 6.61961 5.63912 8.9245 4.33443L9.04325 4.269L9.04555 4.25568C9.2687 3.02627 10.3092 2.08161 11.5837 2.00502L11.7512 2ZM9.50125 17.5V17.75C9.50125 18.9926 10.5086 20 11.7512 20C12.9421 20 13.9169 19.0748 13.9961 17.904L14.0012 17.75V17.5H9.50125ZM14.7512 16H8.75125H5.66425L5.73247 15.9042C6.13953 15.2936 6.4052 14.5887 6.49581 13.8401L6.50125 10.75L6.51838 10.4983C6.71152 8.3253 8.0598 6.37942 10.0718 5.42802L10.1609 5.37833L10.2406 5.31857L10.2816 5.28033L10.3106 5.24995L10.3703 5.17364L10.3988 5.12854L10.4423 5.04193L10.4745 4.94938L10.4944 4.85177L10.4985 4.81538L10.5077 4.62219C10.5717 3.99187 11.104 3.5 11.7512 3.5C12.4416 3.5 13.0012 4.05964 13.0012 4.75L13.0089 4.85732C13.0445 5.10384 13.2012 5.31954 13.4306 5.42802C15.5201 6.41602 16.8937 8.47646 17.0021 10.7852L17.0012 13.75L17.0365 13.9984C17.1592 14.7366 17.4347 15.4117 17.8349 15.9902L17.8412 16H14.7512Z" fill="#212121"/>
</svg>
