<svg width="388" height="74" viewBox="0 0 388 74" fill="none" xmlns="http://www.w3.org/2000/svg">
<line x1="194" y1="23" y2="23" stroke="#57A4EB" stroke-width="6"/>
<line x1="388" y1="23" x2="194" y2="23" stroke="#C4C4C4" stroke-width="6"/>
<circle cx="291" cy="20" r="17" transform="rotate(-180 291 20)" fill="white" stroke="#C4C4C4" stroke-width="6"/>
<path d="M70.7344 63.9297C69.4479 63.5599 68.5104 63.1068 67.9219 62.5703C67.3385 62.0286 67.0469 61.362 67.0469 60.5703C67.0469 59.6745 67.4036 58.9349 68.1172 58.3516C68.8359 57.763 69.7682 57.4688 70.9141 57.4688C71.6953 57.4688 72.3906 57.6198 73 57.9219C73.6146 58.224 74.0885 58.6406 74.4219 59.1719C74.7604 59.7031 74.9297 60.2839 74.9297 60.9141H73.4219C73.4219 60.2266 73.2031 59.6875 72.7656 59.2969C72.3281 58.901 71.7109 58.7031 70.9141 58.7031C70.1745 58.7031 69.5964 58.8672 69.1797 59.1953C68.7682 59.5182 68.5625 59.9688 68.5625 60.5469C68.5625 61.0104 68.7578 61.4036 69.1484 61.7266C69.5443 62.0443 70.2135 62.3359 71.1562 62.6016C72.1042 62.8672 72.8438 63.1615 73.375 63.4844C73.9115 63.8021 74.3073 64.1745 74.5625 64.6016C74.8229 65.0286 74.9531 65.5312 74.9531 66.1094C74.9531 67.0312 74.5938 67.7708 73.875 68.3281C73.1562 68.8802 72.1953 69.1562 70.9922 69.1562C70.2109 69.1562 69.4818 69.0078 68.8047 68.7109C68.1276 68.4089 67.6042 67.9974 67.2344 67.4766C66.8698 66.9557 66.6875 66.3646 66.6875 65.7031H68.1953C68.1953 66.3906 68.4479 66.9349 68.9531 67.3359C69.4635 67.7318 70.1432 67.9297 70.9922 67.9297C71.7839 67.9297 72.3906 67.7682 72.8125 67.4453C73.2344 67.1224 73.4453 66.6823 73.4453 66.125C73.4453 65.5677 73.25 65.138 72.8594 64.8359C72.4688 64.5286 71.7604 64.2266 70.7344 63.9297ZM78.1016 61.5703C78.7422 60.7839 79.5755 60.3906 80.6016 60.3906C82.388 60.3906 83.2891 61.3984 83.3047 63.4141V69H81.8594V63.4062C81.8542 62.7969 81.7135 62.3464 81.4375 62.0547C81.1667 61.763 80.7422 61.6172 80.1641 61.6172C79.6953 61.6172 79.2839 61.7422 78.9297 61.9922C78.5755 62.2422 78.2995 62.5703 78.1016 62.9766V69H76.6562V57H78.1016V61.5703ZM87.0391 69H85.5938V60.5469H87.0391V69ZM85.4766 58.3047C85.4766 58.0703 85.5469 57.8724 85.6875 57.7109C85.8333 57.5495 86.0469 57.4688 86.3281 57.4688C86.6094 57.4688 86.8229 57.5495 86.9688 57.7109C87.1146 57.8724 87.1875 58.0703 87.1875 58.3047C87.1875 58.5391 87.1146 58.7344 86.9688 58.8906C86.8229 59.0469 86.6094 59.125 86.3281 59.125C86.0469 59.125 85.8333 59.0469 85.6875 58.8906C85.5469 58.7344 85.4766 58.5391 85.4766 58.3047ZM96.5 64.8672C96.5 66.1536 96.2057 67.1901 95.6172 67.9766C95.0286 68.763 94.2318 69.1562 93.2266 69.1562C92.2005 69.1562 91.3932 68.8307 90.8047 68.1797V72.25H89.3594V60.5469H90.6797L90.75 61.4844C91.3385 60.7552 92.1562 60.3906 93.2031 60.3906C94.2188 60.3906 95.0208 60.7734 95.6094 61.5391C96.2031 62.3047 96.5 63.3698 96.5 64.7344V64.8672ZM95.0547 64.7031C95.0547 63.75 94.8516 62.9974 94.4453 62.4453C94.0391 61.8932 93.4818 61.6172 92.7734 61.6172C91.8984 61.6172 91.2422 62.0052 90.8047 62.7812V66.8203C91.237 67.5911 91.8984 67.9766 92.7891 67.9766C93.4818 67.9766 94.0312 67.7031 94.4375 67.1562C94.849 66.6042 95.0547 65.7865 95.0547 64.7031ZM105.484 64.8672C105.484 66.1536 105.19 67.1901 104.602 67.9766C104.013 68.763 103.216 69.1562 102.211 69.1562C101.185 69.1562 100.378 68.8307 99.7891 68.1797V72.25H98.3438V60.5469H99.6641L99.7344 61.4844C100.323 60.7552 101.141 60.3906 102.188 60.3906C103.203 60.3906 104.005 60.7734 104.594 61.5391C105.188 62.3047 105.484 63.3698 105.484 64.7344V64.8672ZM104.039 64.7031C104.039 63.75 103.836 62.9974 103.43 62.4453C103.023 61.8932 102.466 61.6172 101.758 61.6172C100.883 61.6172 100.227 62.0052 99.7891 62.7812V66.8203C100.221 67.5911 100.883 67.9766 101.773 67.9766C102.466 67.9766 103.016 67.7031 103.422 67.1562C103.833 66.6042 104.039 65.7865 104.039 64.7031ZM108.898 69H107.453V60.5469H108.898V69ZM107.336 58.3047C107.336 58.0703 107.406 57.8724 107.547 57.7109C107.693 57.5495 107.906 57.4688 108.188 57.4688C108.469 57.4688 108.682 57.5495 108.828 57.7109C108.974 57.8724 109.047 58.0703 109.047 58.3047C109.047 58.5391 108.974 58.7344 108.828 58.8906C108.682 59.0469 108.469 59.125 108.188 59.125C107.906 59.125 107.693 59.0469 107.547 58.8906C107.406 58.7344 107.336 58.5391 107.336 58.3047ZM112.586 60.5469L112.633 61.6094C113.279 60.7969 114.122 60.3906 115.164 60.3906C116.951 60.3906 117.852 61.3984 117.867 63.4141V69H116.422V63.4062C116.417 62.7969 116.276 62.3464 116 62.0547C115.729 61.763 115.305 61.6172 114.727 61.6172C114.258 61.6172 113.846 61.7422 113.492 61.9922C113.138 62.2422 112.862 62.5703 112.664 62.9766V69H111.219V60.5469H112.586ZM119.703 64.7031C119.703 63.3854 120.008 62.3385 120.617 61.5625C121.227 60.7812 122.034 60.3906 123.039 60.3906C124.07 60.3906 124.875 60.7552 125.453 61.4844L125.523 60.5469H126.844V68.7969C126.844 69.8906 126.518 70.7526 125.867 71.3828C125.221 72.013 124.352 72.3281 123.258 72.3281C122.648 72.3281 122.052 72.1979 121.469 71.9375C120.885 71.6771 120.44 71.3203 120.133 70.8672L120.883 70C121.503 70.7656 122.26 71.1484 123.156 71.1484C123.859 71.1484 124.406 70.9505 124.797 70.5547C125.193 70.1589 125.391 69.6016 125.391 68.8828V68.1562C124.812 68.8229 124.023 69.1562 123.023 69.1562C122.034 69.1562 121.232 68.7578 120.617 67.9609C120.008 67.1641 119.703 66.0781 119.703 64.7031ZM121.156 64.8672C121.156 65.8203 121.352 66.5703 121.742 67.1172C122.133 67.6589 122.68 67.9297 123.383 67.9297C124.294 67.9297 124.964 67.5156 125.391 66.6875V62.8281C124.948 62.0208 124.284 61.6172 123.398 61.6172C122.695 61.6172 122.146 61.8906 121.75 62.4375C121.354 62.9844 121.156 63.7943 121.156 64.8672Z" fill="black"/>
<path d="M225.859 64.3984H223.188V69H221.68V57.625H225.445C226.727 57.625 227.711 57.9167 228.398 58.5C229.091 59.0833 229.438 59.9323 229.438 61.0469C229.438 61.7552 229.245 62.3724 228.859 62.8984C228.479 63.4245 227.948 63.8177 227.266 64.0781L229.938 68.9062V69H228.328L225.859 64.3984ZM223.188 63.1719H225.492C226.237 63.1719 226.828 62.9792 227.266 62.5938C227.708 62.2083 227.93 61.6927 227.93 61.0469C227.93 60.3438 227.719 59.8047 227.297 59.4297C226.88 59.0547 226.276 58.8646 225.484 58.8594H223.188V63.1719ZM234.828 69.1562C233.682 69.1562 232.75 68.7812 232.031 68.0312C231.312 67.276 230.953 66.2682 230.953 65.0078V64.7422C230.953 63.9036 231.112 63.1562 231.43 62.5C231.753 61.8385 232.201 61.3229 232.773 60.9531C233.352 60.5781 233.977 60.3906 234.648 60.3906C235.747 60.3906 236.602 60.7526 237.211 61.4766C237.82 62.2005 238.125 63.237 238.125 64.5859V65.1875H232.398C232.419 66.0208 232.661 66.6953 233.125 67.2109C233.594 67.7214 234.188 67.9766 234.906 67.9766C235.417 67.9766 235.849 67.8724 236.203 67.6641C236.557 67.4557 236.867 67.1797 237.133 66.8359L238.016 67.5234C237.307 68.612 236.245 69.1562 234.828 69.1562ZM234.648 61.5781C234.065 61.5781 233.576 61.7917 233.18 62.2188C232.784 62.6406 232.539 63.2344 232.445 64H236.68V63.8906C236.638 63.1562 236.44 62.5885 236.086 62.1875C235.732 61.7812 235.253 61.5781 234.648 61.5781ZM242.484 67.0391L244.578 60.5469H246.055L243.023 69H241.922L238.859 60.5469H240.336L242.484 67.0391ZM249.016 69H247.57V60.5469H249.016V69ZM247.453 58.3047C247.453 58.0703 247.523 57.8724 247.664 57.7109C247.81 57.5495 248.023 57.4688 248.305 57.4688C248.586 57.4688 248.799 57.5495 248.945 57.7109C249.091 57.8724 249.164 58.0703 249.164 58.3047C249.164 58.5391 249.091 58.7344 248.945 58.8906C248.799 59.0469 248.586 59.125 248.305 59.125C248.023 59.125 247.81 59.0469 247.664 58.8906C247.523 58.7344 247.453 58.5391 247.453 58.3047ZM254.844 69.1562C253.698 69.1562 252.766 68.7812 252.047 68.0312C251.328 67.276 250.969 66.2682 250.969 65.0078V64.7422C250.969 63.9036 251.128 63.1562 251.445 62.5C251.768 61.8385 252.216 61.3229 252.789 60.9531C253.367 60.5781 253.992 60.3906 254.664 60.3906C255.763 60.3906 256.617 60.7526 257.227 61.4766C257.836 62.2005 258.141 63.237 258.141 64.5859V65.1875H252.414C252.435 66.0208 252.677 66.6953 253.141 67.2109C253.609 67.7214 254.203 67.9766 254.922 67.9766C255.432 67.9766 255.865 67.8724 256.219 67.6641C256.573 67.4557 256.883 67.1797 257.148 66.8359L258.031 67.5234C257.323 68.612 256.26 69.1562 254.844 69.1562ZM254.664 61.5781C254.081 61.5781 253.591 61.7917 253.195 62.2188C252.799 62.6406 252.555 63.2344 252.461 64H256.695V63.8906C256.654 63.1562 256.456 62.5885 256.102 62.1875C255.747 61.7812 255.268 61.5781 254.664 61.5781ZM267.305 67.0078L268.93 60.5469H270.375L267.914 69H266.742L264.688 62.5938L262.688 69H261.516L259.062 60.5469H260.5L262.164 66.875L264.133 60.5469H265.297L267.305 67.0078ZM275.516 65.9453C275.516 65.3984 275.667 64.8958 275.969 64.4375C276.276 63.9792 276.859 63.4453 277.719 62.8359C277.214 62.2214 276.875 61.7266 276.703 61.3516C276.531 60.9766 276.445 60.6042 276.445 60.2344C276.445 59.3698 276.701 58.6927 277.211 58.2031C277.721 57.7135 278.414 57.4688 279.289 57.4688C280.07 57.4688 280.716 57.6979 281.227 58.1562C281.737 58.6094 281.992 59.1823 281.992 59.875C281.992 60.3333 281.875 60.7578 281.641 61.1484C281.411 61.5339 281.008 61.9401 280.43 62.3672L279.594 62.9844L282.125 66.0078C282.479 65.3307 282.656 64.5781 282.656 63.75H283.961C283.961 65.0781 283.641 66.1797 283 67.0547L284.625 69H282.891L282.133 68.1016C281.747 68.4453 281.294 68.7083 280.773 68.8906C280.258 69.0677 279.732 69.1562 279.195 69.1562C278.086 69.1562 277.195 68.862 276.523 68.2734C275.852 67.6849 275.516 66.9089 275.516 65.9453ZM279.195 67.9766C279.961 67.9766 280.661 67.6849 281.297 67.1016L278.523 63.7812L278.266 63.9688C277.396 64.6094 276.961 65.2682 276.961 65.9453C276.961 66.5599 277.159 67.0521 277.555 67.4219C277.956 67.7917 278.503 67.9766 279.195 67.9766ZM277.891 60.1875C277.891 60.6875 278.198 61.3125 278.812 62.0625L279.734 61.4141C280.089 61.1641 280.331 60.9271 280.461 60.7031C280.591 60.474 280.656 60.1979 280.656 59.875C280.656 59.526 280.526 59.237 280.266 59.0078C280.005 58.7734 279.677 58.6562 279.281 58.6562C278.854 58.6562 278.516 58.8021 278.266 59.0938C278.016 59.3802 277.891 59.7448 277.891 60.1875ZM291.469 64.5469V69H289.969V57.625H294.164C295.409 57.625 296.383 57.9427 297.086 58.5781C297.794 59.2135 298.148 60.0547 298.148 61.1016C298.148 62.2057 297.802 63.0573 297.109 63.6562C296.422 64.25 295.435 64.5469 294.148 64.5469H291.469ZM291.469 63.3203H294.164C294.966 63.3203 295.581 63.1328 296.008 62.7578C296.435 62.3776 296.648 61.8307 296.648 61.1172C296.648 60.4401 296.435 59.8984 296.008 59.4922C295.581 59.0859 294.995 58.875 294.25 58.8594H291.469V63.3203ZM304.961 69C304.878 68.8333 304.81 68.5365 304.758 68.1094C304.086 68.8073 303.284 69.1562 302.352 69.1562C301.518 69.1562 300.833 68.9219 300.297 68.4531C299.766 67.9792 299.5 67.3802 299.5 66.6562C299.5 65.776 299.833 65.0938 300.5 64.6094C301.172 64.1198 302.115 63.875 303.328 63.875H304.734V63.2109C304.734 62.7057 304.583 62.3047 304.281 62.0078C303.979 61.7057 303.534 61.5547 302.945 61.5547C302.43 61.5547 301.997 61.6849 301.648 61.9453C301.299 62.2057 301.125 62.5208 301.125 62.8906H299.672C299.672 62.4688 299.82 62.0625 300.117 61.6719C300.419 61.276 300.826 60.9635 301.336 60.7344C301.852 60.5052 302.417 60.3906 303.031 60.3906C304.005 60.3906 304.768 60.6354 305.32 61.125C305.872 61.6094 306.159 62.2786 306.18 63.1328V67.0234C306.18 67.7995 306.279 68.4167 306.477 68.875V69H304.961ZM302.562 67.8984C303.016 67.8984 303.445 67.7812 303.852 67.5469C304.258 67.3125 304.552 67.0078 304.734 66.6328V64.8984H303.602C301.831 64.8984 300.945 65.4167 300.945 66.4531C300.945 66.9062 301.096 67.2604 301.398 67.5156C301.701 67.7708 302.089 67.8984 302.562 67.8984ZM311.086 66.8828L313.055 60.5469H314.602L311.203 70.3047C310.677 71.7109 309.841 72.4141 308.695 72.4141L308.422 72.3906L307.883 72.2891V71.1172L308.273 71.1484C308.763 71.1484 309.143 71.0495 309.414 70.8516C309.69 70.6536 309.917 70.2917 310.094 69.7656L310.414 68.9062L307.398 60.5469H308.977L311.086 66.8828ZM317.258 60.5469L317.297 61.4844C317.917 60.7552 318.753 60.3906 319.805 60.3906C320.987 60.3906 321.792 60.8438 322.219 61.75C322.5 61.3438 322.865 61.0156 323.312 60.7656C323.766 60.5156 324.299 60.3906 324.914 60.3906C326.768 60.3906 327.711 61.3724 327.742 63.3359V69H326.297V63.4219C326.297 62.8177 326.159 62.3672 325.883 62.0703C325.607 61.7682 325.143 61.6172 324.492 61.6172C323.956 61.6172 323.51 61.7786 323.156 62.1016C322.802 62.4193 322.596 62.849 322.539 63.3906V69H321.086V63.4609C321.086 62.2318 320.484 61.6172 319.281 61.6172C318.333 61.6172 317.685 62.0208 317.336 62.8281V69H315.891V60.5469H317.258ZM333.438 69.1562C332.292 69.1562 331.359 68.7812 330.641 68.0312C329.922 67.276 329.562 66.2682 329.562 65.0078V64.7422C329.562 63.9036 329.721 63.1562 330.039 62.5C330.362 61.8385 330.81 61.3229 331.383 60.9531C331.961 60.5781 332.586 60.3906 333.258 60.3906C334.357 60.3906 335.211 60.7526 335.82 61.4766C336.43 62.2005 336.734 63.237 336.734 64.5859V65.1875H331.008C331.029 66.0208 331.271 66.6953 331.734 67.2109C332.203 67.7214 332.797 67.9766 333.516 67.9766C334.026 67.9766 334.458 67.8724 334.812 67.6641C335.167 67.4557 335.477 67.1797 335.742 66.8359L336.625 67.5234C335.917 68.612 334.854 69.1562 333.438 69.1562ZM333.258 61.5781C332.674 61.5781 332.185 61.7917 331.789 62.2188C331.393 62.6406 331.148 63.2344 331.055 64H335.289V63.8906C335.247 63.1562 335.049 62.5885 334.695 62.1875C334.341 61.7812 333.862 61.5781 333.258 61.5781ZM339.781 60.5469L339.828 61.6094C340.474 60.7969 341.318 60.3906 342.359 60.3906C344.146 60.3906 345.047 61.3984 345.062 63.4141V69H343.617V63.4062C343.612 62.7969 343.471 62.3464 343.195 62.0547C342.924 61.763 342.5 61.6172 341.922 61.6172C341.453 61.6172 341.042 61.7422 340.688 61.9922C340.333 62.2422 340.057 62.5703 339.859 62.9766V69H338.414V60.5469H339.781ZM349.203 58.5V60.5469H350.781V61.6641H349.203V66.9062C349.203 67.2448 349.273 67.5 349.414 67.6719C349.555 67.8385 349.794 67.9219 350.133 67.9219C350.299 67.9219 350.529 67.8906 350.82 67.8281V69C350.44 69.1042 350.07 69.1562 349.711 69.1562C349.065 69.1562 348.578 68.9609 348.25 68.5703C347.922 68.1797 347.758 67.625 347.758 66.9062V61.6641H346.219V60.5469H347.758V58.5H349.203ZM357.398 66.7578C357.398 66.3672 357.25 66.0651 356.953 65.8516C356.661 65.6328 356.148 65.4453 355.414 65.2891C354.685 65.1328 354.104 64.9453 353.672 64.7266C353.245 64.5078 352.927 64.2474 352.719 63.9453C352.516 63.6432 352.414 63.2839 352.414 62.8672C352.414 62.1745 352.706 61.5885 353.289 61.1094C353.878 60.6302 354.628 60.3906 355.539 60.3906C356.497 60.3906 357.273 60.638 357.867 61.1328C358.466 61.6276 358.766 62.2604 358.766 63.0312H357.312C357.312 62.6354 357.143 62.2943 356.805 62.0078C356.471 61.7214 356.049 61.5781 355.539 61.5781C355.013 61.5781 354.602 61.6927 354.305 61.9219C354.008 62.151 353.859 62.4505 353.859 62.8203C353.859 63.1693 353.997 63.4323 354.273 63.6094C354.549 63.7865 355.047 63.9557 355.766 64.1172C356.49 64.2786 357.076 64.4714 357.523 64.6953C357.971 64.9193 358.302 65.1901 358.516 65.5078C358.734 65.8203 358.844 66.2031 358.844 66.6562C358.844 67.4115 358.542 68.0182 357.938 68.4766C357.333 68.9297 356.549 69.1562 355.586 69.1562C354.909 69.1562 354.31 69.0365 353.789 68.7969C353.268 68.5573 352.859 68.224 352.562 67.7969C352.271 67.3646 352.125 66.8984 352.125 66.3984H353.57C353.596 66.8828 353.789 67.2682 354.148 67.5547C354.513 67.8359 354.992 67.9766 355.586 67.9766C356.133 67.9766 356.57 67.8672 356.898 67.6484C357.232 67.4245 357.398 67.1276 357.398 66.7578Z" fill="#828282"/>
<path d="M287.762 24.23L290.672 19.76L290.852 19.49C291.232 18.92 291.512 18.445 291.692 18.065C291.872 17.675 291.962 17.27 291.962 16.85C291.962 16.51 291.892 16.255 291.752 16.085C291.622 15.905 291.432 15.815 291.182 15.815C290.802 15.815 290.537 15.965 290.387 16.265C290.237 16.555 290.162 16.96 290.162 17.48V18.08H287.732V17.435C287.732 16.295 288.007 15.385 288.557 14.705C289.117 14.025 289.977 13.685 291.137 13.685C292.207 13.685 293.022 13.965 293.582 14.525C294.152 15.085 294.437 15.875 294.437 16.895C294.437 17.355 294.362 17.79 294.212 18.2C294.072 18.61 293.902 18.98 293.702 19.31C293.502 19.64 293.192 20.11 292.772 20.72L290.552 24.035H294.107V26H287.762V24.23Z" fill="black"/>
<circle cx="97" cy="20" r="17" transform="rotate(-180 97 20)" fill="white" stroke="#57A4EB" stroke-width="6"/>
<line x1="92.1213" y1="20.5042" x2="95" y2="23.3828" stroke="black" stroke-width="3" stroke-linecap="square"/>
<line x1="1.5" y1="-1.5" x2="11.4985" y2="-1.5" transform="matrix(-0.707106 0.707107 -0.707106 -0.707107 102.877 15)" stroke="black" stroke-width="3" stroke-linecap="square"/>
</svg>
