<svg width="21" height="21" viewBox="0 0 21 21" fill="none" xmlns="http://www.w3.org/2000/svg">
<path d="M3.82924 21H17.1722H18.3073H21.0005V18.3063V17.6161V3.38399V2.69324V0H18.3073H17.1722H3.82924H2.69425H0.000732422V2.69324V3.38422V17.616V18.3063V21H2.69398H3.82924V21ZM14.3562 3.28109C14.3562 3.02582 14.4471 2.80538 14.6297 2.61775C14.8118 2.43136 15.0349 2.3379 15.2996 2.3379H17.6785C17.9427 2.3379 18.1661 2.43132 18.3484 2.61775C18.5306 2.80511 18.6219 3.02582 18.6219 3.28109V5.53693C18.6219 5.80117 18.5306 6.02493 18.3484 6.20664C18.1661 6.38928 17.9427 6.48012 17.6785 6.48012H15.2994C15.0349 6.48012 14.8116 6.38928 14.6295 6.20664C14.4471 6.02497 14.356 5.80117 14.356 5.53693V3.28109H14.3562ZM13.5015 8.37238C14.3262 9.16981 14.7387 10.1336 14.7387 11.2636C14.7387 12.3942 14.3262 13.3581 13.5015 14.1551C12.6764 14.953 11.6807 15.3514 10.5142 15.3514C9.3565 15.3514 8.36553 14.953 7.54066 14.1551C6.71552 13.3584 6.30343 12.3944 6.30343 11.2636C6.30343 10.1336 6.71575 9.16957 7.54066 8.37238C8.36553 7.57491 9.35673 7.17608 10.5142 7.17608C11.6809 7.17608 12.6764 7.57518 13.5015 8.37238ZM5.64628 3.28109C5.64628 3.02582 5.73711 2.80538 5.91975 2.61775C6.10189 2.43136 6.32523 2.3379 6.5897 2.3379H7.0905C7.35474 2.3379 7.57804 2.43132 7.76045 2.61775C7.94281 2.80511 8.03392 3.02582 8.03392 3.28109V5.53693C8.03392 5.80117 7.94285 6.02493 7.76045 6.20664C7.57804 6.38928 7.35474 6.48012 7.0905 6.48012H6.5897C6.32523 6.48012 6.10189 6.38928 5.91975 6.20664C5.73738 6.02497 5.64628 5.80117 5.64628 5.53693V3.28109ZM2.33867 3.28109C2.33867 3.02582 2.42974 2.80538 2.61215 2.61775C2.79428 2.43136 3.01739 2.3379 3.28209 2.3379H3.78289C4.04713 2.3379 4.27043 2.43132 4.45284 2.61775C4.63521 2.80511 4.72632 3.02582 4.72632 3.28109V5.53693C4.72632 5.80117 4.63525 6.02493 4.45284 6.20664C4.27043 6.38928 4.04713 6.48012 3.78289 6.48012H3.28209C3.01762 6.48012 2.79428 6.38928 2.61215 6.20664C2.42978 6.02497 2.33867 5.80117 2.33867 5.53693V3.28109ZM2.33867 18.2826V9.42318H4.26641C4.084 9.99731 3.99294 10.5949 3.99294 11.2144C3.99294 12.964 4.63072 14.4572 5.90696 15.6918C7.18296 16.9267 8.71871 17.5438 10.5145 17.5438C11.6992 17.5438 12.7928 17.2619 13.7956 16.6962C14.7981 16.1318 15.5911 15.3632 16.1745 14.3928C16.7576 13.422 17.0493 12.3625 17.0493 11.2142C17.0493 10.5946 16.9582 9.99708 16.7758 9.42295H18.6214V18.2827C18.6214 18.5197 18.5394 18.718 18.3754 18.8771C18.2115 19.0373 18.0154 19.1163 17.7876 19.1163H3.17255C2.93552 19.1163 2.73727 19.0373 2.57782 18.8771C2.41837 18.7179 2.33867 18.5197 2.33867 18.2826Z" fill="white"/>
</svg>
