<svg width="23" height="22" viewBox="0 0 23 22" fill="none" xmlns="http://www.w3.org/2000/svg">
<path d="M10.7096 18.9029L11.5 19.5949L12.2904 18.9029L13.5212 17.8254L13.5229 17.8239L13.561 17.7907C15.7089 15.9176 17.5897 14.2775 18.9222 12.7097C20.2744 11.1187 21.2 9.44687 21.2 7.49591C21.2 4.26214 18.5597 1.8 15.325 1.8C13.9256 1.8 12.5737 2.2769 11.5 3.08132C10.4263 2.2769 9.07441 1.8 7.675 1.8C4.44032 1.8 1.8 4.26214 1.8 7.49591C1.8 9.44687 2.7256 11.1187 4.07783 12.7097C5.41031 14.2774 7.29114 15.9176 9.43903 17.7907L9.47705 17.8239L9.4788 17.8254L10.7096 18.9029Z" stroke="white" stroke-width="2.4"/>
</svg>
