<svg width="21" height="21" viewBox="0 0 21 21" fill="none" xmlns="http://www.w3.org/2000/svg">
<g clip-path="url(#clip0_949_3180)">
<path fill-rule="evenodd" clip-rule="evenodd" d="M0 0V21H21V0H0ZM16.2808 7.53503C16.2865 7.66302 16.2894 7.79169 16.2894 7.92088C16.2894 11.8626 13.2893 16.4075 7.80295 16.4075C6.11852 16.4075 4.55068 15.9138 3.23072 15.0673C3.46408 15.095 3.70145 15.1092 3.94228 15.1092C5.33972 15.1092 6.6258 14.6323 7.64668 13.8322C6.34145 13.8082 5.23985 12.9458 4.86023 11.7608C5.04245 11.7957 5.22932 11.8145 5.42151 11.8145C5.69354 11.8145 5.95708 11.7778 6.20737 11.7098C4.84292 11.4357 3.81471 10.2302 3.81471 8.78511C3.81471 8.77251 3.81471 8.76 3.81498 8.74754C4.21708 8.97092 4.67695 9.10514 5.16595 9.12065C4.36555 8.58577 3.83912 7.67275 3.83912 6.63803C3.83912 6.09134 3.98622 5.57903 4.24302 5.1384C5.71408 6.94306 7.91192 8.13046 10.3908 8.25498C10.3399 8.03658 10.3134 7.80891 10.3134 7.57518C10.3134 5.92805 11.649 4.59258 13.2962 4.59258C14.1541 4.59258 14.9293 4.95475 15.4734 5.5344C16.1527 5.40078 16.7911 5.15243 17.3675 4.81066C17.1448 5.50722 16.6719 6.09162 16.056 6.46085C16.6594 6.38871 17.2342 6.22832 17.7691 5.99109C17.3694 6.5892 16.8637 7.11457 16.2808 7.53503Z" fill="white"/>
</g>
<defs>
<clipPath id="clip0_949_3180">
<rect width="21" height="21" fill="white"/>
</clipPath>
</defs>
</svg>
