<svg width="40" height="46" viewBox="0 0 40 46" fill="none" xmlns="http://www.w3.org/2000/svg">
<path fill-rule="evenodd" clip-rule="evenodd" d="M25.3806 3.34194C24.4004 1.36165 22.3592 0 20 0C17.6408 0 15.5996 1.36165 14.6208 3.342C14.1254 3.12215 13.577 3 13 3C10.7909 3 9 4.79086 9 7C9 8.01442 9.37761 8.94063 9.99994 9.64576L10.0006 13H10V13.411C9.35799 14.8078 9 16.3621 9 18C9 20.1575 9.62113 22.1699 10.6943 23.8682C10.7179 23.9132 10.7419 23.9581 10.7661 24.0027L10.4341 24.0148C4.62116 24.3138 0 29.1164 0 35V44.0088L0.00546246 44.1574C0.0814917 45.1877 0.941801 46 1.99729 46H38.0027L38.1518 45.9945C39.1852 45.9187 40 45.0603 40 44.0088V35L39.9963 34.7106C39.8449 28.85 35.1096 24.1298 29.234 24.0025C29.2582 23.9579 29.2821 23.9132 29.3057 23.8682C30.3789 22.1699 31 20.1575 31 18C31 16.3626 30.6422 14.8088 30.0006 13.4124L30.001 9.64474C30.6227 8.93974 31 8.01393 31 7C31 4.79086 29.2091 3 27 3C26.423 3 25.8746 3.12215 25.3806 3.34194ZM11.8178 14.245L11.9305 14H28.0696L28.1833 14.2475L28.3364 14.6004C28.7724 15.6681 29 16.8164 29 18C29 19.7707 28.4898 21.4605 27.5445 22.9095L25.5752 25.9283L26.4802 25.9468C25.0118 27.3171 23.1085 28.2274 21 28.448V27.5H17.5L17.3006 27.5049C16.9203 27.5236 16.5538 27.5954 16.2084 27.7132C14.238 26.8545 12.6153 25.3471 11.6103 23.4607L12.4555 22.9095L12.2722 22.6165C11.4445 21.2348 11 19.6526 11 18C11 16.684 11.2814 15.4116 11.8178 14.245ZM15.1082 28.2933C13.4223 27.404 12.0077 26.0694 11.021 24.4461L11.0288 25.9999L11.009 25.999C6.1217 26 2.14433 29.8864 2.00384 34.7346L2 35L1.99865 43.9354L2 44L13.5 44.0004V31.4921C13.5 30.1835 14.1325 29.0214 15.1082 28.2933ZM14.5 44.0005L37.9296 44.0013L38 43.999L38.0002 35.0258L37.9969 34.7623C37.8752 30.0489 34.1291 26.2406 29.4403 26.0109L29.1789 26.0018L27.849 25.9747C25.9257 28.1375 23.1219 29.5 20 29.5C18.6617 29.5 17.3819 29.2496 16.2049 28.7932C15.2471 29.2519 14.5699 30.2032 14.5051 31.3165L14.5 31.4921V44.0005ZM12.0006 13H28.0007L28.0009 10.3548C27.7425 10.4318 27.4716 10.4797 27.192 10.4948L27 10.5V9.5C27.3559 9.5 27.6945 9.42562 28.001 9.29155L28.001 8.8887L28.501 8.32181C28.8217 7.95822 29 7.4956 29 7C29 5.89543 28.1046 5 27 5C26.7722 5 26.5524 5.03732 26.3458 5.10905L26.1935 5.16926L24.4397 5.94954L23.5881 4.22913C22.9176 2.87448 21.5378 2 20 2C18.5355 2 17.2146 2.79307 16.5141 4.03805L16.4138 4.22814L15.5636 5.94842L13.8096 5.1701C13.5579 5.05841 13.2849 5 13 5C11.8954 5 11 5.89543 11 7C11 7.43386 11.1367 7.84244 11.3858 8.18143L11.4994 8.32232L11.9998 8.88923L11.9999 9.29192C12.2586 9.40497 12.5401 9.4755 12.8356 9.49468L13 9.5V10.5C12.6525 10.5 12.3169 10.4494 12.0001 10.3551L12.0006 13ZM16.5 8C16.5 9.34435 18.0409 10.5 20 10.5C21.8892 10.5 23.3894 9.42543 23.4942 8.14327L23.5 8H24.5C24.5 9.96935 22.4591 11.5 20 11.5C17.6154 11.5 15.6241 10.0607 15.5056 8.17779L15.5 8H16.5ZM19 32V33H18V32H19ZM19 36V35H18V36H19ZM19 38V39H18V38H19ZM19 42V41H18V42H19Z" fill="#212121"/>
</svg>
