<svg width="43" height="42" viewBox="0 0 43 42" fill="none" xmlns="http://www.w3.org/2000/svg">
<path fill-rule="evenodd" clip-rule="evenodd" d="M30.594 0L30.4428 0.406457L30.3005 0.811629L30.1309 1.32335L30.0089 1.71352L29.8219 2.35703L29.7 2.81598L29.5848 3.29175C29.4371 3.93462 29.3171 4.60608 29.2646 5.241C29.6046 5.06512 29.8033 5.00606 29.9619 5.00606C30.0358 5.00606 30.1012 5.01857 30.1682 5.03782L30.4687 5.13706C30.6173 5.18197 30.8077 5.22421 31.0864 5.23704L31.2646 5.241C32.8494 5.241 34.3167 5.73565 35.5158 6.57669C35.6811 6.43615 35.8505 6.29731 36.024 6.16068C38.0894 4.53415 40.3247 3.52337 42.665 3.43484L43 3.4285V4.4285C40.7954 4.4285 38.6455 5.36906 36.6427 6.94632C36.529 7.03585 36.4171 7.12644 36.3071 7.2179C37.718 8.53349 38.5979 10.3953 38.5979 12.4598C38.5979 14.6962 37.5646 16.6952 35.9419 18.0195C36.6637 18.376 36.9 19.1327 36.9283 19.8403L36.9313 19.991H41.9918C41.9918 24.3354 37.2646 31.491 29.2646 34.116C27.5442 34.116 26.6848 34.8964 26.2916 35.4503L26.1872 35.6087C26.172 35.6336 26.1579 35.6577 26.1447 35.6808L26.0779 35.8075L26 35.991H28.9591C30.7391 35.991 32.8351 36.8378 32.9728 38.5315L32.98 38.7098V41.991H8.93127V38.7098C8.93127 36.9576 10.9484 36.0524 12.7462 35.994L12.9313 35.991H15.9313L15.9224 35.8749L15.9065 35.7737L15.8783 35.6487L15.8341 35.5049L15.7703 35.3473C15.5212 34.8047 14.8868 34.116 13.2706 34.116C5.40178 31.534 0.173541 24.3961 0.00423817 20.1984L0 19.991H5.01587L4.75266 19.2735L4.6503 18.9792C4.30644 17.9426 4.14861 16.8396 5.26461 15.741C6.67743 14.3503 8.09025 13.6963 9.1065 13.3889L9.41377 13.3028C9.46263 13.2903 9.51028 13.2785 9.55665 13.2676L9.81918 13.211L10.0484 13.1706L10.2233 13.1459L10.4157 13.1258L10.5979 13.116L10.5053 12.8183L10.4104 12.4803L10.3386 12.2003L10.2647 11.8847L10.1928 11.5399C10.1813 11.4804 10.17 11.42 10.159 11.3588L10.0979 10.9832C9.93127 9.83475 9.93127 8.52225 10.5979 7.866C12.5166 5.97731 14.3419 5.47594 15.9246 5.47594C16.7609 5.47594 17.5298 5.61542 18.2099 5.76421L19.0337 5.95038C19.4624 6.04527 19.8411 6.11644 20.1619 6.11644C20.6715 6.11644 21.0367 5.9375 21.222 5.38659L21.2646 5.241C21.9957 2.36243 24.8312 1.06218 27.2436 0.474851L27.7045 0.369845C27.7803 0.35375 27.8554 0.338339 27.9298 0.323583L28.3673 0.24267C28.4386 0.230416 28.509 0.218759 28.5785 0.20767L28.9833 0.147712L29.3613 0.0999812L29.869 0.0482612L30.162 0.0249984L30.594 0ZM34.8434 8.5899C35.9219 9.54587 36.5979 10.9272 36.5979 12.4598C36.5979 13.5041 36.2835 14.4974 35.7158 15.3364C34.8005 16.3523 33.4747 16.991 32 16.991C29.239 16.991 27 14.752 27 11.991C27 9.72645 28.5061 7.81311 30.5711 7.19821C30.7856 7.22656 31.0138 7.241 31.2646 7.241L31.485 7.24537C32.4151 7.28228 33.2827 7.55181 34.0294 7.99564L34.0091 8.01744L33.7178 8.33847C33.6271 8.44121 33.5428 8.53945 33.4651 8.63256L33.3995 8.71182L33.269 8.87548L34.0644 9.48152L34.113 9.419L34.2417 9.26128L34.4114 9.06322L34.7409 8.69893C34.7748 8.66259 34.8089 8.62624 34.8434 8.5899ZM27.0095 8.65923C26.3719 9.61236 26 10.7583 26 11.991C26 15.3043 28.6867 17.991 32 17.991C32.3041 17.991 32.603 17.9684 32.895 17.9247L32.2686 18.4359L34.911 19.74L34.9226 19.8181C34.928 19.868 34.9313 19.9263 34.9313 19.991V20.991H7.489L6.90211 19.3261L6.64751 18.6317L6.54081 18.3265C6.52557 18.2806 6.51159 18.2372 6.49883 18.1959L6.43691 17.9731C6.34979 17.6068 6.40604 17.4578 6.57438 17.2649L6.66764 17.1663C7.93355 15.9202 9.22855 15.3237 10.3585 15.1464L10.5537 15.1209L10.6287 15.1157L12.2744 15.0883L13.8949 16.794L14.2164 17.1204L14.4697 17.3649L14.5628 17.447C15.8304 18.5054 17.1007 18.546 19.2209 17.5021L18.7791 16.6049L18.5508 16.7148C16.9139 17.4831 16.0977 17.4258 15.2036 16.6794C15.1574 16.6408 15.0931 16.581 15.0149 16.5049L14.7427 16.2321L14.4124 15.8903L13.2232 14.6331L12.4923 12.4745L12.4366 12.2991L12.329 11.9143L12.2489 11.5901C12.1296 11.0812 12.0471 10.5854 12.0174 10.1459C11.9939 9.79933 12.0055 9.51282 12.0459 9.31421L12.0553 9.25723C12.0549 9.24754 12.0497 9.24726 12.036 9.257L12.2231 9.07928C13.4765 7.92016 14.6463 7.47594 15.9246 7.47594C16.5108 7.47594 17.0768 7.55964 17.9172 7.74784L18.9562 7.97805C19.4108 8.06833 19.7848 8.11644 20.1619 8.11644C21.6534 8.11644 22.8159 7.26693 23.2038 5.73057L23.2597 5.53675C23.7547 4.0076 25.385 2.99192 27.4896 2.4505L27.745 2.387L27.642 2.81276C27.4586 3.60493 27.3303 4.36396 27.2714 5.07619L26.9736 8.67783L27.0095 8.65923ZM34.9313 21.991L35 21.991L39.658 21.991L39.6253 22.0999C38.4003 25.8577 34.2283 30.251 28.9846 32.0988L28.905 32.125L28.647 32.1417C27.242 32.2609 26.093 32.7896 25.2392 33.6185C24.6139 34.2256 24.2618 34.8589 24.0945 35.3833L23.5819 36.991H18V37.991H23.263H24H28.9591L29.1551 37.9953C30.2451 38.0438 30.98 38.4859 30.98 38.7098L30.979 39.991H10.931L10.9313 38.7098L10.9343 38.6813C10.9489 38.6133 11.0219 38.5316 11.2553 38.3943C11.6737 38.148 12.313 37.991 12.9313 37.991H17.9249L17.9313 35.9974L17.9271 35.8244C17.8977 35.2451 17.7103 34.5717 17.2333 33.8979L17.1012 33.722C16.3721 32.8061 15.2518 32.2495 13.8214 32.1372L13.632 32.126L13.1915 31.9677C8.14154 30.0595 3.86521 25.7369 2.47558 22.2003L2.397 21.991L7 21.991L7.84151 21.991H34.9313Z" fill="#212121"/>
</svg>
