<svg width="60" height="34" viewBox="0 0 60 34" fill="none" xmlns="http://www.w3.org/2000/svg">
<path fill-rule="evenodd" clip-rule="evenodd" d="M28.5938 0C32.327 0 35.3808 2.93111 35.6111 6.63357C35.77 6.61871 35.931 6.61111 36.0938 6.61111C38.0853 6.61111 39.8131 7.74856 40.6721 9.41377C41.5025 8.83743 42.509 8.5 43.5938 8.5C46.4415 8.5 48.75 10.8256 48.75 13.6944C48.75 13.8616 48.7422 14.0269 48.7268 14.19C48.8887 14.1746 49.0528 14.1667 49.2188 14.1667C52.0665 14.1667 54.375 16.4923 54.375 19.3611C54.375 19.8522 54.1799 20.5497 54.0535 21H60V28H55V30C55 32.0822 53.6366 34 51.5694 34H8.43064C6.37188 34 5 32.3086 5 30.2222V28H0V21H6C6 18.9978 6.86193 17.0644 8.60796 16.3775C8.49687 15.9745 8.4375 15.5498 8.4375 15.1111C8.4375 12.5031 10.5362 10.3889 13.125 10.3889C13.4507 10.3889 13.7687 10.4224 14.0757 10.4861C14.2665 7.79233 16.4962 5.66667 19.2188 5.66667C20.0817 5.66667 20.8951 5.88021 21.6098 6.25771C22.0157 2.73468 24.9877 0 28.5938 0ZM24 7C24 4.30675 26.1294 2.11085 28.7965 2.00407C31.3608 2.10713 33.4531 4.15679 33.6149 6.75773L33.7309 8.62243C33.0571 10.5875 31.1935 12 29 12C26.2386 12 24 9.76142 24 7ZM23.2618 9.39219L23.3156 8.92537C24.1178 11.2947 26.3598 13 29 13C29.5054 13 29.9962 12.9375 30.4651 12.8198C30.7172 15.2798 32.6657 17.2342 35.1143 17.475C33.9411 17.6164 32.9152 18.2387 32.2362 19.1402C31.985 15.9855 29.4342 13.5 26.3158 13.5C24.1578 13.5 22.2716 14.6902 21.2312 16.4688C21.0265 15.9032 20.713 15.3948 20.3186 14.9652C22.1152 14.4778 23.4375 12.825 23.4375 10.8611C23.4375 10.3242 23.3387 9.81049 23.1583 9.33752L23.2618 9.39219ZM20.4968 20.8276C20.1067 21.3089 19.6174 21.7108 19.0551 22H20.8561C20.6995 21.6189 20.5783 21.2256 20.4968 20.8276ZM21.9534 22H30.8097C31.0993 21.3217 31.2565 20.4938 31.2565 19.6523C31.2565 16.8026 29.0401 14.5 26.3158 14.5C23.5914 14.5 21.375 16.8026 21.375 19.6523C21.375 20.4409 21.5832 21.2542 21.9534 22ZM31.8802 22H39.7002C39.6617 21.9095 39.6286 21.8167 39.601 21.7222H38.875C38.875 19.9111 37.4191 18.4444 35.625 18.4444C33.8928 18.4444 32.4758 19.8117 32.3801 21.5361L32.375 21.7222H31.9686C31.9411 21.8162 31.9116 21.9088 31.8802 22ZM39.617 20.2512C39.0774 18.768 37.745 17.669 36.1357 17.475C37.6073 17.3303 38.8983 16.5666 39.7489 15.4462C40.4114 16.9195 41.8838 17.9444 43.5938 17.9444C44.0015 17.9444 44.3957 17.8862 44.7687 17.7775C44.5947 18.2728 44.5 18.8059 44.5 19.3611C44.5 20.3175 44.7824 21.2299 45.2945 22H44.2539L44.2915 21.9226C44.4325 21.611 44.5 21.338 44.5 21.0133C44.5 19.626 43.3815 18.5 42 18.5C40.8831 18.5 39.938 19.2361 39.617 20.2512ZM45.5 19.3611C45.5 18.1367 46.0818 17.0498 46.9814 16.3655L48.9167 16.181L49.067 16.1703L49.2188 16.1667C50.9586 16.1667 52.375 17.5936 52.375 19.3611C52.375 19.4239 52.3592 19.5303 52.327 19.6814L52.2662 19.9416L52.1804 20.2697L51.6951 22H46.5126L46.5457 21.9682L46.397 21.8038C45.8229 21.1305 45.5 20.2721 45.5 19.3611ZM41.306 11.4083L41.8124 11.0569L41.9893 10.9426C42.47 10.6544 43.0185 10.5 43.5938 10.5C45.3336 10.5 46.75 11.9269 46.75 13.6944C46.75 13.7982 46.7452 13.9011 46.7356 14.0029L46.6765 14.6324C46.2776 15.9709 45.0473 16.9444 43.5938 16.9444C42.0098 16.9444 40.6909 15.7883 40.4242 14.2637C40.6745 13.6515 40.8125 12.9808 40.8125 12.2778C40.8125 12.2064 40.8111 12.1354 40.8083 12.0647C40.9463 11.8247 41.1139 11.6042 41.306 11.4083ZM39.7383 11.9664L38.8946 10.3306C38.3529 9.28039 37.2817 8.61111 36.0938 8.61111L35.9448 8.61456L35.7973 8.62488L34.749 8.72293C34.2458 10.4043 33.0251 11.7759 31.4423 12.4821C31.548 14.7198 33.381 16.5 35.625 16.5C37.2835 16.5 38.7175 15.5276 39.3956 14.1167C39.382 13.9778 39.375 13.8369 39.375 13.6944C39.375 13.0791 39.5048 12.4943 39.7383 11.9664ZM40.2563 22H43.9754L43.3094 21.6563C43.4474 21.3889 43.5 21.2183 43.5 21.0133C43.5 20.1768 42.8277 19.5 42 19.5C41.1723 19.5 40.5 20.1768 40.5 21.0133C40.5 21.2249 40.5428 21.4294 40.6243 21.6177L40.6926 21.7558L40.2563 22ZM14.4571 21.7283C14.6045 21.8276 14.7578 21.9184 14.9163 22H14.3864C14.4129 21.9103 14.4365 21.8197 14.4571 21.7283ZM13.559 20.9314C13.1709 20.4818 12.869 19.9524 12.6823 19.3659C12.6292 19.3602 12.576 19.3535 12.5227 19.3458L12.3134 19.3102L12.5006 18.3541C12.0878 17.9749 11.5779 17.7015 11.013 17.5764L11.0141 17.5801L9.34017 18.2386C8.5989 18.5303 8.06241 19.4823 8.00509 20.7694L8 21V22H13.3292C13.4639 21.6622 13.5421 21.3023 13.559 20.9314ZM17.4134 21.4735C16.3245 21.6067 15.2911 21.2289 14.5554 20.5292C14.5295 20.0734 14.4326 19.6367 14.2758 19.2301C15.7719 18.8053 16.9806 17.5669 17.297 15.9267C17.3787 15.5033 17.3953 15.0824 17.3539 14.6744C17.8423 14.9173 18.3841 15.0677 18.9568 15.1031C19.7672 15.6504 20.3448 16.5302 20.4734 17.5737C20.7098 19.4915 19.3403 21.2378 17.4134 21.4735ZM16.8636 13.0764C17.0138 13.2391 17.1804 13.3863 17.3606 13.5151C18.0414 13.5711 18.6864 13.78 19.2559 14.1109C21.0148 14.0908 22.4375 12.6451 22.4375 10.8611C22.4375 9.82615 21.9587 8.90506 21.2132 8.31011L20.6756 8.02616C20.2302 7.7909 19.7355 7.66667 19.2188 7.66667C17.6233 7.66667 16.2873 8.87153 16.0881 10.4504L16.0707 10.6274L16.0252 11.27C16.0711 11.6389 16.1781 11.9885 16.3358 12.3081C16.5389 12.5442 16.716 12.8019 16.8636 13.0764ZM15.5045 12.8781C15.6527 13.1545 15.8303 13.4124 16.0333 13.6477C16.3425 14.2715 16.4575 14.9994 16.3152 15.7372C16.0577 17.0715 15.0319 18.0574 13.7915 18.3201C13.0964 17.3251 11.9906 16.6416 10.7217 16.5196L10.5361 15.846L10.4932 15.6671C10.4563 15.4864 10.4375 15.3006 10.4375 15.1111C10.4375 13.6044 11.6441 12.3889 13.125 12.3889C13.3105 12.3889 13.4923 12.4076 13.6693 12.4443L15.4421 12.8123C15.4632 12.8339 15.484 12.8559 15.5045 12.8781ZM54 23H51.4146H8H4H2V26H4H7H53H54H58V23H54ZM7 30.2222V27H53V30L52.9951 30.1738C52.9331 31.2571 52.295 32 51.5694 32H8.43064L8.29367 31.9938C7.53085 31.9234 7 31.2611 7 30.2222Z" fill="#212121"/>
</svg>
