<svg width="61" height="39" viewBox="0 0 61 39" fill="none" xmlns="http://www.w3.org/2000/svg">
<path fill-rule="evenodd" clip-rule="evenodd" d="M55.9545 3C55.9545 1.34315 54.53 0 52.7727 0C51.0155 0 49.5909 1.34315 49.5909 3C49.5909 4.50831 50.7715 5.75664 52.3089 5.96835L49.1405 9.48659C46.4183 8.29226 41.9545 9.39542 38.494 11.7182C35.0994 9.41827 30.4485 8 25.3182 8C22.2614 8 19.3749 8.50349 16.8229 9.39696L16.2169 9.61882C10.4228 11.8348 6.5 16.1009 6.5 21C6.5 23.1645 7.26575 25.2055 8.62033 27.0007L0.5 27V35H3.5V37.0019L3.50548 37.151C3.58179 38.1849 4.44523 39 5.50139 39H49.4986L49.648 38.9946C50.6836 38.9189 51.5 38.0628 51.5 37.0019V35H54.5V27L45.235 27.0004C46.5757 25.4253 47.8201 23.7894 48.548 22.5103C48.5807 22.4529 48.6137 22.3943 48.6471 22.3345L48.8507 21.9631L49.0598 21.5669L49.2725 21.1483L49.4867 20.7093L49.7003 20.2521C49.7357 20.1746 49.7711 20.0963 49.8063 20.0175L50.0152 19.5374C50.0496 19.4562 50.0838 19.3746 50.1177 19.2925L50.3175 18.7943C50.3501 18.7105 50.3823 18.6262 50.4142 18.5416L50.6001 18.0304L50.7742 17.5133C51.166 16.2989 51.4446 15.0539 51.4926 13.9056C51.4979 13.7974 51.5004 13.6903 51.5 13.5844C51.5026 12.7817 51.3831 12.0339 51.0994 11.3868L53.4684 8.75583C53.9928 10.0684 55.3152 11 56.8636 11C58.8719 11 60.5 9.433 60.5 7.5C60.5 5.567 58.8719 4 56.8636 4C56.4545 4 56.0611 4.06505 55.6962 4.18614C55.8624 3.82233 55.9545 3.42131 55.9545 3ZM49.5 33H52.499V28.999L52.4478 28.999L41.4108 29.001L41.4112 29.0006L40.9059 29.0007L40.9065 29H30.0429L30.0431 29.0007L12.6341 28.9996L12.6352 29.001L2.5265 28.999L2.5 28.999V33H5.5H49.5ZM43.712 25.7041L41.7577 28H29.7535L29.6732 27.7226L29.6226 27.5313C29.237 25.9231 29.7533 23.9655 31.3344 21.4465C32.4397 19.6857 34.9477 17.4299 37.5662 15.4952C37.742 15.3653 37.9196 15.237 38.0987 15.1106L38.6402 14.7367L39.1889 14.3745C39.2809 14.3152 39.3731 14.2564 39.4655 14.1982L40.022 13.8556C40.115 13.7997 40.2082 13.7443 40.3014 13.6896L40.8615 13.3688L41.422 13.0638C41.6086 12.9649 41.795 12.8689 41.9809 12.7757L42.5366 12.5055C44.2501 11.6976 45.8918 11.1614 47.2271 11.0333C47.9052 11.1107 48.4668 11.3088 48.857 11.632C50.2771 12.8083 49.2374 17.255 46.8097 21.5211C46.2812 22.4499 45.375 23.6972 44.2475 25.065L43.712 25.7041ZM30.4874 20.9149C28.6727 23.806 28.1564 26.0784 28.7124 28H28.6364V28.0006L11.8801 28.0002L10.2168 25.796L10.0109 25.5131C9.01325 24.0911 8.5 22.5633 8.5 21C8.5 15.1162 15.9059 10 25.3182 10C29.9242 10 34.2187 11.2374 37.3722 13.374L38.1289 13.8867L38.0222 13.9566L37.6407 14.2148L37.1266 14.5777L36.7829 14.8315L36.1151 15.341L35.6018 15.7457C35.5126 15.817 35.4217 15.8902 35.3293 15.9652L34.7607 16.4344C33.2102 17.7353 31.4319 19.4102 30.4874 20.9149ZM5.49966 34H49.5V36.999L49.4259 37.0013L5.50139 37L5.49865 36.9284L5.49966 34Z" fill="#212121"/>
</svg>
