<svg width="20" height="12" viewBox="0 0 20 12" fill="none" xmlns="http://www.w3.org/2000/svg">
<path fill-rule="evenodd" clip-rule="evenodd" d="M19.2803 0.21967C19.5732 0.512563 19.5732 0.987437 19.2803 1.28033L11.2803 9.28033C10.9874 9.57322 10.5126 9.57322 10.2197 9.28033L6.75 5.81066L1.28033 11.2803C0.987437 11.5732 0.512563 11.5732 0.21967 11.2803C-0.0732233 10.9874 -0.0732233 10.5126 0.21967 10.2197L6.21967 4.21967C6.51256 3.92678 6.98744 3.92678 7.28033 4.21967L10.75 7.68934L18.2197 0.21967C18.5126 -0.0732233 18.9874 -0.0732233 19.2803 0.21967Z" fill="#FD7E14"/>
<path fill-rule="evenodd" clip-rule="evenodd" d="M11 0.75C11 0.335786 11.3358 0 11.75 0H18.75C19.1642 0 19.5 0.335786 19.5 0.75V7.75C19.5 8.16421 19.1642 8.5 18.75 8.5C18.3358 8.5 18 8.16421 18 7.75V1.5H11.75C11.3358 1.5 11 1.16421 11 0.75Z" fill="#FD7E14"/>
</svg>
