<svg width="60" height="42" viewBox="0 0 60 42" fill="none" xmlns="http://www.w3.org/2000/svg">
<path fill-rule="evenodd" clip-rule="evenodd" d="M35 5C35 2.23858 32.7614 0 30 0C27.2386 0 25 2.23858 25 5L25.0035 5.1598L24.1079 5.22346C23.9597 5.23492 23.8119 5.24681 23.6647 5.25911L22.7879 5.33792L21.9244 5.42657L21.0749 5.52487C20.9345 5.54204 20.7947 5.55961 20.6556 5.57757L19.8281 5.68995L19.0162 5.81146L18.2205 5.94192C18.0893 5.96439 17.9588 5.98723 17.8289 6.01043L17.0586 6.1539C16.9317 6.17853 16.8055 6.2035 16.6801 6.22882L15.9367 6.38486C15.8143 6.41155 15.6927 6.43858 15.5719 6.46594L14.8568 6.6341C14.7392 6.66278 14.6224 6.69179 14.5065 6.72112L13.8211 6.90094C13.7085 6.93154 13.5968 6.96245 13.486 6.99368L12.8317 7.18469C12.5098 7.28202 12.1961 7.38206 11.8907 7.48469L11.2914 7.69337C7.47034 9.07181 5.11424 10.8755 5.00404 12.8546L5 13L5.00019 18.0829C2.16238 18.5589 0 21.0269 0 24C0 26.9731 2.16238 29.4411 5.00019 29.9171L5 37.9981L5.0049 38.1979C5.10913 40.3152 6.86133 42 9.00719 42H50.9928L51.1928 41.9951C53.313 41.891 55 40.1408 55 37.9981L55.0008 29.9169C57.8381 29.4405 60 26.9727 60 24C60 21.0273 57.8381 18.5595 55.0008 18.0831L55 13L54.9957 12.8495C54.9167 11.4802 53.7626 10.195 51.7922 9.07666L51.341 8.83093L50.8636 8.5909C50.128 8.23524 49.306 7.89948 48.4072 7.58671L47.7967 7.38163C47.5895 7.31443 47.3786 7.24839 47.1641 7.18356L46.5099 6.99271L45.8349 6.80928C45.1496 6.62961 44.4339 6.46138 43.6908 6.30548L42.9385 6.15373C42.8117 6.12913 42.6841 6.10489 42.5557 6.081L41.7771 5.94196C41.646 5.91951 41.5141 5.89742 41.3815 5.8757L40.578 5.74984L39.7586 5.633L38.9241 5.5254C38.7838 5.50824 38.6428 5.49148 38.5013 5.47512L37.6451 5.38175C37.3575 5.35224 37.0675 5.32435 36.7754 5.29812L35.8926 5.22443L34.9975 5.16088L35 5ZM29.7041 2.0144C29.8014 2.00488 29.9001 2 30 2C31.6569 2 33 3.34315 33 5L32.9942 5.18814C32.8971 6.75735 31.5937 8 30 8C28.3949 8 27.0843 6.73953 27.0039 5.15446L27.0001 4.98066C27.0098 3.43241 28.1924 2.16241 29.7041 2.0144ZM33.4275 7.06331C32.7273 8.22391 31.4543 9 30 9C28.5453 9 27.2719 8.22342 26.5719 7.06221L25.1331 7.1556C19.7714 7.50362 14.9879 8.42225 11.5684 9.72352C8.67652 10.824 7.15373 12.0558 7.01305 12.8292L7.00327 12.9103L7 12.9999L7.00011 16H53V18H7.00019L7.00026 19.7754L5.33104 20.0554C3.4212 20.3757 2 22.0395 2 24C2 25.8929 3.32488 27.5092 5.13525 27.9067L5.33104 27.9446L7.00023 28.2246L6.9994 37.949L7.00249 38.0995C7.0522 39.1094 7.8537 39.9195 8.85549 39.9944L9.00719 40L50.9438 40.0006L51.0947 39.9975C52.1082 39.9478 52.9194 39.1473 52.9943 38.1491L53 37.9979L53.001 28.2247L54.6696 27.9445C56.5792 27.6239 58 25.9603 58 24C58 22.1073 56.6755 20.4912 54.8654 20.0934L54.6696 20.0555L53.0011 19.7753L53.0008 13.0576L52.999 12.9646C52.9516 12.1419 51.4228 10.8612 48.4273 9.72199C45.1397 8.47172 40.5925 7.57519 35.4838 7.19929L34.8681 7.15669L33.4275 7.06331Z" fill="#212121"/>
</svg>
