<svg width="50" height="41" viewBox="0 0 50 41" fill="none" xmlns="http://www.w3.org/2000/svg">
<path fill-rule="evenodd" clip-rule="evenodd" d="M1.96191 0L3.36474 0.000257677L3.93323 0.012604L4.36209 0.0326284L4.68153 0.0529801L5.02608 0.0799111L5.58681 0.134476L5.98778 0.18152L6.40875 0.238076L6.84828 0.304981L7.3049 0.383072C7.38235 0.397066 7.46045 0.411561 7.53916 0.426575L8.01868 0.523018L8.51165 0.632742C8.67805 0.671623 8.84645 0.712858 9.0166 0.756585L9.53207 0.895385C10.0523 1.04194 10.5862 1.21219 11.127 1.4099L11.67 1.61691C15.1206 2.98769 18.7653 5.5104 20.9357 10.1428C22.0243 12.4647 22.9829 17.9739 23 22C23 16.3401 26.5237 10 33.5 10C40.3638 10 43.9185 15.1692 44.0314 20.7264L44.0342 21H50V31H47.0955L46.9585 31.294L46.7806 31.6433L46.594 31.9854L46.3622 32.3851L46.1819 32.6799L45.9807 32.9948C45.9454 33.0488 45.9092 33.1035 45.8721 33.159L45.6387 33.4998L45.3837 33.8552L45.1064 34.2229C45.0584 34.2851 45.0094 34.3477 44.9594 34.4107L44.6485 34.7928C44.541 34.9214 44.4297 35.0511 44.3146 35.1816L43.9574 35.575C41.5596 38.1425 37.6676 40.8605 31.8777 40.9948L31.4286 41H18.5714C12.0615 41 7.91654 37.7553 5.55456 34.9624L5.25015 34.5931C5.20115 34.5321 5.15303 34.4713 5.10577 34.411L4.83247 34.0533C4.78863 33.9945 4.74563 33.9361 4.70348 33.8782L4.46062 33.5365L4.23766 33.208L3.93988 32.7442L3.76534 32.4571L3.53875 32.0644L3.30076 31.6221L3.10287 31.2216L3.00317 31H0V21H6.04429C6.02018 20.9731 6.02279 20.8754 6.03223 20.76L6.05433 20.5216C6.06404 20.4063 6.06732 20.3089 6.04429 20.2826C5.44 19.5813 4.98286 18.9386 4.72571 18.3896C4.43122 17.7611 4.16447 16.9369 3.92354 15.9857L3.78206 15.4003C3.73593 15.2005 3.69081 14.9961 3.64669 14.7877L3.51733 14.1513C3.49627 14.0434 3.47545 13.9346 3.45488 13.8251L3.33437 13.159L3.21964 12.4773L3.11061 11.7833L2.95753 10.7263L2.81674 9.66023L2.68792 8.59608L2.57078 7.54503L2.46499 6.51823L2.31308 4.89101L2.19043 3.41363L2.07984 1.91115L1.96191 0ZM21 22C20.9983 21.6387 20.9884 21.2639 20.971 20.8796L20.926 20.0936C20.6892 16.6432 19.92 12.6879 19.1246 10.9913C17.3801 7.26779 14.4564 4.81708 10.6857 3.37993C8.58888 2.58074 6.47883 2.17754 4.61349 2.04785L4.092 2.018L4.15869 2.9257C4.33222 5.20231 4.55302 7.4778 4.82447 9.59424L4.98896 10.81L5.10301 11.5807L5.22038 12.3178L5.34087 13.02L5.46431 13.686L5.59053 14.3142C5.61179 14.4157 5.63316 14.5156 5.65463 14.6138L5.78468 15.183C5.80655 15.2745 5.82853 15.3642 5.85059 15.4522L5.98407 15.9592C6.16347 16.6067 6.34837 17.139 6.53689 17.5413C6.697 17.8831 7.0451 18.3802 7.55008 18.9663C7.89389 19.3596 8.00048 19.7064 8.04601 20.1006L8.058 20.25L9.62606 22H15.4999L15.4905 21.7539L15.4722 21.5005C15.4681 21.4527 15.4636 21.402 15.4585 21.3487C15.4069 20.8075 15.3153 20.1959 15.1738 19.5275C14.7682 17.6127 14.0438 15.6338 12.9218 13.6991C11.791 11.7492 10.6737 10.246 9.62119 9.1336C9.25718 8.74888 8.92866 8.44104 8.642 8.2031L8.46946 8.06424L8.35182 7.97655L8.31435 7.95106L8.85752 7.11144L8.93714 7.16496L9.12231 7.30177L9.34085 7.47955C9.49735 7.61206 9.67513 7.7729 9.87224 7.96409L10.1822 8.27388C10.2362 8.32939 10.2913 8.38686 10.3476 8.44632C11.4539 9.61559 12.6176 11.1812 13.7869 13.1974C14.9649 15.2288 15.7256 17.3067 16.1521 19.3203C16.3017 20.0269 16.3989 20.6759 16.454 21.2538L16.4893 21.7049L16.4987 21.9184L16.5 21.9979L16 22H21ZM10.5221 23H3H2V29H3H4.33983H45.7709H47H48V23H47H42.0342H10.5221ZM42.0342 22H25L25.0032 21.7104C25.1207 16.3237 28.5142 12 33.5 12C38.7768 12 42.0342 15.777 42.0342 21V22ZM4.88694 30.3181L4.7549 30H45.3471L45.254 30.2195L45.0905 30.5584L44.9241 30.8756C44.1177 32.3668 42.888 34.0022 41.2158 35.4396C38.5887 37.6978 35.3668 39 31.4286 39H18.5714L18.1456 38.9949C13.9163 38.893 10.561 37.2701 7.92616 34.5962C6.96491 33.6207 6.17157 32.5725 5.54019 31.5279L5.31475 31.1438C5.28068 31.0839 5.24835 31.0261 5.21775 30.9705L5.05481 30.6648C5.03108 30.6186 5.00905 30.5748 4.98872 30.5337L4.88694 30.3181ZM34 14V15H33V14H34ZM34 17V16H33V17H34ZM34 18V19H33V18H34ZM34 21V20H33V21H34ZM36 19V20H35V19H36ZM38 20V19H37V20H38ZM40 18V19H39V18H40ZM37 18V17H36V18H37ZM38 15V16H37V15H38ZM30 16V15H29V16H30ZM31 17V18H30V17H31ZM32 20V19H31V20H32ZM30 19V20H29V19H30ZM28 19V18H27V19H28Z" fill="#212121"/>
</svg>
