<svg width="43" height="112" viewBox="0 0 43 112" fill="none" xmlns="http://www.w3.org/2000/svg">
<path fill-rule="evenodd" clip-rule="evenodd" d="M-67.4444 3.11111C-66.5854 3.11111 -65.8889 2.41461 -65.8889 1.55556C-65.8889 0.6965 -66.5854 0 -67.4444 0C-68.3035 0 -69 0.6965 -69 1.55556C-69 2.41461 -68.3035 3.11111 -67.4444 3.11111ZM-51.8889 3.11111C-51.0298 3.11111 -50.3333 2.41461 -50.3333 1.55556C-50.3333 0.6965 -51.0298 0 -51.8889 0C-52.7479 0 -53.4444 0.6965 -53.4444 1.55556C-53.4444 2.41461 -52.7479 3.11111 -51.8889 3.11111ZM-34.7778 1.55556C-34.7778 2.41461 -35.4743 3.11111 -36.3333 3.11111C-37.1924 3.11111 -37.8889 2.41461 -37.8889 1.55556C-37.8889 0.6965 -37.1924 0 -36.3333 0C-35.4743 0 -34.7778 0.6965 -34.7778 1.55556ZM-20.7778 3.11111C-19.9187 3.11111 -19.2222 2.41461 -19.2222 1.55556C-19.2222 0.6965 -19.9187 0 -20.7778 0C-21.6368 0 -22.3333 0.6965 -22.3333 1.55556C-22.3333 2.41461 -21.6368 3.11111 -20.7778 3.11111ZM-3.66666 1.55556C-3.66666 2.41461 -4.36317 3.11111 -5.22222 3.11111C-6.08128 3.11111 -6.77777 2.41461 -6.77777 1.55556C-6.77777 0.6965 -6.08128 0 -5.22222 0C-4.36317 0 -3.66666 0.6965 -3.66666 1.55556ZM10.3333 3.11111C11.1924 3.11111 11.8889 2.41461 11.8889 1.55556C11.8889 0.6965 11.1924 0 10.3333 0C9.47427 0 8.77777 0.6965 8.77777 1.55556C8.77777 2.41461 9.47427 3.11111 10.3333 3.11111ZM27.4444 1.55556C27.4444 2.41461 26.7479 3.11111 25.8889 3.11111C25.0298 3.11111 24.3333 2.41461 24.3333 1.55556C24.3333 0.6965 25.0298 0 25.8889 0C26.7479 0 27.4444 0.6965 27.4444 1.55556ZM41.4444 3.11111C42.3035 3.11111 43 2.41461 43 1.55556C43 0.6965 42.3035 0 41.4444 0C40.5854 0 39.8889 0.6965 39.8889 1.55556C39.8889 2.41461 40.5854 3.11111 41.4444 3.11111ZM-65.8889 17.1111C-65.8889 17.9702 -66.5854 18.6667 -67.4444 18.6667C-68.3035 18.6667 -69 17.9702 -69 17.1111C-69 16.2521 -68.3035 15.5556 -67.4444 15.5556C-66.5854 15.5556 -65.8889 16.2521 -65.8889 17.1111ZM-51.8889 18.6667C-51.0298 18.6667 -50.3333 17.9702 -50.3333 17.1111C-50.3333 16.2521 -51.0298 15.5556 -51.8889 15.5556C-52.7479 15.5556 -53.4444 16.2521 -53.4444 17.1111C-53.4444 17.9702 -52.7479 18.6667 -51.8889 18.6667ZM-34.7778 17.1111C-34.7778 17.9702 -35.4743 18.6667 -36.3333 18.6667C-37.1924 18.6667 -37.8889 17.9702 -37.8889 17.1111C-37.8889 16.2521 -37.1924 15.5556 -36.3333 15.5556C-35.4743 15.5556 -34.7778 16.2521 -34.7778 17.1111ZM-20.7778 18.6667C-19.9187 18.6667 -19.2222 17.9702 -19.2222 17.1111C-19.2222 16.2521 -19.9187 15.5556 -20.7778 15.5556C-21.6368 15.5556 -22.3333 16.2521 -22.3333 17.1111C-22.3333 17.9702 -21.6368 18.6667 -20.7778 18.6667ZM-3.66666 17.1111C-3.66666 17.9702 -4.36317 18.6667 -5.22222 18.6667C-6.08128 18.6667 -6.77777 17.9702 -6.77777 17.1111C-6.77777 16.2521 -6.08128 15.5556 -5.22222 15.5556C-4.36317 15.5556 -3.66666 16.2521 -3.66666 17.1111ZM10.3333 18.6667C11.1924 18.6667 11.8889 17.9702 11.8889 17.1111C11.8889 16.2521 11.1924 15.5556 10.3333 15.5556C9.47427 15.5556 8.77777 16.2521 8.77777 17.1111C8.77777 17.9702 9.47427 18.6667 10.3333 18.6667ZM27.4444 17.1111C27.4444 17.9702 26.7479 18.6667 25.8889 18.6667C25.0298 18.6667 24.3333 17.9702 24.3333 17.1111C24.3333 16.2521 25.0298 15.5556 25.8889 15.5556C26.7479 15.5556 27.4444 16.2521 27.4444 17.1111ZM41.4444 18.6667C42.3035 18.6667 43 17.9702 43 17.1111C43 16.2521 42.3035 15.5556 41.4444 15.5556C40.5854 15.5556 39.8889 16.2521 39.8889 17.1111C39.8889 17.9702 40.5854 18.6667 41.4444 18.6667ZM-65.8889 32.6667C-65.8889 33.5257 -66.5854 34.2222 -67.4444 34.2222C-68.3035 34.2222 -69 33.5257 -69 32.6667C-69 31.8076 -68.3035 31.1111 -67.4444 31.1111C-66.5854 31.1111 -65.8889 31.8076 -65.8889 32.6667ZM-51.8889 34.2222C-51.0298 34.2222 -50.3333 33.5257 -50.3333 32.6667C-50.3333 31.8076 -51.0298 31.1111 -51.8889 31.1111C-52.7479 31.1111 -53.4444 31.8076 -53.4444 32.6667C-53.4444 33.5257 -52.7479 34.2222 -51.8889 34.2222ZM-34.7778 32.6667C-34.7778 33.5257 -35.4743 34.2222 -36.3333 34.2222C-37.1924 34.2222 -37.8889 33.5257 -37.8889 32.6667C-37.8889 31.8076 -37.1924 31.1111 -36.3333 31.1111C-35.4743 31.1111 -34.7778 31.8076 -34.7778 32.6667ZM-20.7778 34.2222C-19.9187 34.2222 -19.2222 33.5257 -19.2222 32.6667C-19.2222 31.8076 -19.9187 31.1111 -20.7778 31.1111C-21.6368 31.1111 -22.3333 31.8076 -22.3333 32.6667C-22.3333 33.5257 -21.6368 34.2222 -20.7778 34.2222ZM-3.66666 32.6667C-3.66666 33.5257 -4.36317 34.2222 -5.22222 34.2222C-6.08128 34.2222 -6.77777 33.5257 -6.77777 32.6667C-6.77777 31.8076 -6.08128 31.1111 -5.22222 31.1111C-4.36317 31.1111 -3.66666 31.8076 -3.66666 32.6667ZM10.3333 34.2222C11.1924 34.2222 11.8889 33.5257 11.8889 32.6667C11.8889 31.8076 11.1924 31.1111 10.3333 31.1111C9.47427 31.1111 8.77777 31.8076 8.77777 32.6667C8.77777 33.5257 9.47427 34.2222 10.3333 34.2222ZM27.4444 32.6667C27.4444 33.5257 26.7479 34.2222 25.8889 34.2222C25.0298 34.2222 24.3333 33.5257 24.3333 32.6667C24.3333 31.8076 25.0298 31.1111 25.8889 31.1111C26.7479 31.1111 27.4444 31.8076 27.4444 32.6667ZM41.4444 34.2222C42.3035 34.2222 43 33.5257 43 32.6667C43 31.8076 42.3035 31.1111 41.4444 31.1111C40.5854 31.1111 39.8889 31.8076 39.8889 32.6667C39.8889 33.5257 40.5854 34.2222 41.4444 34.2222ZM-65.8889 48.2222C-65.8889 49.0813 -66.5854 49.7778 -67.4444 49.7778C-68.3035 49.7778 -69 49.0813 -69 48.2222C-69 47.3632 -68.3035 46.6667 -67.4444 46.6667C-66.5854 46.6667 -65.8889 47.3632 -65.8889 48.2222ZM-51.8889 49.7778C-51.0298 49.7778 -50.3333 49.0813 -50.3333 48.2222C-50.3333 47.3632 -51.0298 46.6667 -51.8889 46.6667C-52.7479 46.6667 -53.4444 47.3632 -53.4444 48.2222C-53.4444 49.0813 -52.7479 49.7778 -51.8889 49.7778ZM-34.7778 48.2222C-34.7778 49.0813 -35.4743 49.7778 -36.3333 49.7778C-37.1924 49.7778 -37.8889 49.0813 -37.8889 48.2222C-37.8889 47.3632 -37.1924 46.6667 -36.3333 46.6667C-35.4743 46.6667 -34.7778 47.3632 -34.7778 48.2222ZM-20.7778 49.7778C-19.9187 49.7778 -19.2222 49.0813 -19.2222 48.2222C-19.2222 47.3632 -19.9187 46.6667 -20.7778 46.6667C-21.6368 46.6667 -22.3333 47.3632 -22.3333 48.2222C-22.3333 49.0813 -21.6368 49.7778 -20.7778 49.7778ZM-3.66666 48.2222C-3.66666 49.0813 -4.36317 49.7778 -5.22222 49.7778C-6.08128 49.7778 -6.77777 49.0813 -6.77777 48.2222C-6.77777 47.3632 -6.08128 46.6667 -5.22222 46.6667C-4.36317 46.6667 -3.66666 47.3632 -3.66666 48.2222ZM10.3333 49.7778C11.1924 49.7778 11.8889 49.0813 11.8889 48.2222C11.8889 47.3632 11.1924 46.6667 10.3333 46.6667C9.47427 46.6667 8.77777 47.3632 8.77777 48.2222C8.77777 49.0813 9.47427 49.7778 10.3333 49.7778ZM27.4444 48.2222C27.4444 49.0813 26.7479 49.7778 25.8889 49.7778C25.0298 49.7778 24.3333 49.0813 24.3333 48.2222C24.3333 47.3632 25.0298 46.6667 25.8889 46.6667C26.7479 46.6667 27.4444 47.3632 27.4444 48.2222ZM41.4444 49.7778C42.3035 49.7778 43 49.0813 43 48.2222C43 47.3632 42.3035 46.6667 41.4444 46.6667C40.5854 46.6667 39.8889 47.3632 39.8889 48.2222C39.8889 49.0813 40.5854 49.7778 41.4444 49.7778ZM-65.8889 63.7778C-65.8889 64.6368 -66.5854 65.3333 -67.4444 65.3333C-68.3035 65.3333 -69 64.6368 -69 63.7778C-69 62.9187 -68.3035 62.2222 -67.4444 62.2222C-66.5854 62.2222 -65.8889 62.9187 -65.8889 63.7778ZM-51.8889 65.3333C-51.0298 65.3333 -50.3333 64.6368 -50.3333 63.7778C-50.3333 62.9187 -51.0298 62.2222 -51.8889 62.2222C-52.7479 62.2222 -53.4444 62.9187 -53.4444 63.7778C-53.4444 64.6368 -52.7479 65.3333 -51.8889 65.3333ZM-34.7778 63.7778C-34.7778 64.6368 -35.4743 65.3333 -36.3333 65.3333C-37.1924 65.3333 -37.8889 64.6368 -37.8889 63.7778C-37.8889 62.9187 -37.1924 62.2222 -36.3333 62.2222C-35.4743 62.2222 -34.7778 62.9187 -34.7778 63.7778ZM-20.7778 65.3333C-19.9187 65.3333 -19.2222 64.6368 -19.2222 63.7778C-19.2222 62.9187 -19.9187 62.2222 -20.7778 62.2222C-21.6368 62.2222 -22.3333 62.9187 -22.3333 63.7778C-22.3333 64.6368 -21.6368 65.3333 -20.7778 65.3333ZM-3.66666 63.7778C-3.66666 64.6368 -4.36317 65.3333 -5.22222 65.3333C-6.08128 65.3333 -6.77777 64.6368 -6.77777 63.7778C-6.77777 62.9187 -6.08128 62.2222 -5.22222 62.2222C-4.36317 62.2222 -3.66666 62.9187 -3.66666 63.7778ZM10.3333 65.3333C11.1924 65.3333 11.8889 64.6368 11.8889 63.7778C11.8889 62.9187 11.1924 62.2222 10.3333 62.2222C9.47427 62.2222 8.77777 62.9187 8.77777 63.7778C8.77777 64.6368 9.47427 65.3333 10.3333 65.3333ZM27.4444 63.7778C27.4444 64.6368 26.7479 65.3333 25.8889 65.3333C25.0298 65.3333 24.3333 64.6368 24.3333 63.7778C24.3333 62.9187 25.0298 62.2222 25.8889 62.2222C26.7479 62.2222 27.4444 62.9187 27.4444 63.7778ZM41.4444 65.3333C42.3035 65.3333 43 64.6368 43 63.7778C43 62.9187 42.3035 62.2222 41.4444 62.2222C40.5854 62.2222 39.8889 62.9187 39.8889 63.7778C39.8889 64.6368 40.5854 65.3333 41.4444 65.3333ZM-65.8889 79.3333C-65.8889 80.1924 -66.5854 80.8889 -67.4444 80.8889C-68.3035 80.8889 -69 80.1924 -69 79.3333C-69 78.4743 -68.3035 77.7778 -67.4444 77.7778C-66.5854 77.7778 -65.8889 78.4743 -65.8889 79.3333ZM-51.8889 80.8889C-51.0298 80.8889 -50.3333 80.1924 -50.3333 79.3333C-50.3333 78.4743 -51.0298 77.7778 -51.8889 77.7778C-52.7479 77.7778 -53.4444 78.4743 -53.4444 79.3333C-53.4444 80.1924 -52.7479 80.8889 -51.8889 80.8889ZM-34.7778 79.3333C-34.7778 80.1924 -35.4743 80.8889 -36.3333 80.8889C-37.1924 80.8889 -37.8889 80.1924 -37.8889 79.3333C-37.8889 78.4743 -37.1924 77.7778 -36.3333 77.7778C-35.4743 77.7778 -34.7778 78.4743 -34.7778 79.3333ZM-20.7778 80.8889C-19.9187 80.8889 -19.2222 80.1924 -19.2222 79.3333C-19.2222 78.4743 -19.9187 77.7778 -20.7778 77.7778C-21.6368 77.7778 -22.3333 78.4743 -22.3333 79.3333C-22.3333 80.1924 -21.6368 80.8889 -20.7778 80.8889ZM-3.66666 79.3333C-3.66666 80.1924 -4.36317 80.8889 -5.22222 80.8889C-6.08128 80.8889 -6.77777 80.1924 -6.77777 79.3333C-6.77777 78.4743 -6.08128 77.7778 -5.22222 77.7778C-4.36317 77.7778 -3.66666 78.4743 -3.66666 79.3333ZM10.3333 80.8889C11.1924 80.8889 11.8889 80.1924 11.8889 79.3333C11.8889 78.4743 11.1924 77.7778 10.3333 77.7778C9.47427 77.7778 8.77777 78.4743 8.77777 79.3333C8.77777 80.1924 9.47427 80.8889 10.3333 80.8889ZM27.4444 79.3333C27.4444 80.1924 26.7479 80.8889 25.8889 80.8889C25.0298 80.8889 24.3333 80.1924 24.3333 79.3333C24.3333 78.4743 25.0298 77.7778 25.8889 77.7778C26.7479 77.7778 27.4444 78.4743 27.4444 79.3333ZM41.4444 80.8889C42.3035 80.8889 43 80.1924 43 79.3333C43 78.4743 42.3035 77.7778 41.4444 77.7778C40.5854 77.7778 39.8889 78.4743 39.8889 79.3333C39.8889 80.1924 40.5854 80.8889 41.4444 80.8889ZM-65.8889 94.8889C-65.8889 95.7479 -66.5854 96.4444 -67.4444 96.4444C-68.3035 96.4444 -69 95.7479 -69 94.8889C-69 94.0298 -68.3035 93.3333 -67.4444 93.3333C-66.5854 93.3333 -65.8889 94.0298 -65.8889 94.8889ZM-51.8889 96.4444C-51.0298 96.4444 -50.3333 95.7479 -50.3333 94.8889C-50.3333 94.0298 -51.0298 93.3333 -51.8889 93.3333C-52.7479 93.3333 -53.4444 94.0298 -53.4444 94.8889C-53.4444 95.7479 -52.7479 96.4444 -51.8889 96.4444ZM-34.7778 94.8889C-34.7778 95.7479 -35.4743 96.4444 -36.3333 96.4444C-37.1924 96.4444 -37.8889 95.7479 -37.8889 94.8889C-37.8889 94.0298 -37.1924 93.3333 -36.3333 93.3333C-35.4743 93.3333 -34.7778 94.0298 -34.7778 94.8889ZM-20.7778 96.4444C-19.9187 96.4444 -19.2222 95.7479 -19.2222 94.8889C-19.2222 94.0298 -19.9187 93.3333 -20.7778 93.3333C-21.6368 93.3333 -22.3333 94.0298 -22.3333 94.8889C-22.3333 95.7479 -21.6368 96.4444 -20.7778 96.4444ZM-3.66666 94.8889C-3.66666 95.7479 -4.36317 96.4444 -5.22222 96.4444C-6.08128 96.4444 -6.77777 95.7479 -6.77777 94.8889C-6.77777 94.0298 -6.08128 93.3333 -5.22222 93.3333C-4.36317 93.3333 -3.66666 94.0298 -3.66666 94.8889ZM10.3333 96.4444C11.1924 96.4444 11.8889 95.7479 11.8889 94.8889C11.8889 94.0298 11.1924 93.3333 10.3333 93.3333C9.47427 93.3333 8.77777 94.0298 8.77777 94.8889C8.77777 95.7479 9.47427 96.4444 10.3333 96.4444ZM27.4444 94.8889C27.4444 95.7479 26.7479 96.4444 25.8889 96.4444C25.0298 96.4444 24.3333 95.7479 24.3333 94.8889C24.3333 94.0298 25.0298 93.3333 25.8889 93.3333C26.7479 93.3333 27.4444 94.0298 27.4444 94.8889ZM41.4444 96.4444C42.3035 96.4444 43 95.7479 43 94.8889C43 94.0298 42.3035 93.3333 41.4444 93.3333C40.5854 93.3333 39.8889 94.0298 39.8889 94.8889C39.8889 95.7479 40.5854 96.4444 41.4444 96.4444ZM-65.8889 110.444C-65.8889 111.303 -66.5854 112 -67.4444 112C-68.3035 112 -69 111.303 -69 110.444C-69 109.585 -68.3035 108.889 -67.4444 108.889C-66.5854 108.889 -65.8889 109.585 -65.8889 110.444ZM-51.8889 112C-51.0298 112 -50.3333 111.303 -50.3333 110.444C-50.3333 109.585 -51.0298 108.889 -51.8889 108.889C-52.7479 108.889 -53.4444 109.585 -53.4444 110.444C-53.4444 111.303 -52.7479 112 -51.8889 112ZM-34.7778 110.444C-34.7778 111.303 -35.4743 112 -36.3333 112C-37.1924 112 -37.8889 111.303 -37.8889 110.444C-37.8889 109.585 -37.1924 108.889 -36.3333 108.889C-35.4743 108.889 -34.7778 109.585 -34.7778 110.444ZM-20.7778 112C-19.9187 112 -19.2222 111.303 -19.2222 110.444C-19.2222 109.585 -19.9187 108.889 -20.7778 108.889C-21.6368 108.889 -22.3333 109.585 -22.3333 110.444C-22.3333 111.303 -21.6368 112 -20.7778 112ZM-3.66666 110.444C-3.66666 111.303 -4.36317 112 -5.22222 112C-6.08128 112 -6.77777 111.303 -6.77777 110.444C-6.77777 109.585 -6.08128 108.889 -5.22222 108.889C-4.36317 108.889 -3.66666 109.585 -3.66666 110.444ZM10.3333 112C11.1924 112 11.8889 111.303 11.8889 110.444C11.8889 109.585 11.1924 108.889 10.3333 108.889C9.47427 108.889 8.77777 109.585 8.77777 110.444C8.77777 111.303 9.47427 112 10.3333 112ZM27.4444 110.444C27.4444 111.303 26.7479 112 25.8889 112C25.0298 112 24.3333 111.303 24.3333 110.444C24.3333 109.585 25.0298 108.889 25.8889 108.889C26.7479 108.889 27.4444 109.585 27.4444 110.444ZM41.4444 112C42.3035 112 43 111.303 43 110.444C43 109.585 42.3035 108.889 41.4444 108.889C40.5854 108.889 39.8889 109.585 39.8889 110.444C39.8889 111.303 40.5854 112 41.4444 112Z" fill="white"/>
<mask id="mask0_1_154" style="mask-type:luminance" maskUnits="userSpaceOnUse" x="-69" y="0" width="112" height="112">
<path fill-rule="evenodd" clip-rule="evenodd" d="M-67.4444 3.11111C-66.5854 3.11111 -65.8889 2.41461 -65.8889 1.55556C-65.8889 0.6965 -66.5854 0 -67.4444 0C-68.3035 0 -69 0.6965 -69 1.55556C-69 2.41461 -68.3035 3.11111 -67.4444 3.11111ZM-51.8889 3.11111C-51.0298 3.11111 -50.3333 2.41461 -50.3333 1.55556C-50.3333 0.6965 -51.0298 0 -51.8889 0C-52.7479 0 -53.4444 0.6965 -53.4444 1.55556C-53.4444 2.41461 -52.7479 3.11111 -51.8889 3.11111ZM-34.7778 1.55556C-34.7778 2.41461 -35.4743 3.11111 -36.3333 3.11111C-37.1924 3.11111 -37.8889 2.41461 -37.8889 1.55556C-37.8889 0.6965 -37.1924 0 -36.3333 0C-35.4743 0 -34.7778 0.6965 -34.7778 1.55556ZM-20.7778 3.11111C-19.9187 3.11111 -19.2222 2.41461 -19.2222 1.55556C-19.2222 0.6965 -19.9187 0 -20.7778 0C-21.6368 0 -22.3333 0.6965 -22.3333 1.55556C-22.3333 2.41461 -21.6368 3.11111 -20.7778 3.11111ZM-3.66666 1.55556C-3.66666 2.41461 -4.36317 3.11111 -5.22222 3.11111C-6.08128 3.11111 -6.77777 2.41461 -6.77777 1.55556C-6.77777 0.6965 -6.08128 0 -5.22222 0C-4.36317 0 -3.66666 0.6965 -3.66666 1.55556ZM10.3333 3.11111C11.1924 3.11111 11.8889 2.41461 11.8889 1.55556C11.8889 0.6965 11.1924 0 10.3333 0C9.47427 0 8.77777 0.6965 8.77777 1.55556C8.77777 2.41461 9.47427 3.11111 10.3333 3.11111ZM27.4444 1.55556C27.4444 2.41461 26.7479 3.11111 25.8889 3.11111C25.0298 3.11111 24.3333 2.41461 24.3333 1.55556C24.3333 0.6965 25.0298 0 25.8889 0C26.7479 0 27.4444 0.6965 27.4444 1.55556ZM41.4444 3.11111C42.3035 3.11111 43 2.41461 43 1.55556C43 0.6965 42.3035 0 41.4444 0C40.5854 0 39.8889 0.6965 39.8889 1.55556C39.8889 2.41461 40.5854 3.11111 41.4444 3.11111ZM-65.8889 17.1111C-65.8889 17.9702 -66.5854 18.6667 -67.4444 18.6667C-68.3035 18.6667 -69 17.9702 -69 17.1111C-69 16.2521 -68.3035 15.5556 -67.4444 15.5556C-66.5854 15.5556 -65.8889 16.2521 -65.8889 17.1111ZM-51.8889 18.6667C-51.0298 18.6667 -50.3333 17.9702 -50.3333 17.1111C-50.3333 16.2521 -51.0298 15.5556 -51.8889 15.5556C-52.7479 15.5556 -53.4444 16.2521 -53.4444 17.1111C-53.4444 17.9702 -52.7479 18.6667 -51.8889 18.6667ZM-34.7778 17.1111C-34.7778 17.9702 -35.4743 18.6667 -36.3333 18.6667C-37.1924 18.6667 -37.8889 17.9702 -37.8889 17.1111C-37.8889 16.2521 -37.1924 15.5556 -36.3333 15.5556C-35.4743 15.5556 -34.7778 16.2521 -34.7778 17.1111ZM-20.7778 18.6667C-19.9187 18.6667 -19.2222 17.9702 -19.2222 17.1111C-19.2222 16.2521 -19.9187 15.5556 -20.7778 15.5556C-21.6368 15.5556 -22.3333 16.2521 -22.3333 17.1111C-22.3333 17.9702 -21.6368 18.6667 -20.7778 18.6667ZM-3.66666 17.1111C-3.66666 17.9702 -4.36317 18.6667 -5.22222 18.6667C-6.08128 18.6667 -6.77777 17.9702 -6.77777 17.1111C-6.77777 16.2521 -6.08128 15.5556 -5.22222 15.5556C-4.36317 15.5556 -3.66666 16.2521 -3.66666 17.1111ZM10.3333 18.6667C11.1924 18.6667 11.8889 17.9702 11.8889 17.1111C11.8889 16.2521 11.1924 15.5556 10.3333 15.5556C9.47427 15.5556 8.77777 16.2521 8.77777 17.1111C8.77777 17.9702 9.47427 18.6667 10.3333 18.6667ZM27.4444 17.1111C27.4444 17.9702 26.7479 18.6667 25.8889 18.6667C25.0298 18.6667 24.3333 17.9702 24.3333 17.1111C24.3333 16.2521 25.0298 15.5556 25.8889 15.5556C26.7479 15.5556 27.4444 16.2521 27.4444 17.1111ZM41.4444 18.6667C42.3035 18.6667 43 17.9702 43 17.1111C43 16.2521 42.3035 15.5556 41.4444 15.5556C40.5854 15.5556 39.8889 16.2521 39.8889 17.1111C39.8889 17.9702 40.5854 18.6667 41.4444 18.6667ZM-65.8889 32.6667C-65.8889 33.5257 -66.5854 34.2222 -67.4444 34.2222C-68.3035 34.2222 -69 33.5257 -69 32.6667C-69 31.8076 -68.3035 31.1111 -67.4444 31.1111C-66.5854 31.1111 -65.8889 31.8076 -65.8889 32.6667ZM-51.8889 34.2222C-51.0298 34.2222 -50.3333 33.5257 -50.3333 32.6667C-50.3333 31.8076 -51.0298 31.1111 -51.8889 31.1111C-52.7479 31.1111 -53.4444 31.8076 -53.4444 32.6667C-53.4444 33.5257 -52.7479 34.2222 -51.8889 34.2222ZM-34.7778 32.6667C-34.7778 33.5257 -35.4743 34.2222 -36.3333 34.2222C-37.1924 34.2222 -37.8889 33.5257 -37.8889 32.6667C-37.8889 31.8076 -37.1924 31.1111 -36.3333 31.1111C-35.4743 31.1111 -34.7778 31.8076 -34.7778 32.6667ZM-20.7778 34.2222C-19.9187 34.2222 -19.2222 33.5257 -19.2222 32.6667C-19.2222 31.8076 -19.9187 31.1111 -20.7778 31.1111C-21.6368 31.1111 -22.3333 31.8076 -22.3333 32.6667C-22.3333 33.5257 -21.6368 34.2222 -20.7778 34.2222ZM-3.66666 32.6667C-3.66666 33.5257 -4.36317 34.2222 -5.22222 34.2222C-6.08128 34.2222 -6.77777 33.5257 -6.77777 32.6667C-6.77777 31.8076 -6.08128 31.1111 -5.22222 31.1111C-4.36317 31.1111 -3.66666 31.8076 -3.66666 32.6667ZM10.3333 34.2222C11.1924 34.2222 11.8889 33.5257 11.8889 32.6667C11.8889 31.8076 11.1924 31.1111 10.3333 31.1111C9.47427 31.1111 8.77777 31.8076 8.77777 32.6667C8.77777 33.5257 9.47427 34.2222 10.3333 34.2222ZM27.4444 32.6667C27.4444 33.5257 26.7479 34.2222 25.8889 34.2222C25.0298 34.2222 24.3333 33.5257 24.3333 32.6667C24.3333 31.8076 25.0298 31.1111 25.8889 31.1111C26.7479 31.1111 27.4444 31.8076 27.4444 32.6667ZM41.4444 34.2222C42.3035 34.2222 43 33.5257 43 32.6667C43 31.8076 42.3035 31.1111 41.4444 31.1111C40.5854 31.1111 39.8889 31.8076 39.8889 32.6667C39.8889 33.5257 40.5854 34.2222 41.4444 34.2222ZM-65.8889 48.2222C-65.8889 49.0813 -66.5854 49.7778 -67.4444 49.7778C-68.3035 49.7778 -69 49.0813 -69 48.2222C-69 47.3632 -68.3035 46.6667 -67.4444 46.6667C-66.5854 46.6667 -65.8889 47.3632 -65.8889 48.2222ZM-51.8889 49.7778C-51.0298 49.7778 -50.3333 49.0813 -50.3333 48.2222C-50.3333 47.3632 -51.0298 46.6667 -51.8889 46.6667C-52.7479 46.6667 -53.4444 47.3632 -53.4444 48.2222C-53.4444 49.0813 -52.7479 49.7778 -51.8889 49.7778ZM-34.7778 48.2222C-34.7778 49.0813 -35.4743 49.7778 -36.3333 49.7778C-37.1924 49.7778 -37.8889 49.0813 -37.8889 48.2222C-37.8889 47.3632 -37.1924 46.6667 -36.3333 46.6667C-35.4743 46.6667 -34.7778 47.3632 -34.7778 48.2222ZM-20.7778 49.7778C-19.9187 49.7778 -19.2222 49.0813 -19.2222 48.2222C-19.2222 47.3632 -19.9187 46.6667 -20.7778 46.6667C-21.6368 46.6667 -22.3333 47.3632 -22.3333 48.2222C-22.3333 49.0813 -21.6368 49.7778 -20.7778 49.7778ZM-3.66666 48.2222C-3.66666 49.0813 -4.36317 49.7778 -5.22222 49.7778C-6.08128 49.7778 -6.77777 49.0813 -6.77777 48.2222C-6.77777 47.3632 -6.08128 46.6667 -5.22222 46.6667C-4.36317 46.6667 -3.66666 47.3632 -3.66666 48.2222ZM10.3333 49.7778C11.1924 49.7778 11.8889 49.0813 11.8889 48.2222C11.8889 47.3632 11.1924 46.6667 10.3333 46.6667C9.47427 46.6667 8.77777 47.3632 8.77777 48.2222C8.77777 49.0813 9.47427 49.7778 10.3333 49.7778ZM27.4444 48.2222C27.4444 49.0813 26.7479 49.7778 25.8889 49.7778C25.0298 49.7778 24.3333 49.0813 24.3333 48.2222C24.3333 47.3632 25.0298 46.6667 25.8889 46.6667C26.7479 46.6667 27.4444 47.3632 27.4444 48.2222ZM41.4444 49.7778C42.3035 49.7778 43 49.0813 43 48.2222C43 47.3632 42.3035 46.6667 41.4444 46.6667C40.5854 46.6667 39.8889 47.3632 39.8889 48.2222C39.8889 49.0813 40.5854 49.7778 41.4444 49.7778ZM-65.8889 63.7778C-65.8889 64.6368 -66.5854 65.3333 -67.4444 65.3333C-68.3035 65.3333 -69 64.6368 -69 63.7778C-69 62.9187 -68.3035 62.2222 -67.4444 62.2222C-66.5854 62.2222 -65.8889 62.9187 -65.8889 63.7778ZM-51.8889 65.3333C-51.0298 65.3333 -50.3333 64.6368 -50.3333 63.7778C-50.3333 62.9187 -51.0298 62.2222 -51.8889 62.2222C-52.7479 62.2222 -53.4444 62.9187 -53.4444 63.7778C-53.4444 64.6368 -52.7479 65.3333 -51.8889 65.3333ZM-34.7778 63.7778C-34.7778 64.6368 -35.4743 65.3333 -36.3333 65.3333C-37.1924 65.3333 -37.8889 64.6368 -37.8889 63.7778C-37.8889 62.9187 -37.1924 62.2222 -36.3333 62.2222C-35.4743 62.2222 -34.7778 62.9187 -34.7778 63.7778ZM-20.7778 65.3333C-19.9187 65.3333 -19.2222 64.6368 -19.2222 63.7778C-19.2222 62.9187 -19.9187 62.2222 -20.7778 62.2222C-21.6368 62.2222 -22.3333 62.9187 -22.3333 63.7778C-22.3333 64.6368 -21.6368 65.3333 -20.7778 65.3333ZM-3.66666 63.7778C-3.66666 64.6368 -4.36317 65.3333 -5.22222 65.3333C-6.08128 65.3333 -6.77777 64.6368 -6.77777 63.7778C-6.77777 62.9187 -6.08128 62.2222 -5.22222 62.2222C-4.36317 62.2222 -3.66666 62.9187 -3.66666 63.7778ZM10.3333 65.3333C11.1924 65.3333 11.8889 64.6368 11.8889 63.7778C11.8889 62.9187 11.1924 62.2222 10.3333 62.2222C9.47427 62.2222 8.77777 62.9187 8.77777 63.7778C8.77777 64.6368 9.47427 65.3333 10.3333 65.3333ZM27.4444 63.7778C27.4444 64.6368 26.7479 65.3333 25.8889 65.3333C25.0298 65.3333 24.3333 64.6368 24.3333 63.7778C24.3333 62.9187 25.0298 62.2222 25.8889 62.2222C26.7479 62.2222 27.4444 62.9187 27.4444 63.7778ZM41.4444 65.3333C42.3035 65.3333 43 64.6368 43 63.7778C43 62.9187 42.3035 62.2222 41.4444 62.2222C40.5854 62.2222 39.8889 62.9187 39.8889 63.7778C39.8889 64.6368 40.5854 65.3333 41.4444 65.3333ZM-65.8889 79.3333C-65.8889 80.1924 -66.5854 80.8889 -67.4444 80.8889C-68.3035 80.8889 -69 80.1924 -69 79.3333C-69 78.4743 -68.3035 77.7778 -67.4444 77.7778C-66.5854 77.7778 -65.8889 78.4743 -65.8889 79.3333ZM-51.8889 80.8889C-51.0298 80.8889 -50.3333 80.1924 -50.3333 79.3333C-50.3333 78.4743 -51.0298 77.7778 -51.8889 77.7778C-52.7479 77.7778 -53.4444 78.4743 -53.4444 79.3333C-53.4444 80.1924 -52.7479 80.8889 -51.8889 80.8889ZM-34.7778 79.3333C-34.7778 80.1924 -35.4743 80.8889 -36.3333 80.8889C-37.1924 80.8889 -37.8889 80.1924 -37.8889 79.3333C-37.8889 78.4743 -37.1924 77.7778 -36.3333 77.7778C-35.4743 77.7778 -34.7778 78.4743 -34.7778 79.3333ZM-20.7778 80.8889C-19.9187 80.8889 -19.2222 80.1924 -19.2222 79.3333C-19.2222 78.4743 -19.9187 77.7778 -20.7778 77.7778C-21.6368 77.7778 -22.3333 78.4743 -22.3333 79.3333C-22.3333 80.1924 -21.6368 80.8889 -20.7778 80.8889ZM-3.66666 79.3333C-3.66666 80.1924 -4.36317 80.8889 -5.22222 80.8889C-6.08128 80.8889 -6.77777 80.1924 -6.77777 79.3333C-6.77777 78.4743 -6.08128 77.7778 -5.22222 77.7778C-4.36317 77.7778 -3.66666 78.4743 -3.66666 79.3333ZM10.3333 80.8889C11.1924 80.8889 11.8889 80.1924 11.8889 79.3333C11.8889 78.4743 11.1924 77.7778 10.3333 77.7778C9.47427 77.7778 8.77777 78.4743 8.77777 79.3333C8.77777 80.1924 9.47427 80.8889 10.3333 80.8889ZM27.4444 79.3333C27.4444 80.1924 26.7479 80.8889 25.8889 80.8889C25.0298 80.8889 24.3333 80.1924 24.3333 79.3333C24.3333 78.4743 25.0298 77.7778 25.8889 77.7778C26.7479 77.7778 27.4444 78.4743 27.4444 79.3333ZM41.4444 80.8889C42.3035 80.8889 43 80.1924 43 79.3333C43 78.4743 42.3035 77.7778 41.4444 77.7778C40.5854 77.7778 39.8889 78.4743 39.8889 79.3333C39.8889 80.1924 40.5854 80.8889 41.4444 80.8889ZM-65.8889 94.8889C-65.8889 95.7479 -66.5854 96.4444 -67.4444 96.4444C-68.3035 96.4444 -69 95.7479 -69 94.8889C-69 94.0298 -68.3035 93.3333 -67.4444 93.3333C-66.5854 93.3333 -65.8889 94.0298 -65.8889 94.8889ZM-51.8889 96.4444C-51.0298 96.4444 -50.3333 95.7479 -50.3333 94.8889C-50.3333 94.0298 -51.0298 93.3333 -51.8889 93.3333C-52.7479 93.3333 -53.4444 94.0298 -53.4444 94.8889C-53.4444 95.7479 -52.7479 96.4444 -51.8889 96.4444ZM-34.7778 94.8889C-34.7778 95.7479 -35.4743 96.4444 -36.3333 96.4444C-37.1924 96.4444 -37.8889 95.7479 -37.8889 94.8889C-37.8889 94.0298 -37.1924 93.3333 -36.3333 93.3333C-35.4743 93.3333 -34.7778 94.0298 -34.7778 94.8889ZM-20.7778 96.4444C-19.9187 96.4444 -19.2222 95.7479 -19.2222 94.8889C-19.2222 94.0298 -19.9187 93.3333 -20.7778 93.3333C-21.6368 93.3333 -22.3333 94.0298 -22.3333 94.8889C-22.3333 95.7479 -21.6368 96.4444 -20.7778 96.4444ZM-3.66666 94.8889C-3.66666 95.7479 -4.36317 96.4444 -5.22222 96.4444C-6.08128 96.4444 -6.77777 95.7479 -6.77777 94.8889C-6.77777 94.0298 -6.08128 93.3333 -5.22222 93.3333C-4.36317 93.3333 -3.66666 94.0298 -3.66666 94.8889ZM10.3333 96.4444C11.1924 96.4444 11.8889 95.7479 11.8889 94.8889C11.8889 94.0298 11.1924 93.3333 10.3333 93.3333C9.47427 93.3333 8.77777 94.0298 8.77777 94.8889C8.77777 95.7479 9.47427 96.4444 10.3333 96.4444ZM27.4444 94.8889C27.4444 95.7479 26.7479 96.4444 25.8889 96.4444C25.0298 96.4444 24.3333 95.7479 24.3333 94.8889C24.3333 94.0298 25.0298 93.3333 25.8889 93.3333C26.7479 93.3333 27.4444 94.0298 27.4444 94.8889ZM41.4444 96.4444C42.3035 96.4444 43 95.7479 43 94.8889C43 94.0298 42.3035 93.3333 41.4444 93.3333C40.5854 93.3333 39.8889 94.0298 39.8889 94.8889C39.8889 95.7479 40.5854 96.4444 41.4444 96.4444ZM-65.8889 110.444C-65.8889 111.303 -66.5854 112 -67.4444 112C-68.3035 112 -69 111.303 -69 110.444C-69 109.585 -68.3035 108.889 -67.4444 108.889C-66.5854 108.889 -65.8889 109.585 -65.8889 110.444ZM-51.8889 112C-51.0298 112 -50.3333 111.303 -50.3333 110.444C-50.3333 109.585 -51.0298 108.889 -51.8889 108.889C-52.7479 108.889 -53.4444 109.585 -53.4444 110.444C-53.4444 111.303 -52.7479 112 -51.8889 112ZM-34.7778 110.444C-34.7778 111.303 -35.4743 112 -36.3333 112C-37.1924 112 -37.8889 111.303 -37.8889 110.444C-37.8889 109.585 -37.1924 108.889 -36.3333 108.889C-35.4743 108.889 -34.7778 109.585 -34.7778 110.444ZM-20.7778 112C-19.9187 112 -19.2222 111.303 -19.2222 110.444C-19.2222 109.585 -19.9187 108.889 -20.7778 108.889C-21.6368 108.889 -22.3333 109.585 -22.3333 110.444C-22.3333 111.303 -21.6368 112 -20.7778 112ZM-3.66666 110.444C-3.66666 111.303 -4.36317 112 -5.22222 112C-6.08128 112 -6.77777 111.303 -6.77777 110.444C-6.77777 109.585 -6.08128 108.889 -5.22222 108.889C-4.36317 108.889 -3.66666 109.585 -3.66666 110.444ZM10.3333 112C11.1924 112 11.8889 111.303 11.8889 110.444C11.8889 109.585 11.1924 108.889 10.3333 108.889C9.47427 108.889 8.77777 109.585 8.77777 110.444C8.77777 111.303 9.47427 112 10.3333 112ZM27.4444 110.444C27.4444 111.303 26.7479 112 25.8889 112C25.0298 112 24.3333 111.303 24.3333 110.444C24.3333 109.585 25.0298 108.889 25.8889 108.889C26.7479 108.889 27.4444 109.585 27.4444 110.444ZM41.4444 112C42.3035 112 43 111.303 43 110.444C43 109.585 42.3035 108.889 41.4444 108.889C40.5854 108.889 39.8889 109.585 39.8889 110.444C39.8889 111.303 40.5854 112 41.4444 112Z" fill="white"/>
</mask>
<g mask="url(#mask0_1_154)">
<rect x="-69" width="112" height="112" fill="white"/>
</g>
</svg>
