<svg width="40" height="40" viewBox="0 0 40 40" fill="none" xmlns="http://www.w3.org/2000/svg">
<path d="M16.2791 29.3333H8.83723C7.64653 29.3333 6.66669 28.319 6.66669 27.0864V14.2469C6.66669 13.0143 7.64653 12 8.83723 12H15.0388C17.6062 12 19.6899 14.157 19.6899 16.8148C19.6899 18.1373 19.169 19.3314 18.338 20.2044C19.876 20.9877 20.9303 22.6311 20.9303 24.5185C20.9303 27.1763 18.8465 29.3333 16.2791 29.3333ZM8.52715 21.6296V27.0864C8.52715 27.2662 8.66359 27.4074 8.83723 27.4074H16.2791C17.8171 27.4074 19.0698 26.1106 19.0698 24.5185C19.0698 22.9264 17.8171 21.6296 16.2791 21.6296H8.52715ZM8.52715 19.7037H15.0388C16.5768 19.7037 17.8295 18.4069 17.8295 16.8148C17.8295 15.2227 16.5768 13.9259 15.0388 13.9259H8.83723C8.66359 13.9259 8.52715 14.0672 8.52715 14.2469V19.7037ZM29.5132 29.3333H27.4419C24.1923 29.3333 21.5504 26.5985 21.5504 23.2346C21.5504 19.8706 24.1923 17.1358 27.4419 17.1358C30.6915 17.1358 33.3334 19.8706 33.3334 23.2346C33.3334 23.761 32.9116 24.1975 32.4031 24.1975H23.5225C23.9442 26.0336 25.5442 27.4074 27.4419 27.4074H29.5132C30.0217 27.4074 30.4434 27.844 30.4434 28.3704C30.4434 28.8968 30.0217 29.3333 29.5132 29.3333ZM23.5225 22.2716H31.3737C31.1628 21.3591 30.6617 20.5464 29.9508 19.9642C29.24 19.3821 28.3607 19.0642 27.4543 19.0617C26.5464 19.064 25.6656 19.3816 24.9527 19.9636C24.2399 20.5455 23.7363 21.3582 23.5225 22.2716ZM29.3023 15.8519H25.5814C25.0729 15.8519 24.6512 15.4153 24.6512 14.8889C24.6512 14.3625 25.0729 13.9259 25.5814 13.9259H29.3023C29.8109 13.9259 30.2326 14.3625 30.2326 14.8889C30.2326 15.4153 29.8109 15.8519 29.3023 15.8519Z" fill="white"/>
</svg>
