<svg width="40" height="40" viewBox="0 0 40 40" fill="none" xmlns="http://www.w3.org/2000/svg">
<path fill-rule="evenodd" clip-rule="evenodd" d="M25.16 31.8772C25.2 32.0905 25.08 32.3172 24.88 32.3972C23.3734 32.9972 21.72 33.3172 20.0134 33.3172C17.0667 33.3172 14.3467 32.3705 12.1467 30.7438C11.96 30.6105 11.9067 30.3438 12.0267 30.1438C12.76 28.8372 15.6267 24.6372 21.96 22.2905C22.2 22.1972 22.4667 22.3172 22.5467 22.5572C24.1334 26.8105 24.88 30.4105 25.16 31.8772ZM33.08 22.5012C32.4685 25.7263 30.6762 28.6074 28.0534 30.5812C27.7734 30.7945 27.3734 30.6345 27.3067 30.3012C27.0267 28.8612 26.3467 25.7545 25.04 22.0612C24.9467 21.7812 25.1334 21.4745 25.4267 21.4345C28.7467 21.0345 31.6534 21.6745 32.7467 21.9678C32.9734 22.0478 33.12 22.2745 33.08 22.5012ZM32.7734 19.7425C31.4134 19.5025 27.9467 18.9958 24.4 19.3825C24.1867 19.4092 24 19.2892 23.9067 19.0892C23.8534 18.9692 23.8134 18.8492 23.76 18.7292C23.5467 18.2358 23.32 17.7292 23.0934 17.2358C22.9734 16.9958 23.0934 16.7025 23.3334 16.5958C27.0667 14.9825 29.1467 12.9025 29.96 11.9692C30.16 11.7425 30.5067 11.7558 30.6934 11.9958C32.267 14.0905 33.1813 16.6063 33.32 19.2225C33.3334 19.5558 33.0667 19.7958 32.7734 19.7425ZM28.5734 10.3732C27.88 11.2132 25.9334 13.2132 22.24 14.6798C22.1331 14.723 22.0141 14.7251 21.9058 14.6857C21.7974 14.6463 21.7075 14.5682 21.6534 14.4665C20.3316 12.0967 18.8759 9.80408 17.2934 7.59984C17.0934 7.31984 17.2534 6.91984 17.5867 6.8665C18.36 6.73317 19.1734 6.6665 20 6.6665C23.2267 6.6665 26.2 7.81317 28.5067 9.73317C28.7067 9.87984 28.7334 10.1732 28.5734 10.3732ZM18.68 15.7705C13.6267 17.0372 9.16002 17.2105 7.53335 17.2372C7.22669 17.2372 7.00002 16.9438 7.08002 16.6505C8.04002 12.9172 10.6 9.79717 13.9734 8.07717C14.1734 7.9705 14.4267 8.03717 14.56 8.22384C15.2534 9.18384 17.1334 11.8905 18.9734 15.0772C19.12 15.3438 18.9867 15.6905 18.68 15.7705ZM21.2134 19.4492C21.3334 19.7025 21.1867 20.0092 20.92 20.1025C15.0134 22.0092 11.48 26.7425 10.4134 28.3692C10.24 28.6358 9.86669 28.6492 9.66669 28.4092C7.80002 26.1158 6.66669 23.4892 6.66669 20.3025V20.0625C6.66669 19.7958 6.88002 19.5825 7.14669 19.5958C8.82669 19.6625 14.3067 19.4358 20 17.7958C20.2134 17.7292 20.4534 17.8358 20.5467 18.0358C20.7734 18.5025 21 18.9692 21.2134 19.4492Z" fill="white"/>
</svg>
