<svg width="40" height="40" viewBox="0 0 40 40" fill="none" xmlns="http://www.w3.org/2000/svg">
<path d="M33.3333 25.5865C33.3333 30.4398 30.44 33.3332 25.5867 33.3332H24C23.2667 33.3332 22.6667 32.7332 22.6667 31.9998V24.3065C22.6667 23.9465 22.96 23.6398 23.32 23.6398L25.6667 23.5998C25.8533 23.5865 26.0133 23.4532 26.0533 23.2665L26.52 20.7198C26.5291 20.6621 26.5255 20.6031 26.5095 20.5469C26.4936 20.4907 26.4656 20.4386 26.4276 20.3942C26.3896 20.3499 26.3424 20.3143 26.2893 20.2899C26.2362 20.2656 26.1784 20.253 26.12 20.2532L23.28 20.2932C22.9067 20.2932 22.6133 19.9998 22.6 19.6398L22.5467 16.3732C22.5467 16.1598 22.72 15.9732 22.9467 15.9732L26.1467 15.9198C26.3733 15.9198 26.5467 15.7465 26.5467 15.5198L26.4933 12.3198C26.4933 12.0932 26.32 11.9198 26.0933 11.9198L22.4933 11.9732C21.9678 11.9812 21.449 12.0928 20.9667 12.3016C20.4844 12.5104 20.0481 12.8124 19.6827 13.1902C19.3173 13.568 19.03 14.0141 18.8374 14.5031C18.6447 14.9921 18.5505 15.5143 18.56 16.0398L18.6267 19.7065C18.64 20.0798 18.3467 20.3732 17.9733 20.3865L16.3733 20.4132C16.1467 20.4132 15.9733 20.5865 15.9733 20.8132L16.0133 23.3465C16.0133 23.5732 16.1867 23.7465 16.4133 23.7465L18.0133 23.7198C18.3867 23.7198 18.68 24.0132 18.6933 24.3732L18.8133 31.9732C18.8267 32.7198 18.2267 33.3332 17.48 33.3332H14.4133C9.55999 33.3332 6.66666 30.4398 6.66666 25.5732V14.4132C6.66666 9.55984 9.55999 6.6665 14.4133 6.6665H25.5867C30.44 6.6665 33.3333 9.55984 33.3333 14.4132V25.5865Z" fill="white"/>
</svg>
