<svg width="40" height="40" viewBox="0 0 40 40" fill="none" xmlns="http://www.w3.org/2000/svg">
<path d="M25.5867 6.6665H14.4134C9.56002 6.6665 6.66669 9.55984 6.66669 14.4132V25.5732C6.66669 30.4398 9.56002 33.3332 14.4134 33.3332H25.5734C30.4267 33.3332 33.32 30.4398 33.32 25.5865V14.4132C33.3334 9.55984 30.44 6.6665 25.5867 6.6665ZM20 25.1732C17.1467 25.1732 14.8267 22.8532 14.8267 19.9998C14.8267 17.1465 17.1467 14.8265 20 14.8265C22.8534 14.8265 25.1734 17.1465 25.1734 19.9998C25.1734 22.8532 22.8534 25.1732 20 25.1732ZM27.8934 13.1732C27.8267 13.3332 27.7334 13.4798 27.6134 13.6132C27.48 13.7332 27.3334 13.8265 27.1734 13.8932C26.9307 13.9962 26.6629 14.0245 26.404 13.9747C26.1452 13.9248 25.907 13.7989 25.72 13.6132C25.6 13.4798 25.5067 13.3332 25.44 13.1732C25.3715 13.0129 25.3353 12.8408 25.3334 12.6665C25.3334 12.4932 25.3734 12.3198 25.44 12.1598C25.5067 11.9865 25.6 11.8532 25.72 11.7198C26.0267 11.4132 26.4934 11.2665 26.92 11.3598C27.0134 11.3732 27.0934 11.3998 27.1734 11.4398C27.2534 11.4665 27.3334 11.5065 27.4134 11.5598C27.48 11.5998 27.5467 11.6665 27.6134 11.7198C27.7334 11.8532 27.8267 11.9865 27.8934 12.1598C27.96 12.3198 28 12.4932 28 12.6665C28 12.8398 27.96 13.0132 27.8934 13.1732Z" fill="white"/>
</svg>
