<svg width="173" height="23" viewBox="0 0 173 23" fill="none" xmlns="http://www.w3.org/2000/svg">
<path d="M10.396 18.136C12.5427 18.136 14.2973 17.2867 15.66 15.588L18.46 18.472C16.2387 20.9733 13.616 22.224 10.592 22.224C7.58667 22.224 5.104 21.272 3.144 19.368C1.20267 17.464 0.232 15.0653 0.232 12.172C0.232 9.26 1.22133 6.83333 3.2 4.892C5.19733 2.95067 7.63333 1.98 10.508 1.98C13.7187 1.98 16.4067 3.20267 18.572 5.648L15.856 8.728C14.4747 7.01067 12.7573 6.152 10.704 6.152C9.06133 6.152 7.652 6.69333 6.476 7.776C5.31867 8.84 4.74 10.2867 4.74 12.116C4.74 13.9267 5.29067 15.3827 6.392 16.484C7.49333 17.5853 8.828 18.136 10.396 18.136ZM34.5438 19.816C32.8451 21.4213 30.8478 22.224 28.5518 22.224C26.2745 22.224 24.3891 21.524 22.8958 20.124C21.4025 18.7053 20.6558 16.8107 20.6558 14.44C20.6558 12.0693 21.4118 10.184 22.9238 8.784C24.4545 7.384 26.2558 6.684 28.3278 6.684C30.3998 6.684 32.1545 7.30933 33.5918 8.56C35.0478 9.81067 35.7758 11.528 35.7758 13.712V15.952H24.7998C24.9305 16.7733 25.3598 17.4453 26.0878 17.968C26.8158 18.4907 27.6371 18.752 28.5518 18.752C30.0265 18.752 31.2398 18.2573 32.1918 17.268L34.5438 19.816ZM31.5198 12.956C31.4265 12.06 31.0905 11.3693 30.5118 10.884C29.9331 10.3987 29.2238 10.156 28.3838 10.156C27.5625 10.156 26.8065 10.408 26.1158 10.912C25.4251 11.416 25.0238 12.0973 24.9118 12.956H31.5198ZM43.0044 22H38.8044V1.224H43.0044V22ZM60.0282 19.816C58.3295 21.4213 56.3322 22.224 54.0362 22.224C51.7589 22.224 49.8735 21.524 48.3802 20.124C46.8869 18.7053 46.1402 16.8107 46.1402 14.44C46.1402 12.0693 46.8962 10.184 48.4082 8.784C49.9389 7.384 51.7402 6.684 53.8122 6.684C55.8842 6.684 57.6389 7.30933 59.0762 8.56C60.5322 9.81067 61.2602 11.528 61.2602 13.712V15.952H50.2842C50.4149 16.7733 50.8442 17.4453 51.5722 17.968C52.3002 18.4907 53.1215 18.752 54.0362 18.752C55.5109 18.752 56.7242 18.2573 57.6762 17.268L60.0282 19.816ZM57.0042 12.956C56.9109 12.06 56.5749 11.3693 55.9962 10.884C55.4175 10.3987 54.7082 10.156 53.8682 10.156C53.0469 10.156 52.2909 10.408 51.6002 10.912C50.9095 11.416 50.5082 12.0973 50.3962 12.956H57.0042ZM75.6288 17.324C75.6288 18.7987 75.0781 19.984 73.9768 20.88C72.8941 21.776 71.5128 22.224 69.8328 22.224C68.7128 22.224 67.5461 22.028 66.3328 21.636C65.1194 21.2253 64.0274 20.628 63.0568 19.844L64.9048 17.212C66.4728 18.4253 68.1434 19.032 69.9168 19.032C70.4581 19.032 70.8874 18.9293 71.2048 18.724C71.5221 18.5 71.6808 18.2107 71.6808 17.856C71.6808 17.5013 71.4568 17.1747 71.0088 16.876C70.5794 16.5773 69.9448 16.2973 69.1048 16.036C68.2834 15.7747 67.6488 15.5507 67.2008 15.364C66.7714 15.1773 66.2768 14.9067 65.7168 14.552C64.5781 13.8427 64.0088 12.7973 64.0088 11.416C64.0088 10.016 64.5688 8.87733 65.6888 8C66.8088 7.12267 68.2554 6.684 70.0288 6.684C71.8021 6.684 73.5754 7.28133 75.3488 8.476L73.7808 11.276C72.4741 10.38 71.1674 9.932 69.8608 9.932C68.5728 9.932 67.9288 10.2867 67.9288 10.996C67.9288 11.388 68.1341 11.696 68.5448 11.92C68.9554 12.144 69.6368 12.4053 70.5888 12.704C71.5408 13.0027 72.2128 13.236 72.6048 13.404C73.0154 13.5533 73.5008 13.796 74.0608 14.132C75.1061 14.7667 75.6288 15.8307 75.6288 17.324ZM83.7383 9.96V16.708C83.7383 17.2867 83.8876 17.744 84.1863 18.08C84.4849 18.3973 84.8396 18.556 85.2503 18.556C86.0343 18.556 86.6969 18.2013 87.2383 17.492L88.8063 20.432C87.4996 21.6267 86.1183 22.224 84.6623 22.224C83.2249 22.224 82.0023 21.748 80.9943 20.796C80.0049 19.844 79.5103 18.5467 79.5103 16.904V9.96H77.7463V6.936H79.5103V2.428H83.7383V6.936H87.3783V9.96H83.7383ZM95.2583 22H91.0583V6.936H95.2583V22ZM91.3943 5.032C90.9276 4.54667 90.6943 3.95867 90.6943 3.268C90.6943 2.57733 90.9276 1.99867 91.3943 1.532C91.8796 1.04667 92.4676 0.803999 93.1583 0.803999C93.849 0.803999 94.4276 1.04667 94.8943 1.532C95.3796 1.99867 95.6223 2.57733 95.6223 3.268C95.6223 3.95867 95.3796 4.54667 94.8943 5.032C94.4276 5.49867 93.849 5.732 93.1583 5.732C92.4676 5.732 91.8796 5.49867 91.3943 5.032ZM112.03 22H108.082V20.18C106.999 21.5427 105.655 22.224 104.05 22.224C102.463 22.224 101.129 21.7667 100.046 20.852C98.9634 19.9187 98.4221 18.6867 98.4221 17.156C98.4221 15.6067 98.9821 14.4493 100.102 13.684C101.222 12.9187 102.753 12.536 104.694 12.536H107.83V12.452C107.83 10.8467 106.981 10.044 105.282 10.044C104.554 10.044 103.779 10.1933 102.958 10.492C102.155 10.772 101.474 11.1267 100.914 11.556L99.0381 8.84C101.017 7.40267 103.275 6.684 105.814 6.684C107.643 6.684 109.137 7.14133 110.294 8.056C111.451 8.97067 112.03 10.4173 112.03 12.396V22ZM107.802 16.26V15.532H105.17C103.49 15.532 102.65 16.0547 102.65 17.1C102.65 17.6413 102.846 18.0613 103.238 18.36C103.649 18.64 104.227 18.78 104.974 18.78C105.721 18.78 106.374 18.556 106.934 18.108C107.513 17.6413 107.802 17.0253 107.802 16.26ZM120.059 22H115.859V1.224H120.059V22ZM131.838 2.428H136.206V22H131.838V2.428ZM144.668 13.6V22H140.468V6.936H144.668V8.616C145.938 7.328 147.366 6.684 148.952 6.684C150.539 6.684 151.864 7.244 152.928 8.364C154.011 9.484 154.552 10.9773 154.552 12.844V22H150.352V13.488C150.352 11.1733 149.503 10.016 147.804 10.016C146.964 10.016 146.227 10.324 145.592 10.94C144.976 11.5373 144.668 12.424 144.668 13.6ZM162.551 13.6V22H158.351V6.936H162.551V8.616C163.821 7.328 165.249 6.684 166.835 6.684C168.422 6.684 169.747 7.244 170.811 8.364C171.894 9.484 172.435 10.9773 172.435 12.844V22H168.235V13.488C168.235 11.1733 167.386 10.016 165.687 10.016C164.847 10.016 164.11 10.324 163.475 10.94C162.859 11.5373 162.551 12.424 162.551 13.6Z" fill="#FF7629"/>
</svg>
