<svg width="80" height="22" viewBox="0 0 80 22" fill="none" xmlns="http://www.w3.org/2000/svg">
<path d="M6.308 16.65H12.659V21H0.624V0.554999H6.308V16.65ZM24.6711 21.203C22.7571 21.203 20.9978 20.7583 19.3931 19.869C17.7885 18.9603 16.5125 17.7133 15.5651 16.128C14.6371 14.5233 14.1731 12.7157 14.1731 10.705C14.1731 8.69433 14.6371 6.89633 15.5651 5.311C16.5125 3.70633 17.7885 2.45933 19.3931 1.57C20.9978 0.680666 22.7571 0.235999 24.6711 0.235999C26.6045 0.235999 28.3638 0.680666 29.9491 1.57C31.5538 2.45933 32.8201 3.70633 33.7481 5.311C34.6761 6.89633 35.1401 8.69433 35.1401 10.705C35.1401 12.7157 34.6761 14.5233 33.7481 16.128C32.8201 17.7133 31.5538 18.9603 29.9491 19.869C28.3445 20.7583 26.5851 21.203 24.6711 21.203ZM24.6711 15.925C26.1211 15.925 27.2618 15.4513 28.0931 14.504C28.9438 13.5567 29.3691 12.2903 29.3691 10.705C29.3691 9.081 28.9438 7.805 28.0931 6.877C27.2618 5.92967 26.1211 5.456 24.6711 5.456C23.2018 5.456 22.0515 5.92967 21.2201 6.877C20.3888 7.805 19.9731 9.081 19.9731 10.705C19.9731 12.3097 20.3888 13.5857 21.2201 14.533C22.0515 15.461 23.2018 15.925 24.6711 15.925ZM50.7453 7.283C50.4166 6.74167 49.9623 6.326 49.3823 6.036C48.8216 5.746 48.1546 5.601 47.3813 5.601C45.9506 5.601 44.8196 6.065 43.9883 6.993C43.1763 7.921 42.7703 9.168 42.7703 10.734C42.7703 12.4933 43.2053 13.837 44.0753 14.765C44.9646 15.6737 46.2503 16.128 47.9323 16.128C49.9236 16.128 51.3446 15.229 52.1953 13.431H46.4823V9.342H57.0963V14.852C56.6516 15.9347 55.9943 16.9497 55.1243 17.897C54.2736 18.8443 53.191 19.6273 51.8763 20.246C50.5616 20.8453 49.0633 21.145 47.3813 21.145C45.332 21.145 43.5146 20.71 41.9293 19.84C40.3633 18.9507 39.1453 17.723 38.2753 16.157C37.4246 14.5717 36.9993 12.764 36.9993 10.734C36.9993 8.72333 37.4246 6.935 38.2753 5.369C39.1453 3.78367 40.3633 2.556 41.9293 1.686C43.4953 0.796666 45.303 0.352 47.3523 0.352C49.9236 0.352 52.0503 0.970666 53.7323 2.208C55.4143 3.44533 56.4583 5.137 56.8643 7.283H50.7453ZM69.4455 21.203C67.5315 21.203 65.7722 20.7583 64.1675 19.869C62.5629 18.9603 61.2869 17.7133 60.3395 16.128C59.4115 14.5233 58.9475 12.7157 58.9475 10.705C58.9475 8.69433 59.4115 6.89633 60.3395 5.311C61.2869 3.70633 62.5629 2.45933 64.1675 1.57C65.7722 0.680666 67.5315 0.235999 69.4455 0.235999C71.3789 0.235999 73.1382 0.680666 74.7235 1.57C76.3282 2.45933 77.5945 3.70633 78.5225 5.311C79.4505 6.89633 79.9145 8.69433 79.9145 10.705C79.9145 12.7157 79.4505 14.5233 78.5225 16.128C77.5945 17.7133 76.3282 18.9603 74.7235 19.869C73.1189 20.7583 71.3595 21.203 69.4455 21.203ZM69.4455 15.925C70.8955 15.925 72.0362 15.4513 72.8675 14.504C73.7182 13.5567 74.1435 12.2903 74.1435 10.705C74.1435 9.081 73.7182 7.805 72.8675 6.877C72.0362 5.92967 70.8955 5.456 69.4455 5.456C67.9762 5.456 66.8259 5.92967 65.9945 6.877C65.1632 7.805 64.7475 9.081 64.7475 10.705C64.7475 12.3097 65.1632 13.5857 65.9945 14.533C66.8259 15.461 67.9762 15.925 69.4455 15.925Z" fill="white"/>
</svg>
