<svg width="70" height="24" viewBox="0 0 70 24" fill="none" xmlns="http://www.w3.org/2000/svg">
<path fill-rule="evenodd" clip-rule="evenodd" d="M20.7333 7.2C22.5289 7.2 23.8533 7.56444 24.7067 8.29333C25.5098 8.97935 25.935 10.1457 25.9822 11.7923L25.9867 12.1067V20.9333H22.8133L22.4133 18.9067L22.2059 19.1355C20.8793 20.5474 19.304 21.2533 17.48 21.2533C16.2 21.2533 15.1556 20.9156 14.3467 20.24C13.5917 19.6095 13.1891 18.7467 13.1387 17.6516L13.1333 17.4133V16.0533L13.1388 15.8284C13.1866 14.8691 13.5448 14.113 14.2133 13.56C14.8779 13.0103 15.7811 12.7142 16.9229 12.672L17.2133 12.6667H21.96V12.08L21.9555 11.8839C21.9283 11.3151 21.7787 10.9227 21.5067 10.7067C21.2044 10.4667 20.6267 10.3467 19.7733 10.3467C18.4113 10.3467 16.7084 10.4073 14.6647 10.5284L14.1467 10.56L13.7733 7.86667L14.5149 7.74C16.7245 7.38 18.7973 7.2 20.7333 7.2ZM33.1333 2V6.24L33.1291 6.64757C33.1062 7.71512 32.9921 8.62815 32.7867 9.38667C34.2089 7.92889 35.7911 7.2 37.5333 7.2C39.2578 7.2 40.5022 7.73778 41.2667 8.81333C42.0311 9.88889 42.4133 11.6622 42.4133 14.1333C42.4133 15.2356 42.32 16.1911 42.1333 17C41.9467 17.8089 41.6267 18.5467 41.1733 19.2133C40.72 19.88 40.0533 20.3867 39.1733 20.7333C38.2933 21.08 37.2044 21.2533 35.9067 21.2533C34.8222 21.2533 33.6089 21.1644 32.2667 20.9867C31.0465 20.8251 30.065 20.6047 29.3223 20.3255L29.1067 20.24V2H33.1333ZM58.7616 7.4L61.6568 12.6224H61.9299L64.8524 7.4H69.0313L65.1255 14.0096L69.3318 21H65.1255L61.8753 15.288H61.7114L58.4611 21H54.2549L58.4611 14.0096L54.5553 7.4H58.7616ZM4.10667 2.18667C8.08889 2.18667 10.8889 2.28444 12.5067 2.48L12.2933 5.49333H5.6L5.41333 5.49854C4.99333 5.52285 4.68222 5.63222 4.48 5.82667C4.24889 6.04889 4.13333 6.4 4.13333 6.88V10.08H11.28V13.0933H4.13333V20.9333H0V6.05333L0.00571429 5.7983C0.0552381 4.71054 0.426667 3.84889 1.12 3.21333C1.86667 2.52889 2.86222 2.18667 4.10667 2.18667ZM53.76 7.2L53.36 10.9067H52.2667L52.107 10.9103C51.2768 10.9468 49.97 11.2567 48.1867 11.84V20.9333H44.1867V7.6H47.3067L47.6533 9.54667L47.9422 9.30615C49.6743 7.90205 51.3825 7.2 53.0667 7.2H53.76ZM35.9333 10.4C35.24 10.4 34.3781 10.7296 33.3475 11.3887L33.1067 11.5467V18.0267L33.4887 18.1105C34.255 18.2629 35.0343 18.3238 35.8267 18.2933C36.7511 18.2578 37.3956 17.9511 37.76 17.3733C38.1244 16.7956 38.3067 15.7244 38.3067 14.16C38.3067 12.6844 38.1511 11.6889 37.84 11.1733C37.5289 10.6578 36.8933 10.4 35.9333 10.4ZM21.96 15.0933H18.36L18.205 15.0982C17.505 15.1439 17.1317 15.5095 17.085 16.1949L17.08 16.3467V16.88L17.0854 17.0383C17.1435 17.8572 17.6661 18.2667 18.6533 18.2667C19.6438 18.2667 20.6649 17.8911 21.7167 17.14L21.96 16.96V15.0933Z" fill="#212121"/>
</svg>
